<svg width="795" height="671" viewBox="0 0 795 671" fill="none" xmlns="http://www.w3.org/2000/svg">
<g clip-path="url(#clip0_1308_2034)">
<path d="M98.5482 -18.0867C116.913 -46.9966 91.2081 -41.4128 116.349 -63.9849C145.481 -90.1393 132.882 -108.969 240.11 -128.141C280.686 -135.396 330.222 -78.1304 371.438 -77.6116C420.743 -76.991 473.442 -148.085 522.289 -141.343C526.853 -140.713 531.68 -139.94 535.185 -136.948C538.193 -134.38 539.762 -130.567 541.709 -127.124C554.979 -103.666 586.018 -97.3558 612.924 -98.7653C639.83 -100.175 667.392 -106.702 693.256 -99.1507C723.901 -90.2039 746.489 -62.9984 776.93 -53.3807C791.703 -48.7133 807.607 -48.4511 822.318 -43.592C837.029 -38.733 851.395 -27.0711 851.989 -11.5836C852.391 -1.09949 846.481 8.41168 842.561 18.1427C834.107 39.1245 849.847 33.2457 849.847 56.1404C849.847 102.481 836.139 77.875 818.193 106.711C802.944 131.212 818.193 178.077 834.994 206.632C843.666 221.37 853.662 235.443 858.824 251.746C863.124 265.329 860.057 280.046 856.515 293.847C850.892 315.758 844.126 337.375 836.256 358.582C832.188 369.541 827.767 380.675 827.523 392.362C827.132 411.073 837.363 428.1 843.301 445.847C859.873 495.376 842.733 549.183 825.683 598.55C819.562 616.273 812.619 635.136 797.398 646.078C783.591 656.003 765.578 657.459 748.579 657.73C712.455 658.304 676.273 655.079 640.82 648.125C626.607 645.337 611.051 640.949 603.41 628.64C600.241 623.537 598.57 617.232 593.823 613.552C589.894 610.505 584.654 609.91 579.706 609.426C549.473 606.472 526.273 623.026 496.04 620.072C486.817 619.171 470.297 598.783 461.393 601.352C452.449 603.932 444.875 609.761 436.927 614.607C385.088 646.211 381.055 556.14 331.476 521.094C299.559 498.532 196.083 636.214 160.493 620.062C147.229 614.043 143.786 519.187 134.53 507.937C122.666 493.517 124.292 472.036 131.168 454.672C140.765 430.437 156.901 411.717 160.397 385.039C163.958 357.876 119.32 363.151 109.471 337.823C93.5307 296.833 114.848 264.4 97.8178 223.851C85.3215 194.098 108.277 112.448 106.272 80.2441C104.515 52.02 103.688 41.3099 119.015 16.2039C119.444 15.5008 98.1038 -17.387 98.5482 -18.0867Z" fill="#FDF5DA"/>
<path d="M99.473 -17.5459C104.484 -25.5672 107.905 -33.3957 106.108 -42.8597C105.523 -45.9417 105.334 -48.5596 106.783 -51.4642C109.356 -56.6203 114.203 -60.5146 118.342 -64.3545C126.678 -72.0902 132.89 -81.5666 140.647 -89.8083C150.896 -100.698 164.327 -107.239 178.283 -112.111C190.719 -116.453 203.552 -119.63 216.416 -122.41C230.649 -125.485 245.068 -129.596 259.577 -126.211C285.277 -120.215 307.214 -102.618 330.054 -90.2556C340.583 -84.557 351.8 -79.1782 363.719 -77.2488C374.648 -75.4796 385.58 -77.4469 395.873 -81.2691C420.328 -90.3512 441.138 -107.246 463.101 -120.888C473.995 -127.653 485.382 -134.102 497.713 -137.842C503.116 -139.48 508.704 -140.568 514.359 -140.707C521.53 -140.882 531.114 -140.312 536.074 -134.513C538.539 -131.633 539.89 -127.905 541.899 -124.719C543.554 -122.096 545.479 -119.64 547.614 -117.392C551.914 -112.865 557.109 -109.221 562.677 -106.425C574.577 -100.451 588.068 -98.0532 601.284 -97.5884C618.749 -96.974 636.094 -100.139 653.481 -101.247C671.805 -102.415 689.787 -100.918 706.516 -92.848C720.604 -86.0525 733.024 -76.3967 746.055 -67.8579C759.542 -59.0192 773.399 -52.3031 789.327 -49.2545C805.716 -46.1177 823.28 -45.0914 837.128 -34.748C843.409 -30.0564 848.745 -23.5342 850.402 -15.7197C852.312 -6.70546 848.592 1.95868 844.963 10.0101C842.412 15.6702 839.021 21.8533 838.996 28.2332C838.981 31.8855 840.522 34.7659 842.607 37.6503C845.308 41.386 847.443 45.0554 848.268 49.6753C849.599 57.131 848.953 65.6609 847.806 73.1258C846.648 80.6619 844.023 85.3836 837.125 88.6089C829.751 92.0563 824.007 96.4299 819.254 103.169C803.692 125.237 812.105 156.86 820.989 179.881C826.473 194.093 833.924 207.008 841.842 219.971C851.612 235.964 861.238 252.58 859.606 271.98C858.819 281.336 856.333 290.49 853.921 299.531C851.403 308.969 848.673 318.35 845.733 327.665C842.794 336.98 839.645 346.229 836.29 355.403C833.258 363.69 829.872 371.919 827.959 380.561C824.2 397.548 829.162 413.09 835.539 428.749C842.492 445.82 847.787 462.595 848.756 481.153C850.69 518.177 839.516 554.572 827.751 589.221C822.597 604.401 817.843 620.497 808.281 633.601C797.73 648.06 781.728 654.146 764.406 655.86C746.399 657.642 727.918 656.888 709.888 655.823C689.89 654.642 669.962 652.299 650.237 648.798C635.686 646.215 618.138 643.815 607.573 632.345C602.577 626.921 601.129 619.159 595.908 613.981C590.996 609.109 583.481 608.53 576.935 608.136C560.903 607.172 545.578 611.861 530.179 615.568C522.101 617.513 513.909 619.098 505.58 619.326C502.072 619.421 497.982 619.682 494.589 618.676C492.001 617.908 489.634 616.265 487.444 614.739C482.675 611.415 478.284 607.572 473.443 604.349C470.161 602.164 466.072 599.581 461.936 600.154C454.85 601.136 447.867 606.354 442.024 610.11C436.885 613.413 431.746 616.778 425.885 618.66C407.169 624.667 394.796 609.377 385.957 595.07C374.325 576.245 365.266 555.875 351.258 538.572C347.658 534.125 343.756 529.912 339.479 526.107C336.497 523.454 333.234 520.389 329.524 518.786C325.074 516.863 320.022 517.393 315.476 518.681C300.748 522.855 287.704 533.499 275.923 542.831C259.926 555.504 244.758 569.184 229.179 582.358C215.426 593.989 201.312 606.094 185.306 614.554C179.96 617.38 173.972 620.078 167.827 620.297C162.453 620.489 159.255 618.732 157.058 613.855C153.783 606.582 152.386 598.322 150.956 590.533C149.074 580.284 147.633 569.956 146.192 559.638C144.783 549.557 143.448 539.458 141.72 529.426C140.595 522.897 139.642 515.75 136.801 509.689C134.716 505.239 131.294 501.797 129.543 497.054C126.908 489.911 126.424 482.127 127.228 474.601C128.966 458.351 136.968 443.863 144.562 429.704C152.051 415.74 159.49 401.28 161.43 385.324C162.444 376.983 158.934 370.457 152.086 365.812C144.143 360.424 134.647 357.786 126.239 353.247C121.75 350.823 117.412 347.884 114.192 343.869C109.566 338.101 107.688 330.135 106.23 323.042C102.875 306.72 104.644 290.192 105.557 273.728C106.449 257.641 105.772 241.566 99.9652 226.35C91.8608 205.114 95.4297 181.3 98.3234 159.291C101.422 135.727 106.56 112.083 107.398 88.2817C107.828 76.0746 105.662 63.9163 106.741 51.6999C107.283 45.5552 108.755 39.5733 111.046 33.8489C112.431 30.3877 114.091 27.0385 115.871 23.7655C116.99 21.7085 120.196 18.2005 120.053 15.8731C119.947 14.1464 117.861 11.7647 117.016 10.3637C114.755 6.61917 112.435 2.91078 110.124 -0.802719C107.805 -4.52985 105.478 -8.25233 103.195 -12.0018C102.345 -13.3961 101.493 -14.7903 100.683 -16.2076C100.371 -16.7535 99.692 -18.6245 99.5809 -17.8019C99.763 -19.1502 97.6996 -19.7338 97.5156 -18.3715C97.2915 -16.7123 99.1701 -14.5362 99.9503 -13.2284C102.249 -9.37491 104.635 -5.57231 107.005 -1.76241C109.521 2.28343 112.051 6.32176 114.528 10.3925C115.358 11.7569 116.194 13.1199 116.982 14.509C118.094 16.4693 117.924 16.0853 116.634 18.0873C109.708 28.8352 105.157 41.2906 104.426 54.0777C103.731 66.2477 105.793 78.3597 105.157 90.5218C103.867 115.165 98.6075 139.549 95.5789 164.009C94.0787 176.124 92.8253 188.359 93.02 200.582C93.0979 205.472 93.4182 210.382 94.2787 215.202C95.2728 220.768 97.616 225.702 99.3558 231.05C109.848 263.299 96.561 297.272 105.647 329.744C107.272 335.553 109.194 341.336 113.171 345.976C116.287 349.612 120.294 352.401 124.455 354.713C132.955 359.435 142.586 362.078 150.715 367.471C154.463 369.958 157.749 373.254 158.967 377.702C160.764 384.267 158.312 392.043 156.403 398.316C151.658 413.915 142.771 427.705 135.593 442.218C128.95 455.651 123.716 470.148 124.901 485.376C125.427 492.138 127.274 498.856 130.864 504.65C132.684 507.586 134.717 509.788 135.839 513.083C138.371 520.523 139.47 528.528 140.68 536.265C142.331 546.813 143.708 557.402 145.221 567.97C146.665 578.05 148.152 588.146 150.27 598.111C151.656 604.628 153.024 612.138 156.743 617.82C162.731 626.971 177.443 620.925 184.851 617.197C200.824 609.161 214.889 597.164 228.496 585.727C244.355 572.396 259.74 558.491 275.926 545.55C287.967 535.923 301.656 524.423 316.93 520.507C322.182 519.161 327.198 519.341 331.691 522.56C341.614 529.669 349.664 539.236 356.54 549.234C368.978 567.319 377.298 588.09 390.506 605.632C395.049 611.665 400.513 617.501 407.634 620.417C415.062 623.458 423.032 622.384 430.257 619.288C436.454 616.632 441.904 612.612 447.618 609.093C453.451 605.501 460.756 600.258 467.676 603.463C472.875 605.871 477.366 609.828 481.884 613.279C485.685 616.182 489.859 619.735 494.614 620.907C501.373 622.572 509.509 621.492 516.305 620.513C524.324 619.358 532.164 617.299 540.008 615.312C548.201 613.237 556.454 611.239 564.893 610.485C573 609.761 583.822 609.178 591.217 613.147C598.349 616.976 599.833 626.195 604.606 632.168C608.722 637.32 614.41 640.893 620.418 643.448C627.094 646.287 634.198 647.922 641.295 649.306C650.92 651.183 660.6 652.776 670.317 654.1C689.334 656.69 708.49 658.237 727.678 658.709C744.581 659.125 762.409 659.799 778.926 655.553C793.83 651.722 805.519 642.764 813.472 629.645C821.793 615.919 826.413 600.004 831.471 584.885C843.04 550.306 853.611 513.724 850.612 476.864C849.174 459.189 843.688 443.209 837.083 426.897C833.845 418.899 830.716 410.745 829.32 402.191C827.719 392.38 829.18 382.796 832.128 373.383C837.812 355.238 845.048 337.631 850.521 319.391C853.315 310.078 855.943 300.705 858.272 291.264C860.414 282.583 862.231 273.647 861.976 264.659C861.481 247.244 851.404 231.465 842.575 217.065C834.249 203.486 826.719 189.79 821.356 174.735C812.676 150.368 805.464 116.675 827.439 97.0084C832.303 92.6553 838.843 91.3474 843.727 87.233C850.065 81.8939 850.406 71.7604 850.753 64.1795C851.059 57.5081 851.428 50.4175 848.923 44.0839C847.47 40.4094 844.901 37.6149 842.885 34.2892C840.039 29.5954 841.315 24.4459 843.141 19.5869C846.175 11.5087 850.833 3.97987 852.474 -4.58691C855.126 -18.4285 847.496 -30.387 836.32 -37.9382C822.159 -47.5064 804.735 -48.3443 788.47 -51.5985C772.003 -54.8934 757.834 -62.5091 744.005 -71.7857C730.923 -80.561 718.215 -90.2056 703.671 -96.4918C670.28 -110.924 635.352 -98.379 600.723 -99.7507C586.376 -100.319 571.476 -103.225 559.115 -110.863C552.981 -114.653 547.601 -119.677 543.749 -125.8C540.108 -131.587 538.057 -137.782 531.198 -140.465C520.32 -144.72 507.084 -143.05 496.246 -139.63C484.421 -135.898 473.443 -129.785 462.932 -123.302C440.307 -109.347 418.866 -91.5293 393.5 -82.6856C382.053 -78.6946 370.315 -77.481 358.498 -80.5411C345.754 -83.8411 333.977 -90.3156 322.657 -96.8703C310.671 -103.811 298.99 -111.304 286.699 -117.709C276.21 -123.176 265.01 -128.126 253.154 -129.506C247.299 -130.187 241.773 -129.541 236.012 -128.483C227.388 -126.899 218.788 -125.18 210.238 -123.231C197.799 -120.397 185.388 -117.141 173.441 -112.626C160.304 -107.661 147.978 -100.978 138.402 -90.5369C130.277 -81.679 123.482 -72.0183 114.587 -63.8305C109.156 -58.8304 102.486 -52.6482 103.625 -44.5624C104.032 -41.6663 104.829 -38.9269 104.645 -35.9642C104.254 -29.6754 100.88 -23.8407 97.6235 -18.6274C96.891 -17.4546 98.7433 -16.3778 99.473 -17.5459Z" fill="#FDF5DA"/>
<path d="M734.788 658.61C722.586 633.085 708.488 604.311 695.908 578.717C693.771 574.246 691.402 569.996 689.005 565.663C686.713 561.417 684.401 557.063 682.97 552.422C681.025 544.991 683.335 537.218 681.725 529.825C681.469 528.682 681.109 527.617 680.489 526.96C679.528 525.82 677.529 525.963 676.016 525.861C676.016 525.861 674.167 525.791 674.167 525.791L670.469 525.651C666.75 525.562 659.387 525.214 655.678 525.117C653.236 525.035 650.818 525.013 648.505 525.362C642.953 526.171 640.818 528.645 638.213 533.411C633.609 542.168 626.712 541.754 617.802 541.638C614.09 541.634 606.688 541.526 602.982 541.508C600.478 541.455 597.792 541.305 595.163 540.317C588.656 537.757 585.329 531.179 580.989 526.243C580.724 525.965 579.443 524.535 579.121 524.19C576.579 521.475 571.689 515.959 569.164 513.241C565.896 509.471 562.247 506.159 558.135 503.296C556.123 501.806 554.042 500.378 552.127 498.806C548.22 495.725 545.099 491.918 541.76 488.29C538.465 484.627 535.207 480.911 532.009 477.134C525.615 469.575 519.443 461.775 513.412 453.869C501.395 438.081 489.246 422.29 479.393 405.031C473.209 394.328 467.721 383.083 463.148 371.596C456.81 355.753 452.574 338.632 443.655 324.037C433.471 306.307 416.548 297.379 398.957 288.204C381.501 278.733 364.286 268.544 349.385 255.258C346.559 252.601 343.527 250.193 341.453 246.802C338.204 240.912 339.037 233.814 340.245 227.503C342.234 217.664 347.364 208.758 351.541 199.809C353.374 196.069 355.583 190.145 357.199 186.218C362.794 172.501 367.863 158.617 373.042 144.738C378.34 130.88 384.079 117.195 390.218 103.691C398.27 85.6324 408.605 68.7043 417.186 50.9335C421.555 41.4857 431.328 20.2424 435.689 10.5699C436.19 10.5805 434.579 10.4377 437.314 9.81763C438.116 10.146 439.735 10.8776 440.569 11.252C449.481 15.2272 461.965 21.0037 470.907 25.0153C477.084 27.8852 483.515 30.4419 490.313 31.3855C490.932 31.4596 491.59 31.5287 492.14 31.5057C493.825 31.4243 495.196 32.971 494.918 34.6332C494.036 40.4662 492.538 45.8459 491.343 51.3085C491.343 51.3084 491.34 51.3146 491.34 51.3146C491.317 51.3422 491.3 51.3287 491.284 51.3594C491.272 51.3946 491.28 51.5293 491.419 51.7397C492.737 53.4743 495.085 54.3824 497.129 55.2762C505.393 58.4225 514.29 59.7656 523.054 60.9566C536.445 62.6179 550 63.5161 563.507 63.9056C570.194 64.0209 576.961 64.2614 583.601 63.6343C589.721 62.4699 597.264 61.1059 600.599 55.2634C601.83 52.9695 602.495 50.4373 604.063 48.2425C608.949 41.271 619.571 44.8946 626.593 44.2362C631.009 44.1377 635.82 44.0561 640.235 44.0392C644.767 44.0146 648.955 41.5991 653.437 41.3264C659.139 41.0294 664.849 40.6159 670.62 41.568C673.04 41.9879 675.542 42.6345 677.789 43.9485C680.764 44.9174 678.909 50.2849 678.393 52.3606C676.467 58.8659 673.815 65.1783 671.666 71.5415C671.094 73.422 670.228 75.6062 670.137 77.5479C671.143 82.3984 687.527 86.5989 692.279 88.0987C694.442 88.7444 696.604 89.3407 698.817 90.1391C707.161 93.1074 728.337 100.976 736.874 104.036C734.528 103.869 815.805 105.371 815.364 105.363C816.193 105.378 816.852 106.062 816.837 106.89C816.822 107.718 816.139 108.378 815.311 108.363L736.332 106.945C736.163 106.942 735.995 106.908 735.844 106.854L710.473 97.589L697.788 92.9565C691.438 90.8088 684.763 89.2354 678.473 86.7679C674.743 85.2267 667.852 82.6025 667.166 77.987C667.166 77.987 667.14 77.6503 667.14 77.6503C667.129 76.8398 667.246 76.2338 667.366 75.6248C667.736 73.889 668.272 72.2371 668.824 70.5836C670.29 66.2677 671.924 62.0751 673.424 57.8542C674.62 54.2734 676.1 50.699 676.434 46.9666C676.434 46.7654 676.425 46.5583 676.399 46.4607C676.388 46.4166 676.377 46.3859 676.388 46.413C676.399 46.4294 676.445 46.5237 676.554 46.597L677.166 46.8829L677.155 46.885C669.992 48.213 663.233 50.5754 655.942 51.456C654.125 51.6987 652.216 51.7694 650.411 51.4146C646.993 50.704 643.691 49.1342 640.174 49.0419C635.194 48.8938 629.927 48.6984 624.952 48.6911C622.048 48.7203 619.038 48.1667 616.337 48.0154C612.986 47.859 609.2 47.6667 607.16 50.4701C606.02 52.0179 605.318 54.0152 604.463 55.8253C603.556 57.7235 602.297 59.416 600.742 60.8174C596.214 64.7817 590.228 65.9531 584.558 67.0864C573.012 68.1954 561.339 67.5612 549.793 67.2741C533.84 66.5626 517.804 65.4972 502.089 62.3558C495.886 60.879 483.7 58.4423 484.949 49.9138C485.585 44.9216 486.383 39.7259 486.449 34.9862L489.044 39.2318C485.231 35.8961 480.921 33.0203 476.46 30.6735C472.274 28.4252 467.29 26.3682 463.078 24.3313C456.569 21.3418 444.462 15.6408 437.897 12.6758C437.897 12.6757 437.061 12.3003 437.061 12.3003L436.652 12.1213L436.491 12.0541C439.041 11.2988 437.435 11.4586 437.852 11.5636C433.194 21.3358 423.717 42.5528 419.193 51.9043C412.733 65.2381 405.257 78.09 398.634 91.3036C385.375 117.78 375.398 145.693 365.224 173.453C361.905 181.933 358.612 190.975 355.05 199.372C351.802 206.708 347.936 213.692 345.325 221.221C343.765 225.729 342.799 230.499 342.563 235.237C342.355 239.723 343.063 244.445 346.446 247.673C362.112 263.166 381.475 274.391 400.754 284.823C418.758 294.128 436.554 303.651 446.998 322.031C455.764 336.638 459.491 353.067 465.02 368.908C467.726 376.346 470.794 383.868 474.272 390.976C485.038 413.115 499.962 433.028 517.767 450.011C528.357 460.331 539.382 470.225 549.689 480.854C553.105 484.423 556.707 487.845 559.495 492.018C562.316 496.166 564.601 500.785 567.486 504.846C568.911 506.887 570.527 508.744 572.165 510.606C574.522 513.228 579.526 519.105 581.903 521.771C581.903 521.771 583.12 523.167 583.12 523.167C585.982 526.346 588.246 530.248 591.048 533.34C592.567 535.023 594.264 536.428 596.337 537.287C600.181 538.856 606.323 538.302 610.451 538.581C612.83 538.695 619.213 538.768 621.542 538.859C624.929 538.945 628.75 538.818 631.613 537.132C633.574 535.945 634.834 534.104 636.015 532.102C638.982 526.74 641.946 523.857 648.164 523.007C650.741 522.647 653.284 522.707 655.766 522.813C659.388 522.939 666.918 523.355 670.557 523.491C670.557 523.491 674.254 523.656 674.254 523.656L676.103 523.738C677.412 523.783 678.753 523.812 680.071 524.267C681.491 524.693 682.693 526.091 683.17 527.44C685.94 535.52 682.701 544.25 684.993 552.33C687.184 559.024 690.964 565.033 694.273 571.228C698.474 579.307 707.035 596.822 710.838 604.374C719.649 622.043 728.498 639.694 737.476 657.28C737.853 658.018 737.56 658.922 736.823 659.299C736.073 659.683 735.15 659.37 734.788 658.61Z" fill="white"/>
<path d="M820.48 607.925C820.357 607.925 820.232 607.91 820.108 607.878L797.876 602.206C797.728 602.169 797.587 602.108 797.457 602.028L722.814 555.711C722.335 555.414 722.063 554.873 722.11 554.311L724.472 525.954C724.489 525.751 724.547 525.553 724.643 525.373L773.303 434.157C773.32 434.125 773.339 434.093 773.358 434.062L841.08 326.777C841.521 326.076 842.449 325.867 843.148 326.31C843.848 326.752 844.057 327.678 843.615 328.379L775.923 435.617L727.434 526.512L725.174 553.645L798.841 599.356L820.849 604.971C821.651 605.176 822.136 605.992 821.931 606.795C821.758 607.473 821.149 607.925 820.48 607.925Z" fill="white"/>
<path d="M844.764 466.475C829.709 464.592 814.485 459.997 799.97 455.607C775.606 441.629 749.318 425.541 725.395 410.984C715.803 404.157 705.004 396.279 695.505 389.304L695.922 389.525L688.776 386.446L681.646 383.326L683.55 382.567L678.663 392.965C678.36 393.616 677.658 393.92 676.993 393.793C658.341 391.621 632.277 385.313 613.688 381.427C593.296 376.982 571.091 372.063 550.675 367.422C545.923 365.502 532.042 359.691 527.319 357.736C527.319 357.736 519.644 354.493 519.644 354.493C518.881 354.171 518.523 353.291 518.846 352.528C519.159 351.786 520.002 351.428 520.749 351.705C528.639 354.631 544.909 360.742 551.606 363.339C587.38 370.654 626.423 378.315 662.049 386.57C667.268 387.862 672.469 389.242 677.619 390.86L675.949 391.688L680.836 381.291C681.174 380.569 682.015 380.249 682.739 380.532C686.611 381.931 694.048 384.339 697.846 385.897C707.697 392.223 718.849 399.479 728.609 405.924C733.843 408.792 741.232 413.021 747.154 416.363C764.319 426.054 785.953 438.563 803.049 448.519C803.048 448.519 802.193 448.147 802.193 448.147C808.398 449.985 818.079 452.811 824.183 454.949C831.47 457.474 838.672 460.183 845.621 463.601C846.373 463.977 846.678 464.891 846.303 465.643C846.009 466.232 845.382 466.546 844.764 466.475Z" fill="white"/>
<path d="M825.375 403.795C825.059 403.795 824.742 403.695 824.471 403.49L790.898 378.055L671.102 332.287C670.328 331.992 669.941 331.125 670.236 330.351C670.531 329.577 671.398 329.189 672.172 329.485L792.168 375.329C792.3 375.379 792.425 375.448 792.538 375.534L826.281 401.099C826.941 401.599 827.071 402.54 826.571 403.2C826.276 403.59 825.828 403.795 825.375 403.795Z" fill="white"/>
<path d="M491.686 620.26C491.48 612.862 489.368 605.524 485.603 599.154C483.022 594.779 479.576 591.004 476.897 586.576C475.509 584.274 474.299 581.749 473.72 579.092C472.815 575.157 472.928 571.408 472.328 567.585C471.85 563.973 470.237 560.768 468.135 557.823C463.695 551.498 457.894 546.508 453.532 540C450.842 535.919 450.781 532.787 450.561 528.236C450.459 526.999 450.307 526.039 449.928 524.843C447.029 515.224 440.953 507.005 435.144 498.836C432.913 495.703 430.683 492.514 428.644 489.229C426.837 486.293 424.699 482.873 425.348 479.143C425.859 476.026 428.022 473.761 429.095 471.02C430.931 466.412 429.818 461.18 427.216 457.088C426.202 455.35 423.956 452.879 422.638 451.285C417.646 445.34 412.782 439.192 409.109 432.301C406.599 427.719 404.863 422.692 403.525 417.65C402.143 412.709 400.861 407.739 399.683 402.744C398.453 397.998 397.827 392.757 395.786 388.386C391.885 380.137 379.349 377.039 371.507 372.785C367.238 370.698 363.039 366.815 358.528 365.557C353.271 363.951 349.938 367.785 345.19 369.262C337.413 371.502 328.066 370.249 321.499 365.387C319.215 363.693 317.363 361.242 316.298 358.605C314.178 353.562 313.317 348.383 312.398 343.361C311.658 338.793 310.267 332.986 309.158 328.519C309.158 328.519 305.563 313.629 305.563 313.629L305.114 311.768C304.766 310.166 304.258 308.782 304.799 306.969C305.121 305.938 305.819 305.036 306.711 304.437C307.578 303.867 308.404 303.656 309.133 303.484C311.288 302.926 314.638 303.343 314.646 300.369C314.751 298.06 313.4 295.915 312.616 293.811C310.739 288.461 311.187 282.182 314.456 277.434C315.018 276.619 315.673 275.81 316.49 275.241C318.113 274.086 320.188 273.496 321.996 273.044C324.802 272.34 327.654 272.031 330.403 271.331L331.327 271.08L333.174 270.579L362.751 262.658C364.681 262.236 365.414 264.946 363.55 265.549C363.536 265.55 334.091 273.949 334.076 273.951L332.233 274.47C329.161 275.402 325.915 275.745 322.86 276.535C321.21 276.991 319.664 277.366 318.395 278.375C314.996 282.09 314.53 287.886 316.197 292.519C316.33 292.938 316.667 293.666 316.862 294.082C318.536 297.409 319.679 302.577 316.211 305.31C314.858 306.366 313.27 306.713 311.742 306.945C310.661 307.085 309.615 307.243 308.847 307.659C308.168 308.084 308.5 309.145 308.661 309.931C310.22 316.333 313.267 328.722 314.798 335.046C315.954 340.071 316.583 345.131 317.727 350.085C318.588 353.534 319.474 357.131 321.525 359.959C325.157 364.527 331.417 366.265 337.096 366.446C339.471 366.495 341.861 366.237 344.047 365.57C346.924 364.714 350.467 361.933 354.002 361.489C357.268 360.955 360.645 361.928 363.458 363.435C366.172 364.807 369.048 367.016 371.665 368.523C379.051 372.763 388.022 375.033 394.701 380.874C398.802 384.31 400.578 389.474 401.636 394.429C403.528 403.147 405.641 411.758 408.137 420.312C409.882 426.263 412.746 431.822 416.207 436.966C419.027 441.136 422.188 445.074 425.429 448.947C427.941 451.875 430.813 455.179 432.168 458.87C434.055 463.44 434.184 468.817 432.009 473.317C431.267 475.039 429.964 476.741 429.319 478.31C427.829 481.554 430.036 484.561 431.679 487.352C436.394 494.975 442.015 501.837 446.697 509.563C449.706 514.606 452.471 520.024 453.785 525.889C454.362 528.956 453.887 532.208 454.909 535.068C456.183 538.475 458.594 541.138 461 544.007C466.746 550.927 474.299 557.664 475.573 567.08C476.16 570.824 476.054 574.821 476.866 578.374C477.368 580.72 478.404 582.863 479.63 584.932C482.228 589.255 485.698 593.121 488.286 597.575C490.95 602.137 492.822 607.145 493.838 612.327C494.335 614.918 494.618 617.55 494.684 620.189C494.705 621.017 494.05 621.705 493.222 621.726C492.393 621.747 491.705 621.089 491.686 620.26Z" fill="white"/>
<path d="M156.419 619.34C160.625 613.323 165.492 608.051 169.312 601.899C175.314 591.541 179.122 580.176 182.788 568.736C191.345 541.249 199.758 513.035 207.767 485.343C208.653 481.908 209.42 478.486 210.005 475.008C210.792 469.565 212.112 463.551 211.369 458.233C211.203 457.065 210.837 455.828 210.214 454.874C209.058 453.383 206.922 451.889 205.459 450.245C199.955 444.377 198.84 436.717 197.903 429.228C194.343 406.534 189.542 383.957 187.334 361.076C186.304 351.43 185.511 341.753 184.935 332.067C184.677 327.171 184.232 322.131 184.368 317.24C184.407 314.837 184.434 312.532 184.199 310.423C183.989 308.269 183.432 306.743 182.111 305.084C180.242 302.36 176.881 300.034 176.796 296.318C176.811 294.544 177.717 293.083 178.795 291.91C179.811 290.995 179.842 289.79 179.429 288.334C178.779 286.083 177.065 284.517 175.764 282.536C174.655 280.959 173.753 278.846 174 276.805C174.361 273.59 176.568 271.058 178.014 268.355C179.693 265.259 180.119 261.669 179.514 258.196C178.657 253.503 176.417 249.165 174.096 245.01C171.715 240.76 169.142 236.496 167.689 231.786C164.627 222.479 164.536 212.52 162.729 202.983C161.352 195.832 159.879 188.682 158.111 181.596C157.528 179.284 158.929 176.936 161.24 176.353C163.552 175.769 165.898 177.171 166.482 179.484C166.568 179.827 166.61 180.194 166.613 180.533C166.62 185.415 166.801 190.276 167.015 195.133C167.101 196.996 167.283 200.573 167.391 202.421C168.051 214.326 166.746 226.834 172.073 237.876C174.142 242.246 176.672 246.425 178.577 250.908C181.069 256.515 182.327 263.334 179.268 269.007C178.202 271.131 176.723 273.121 176.049 275.35C174.866 278.972 177.605 281.47 179.855 283.977C182.092 286.465 183.898 290.54 181.69 293.635C180.957 294.675 180.101 295.862 181.01 297.006C182.226 298.643 184.406 300.052 185.981 301.697C187.022 302.758 187.966 303.681 188.738 305.067C189.509 306.439 189.988 307.802 190.372 309.127C191.438 312.965 191.73 316.541 192.399 320.229C193.114 323.717 193.916 327.291 194.614 330.787C199.562 354.534 203.008 378.555 204.94 402.737C205.743 412.242 206.733 422.249 207.596 431.749C208.022 436.004 208.693 439.957 211.061 443.34C212.47 445.304 213.831 446.256 215.702 448.227C216.794 449.375 217.881 451.062 218.437 452.578C221.265 460.143 218.842 468.884 217.521 476.4C214.953 489.13 209.567 502.66 205.601 515.008C197.878 537.981 190.718 561.218 182.02 583.904C179.216 590.716 176.286 597.572 172.318 603.817C168.31 609.942 163.125 615.303 158.856 621.088C158.365 621.758 157.423 621.901 156.756 621.407C156.101 620.923 155.955 620.004 156.419 619.34Z" fill="white"/>
<path d="M105.877 336.67C151.191 311.697 196.229 285.589 240.959 259.584C251.517 253.396 259.039 247.282 266.12 237.26C268.405 234.132 270.662 230.83 272.823 227.587C275.488 223.442 277.735 218.818 282.071 216.009C284.941 214.14 288.565 213.98 291.763 214.276C294.77 214.583 297.588 215.003 300.581 215.181C306.47 215.636 312.529 215.676 318.274 217.115C323.987 218.545 329.421 220.794 334.552 223.673C337.106 225.151 339.604 226.734 341.933 228.779C343.01 229.708 342.361 231.59 340.919 231.602C334.93 231.708 329.259 230.548 323.579 229.157C318.05 227.794 312.75 225.918 307.559 223.542C302.409 221.228 296.964 219.246 291.329 218.689C289.416 218.488 287.531 218.401 285.784 218.938C281.347 220.431 278.665 226.016 276.065 229.729C270.378 237.751 264.607 245.979 256.963 252.3C247.945 259.791 237.358 264.746 227.32 270.511L167.227 304.702C147.206 316.117 127.223 327.597 107.354 339.28C106.64 339.7 105.722 339.461 105.302 338.747C104.872 338.019 105.134 337.073 105.877 336.67Z" fill="white"/>
<path d="M855.848 286.32C855.832 286.32 855.817 286.32 855.802 286.32L721.877 282.287C721.05 282.262 720.399 281.571 720.424 280.743C720.448 279.914 721.152 279.269 721.967 279.289L855.892 283.321C856.72 283.346 857.37 284.037 857.345 284.866C857.321 285.678 856.655 286.32 855.848 286.32Z" fill="white"/>
<path d="M743.787 265.826C739.029 265.826 734.03 265.729 728.748 265.538C727.921 265.508 727.274 264.812 727.304 263.985C727.334 263.157 728.023 262.504 728.857 262.54C761.519 263.723 779.039 260.798 789.376 258.494C791.8 257.954 794.688 257.067 795.522 254.987C795.715 254.504 795.81 253.921 795.911 253.304C796.042 252.501 796.191 251.591 796.596 250.715C797.511 248.735 799.579 247.315 802.127 246.916C802.137 246.915 802.161 246.911 802.171 246.91C806.829 246.182 808.035 245.403 807.597 241.32C807.336 238.9 807.062 236.48 806.786 234.059C806.245 229.3 805.686 224.379 805.256 219.523C805.151 218.341 805.108 217.112 805.063 215.81C804.911 211.457 804.754 206.955 802.291 204.094C801.745 203.459 801.048 202.911 800.31 202.33C799.576 201.752 798.816 201.155 798.132 200.415C795.589 197.666 795.713 192.039 795.813 187.517C795.843 186.177 795.87 184.912 795.815 183.99C795.765 183.163 796.394 182.452 797.221 182.402C798.063 182.35 798.758 182.983 798.808 183.809C798.871 184.855 798.842 186.18 798.811 187.583C798.727 191.354 798.614 196.519 800.333 198.378C800.856 198.943 801.491 199.443 802.164 199.973C802.982 200.616 803.827 201.281 804.563 202.136C807.713 205.797 807.897 211.061 808.059 215.705C808.103 216.966 808.145 218.156 808.243 219.258C808.669 224.077 809.226 228.979 809.766 233.72C810.041 236.147 810.317 238.573 810.578 241C811.323 247.932 807.231 249.155 802.604 249.878C801.389 250.068 799.899 250.717 799.318 251.974C799.084 252.479 798.98 253.114 798.87 253.787C798.754 254.503 798.622 255.313 798.305 256.103C796.95 259.485 793.17 260.722 790.028 261.422C776.623 264.409 761.97 265.826 743.787 265.826Z" fill="white"/>
<path d="M656.046 229.118C655.777 229.118 655.505 229.046 655.26 228.895C654.555 228.459 654.336 227.535 654.771 226.83L670.361 201.545C670.582 201.186 670.945 200.937 671.359 200.859L694.896 196.416L692.845 186.569C692.695 185.846 693.093 185.121 693.783 184.86L715.042 176.826C715.361 176.705 715.71 176.697 716.035 176.802L733.444 182.45L754.859 187.108L774.876 184.779L818.494 176.754C819.31 176.606 820.09 177.143 820.239 177.958C820.389 178.772 819.85 179.554 819.036 179.704L775.369 187.739C775.337 187.745 775.304 187.75 775.271 187.753L754.957 190.116C754.792 190.135 754.626 190.127 754.465 190.092L732.734 185.366C732.685 185.355 732.637 185.342 732.589 185.327L715.61 179.818L696.043 187.213L698.143 197.3C698.225 197.695 698.145 198.105 697.922 198.44C697.698 198.775 697.349 199.006 696.954 199.08L672.566 203.684L657.323 228.405C657.04 228.865 656.548 229.118 656.046 229.118Z" fill="white"/>
<path d="M667.766 391.79C667.564 391.79 667.359 391.749 667.162 391.662C666.404 391.327 666.061 390.442 666.395 389.684L673.887 372.699L663.704 261.869C663.628 261.044 664.235 260.314 665.059 260.238C665.88 260.166 666.614 260.77 666.69 261.595L676.909 372.812C676.932 373.066 676.891 373.322 676.788 373.555L669.139 390.895C668.891 391.456 668.342 391.79 667.766 391.79Z" fill="white"/>
<path d="M843.728 329.469C818.228 324.855 792.472 319.374 767.139 313.852C734.469 306.59 701.729 299.095 669.57 289.812C667.889 289.302 668.276 286.647 670.236 286.887C684.942 289.307 699.535 292.259 714.125 295.262C743.089 301.35 772.395 308.25 801.152 315.32C815.6 318.91 830.032 322.572 844.393 326.544C846.109 327.037 845.716 329.733 843.728 329.469Z" fill="white"/>
<path d="M385.15 378.144L390.494 352.79C390.532 352.61 390.601 352.444 390.695 352.298C390.704 352.27 405.637 329.223 405.66 329.175C405.66 329.175 405.258 329.958 405.258 329.958L417.868 296.792C418.162 296.018 419.029 295.628 419.803 295.923C420.538 296.203 420.925 297.004 420.711 297.746C420.711 297.754 410.783 331.829 410.782 331.839C410.7 332.12 410.559 332.381 410.387 332.596L393.176 353.978L393.428 353.409L388.084 378.763C387.637 380.662 384.8 380.124 385.15 378.144Z" fill="white"/>
<path d="M165.597 208.45C164.996 208.45 164.429 208.086 164.198 207.492C163.899 206.72 164.282 205.851 165.054 205.551L214.229 186.478L222.705 171.351C223.11 170.629 224.024 170.372 224.747 170.776C225.469 171.182 225.726 172.096 225.321 172.818L216.581 188.415C216.411 188.719 216.14 188.954 215.815 189.08L166.138 208.348C165.96 208.417 165.777 208.45 165.597 208.45Z" fill="white"/>
<path d="M119.916 270.034C117.143 270.034 114.384 270.025 111.669 270.017C108.918 270.008 106.168 270 103.417 270C102.589 270 101.918 269.328 101.918 268.5C101.918 267.672 102.589 267 103.417 267C106.171 267 108.924 267.008 111.679 267.017C117.102 267.034 122.711 267.051 128.22 267C141.598 266.875 151.742 265.874 164.005 261.123C170.073 258.771 176.347 256.34 182.128 253.179C194.169 246.595 204.447 235.989 214.386 225.732C216.394 223.66 218.47 221.518 220.491 219.485C222.292 217.674 224.12 215.798 225.889 213.984C233.907 205.758 242.199 197.252 251.796 190.661C259.443 185.41 267.342 181.021 276.132 176.237C277.784 175.338 279.407 174.381 281.126 173.369C286.667 170.105 292.396 166.73 298.807 165.575C302.856 164.846 306.936 165.084 310.88 165.313C314.595 165.533 315.964 167.836 317.146 170.381C317.603 171.365 318.161 172.457 318.984 172.947C319.752 173.405 320.783 172.858 322.269 171.972C322.837 171.633 323.424 171.283 324.013 171.031C337.018 165.467 349.842 159.955 361.862 154.785C374.518 149.342 389.08 149.52 402.91 150.169C417.645 150.86 432.049 153.85 445.979 156.742C449.132 157.397 452.387 158.073 455.612 158.715L484.204 147.989L480.737 133.683C480.563 132.965 480.938 132.227 481.621 131.944L508.321 120.891L518.077 81.3109C518.275 80.5063 519.089 80.0163 519.892 80.2136C520.696 80.4119 521.187 81.2249 520.989 82.029L511.051 122.346C510.937 122.809 510.609 123.191 510.168 123.373L483.954 134.225L487.431 148.573C487.609 149.31 487.21 150.065 486.5 150.331L456.265 161.674C456.004 161.772 455.721 161.796 455.447 161.741C452.073 161.071 448.665 160.364 445.37 159.679C431.554 156.811 417.268 153.845 402.769 153.165C389.288 152.534 375.116 152.35 363.046 157.541C351.025 162.711 338.2 168.224 325.192 173.79C324.787 173.963 324.309 174.247 323.804 174.549C322.118 175.553 319.81 176.929 317.451 175.525C315.893 174.598 315.073 173.036 314.427 171.645C313.31 169.24 312.615 168.421 310.705 168.308C306.936 168.089 303.037 167.861 299.338 168.528C293.455 169.587 287.961 172.824 282.648 175.954C280.983 176.934 279.261 177.948 277.565 178.872C268.849 183.616 261.022 187.964 253.493 193.134C244.139 199.558 235.953 207.956 228.035 216.078C226.262 217.898 224.428 219.779 222.617 221.601C220.61 223.62 218.632 225.66 216.539 227.82C206.444 238.238 196.006 249.009 183.566 255.812C177.613 259.067 171.246 261.534 165.088 263.92C152.399 268.836 141.971 269.872 128.248 269.999C125.482 270.025 122.692 270.034 119.916 270.034Z" fill="white"/>
<path d="M494.987 58.1241L490.735 75.0894L489.552 73.2495L553.801 85.065C554.252 84.5248 696.012 191.087 696.443 190.987C696.653 191.145 696.813 191.352 696.914 191.575L725.442 254.784L725.176 254.382C725.942 255.286 726.408 256.399 726.752 257.511C727.647 260.456 727.578 263.681 727.165 266.657C726.423 272.256 723.889 278.032 721.851 283.277C714.038 302.713 705.891 322.047 697.797 341.358C686.158 368.948 673.592 398.834 662.243 425.221C662.243 425.221 659.881 437.509 659.881 437.509L659.82 436.72L689.111 518.483L688.393 517.66L720.046 534.202C720.45 534.413 720.72 534.79 720.814 535.202L725.066 554.107V554.275C724.853 556.437 724.188 558.536 723.658 560.616C722.122 566.163 720.134 571.561 717.982 576.89C715.1 584.003 712.058 591.037 708.394 597.804C707.994 598.538 707.076 598.808 706.343 598.407C705.728 598.072 705.439 597.369 705.599 596.719C707.456 589.252 709.95 582.004 712.618 574.808C715.317 567.623 718.228 560.487 722.206 553.894C722.206 553.894 722.141 554.765 722.141 554.765L717.889 535.86L718.657 536.861L687.005 520.319C686.658 520.138 686.411 519.837 686.288 519.495L656.997 437.732C656.904 437.471 656.889 437.196 656.937 436.942L659.299 424.654C677.129 382.478 695.155 340.36 712.615 298.025C714.733 292.922 716.993 287.314 719.065 282.168C720.993 277.199 723.483 271.539 724.196 266.236C724.617 262.927 724.747 259.244 722.976 256.42C722.976 256.42 722.71 256.018 722.71 256.018L694.181 192.809C696.887 195.208 552.076 87.3087 552.636 87.7437C552.636 87.7439 553.259 88.0154 553.259 88.0154L489.009 76.1999C488.162 76.0481 487.614 75.1945 487.826 74.3599L492.078 57.3945C492.279 56.591 493.094 56.103 493.897 56.3044C494.7 56.5059 495.188 57.3206 494.987 58.1241Z" fill="white"/>
<path d="M425.723 453.601C425.323 453.601 424.924 453.442 424.628 453.127C424.062 452.522 424.093 451.573 424.697 451.006C425.935 449.846 427.083 448.418 428.298 446.906C430.224 444.51 432.216 442.032 434.773 440.423C436.496 439.339 438.457 439.025 440.355 438.72C442.388 438.393 444.308 438.085 445.527 436.835C446.301 436.041 446.662 434.81 446.914 433.711C447.417 431.511 447.643 429.163 447.862 426.893C448.193 423.461 448.536 419.912 449.822 416.556C452.551 409.435 458.389 404.835 464.034 400.386C466.728 398.262 469.514 396.066 471.935 393.619C472.518 393.031 473.468 393.025 474.055 393.608C474.644 394.191 474.649 395.141 474.066 395.729C471.515 398.308 468.655 400.562 465.889 402.742C460.318 407.133 455.055 411.28 452.622 417.629C451.481 420.605 451.173 423.799 450.847 427.181C450.619 429.546 450.383 431.992 449.837 434.38C449.513 435.798 448.974 437.596 447.673 438.93C445.762 440.89 443.142 441.31 440.83 441.682C439.156 441.95 437.575 442.205 436.369 442.963C434.238 444.304 432.406 446.582 430.634 448.786C429.408 450.313 428.139 451.891 426.747 453.195C426.458 453.466 426.09 453.601 425.723 453.601Z" fill="white"/>
<path d="M322.483 25.9685C322.321 25.9685 322.156 25.9419 321.994 25.8861C321.211 25.616 320.795 24.762 321.065 23.979C322.314 20.3585 320.837 18.5787 317.893 15.0327L317.827 14.9534C316.216 13.0118 314.339 11.3447 312.351 9.5797C310.801 8.20263 309.197 6.77866 307.737 5.21474C300.714 -2.30357 297.493 -12.2812 294.553 -22.7033C293.324 -27.0603 292.338 -31.7745 291.384 -36.3334C289.799 -43.9122 288.16 -51.7492 285.331 -58.4507C281.596 -67.3004 277.642 -69.0456 268.977 -72.8694C267.907 -73.3419 266.773 -73.8424 265.568 -74.3881C246.595 -82.9856 226.536 -90.618 208.197 -81.5179C205.76 -80.3078 203.551 -78.7456 201.213 -77.0914C198.882 -75.4427 196.473 -73.738 193.826 -72.4256C189.932 -70.4944 185.633 -69.476 181.564 -68.5986C156.506 -63.195 131.963 -61.2745 106.53 -62.7288C105.704 -62.7758 105.072 -63.4848 105.119 -64.3117C105.166 -65.1389 105.871 -65.7706 106.701 -65.7236C131.861 -64.2856 156.142 -66.1851 180.932 -71.531C184.977 -72.4034 188.906 -73.3337 192.494 -75.1132C194.932 -76.3222 197.142 -77.8855 199.482 -79.5407C201.811 -81.1881 204.219 -82.8914 206.864 -84.2051C226.379 -93.8891 247.176 -86.0155 266.806 -77.1205C268 -76.5792 269.125 -76.0826 270.187 -75.6142C279.027 -71.7131 283.896 -69.5643 288.094 -59.6174C291.035 -52.6484 292.705 -44.6665 294.319 -36.9478C295.306 -32.2309 296.238 -27.7757 297.439 -23.5181C300.275 -13.4656 303.364 -3.86018 309.928 3.1666C311.293 4.62823 312.843 6.0051 314.342 7.33654C316.326 9.09819 318.377 10.9197 320.134 13.0371L320.2 13.1162C323.272 16.8174 325.699 19.7408 323.9 24.9574C323.686 25.5785 323.105 25.9685 322.483 25.9685Z" fill="white"/>
<path d="M533.614 -136.022C519.699 -106.484 501.913 -78.7581 483.648 -51.7493C470.756 -32.1102 458.464 -11.7589 446.082 8.22339C445.209 9.63638 444.09 11.5306 443.182 12.8643C441.745 15.0865 440.316 17.2557 439.976 19.8495C439.744 21.5115 440.266 23.2181 440.843 24.7673C442.951 30.8001 445.633 36.5738 447.095 42.8548C448.781 50.083 448.079 57.5737 447.249 64.8732C446.772 68.5265 446.1 72.1765 445.12 75.7721C443.654 81.2275 440.741 85.7423 439.019 90.8464C438.26 93.1779 437.945 95.4775 438.249 97.8541C439.191 103.265 442.12 108.205 445.415 112.552C450.41 119.117 451.225 127.828 452.026 135.657C452.221 137.447 452.426 139.221 452.689 140.96C453.016 142.61 453.292 144.751 455.307 144.566C457.618 144.267 459.716 142.928 461.859 141.683C464.934 139.776 468.261 137.942 471.554 136.387C474.868 134.798 478.228 133.37 481.575 131.964C482.339 131.643 483.218 132.002 483.539 132.766C483.848 133.503 483.521 134.349 482.813 134.696C476.305 137.86 469.934 140.963 463.931 145.01C459.824 147.743 453.09 151.472 449.696 145.569C448.142 142.622 448.163 139.316 447.653 136.162C446.72 129.011 446.207 121.276 441.744 115.347C437.925 110.381 434.751 104.756 433.715 98.4837C433.326 95.4586 433.734 92.2172 434.726 89.4074C436.513 84.2052 439.962 79.7601 442.007 74.7282C444.698 68.1307 446.169 60.9911 446.269 53.8445C446.384 50.2535 446.199 46.7416 445.378 43.2472C444.028 37.2687 441.311 31.1295 439.225 25.3407C438.539 23.5585 437.983 21.5823 438.236 19.6501C438.56 16.7787 440.181 14.189 441.668 11.8818C442.567 10.4939 443.671 8.69197 444.502 7.27109C458.194 -16.1224 472.36 -39.6473 485.122 -63.5705C495.304 -82.7315 506.393 -101.713 518.446 -119.745C522.475 -125.79 526.622 -131.764 531.046 -137.57C531.551 -138.233 532.497 -138.361 533.16 -137.856C533.733 -137.419 533.905 -136.651 533.614 -136.022Z" fill="white"/>
<path d="M250.787 -128.389V-76.5144C250.787 -76.276 250.728 -76.0438 250.629 -75.8436C244.301 -63.1701 237.899 -50.5873 231.407 -37.9418C237.372 5.0956 243.806 55.1084 250.023 98.1756C250.533 101.507 250.809 104.688 252.03 107.739C255.652 116.249 262.475 122.859 267.959 130.275C273.029 137.014 275.503 145.092 277.757 153.019C277.834 153.351 278.027 153.844 278.128 154.171L278.343 154.629C279.744 157.644 283.56 156.909 286.291 156.345C288.196 155.909 290.186 155.435 292.236 155.058C294.29 154.68 296.448 154.396 298.658 154.365C302.474 154.309 306.219 155.107 309.802 156.262C314.128 157.598 318.434 158.955 322.729 160.629C331.673 164.135 338.072 167.426 342.433 176.477C344.252 180.109 345.543 183.845 347.298 187.409C349.638 192.451 353.098 196.593 357.923 199.379C367.023 204.655 377.652 206.911 386.138 213.629C393.836 219.653 399.043 228.345 404.36 236.312C405.11 237.428 405.882 238.533 406.656 239.625C407.843 241.399 409.475 242.487 411.554 243.084C421.004 245.87 430.596 245.33 440.748 247.05C448.903 248.427 456.73 251.581 463.724 255.967C468.943 259.171 473.633 263.288 477.915 267.612C482.2 271.836 486.384 276.103 490.488 280.522C495.53 285.875 499.286 292.216 505.989 295.357C520.702 301.712 537.113 285.488 538.311 271.239C538.723 267.439 538.507 263.509 538.322 259.528C537.947 251.573 537.525 243.643 536.671 235.77C535.698 226.934 534.139 218.138 531.367 209.711C530.427 206.909 529.364 204.117 528.309 201.353C526.919 197.845 525.262 194.174 522.365 191.743C519.532 189.376 515.583 188.794 512.199 190.425C508.747 191.959 505.722 194.686 501.965 196.497C498.192 198.513 493.744 197.962 489.722 197.268C485.768 196.618 481.844 195.71 477.981 194.735C466.482 191.913 454.94 188.288 443.05 189.015C434.771 189.464 428.447 193.098 422.348 198.523C419.366 201.097 416.534 203.898 413.473 206.531C407.379 211.779 400.873 216.429 394.785 221.465C393.201 222.697 391.352 220.4 392.915 219.12C399.281 214.224 405.871 209.765 411.951 204.729C414.988 202.237 417.871 199.477 420.955 196.889C425.545 192.991 430.851 189.386 436.862 188.026C450.833 184.998 464.97 189.823 478.409 193.019C482.269 193.981 486.112 194.858 490.02 195.49C493.778 196.095 497.68 196.699 501.158 194.818C504.705 193.078 507.708 190.323 511.404 188.637C515.325 186.682 520.31 187.336 523.661 190.154C528.497 194.258 530.205 200.508 532.444 206.163C538.833 223.135 540.035 241.471 541.115 259.376C541.725 267.72 541.993 275.864 537.587 283.465C530.994 295.46 516.538 304.958 503.022 298.063C496.629 294.668 492.295 288.284 487.533 283.286C483.448 279.006 479.209 274.796 474.929 270.692C470.747 266.591 466.368 262.822 461.344 259.827C445.372 249.921 433.744 251.869 416.164 249.474C414.088 249.11 412.081 248.711 410.02 248.103C404.634 246.526 402.938 243.668 399.941 239.326C391.322 226.641 386.511 217.939 371.617 211.839C367.153 209.895 362.274 208.111 357.77 205.831C354.899 204.37 352.139 202.648 349.706 200.462C346.446 197.593 343.95 193.811 342.09 189.977C340.293 186.407 338.965 182.586 337.222 179.089C334.719 173.849 331.217 170.689 325.914 168.326C320.632 165.827 315.144 164.015 309.507 162.259C307.754 161.721 305.813 161.079 304.029 160.721C298.402 159.454 293.393 160.655 287.559 162.005C282.67 163.209 276.558 162.991 273.691 158.061C273.013 157.014 272.593 155.771 272.25 154.583C270.212 147.281 267.983 139.696 263.45 133.609C257.437 125.457 249.797 118.034 246.44 108.159C245.472 105.133 245.21 101.997 244.756 98.9146C240.826 70.4652 237.094 38.5454 233.766 9.93127C231.945 -5.89915 230.184 -21.7342 228.431 -37.5698C234.845 -50.7645 241.363 -64.0195 247.947 -77.1852L247.789 -76.5144V-128.389C247.789 -129.217 248.46 -129.888 249.288 -129.888C250.116 -129.888 250.787 -129.217 250.787 -128.389Z" fill="white"/>
<path d="M425.721 248.081C425.486 248.081 425.247 248.025 425.024 247.908C424.291 247.522 424.01 246.615 424.395 245.882L452.994 191.494C453.38 190.761 454.287 190.479 455.019 190.864C455.752 191.25 456.033 192.157 455.648 192.89L427.049 247.279C426.781 247.789 426.26 248.081 425.721 248.081Z" fill="white"/>
<path d="M485.887 278.859C485.385 278.859 484.895 278.607 484.611 278.148C484.175 277.444 484.392 276.52 485.096 276.084C490.878 272.5 494.523 269.357 496.047 263.894C497.845 257.447 498.223 249.993 497.17 241.741C495.731 230.474 491.783 219.547 487.965 208.981C486.49 204.898 484.965 200.677 483.603 196.489C483.347 195.701 483.778 194.854 484.565 194.598C485.35 194.342 486.198 194.772 486.454 195.56C487.802 199.703 489.319 203.901 490.785 207.961C494.659 218.681 498.664 229.765 500.144 241.361C501.249 250.012 500.842 257.865 498.935 264.7C496.964 271.768 491.797 275.459 486.675 278.634C486.429 278.786 486.156 278.859 485.887 278.859Z" fill="white"/>
<path d="M538.95 259.553C534.524 260.808 529.59 260.332 525.948 263.331C521.765 267.101 518.73 273.515 517.365 278.984C515.289 288.168 516.758 297.729 516.956 307.228C517.282 325.575 519.657 343.722 522.078 361.947C522.742 367.101 524.43 372.236 526.993 376.728C529.738 381.546 533.9 385.935 539.31 387.131C541.059 387.517 542.164 389.248 541.779 390.997C541.391 392.766 539.622 393.876 537.862 393.455C534.132 392.555 530.776 390.555 528.114 388.087C522.911 383.22 519.799 376.83 517.891 370.154C516.963 366.989 516.512 363.529 516.19 360.24C513.977 341.152 512.375 321.823 512.46 302.538C512.235 293.814 511.531 284.244 514.447 275.642C516.499 269.943 520.204 262.806 525.552 259.589C529.378 257.434 534.423 257.573 538.19 256.651C540.108 256.224 540.847 258.982 538.95 259.553Z" fill="white"/>
<path d="M300.646 216.635C300.176 212.638 299.943 208.576 299.787 204.547C299.529 200.922 299.391 197.112 300.848 193.701C301.866 191.2 304.043 189.233 305.576 187.159C307.822 183.783 310.913 180.99 313.795 178.233C315.198 176.871 316.531 175.47 317.618 173.92C318.097 173.237 319.038 173.072 319.721 173.551C320.517 174.094 320.581 175.295 319.852 175.921C318.318 177.281 316.816 178.583 315.366 179.901C311.987 183.076 308.19 186.669 307.811 191.511C307.695 193.345 307.699 195.268 307.201 197.039C306.589 199.78 305.44 202.275 304.688 205.023C304.312 206.358 304.108 207.862 303.922 209.237C303.656 211.598 303.524 214.03 303.636 216.405C303.673 218.317 300.912 218.546 300.646 216.635Z" fill="white"/>
<path d="M336.433 168.734C335.723 168.734 335.092 168.227 334.96 167.503C332.805 155.681 330.577 143.456 324.8 132.763C323.131 129.674 321.353 126.76 319.634 123.941C314.564 115.631 309.775 107.782 308.576 96.9851C307.606 88.2483 308.104 79.3282 308.586 70.7019C308.837 66.2211 309.096 61.5876 309.139 57.0804C309.15 56.0099 309.16 54.9027 308.774 54.0716C308.226 52.8916 304.998 50.207 286.885 50.7661C275.177 51.1274 261.743 52.6541 251.935 53.7688C247.12 54.316 243.318 54.7481 241.34 54.846C215.704 56.116 188.404 56.9509 161.278 52.117C159.952 51.8808 158.618 51.6382 157.279 51.3947C140.097 48.271 122.331 45.0404 107.092 52.2634C106.343 52.6182 105.45 52.2988 105.095 51.5501C104.74 50.8014 105.06 49.9071 105.808 49.5525C121.918 41.9171 140.167 45.2348 157.815 48.4432C159.151 48.6861 160.481 48.9278 161.804 49.1636C188.622 53.9423 215.728 53.1109 241.192 51.85C243.074 51.7567 246.835 51.3294 251.597 50.7882C286.171 46.8585 308.251 45.8257 311.494 52.8077C312.165 54.2539 312.15 55.8372 312.138 57.1095C312.094 61.686 311.833 66.3546 311.58 70.8693C311.105 79.3728 310.614 88.1659 311.556 96.6539C312.682 106.788 317.302 114.361 322.193 122.378C323.933 125.23 325.732 128.179 327.438 131.337C333.442 142.45 335.713 154.912 337.91 166.965C338.058 167.78 337.518 168.561 336.704 168.71C336.613 168.726 336.522 168.734 336.433 168.734Z" fill="white"/>
<path d="M244.564 104.133C244.517 104.133 244.47 104.131 244.423 104.127L199.07 99.849C198.938 99.8366 198.809 99.8067 198.685 99.7602L172.623 89.983C170.213 90.4421 160.326 92.2938 157.638 92.2938C154.626 92.2938 150.107 87.0418 147.906 84.2333C142.354 84.0335 107.967 82.7671 103.143 81.8709C102.329 81.7196 101.792 80.9366 101.943 80.1222C102.094 79.3078 102.876 78.7683 103.691 78.9215C107.629 79.653 134.864 80.7713 148.714 81.2605C149.162 81.2762 149.58 81.4919 149.852 81.8481C152.833 85.7449 156.544 89.294 157.638 89.294C159.845 89.294 169.094 87.6074 172.472 86.9577C172.743 86.9056 173.023 86.9292 173.282 87.0261L199.551 96.8812L244.479 101.119C252.745 99.3907 278.55 94.0201 279.996 94.0201C281.212 93.9818 297.669 91.6133 308.431 90.0308C309.252 89.9113 310.012 90.4769 310.132 91.2967C310.253 92.1161 309.686 92.8782 308.867 92.9987C304.339 93.6646 281.833 96.9636 280.037 97.0193C278.489 97.1436 258.174 101.319 244.871 104.102C244.77 104.123 244.667 104.133 244.564 104.133Z" fill="white"/>
<path d="M346.514 40.8248C342.167 40.8248 337.982 38.2023 334.053 35.2523C310.25 17.3778 286.434 -1.31094 263.402 -19.3844C253.281 -27.3265 242.816 -35.5389 232.494 -43.5701C231.841 -44.0786 231.723 -45.0211 232.231 -45.675C232.739 -46.3285 233.681 -46.4471 234.335 -45.938C244.662 -37.9032 255.13 -29.6887 265.253 -21.7448C288.273 -3.68092 312.076 14.9977 335.853 32.853C339.722 35.7578 343.81 38.3158 347.679 37.7317L348.989 20.0331C349.345 15.2158 349.749 9.75584 352.58 5.17579C355.121 1.06486 359.225 -1.65078 362.845 -4.04647C365.124 -5.55434 368.245 -7.61708 371.772 -7.46559C374.375 -7.35263 376.676 -6.05148 378.524 -5.0061C382.871 -2.54802 387.267 -0.0217552 391.589 2.50219C395.602 4.84624 400.151 7.50307 403.82 11.2718C407.159 14.7023 409.647 18.926 412.053 23.0105C415.6 29.0331 418.95 34.7218 424.691 37.6917C425.427 38.0721 425.715 38.9771 425.335 39.7128C424.954 40.4485 424.049 40.7367 423.314 40.3563C416.805 36.9894 413.076 30.6572 409.469 24.5332C407.154 20.6019 404.759 16.5364 401.672 13.3648C398.288 9.88808 393.925 7.34048 390.077 5.09273C385.767 2.57585 381.384 0.0567131 377.049 -2.39464C375.398 -3.32852 373.526 -4.38689 371.642 -4.46875C369.273 -4.57082 367.009 -3.20527 364.5 -1.54467C361.137 0.680885 357.325 3.2032 355.131 6.75355C352.685 10.7094 352.31 15.7805 351.979 20.2545L350.587 39.0591C350.541 39.6798 350.117 40.2075 349.521 40.3855C348.511 40.6873 347.508 40.8248 346.514 40.8248Z" fill="white"/>
<path d="M350.469 39.2782V61.4914L350.184 60.6112L385.458 109.291L384.641 108.725L424.225 119.595C424.891 119.778 425.327 120.383 425.328 121.042V156.016C425.328 156.363 425.209 156.683 425.012 156.937L412.514 173.006C412.376 173.183 412.201 173.322 412.015 173.419L379.839 190.073C378.507 190.757 375.094 192.532 373.805 193.195C373.805 193.195 373.303 193.455 373.303 193.455C373.243 193.484 373.259 193.482 373.254 193.485C373.029 193.624 372.874 193.888 372.648 194.183C370.666 197.281 369.742 200.975 368.111 204.298C368.111 204.298 367.119 206.345 367.119 206.345C365.172 210.323 363.19 214.39 362.096 218.642C361.017 222.928 360.542 227.401 360.236 231.819C360.191 232.595 360.072 234.453 360.039 235.199C359.946 237.546 359.239 240.118 360.441 242.07C362.236 244.356 365.181 245.483 367.203 247.746C369.684 250.673 371.696 253.935 374.224 256.629C377.279 259.847 380.388 263.079 383.96 265.685C384.517 266.1 385.123 266.474 385.725 266.798C390.218 269.202 395.589 269.101 400.656 269.533C405.244 269.913 409.796 270.721 414.249 271.867C428.852 275.832 449.645 283.928 455.306 299.189C456.827 303.534 456.513 307.529 461.215 309.865C465.091 311.921 469.32 313.518 473.576 314.633C474.992 315.016 476.608 315.311 478.175 316.274C479.76 317.133 480.739 319.217 480.883 320.926C481.267 324.117 480.774 327.169 480.417 330.255C480.159 333.406 479.039 338.214 475.047 338.435C473.41 338.607 471.693 337.721 470.261 337.264C468.969 336.843 467.631 336.732 466.314 336.924C461.919 337.666 458.84 340.936 454.919 343.225C454.369 343.556 453.655 343.379 453.324 342.829C452.993 342.278 453.172 341.562 453.723 341.232C456.208 339.742 458.534 337.763 461.338 336.234C464.143 334.612 467.819 333.914 470.967 335.005C472.272 335.388 473.214 335.979 474.474 336.06C476.597 336.262 477.383 333.881 477.723 332.119C478.083 329.977 478.329 327.66 478.516 325.522C478.641 323.504 478.791 321.272 477.989 319.489C477.017 317.75 474.78 317.525 472.964 316.995C468.463 315.819 464.149 314.208 460.021 312.029C450.818 307.05 457.443 300.211 445.471 289.611C434.909 280.478 418.589 274.805 404.861 272.667C398.768 271.684 392.661 272.333 386.685 270.17C383.67 269.104 381.116 267.015 378.759 264.938C376.452 262.875 374.332 260.707 372.226 258.482C369.576 255.664 367.578 252.456 365.19 249.622C363.146 247.437 360.015 246.213 358.163 243.65C356.185 240.662 357.264 237.077 357.311 233.914C357.612 228.534 358.041 223.212 359.357 217.931C360.138 214.89 361.305 211.989 362.584 209.209C363.653 206.842 364.91 204.409 365.997 202.058C367.354 198.89 368.344 195.503 370.26 192.548C370.639 191.966 371.275 191.232 371.969 190.883L372.471 190.621L374.479 189.576L378.496 187.485C378.502 187.481 410.635 170.757 410.64 170.754L410.147 171.164L422.645 155.095L422.329 156.016V121.042L423.431 122.488L383.848 111.618C383.506 111.524 383.224 111.318 383.031 111.052L347.756 62.3718C347.563 62.1055 347.47 61.797 347.471 61.4914V39.2782C347.471 38.4498 348.142 37.7783 348.97 37.7783C349.798 37.7783 350.469 38.4498 350.469 39.2782Z" fill="white"/>
<path d="M448.705 325.782C451.062 324.466 453.404 323.225 455.84 322.049C457.908 321.135 459.994 319.944 462.343 319.735C462.707 319.73 463.079 319.785 463.41 319.942C463.689 320.071 463.766 320.148 464.099 320.275C469.12 322.099 474.42 323.389 479.582 324.811C478.535 324.724 500.362 325.74 500.149 325.718C500.311 325.726 500.435 325.862 500.428 326.024C500.421 326.178 500.295 326.299 500.143 326.303L479.349 326.807C479.285 326.811 479.2 326.795 479.137 326.782C473.72 325.682 468.319 324.771 462.992 323.221C462.717 323.147 462.251 322.938 461.939 322.768C461.987 322.806 462.037 322.839 462.093 322.866C462.156 322.899 462.233 322.921 462.302 322.935C462.345 322.952 462.392 322.968 462.441 322.962C462.441 322.97 462.407 322.974 462.377 322.981C460.695 323.48 459.12 324.426 457.534 325.294C455.295 326.571 453.059 327.962 450.896 329.373C448.447 330.886 446.228 327.287 448.705 325.782Z" fill="white"/>
<path d="M633.886 538.975C637.123 545.638 640.051 556.139 639.556 563.551C639.517 563.95 639.543 564.535 639.254 564.84L619.885 588.471L620.199 587.795L610.782 638.171C610.63 638.985 609.847 639.522 609.033 639.37C608.219 639.217 607.683 638.434 607.835 637.62L617.251 587.244C617.299 586.989 617.413 586.756 617.566 586.568L636.935 562.937L636.634 564.226C635.511 562.328 634.746 560.347 634.058 558.349C632.167 552.29 630.987 546.025 630.964 539.649C630.988 538.063 633.169 537.549 633.886 538.975Z" fill="white"/>
<path d="M537.941 235.971C537.506 235.971 537.075 235.783 536.779 235.419C524.538 220.409 514.722 205.649 506.769 190.298C506.274 189.342 504.196 185.622 501.565 180.912C484.25 149.916 484.348 149.584 484.638 148.598C484.752 148.211 485.031 147.868 485.387 147.679C492.891 143.695 501.073 140.883 508.809 138.344C510.463 137.801 512.454 137.388 514.562 136.95C520.327 135.752 526.862 134.395 528.613 130.064C530.324 125.833 531.015 120.549 531.684 115.439C532.023 112.848 532.343 110.401 532.789 108.076C534.464 99.3493 535.833 92.2645 537.099 85.7801C537.257 84.9672 538.047 84.4374 538.858 84.5955C539.671 84.7544 540.201 85.542 540.042 86.3552C538.777 92.8362 537.408 99.9181 535.734 108.642C535.305 110.878 534.99 113.283 534.657 115.829C533.964 121.125 533.247 126.603 531.393 131.189C529.041 137.006 521.351 138.604 515.171 139.887C513.148 140.307 511.237 140.704 509.744 141.194C502.53 143.562 494.931 146.167 487.947 149.728C490.02 154.096 499.088 170.329 504.182 179.448C506.93 184.366 508.914 187.92 509.431 188.918C517.288 204.084 526.994 218.674 539.102 233.523C539.625 234.165 539.53 235.11 538.888 235.633C538.61 235.86 538.275 235.971 537.941 235.971Z" fill="white"/>
<path d="M647.073 154.207C646.994 154.207 646.915 154.201 646.835 154.189C646.018 154.058 645.46 153.29 645.59 152.472L648.425 134.636C648.438 134.557 648.456 134.479 648.481 134.402L666.434 79.9265C666.693 79.1396 667.542 78.7129 668.327 78.9715C669.113 79.231 669.541 80.0791 669.281 80.8656L651.367 135.227L648.552 152.943C648.434 153.681 647.797 154.207 647.073 154.207Z" fill="white"/>
<path d="M839.705 19.7949C839.456 19.7949 839.204 19.7332 838.973 19.603L627.771 -98.9223C627.048 -99.3276 626.791 -100.242 627.196 -100.964C627.602 -101.687 628.517 -101.943 629.237 -101.539L840.439 16.9866C841.162 17.3919 841.419 18.3061 841.014 19.0286C840.739 19.5189 840.229 19.7949 839.705 19.7949Z" fill="white"/>
<path d="M103.68 -44.3805C111.871 -42.9785 124.904 -40.7461 132.82 -39.3824C134.283 -39.1166 135.605 -38.8983 136.996 -38.7622C136.996 -38.7621 170.571 -34.8816 170.571 -34.8816C187.259 -33.2603 203.795 -28.5438 220.596 -29.0279C226.024 -29.1744 231.489 -30.0293 236.669 -31.6815C262.006 -40.1693 287.753 -47.8504 313.035 -56.5058C317.055 -57.917 320.604 -59.9201 324.855 -61.2734C327.428 -62.0961 330.342 -62.6565 333.097 -62.3744C336.543 -62.0146 339.885 -60.8869 342.93 -59.6542C348.231 -57.4837 353.215 -54.6862 358.297 -52.2374C383.709 -41.0474 433.901 -19.0196 459.042 -8.41309C467.886 -4.76679 481.215 1.28445 490.182 4.42507C498.165 7.2691 506.593 10.0631 513.959 14.6399C523.902 20.7163 530.591 31.0303 537.269 40.1848C542.772 47.8468 546.828 50.2928 556.579 48.5554C562.137 47.6576 567.258 45.7035 572.769 44.3216C578.338 42.7822 584.488 42.8087 590.212 43.3782C595.862 43.8796 601.418 44.8042 607.021 45.344C607.848 45.4187 608.458 46.1527 608.379 46.9799C608.303 47.7825 607.605 48.3769 606.808 48.3362C598.435 47.9348 590.061 46.4678 581.706 46.9276C573.36 47.4399 565.627 51.5771 557.383 53.0209C552.271 54.0553 546.046 54.2481 541.375 51.176C538.116 49.1902 535.52 46.116 533.295 43.102C530.307 38.9919 526.325 33.5532 523.136 29.7811C519.635 25.6904 515.838 21.8323 511.222 19.0455C504.142 14.707 496.322 12.2116 488.422 9.34633C483.879 7.81695 477.123 4.92101 472.608 2.97573C441.917 -9.89354 391.071 -32.4138 360.101 -45.9865C356.192 -47.6492 352.295 -49.7218 348.562 -51.6086C343.758 -54.001 338.741 -56.4978 333.533 -57.3886C332.664 -57.5456 331.774 -57.5875 330.89 -57.5484C326.553 -57.2462 322.809 -55.3333 318.688 -53.5999C317.371 -53.0386 316.004 -52.4762 314.579 -51.9904C289.166 -43.4571 263.392 -35.937 237.94 -27.5794C234.515 -26.5057 230.816 -25.7324 227.244 -25.3023C213.661 -23.6734 200.029 -26.328 186.754 -28.6603C173.736 -31.0774 147.608 -33.8292 134.399 -35.6622C129.353 -36.5813 124.562 -37.4734 119.816 -38.3483C119.816 -38.3483 103.154 -41.4271 103.154 -41.4271C102.34 -41.5776 101.802 -42.36 101.952 -43.1746C102.102 -43.9824 102.873 -44.5184 103.68 -44.3805Z" fill="white"/>
<path d="M416.021 57.7926C415.279 57.7926 414.635 57.2427 414.536 56.4875L413.511 48.6653C413.038 45.0547 411.03 41.8256 408.001 39.8057L400.524 34.8186C397.575 32.8521 395.604 29.8479 394.974 26.3595C394.344 22.8711 395.139 19.3669 397.213 16.4921L412.883 -5.22791L426.531 -31.8275C426.569 -31.9014 426.613 -31.9721 426.663 -32.0386L461.15 -78.3556C461.644 -79.02 462.583 -79.1576 463.248 -78.6623C463.912 -78.1677 464.049 -77.228 463.555 -76.5636L429.142 -30.3467L415.499 -3.75732C415.464 -3.69017 415.425 -3.62572 415.38 -3.5644L399.644 18.2477C398.051 20.4556 397.441 23.1469 397.925 25.8259C398.409 28.5052 399.923 30.8124 402.187 32.3227L409.664 37.3098C413.413 39.8097 415.899 43.8065 416.484 48.2753L417.509 56.0974C417.617 56.9189 417.039 57.672 416.218 57.7796C416.152 57.7884 416.086 57.7926 416.021 57.7926Z" fill="white"/>
<path d="M307.161 -52.3007C331.028 -19.9849 356.699 12.0583 381.543 43.702C384.107 46.761 386.227 50.3734 388.766 53.403C391.591 56.774 393.93 57.9451 398.369 57.3629C400.455 57.1135 402.599 56.701 404.703 57.0417C411.091 57.8593 415.999 62.9343 420.811 66.3524C422.382 67.4769 424.109 68.4931 425.841 69.4887C431.091 72.4732 436.543 74.9963 442.009 77.6272C442.756 77.9846 443.072 78.8802 442.714 79.6275C442.356 80.3779 441.454 80.6931 440.706 80.3294C435.24 77.6848 429.685 75.0434 424.422 71.9438C422.66 70.8992 420.904 69.8395 419.197 68.5878C415.844 66.1256 412.917 63.3374 409.583 61.4372C406.908 59.8766 403.958 59.11 400.918 59.5205C397.143 60.0776 393.002 60.3868 389.861 57.7289C387.199 55.5788 385.268 52.6178 383.393 49.8689C381.235 46.4972 367.689 29.32 365.042 25.7685C352.756 9.89767 340.159 -6.37766 327.702 -22.115C320.147 -31.6252 312.551 -41.1039 304.798 -50.4546C304.266 -51.0904 304.35 -52.0368 304.986 -52.5685C305.647 -53.1254 306.655 -53.0009 307.161 -52.3007Z" fill="white"/>
<path d="M485.03 115.925C484.977 115.925 484.923 115.922 484.869 115.916C484.046 115.828 483.45 115.089 483.538 114.265L487.79 74.5648C487.878 73.7416 488.612 73.1446 489.44 73.2333C490.264 73.3217 490.859 74.0607 490.772 74.8846L486.52 114.585C486.437 115.354 485.787 115.925 485.03 115.925Z" fill="white"/>
<path d="M334.849 32.7993C337.234 41.4966 339.098 50.1837 340.328 59.1322C340.433 60.0279 340.572 61.1594 340.498 62.1371C340.454 62.5431 340.349 62.9687 340.207 63.3548C340.159 63.4752 340.26 63.2387 340.28 63.1747C340.317 63.0712 340.349 62.9648 340.375 62.8571C340.462 62.5307 340.49 61.9753 340.452 61.7425C342.484 67.1257 347.167 77.0231 349.579 82.5185C350.706 85.0023 352.969 90.0629 354.135 92.4795C354.135 92.4795 354.151 92.5132 354.151 92.5132C354.154 92.5202 354.168 92.5455 354.134 92.4889C354.061 92.3759 353.953 92.2048 353.838 92.0988C353.806 92.0675 353.822 92.0838 353.829 92.0911L353.852 92.1138C353.895 92.1567 353.991 92.2584 354.035 92.3027C364.017 101.419 374.401 110.375 383.904 120.063C385.122 121.304 383.552 123.361 382.016 122.392C370.382 114.779 359.175 106.717 348.548 97.7548C347.907 97.1937 347.443 96.4951 347.064 95.7487C346.392 94.4864 345.751 93.1742 345.139 91.9147C341.234 83.815 337.548 75.6983 334.446 67.2388C333.901 65.5331 333.212 63.9913 333.126 62.123C333.092 61.6604 333.287 60.8797 333.426 60.5593C333.31 60.7882 333.23 61.1377 333.222 61.364C333.233 61.3684 333.227 61.2911 333.229 61.2832C333.216 56.921 332.649 50.9874 332.431 46.5718C332.174 42.1438 331.938 37.699 331.882 33.2318C331.876 31.4988 334.351 31.1059 334.849 32.7993Z" fill="white"/>
<path d="M645.727 -55.876C646.65 -48.6662 646.01 -41.3239 644.547 -34.2436C643.107 -27.1719 640.819 -20.3308 638.407 -13.6746C637.838 -12.0716 637.322 -10.4375 637.114 -8.99448C636.72 -6.72329 637.726 -6.03668 639.675 -5.22442C642.014 -4.29397 644.535 -3.67125 647.01 -2.97602C657.158 -0.186462 667.459 2.03005 677.843 3.73574C680.351 4.14967 683.133 4.55816 685.663 4.91826C690.223 5.57864 694.705 6.89024 698.938 8.58851C708.981 12.645 717.437 19.6104 726.151 25.8448C731.873 30.0405 737.494 34.3551 743.403 38.2021C744.098 38.6546 744.294 39.585 743.842 40.2802C743.364 41.0233 742.326 41.1878 741.642 40.6301C734.715 35.0621 727.798 29.6374 720.43 24.7516C716.073 21.8659 711.392 19.2785 706.703 17.0375C700.508 14.1081 694.193 11.2799 687.49 9.94314C686.061 9.6465 683.848 9.34172 682.375 9.13435C668.249 7.0764 654.292 4.01682 640.646 -0.209045C633.899 -2.26442 631.269 -5.36382 633.573 -12.4841C636.22 -19.9704 639.183 -27.3068 640.945 -35.0371C642.54 -41.7796 643.316 -48.7047 642.745 -55.567C642.638 -57.4699 645.411 -57.8337 645.727 -55.876Z" fill="white"/>
<path d="M839.949 19.7749C826.645 21.5649 813.405 23.7456 800.191 26.095C791.357 27.6283 782.642 29.6115 773.781 31.1327C765.296 32.6155 756.179 32.7456 748.981 37.5477C742.115 42.1039 737.031 48.8812 730.833 54.3107C728.744 56.1411 726.556 57.8485 724.338 59.5014C720.791 62.1285 717.21 64.8342 714.405 68.2716C713.008 69.9728 711.724 71.7885 710.561 73.6295C708.271 77.4189 706.53 81.5948 704.254 85.4497C702.824 87.8935 701.106 90.3994 698.79 92.1967C697.078 93.5088 695.411 95.0045 693.992 96.6193C687.353 104.111 683.505 115.443 683.207 125.396C683.107 134.892 686.22 144.382 684.572 153.922C683.37 160.08 680.446 165.849 676.617 170.774C673.835 174.364 670.523 177.522 666.897 180.245C665.934 180.95 665.053 181.701 663.878 182.128C662.685 182.565 661.401 182.418 660.22 182.255C658.01 181.952 655.785 181.674 653.559 181.314C649.098 180.576 644.504 179.532 640.592 177.14C636.745 174.737 633.619 171.62 629.543 169.651C621.122 165.287 611.745 163.16 603.03 159.364C596.388 156.42 592.39 157.764 586.054 160.621C586.054 160.621 585.285 160.957 585.285 160.957C584.993 161.066 584.709 161.195 584.408 161.284C582.643 161.874 580.606 161.749 578.891 161.205C575.803 160.312 573.518 158.505 570.493 158.579C568.165 158.674 566.423 160.589 564.691 161.99C562.147 164.154 559.655 166.376 557.197 168.64C547.323 177.736 538.126 187.458 528.435 196.794C527.838 197.368 526.888 197.348 526.315 196.75C525.734 196.146 525.763 195.178 526.38 194.61C536.231 185.544 545.653 175.899 555.634 166.922C558.142 164.672 560.69 162.461 563.286 160.312C566.456 157.643 568.778 155.619 573.194 156.854C576.561 157.807 579.062 159.902 582.411 159.737C583.388 159.7 584.422 159.295 585.314 158.898C593.282 155.36 597.162 154.67 605.25 158.421C614.503 162.339 624.572 164.625 633.231 169.976C636.05 171.782 638.583 174.128 641.381 175.85C645.138 178.151 649.483 179.128 653.796 179.862C655.985 180.223 658.199 180.507 660.419 180.818C661.514 180.976 662.541 181.083 663.398 180.77C664.27 180.465 665.152 179.756 666.04 179.1C673.083 173.853 678.904 166.723 681.837 158.397C685.075 149.927 682.981 140.919 682.075 132.163C681.862 129.919 681.678 127.66 681.708 125.381C681.737 120.814 682.674 116.333 683.941 111.968C685.99 105.164 689.406 98.6475 694.496 93.6248C695.082 93.1038 695.79 92.3865 696.416 91.8976C696.976 91.4318 698.391 90.3552 698.921 89.7804C703.501 84.9533 705.543 78.3173 708.984 72.6627C711.141 69.1565 714.563 64.9404 717.006 61.6269C719.723 57.9832 722.602 54.3673 725.958 51.3061C731.038 46.9395 735.405 41.7888 740.545 37.4182C751.04 28.1774 760.412 28.7784 773.26 27.451C786.539 25.8163 799.789 23.4794 813.031 21.4754C821.863 20.0524 830.678 18.5243 839.463 16.8147C840.276 16.6565 841.064 17.1877 841.222 18.0012C841.388 18.8448 840.801 19.6631 839.949 19.7749Z" fill="white"/>
<path d="M742.622 107.567C742.568 107.567 742.514 107.565 742.46 107.559C741.636 107.47 741.041 106.73 741.13 105.907C741.736 100.281 742.343 94.6551 742.951 89.029L744.329 76.2733C744.496 74.7203 744.5 72.7922 744.505 70.7512C744.52 64.3536 744.537 56.3917 749.69 52.5524C751.548 51.1682 753.773 50.7445 755.892 50.4289C763.162 49.3471 770.563 49.0887 777.889 49.661C783.23 50.0778 788.724 51.2195 794.036 52.3235C799.567 53.4729 805.287 54.6614 810.867 55.0437C818.408 55.5604 826.282 55.3111 833.896 55.0699C838.203 54.9337 842.657 54.7926 846.992 54.7926C847.82 54.7926 848.492 55.4641 848.492 56.2925C848.492 57.1209 847.82 57.7924 846.992 57.7924C842.704 57.7924 838.275 57.9326 833.99 58.0682C826.302 58.3116 818.353 58.5637 810.662 58.0364C804.878 57.6403 799.056 56.4304 793.426 55.2605C787.965 54.1257 782.807 53.0538 777.656 52.6516C770.554 52.097 763.38 52.3477 756.333 53.3961C754.591 53.6554 752.781 53.9897 751.481 54.9583C747.533 57.9004 747.517 64.7314 747.503 70.758C747.498 72.8801 747.494 74.8847 747.31 76.595L745.933 89.3512C745.325 94.9771 744.717 100.602 744.111 106.228C744.028 106.997 743.378 107.567 742.622 107.567Z" fill="white"/>
<path d="M657.546 1.60266L658.899 10.913C659.072 12.11 658.326 13.2284 657.194 13.551L656.913 13.6313L613.511 26.0558L614.555 24.6269V46.7203C614.555 47.5487 613.884 48.2202 613.056 48.2202C612.228 48.2202 611.557 47.5487 611.557 46.7203V24.6269C611.556 23.9571 611.996 23.3909 612.6 23.1978L655.18 8.19472L653.195 10.913L654.547 1.60266C654.802 -0.105855 657.291 -0.109069 657.546 1.60266Z" fill="white"/>
<path d="M613.056 26.1266C612.228 26.1266 611.557 25.4551 611.557 24.6267V8.0849C611.557 7.648 611.747 7.23282 612.078 6.94784C612.409 6.66303 612.847 6.53769 613.28 6.60192L648.459 11.9219C649.278 12.0456 649.841 12.81 649.717 13.629C649.594 14.4482 648.832 15.0123 648.011 14.8878L614.555 9.82855V24.6267C614.555 25.4551 613.884 26.1266 613.056 26.1266Z" fill="white"/>
<path d="M580.457 46.4495C580.176 46.4495 579.892 46.3706 579.639 46.2055L540.192 20.4477C539.498 19.9949 539.303 19.0654 539.756 18.3718C540.208 17.6779 541.137 17.4827 541.831 17.9355L581.278 43.6933C581.971 44.1461 582.167 45.0756 581.714 45.7692C581.427 46.2099 580.947 46.4495 580.457 46.4495Z" fill="white"/>
<path d="M606.392 674.029C606.134 673.416 605.915 672.788 605.741 672.148C603.647 664.474 606.082 656.271 609.003 648.912C622.089 615.945 645.288 587.843 654.648 553.461C656.991 544.856 657.881 534.15 651.533 528.286C646.399 523.544 638.804 524.129 632.022 524.454C600.525 525.962 568.641 515.625 543.249 495.674C517.858 475.723 499.137 446.297 491.126 413.746C487.571 399.302 486.151 383.591 491.294 369.702C496.437 355.814 509.57 344.522 523.487 346.053C537.123 347.553 547.901 360.259 561.52 361.934C573.858 363.45 585.408 355.602 595.043 347.236C613.349 331.338 629.213 312.245 641.814 290.946C649.008 278.784 655.175 263.104 648.557 250.575C645.103 244.034 638.809 239.86 632.646 236.24C617.034 227.07 574.909 200.695 556.619 208.736C552.821 210.406 550.527 214.746 549.938 219.085C544.749 257.315 565.876 315.667 514.26 326.433C483.435 332.863 467.49 310.926 460.758 304.875C454.026 298.823 441.979 285.207 414.342 277.265C386.705 269.322 365.446 263.649 357.651 239.064C357.651 230.365 358.714 215.615 381.391 204.268C396.272 196.704 416.468 185.736 422.846 166.068C422.846 166.068 430.995 138.08 423.555 121.438C416.115 104.799 410.446 105.931 393.444 101.016C368.762 93.8818 347.303 69.4799 354.715 40.4414C358.593 25.2521 369.261 13.3241 377.327 0.144119C388.01 -17.3116 394.306 -37.4195 404.266 -55.3557C412.373 -69.9555 402.048 -82.667 412.409 -95.5403C416.873 -101.087 431.403 -137.692 437.846 -135.205C450.888 -135.423 425.558 -72.3519 414.525 -54.5593C407.634 -43.4468 404.53 -30.1689 398.698 -18.3856C390.465 -1.75008 377.054 11.4207 368.585 27.9206C360.116 44.4205 358.056 67.5437 371.2 80.0784C381.617 90.0122 397.329 89.5552 410.155 95.4582C434.074 106.466 442.667 144.606 432.795 168.595C427.509 181.438 417.244 191.091 406.885 199.723C398.006 207.122 388.821 214.104 379.366 220.64C374.037 224.324 368.144 228.567 366.832 235.198C364.779 245.573 375.015 253.823 384.334 257.499C405.936 266.021 435.316 258.477 453.092 276.448C467.032 290.541 476.709 313.012 497.332 316.817C531.289 323.082 547.337 284.519 541.458 254.358C539.006 241.776 534.071 228.47 538.693 216.604C542.234 207.515 550.931 201.558 559.973 199.624C569.014 197.691 578.396 199.243 587.34 201.64C605.392 206.479 622.625 214.777 637.97 226.021C649.951 234.799 661.59 247.055 662.424 262.541C662.973 272.753 658.675 282.486 654.22 291.542C643.112 314.123 629.989 336.232 611.302 352.125C588.066 371.887 556.989 378.741 529.472 365.216C521.949 361.518 512.78 356.559 506.135 361.837C502.854 364.443 501.383 368.887 500.505 373.15C494.32 403.206 509.228 433.713 527.559 457.463C544.406 479.289 566.3 499.042 592.584 502.597C612.611 505.306 634.233 498.517 652.435 507.839C667.529 515.568 676.642 533.477 677.57 551.32C678.497 569.162 672.211 586.748 663.01 601.677C654.997 614.68 644.811 626.011 636.558 638.842C628.306 651.672 621.895 666.756 622.972 682.277C616.85 685.591 609.232 680.767 606.392 674.029Z" fill="white"/>
<path d="M618.72 687C617.125 687 615.494 686.699 613.886 686.093C609.296 684.363 605.326 680.414 603.267 675.53V675.529C602.941 674.756 602.667 673.962 602.45 673.17C600.01 664.226 602.798 655.167 605.848 647.485C611.506 633.231 619.078 619.773 626.401 606.759C636.086 589.546 646.101 571.747 651.357 552.441C652.94 546.628 654.776 536.119 649.29 531.052C645.398 527.458 639.096 527.767 633.006 528.068L632.176 528.108C616.111 528.875 600.021 526.691 584.351 521.611C568.68 516.531 554.168 508.796 541.218 498.62C528.267 488.444 517.036 475.952 507.835 461.49C498.634 447.028 491.897 431.278 487.812 414.676C483.283 396.275 483.38 381.124 488.108 368.358C490.93 360.736 495.897 353.907 502.094 349.129C508.858 343.916 516.375 341.594 523.838 342.414C531.395 343.245 537.951 347.085 544.291 350.798C550.219 354.271 555.82 357.55 561.912 358.299C573.532 359.728 584.564 351.62 592.88 344.397C610.974 328.685 626.462 310.045 638.916 288.992C648.031 273.586 650.27 261.265 645.572 252.372C642.49 246.535 636.431 242.639 630.993 239.445C629.938 238.825 628.762 238.126 627.479 237.366C618.51 232.04 604.956 223.993 591.359 218.093C571.799 209.605 562.381 210.159 557.925 212.118C555.613 213.135 553.809 216.075 553.33 219.61C552.002 229.391 552.456 240.502 552.936 252.266C554.261 284.72 555.763 321.504 514.918 330.023C510.829 330.876 506.979 331.256 503.364 331.256C481.7 331.257 468.383 317.632 461.468 310.558C460.324 309.389 459.336 308.378 458.551 307.673C457.769 306.969 456.919 306.17 456.02 305.323C448.99 298.705 437.225 287.629 413.452 280.796L411.894 280.349C384.376 272.449 362.641 266.209 354.405 240.237L354.224 239.667V239.064C354.224 227.312 357.147 212.359 379.936 200.956C396.111 192.734 413.863 182.483 419.588 164.932C419.959 163.62 427.09 137.837 420.462 123.014C414.846 110.453 411.006 109.448 399.605 106.465C397.52 105.92 395.157 105.301 392.548 104.547C376.866 100.014 363.116 89.1291 355.765 75.4298C349.766 64.2489 348.26 51.8176 351.409 39.4796C354.379 27.8478 361.026 18.1391 367.455 8.75012C369.823 5.29164 372.272 1.71532 374.458 -1.85684C380.157 -11.1697 384.707 -21.546 389.107 -31.5809C392.845 -40.1069 396.71 -48.9233 401.318 -57.2209C404.624 -63.1735 404.377 -68.8313 404.116 -74.8212C403.806 -81.9489 403.454 -90.0277 409.81 -97.9241C410.992 -99.3933 413.633 -104.717 416.186 -109.865C425.615 -128.874 431.911 -140.482 438.375 -138.847C440.65 -138.691 442.56 -137.392 443.676 -135.216C445.371 -131.912 445.328 -126.514 443.542 -118.23C442.177 -111.898 439.738 -103.81 436.49 -94.841C430.695 -78.8398 422.66 -61.0498 417.383 -52.5403C413.555 -46.3675 410.963 -39.5178 408.219 -32.2657C406.264 -27.0981 404.241 -21.7543 401.729 -16.6769C397.378 -7.88695 391.629 -0.0313721 386.068 7.5659C380.92 14.5992 375.597 21.8718 371.591 29.678C363.736 44.9808 361.864 66.2697 373.483 77.3504C379.327 82.923 387.258 84.9222 395.655 87.0388C400.94 88.3706 406.404 89.748 411.512 92.099C422.092 96.9677 430.675 107.129 435.683 120.711C441.676 136.967 441.771 155.879 435.933 170.066C430.377 183.566 419.702 193.684 408.994 202.607C400.071 210.042 390.73 217.142 381.229 223.71C375.765 227.488 371.162 231.016 370.185 235.954C368.664 243.642 377.069 250.733 385.522 254.068C393.451 257.196 402.502 258.043 412.085 258.94C427.62 260.395 443.685 261.899 455.449 273.792C459.753 278.144 463.666 283.264 467.45 288.216C476.314 299.815 484.686 310.771 497.916 313.212C509.249 315.303 519.2 312.035 526.693 303.759C536.977 292.402 541.563 272.848 538.103 255.103C537.624 252.646 537.056 250.193 536.454 247.595C533.969 236.879 531.4 225.798 535.529 215.199C539.219 205.726 548.327 198.384 559.3 196.037C569.754 193.802 580.223 195.961 588.174 198.092C606.731 203.066 624.137 211.448 639.91 223.005C656.364 235.06 665.09 248.292 665.845 262.331C666.447 273.518 661.931 283.736 657.255 293.242C647.616 312.836 633.925 337.562 613.438 354.986C601.25 365.352 587.112 372.19 572.552 374.762C557.225 377.469 541.832 375.317 528.039 368.538L526.951 368.001C520.353 364.74 512.875 361.044 508.181 364.771C506.189 366.354 504.814 369.265 503.853 373.934C497.533 404.644 514.694 435.042 530.204 455.136C550.412 481.317 571.544 496.064 593.014 498.968C600.172 499.936 607.796 499.633 615.168 499.341C628.217 498.825 641.71 498.289 653.917 504.54C669.303 512.419 679.93 530.702 680.992 551.117C682.102 572.488 673.383 591.501 665.873 603.688C661.547 610.706 656.572 617.288 651.76 623.654C647.552 629.221 643.201 634.978 639.383 640.912C629.893 655.668 625.521 669.494 626.39 682.007L626.558 684.437L624.522 685.539C622.727 686.511 620.752 687 618.72 687ZM609.517 672.528C610.803 675.578 613.351 678.133 616.168 679.194C617.037 679.522 618.191 679.796 619.433 679.646C619.239 666.246 624.041 651.84 633.733 636.771C637.7 630.604 642.136 624.735 646.426 619.06C651.135 612.83 656.004 606.389 660.147 599.667C667.09 588.4 675.156 570.902 674.148 551.522C673.223 533.731 664.118 517.879 650.953 511.136C640.272 505.667 628.202 506.145 615.422 506.653C607.775 506.956 599.867 507.269 592.153 506.226C568.892 503.08 546.27 487.456 524.915 459.788C508.438 438.442 490.247 405.947 497.159 372.365C497.999 368.282 499.631 362.443 504.089 358.902C512.054 352.575 521.911 357.447 529.831 361.363L530.906 361.893C543.448 368.057 557.462 370.012 571.433 367.544C584.842 365.176 597.891 358.854 609.166 349.264C628.655 332.69 641.859 308.801 651.186 289.841C655.416 281.243 659.504 272.069 659.002 262.751C658.375 251.088 650.646 239.745 636.031 229.037C620.932 217.973 604.269 209.949 586.505 205.188C579.252 203.244 569.759 201.263 560.646 203.211C551.882 205.085 544.683 210.755 541.857 218.008C538.596 226.381 540.787 235.832 543.107 245.838C543.697 248.386 544.308 251.022 544.813 253.613C548.714 273.625 543.413 295.821 531.621 308.844C522.479 318.941 510.422 322.945 496.749 320.421C480.994 317.515 471.409 304.971 462.139 292.84C458.324 287.848 454.72 283.132 450.736 279.104C440.706 268.964 426.513 267.635 411.486 266.228C401.875 265.328 391.937 264.398 383.146 260.93C371.645 256.393 361.104 246.443 363.479 234.442C365.125 226.127 372.28 221.181 377.504 217.569C386.836 211.118 396.012 204.143 404.777 196.84C414.777 188.506 424.713 179.139 429.658 167.124C434.789 154.656 434.653 137.898 429.305 123.39C424.971 111.635 417.689 102.908 408.799 98.8173C404.243 96.7207 399.307 95.4764 394.08 94.1592C387.386 92.4717 380.52 90.7413 374.483 87.0585C380.244 91.7547 387.052 95.3784 394.339 97.4852C396.869 98.2164 399.19 98.8235 401.237 99.3593C413.485 102.564 419.633 104.173 426.647 119.863C434.575 137.593 426.468 165.955 426.119 167.154L426.085 167.265C419.515 187.524 400.33 198.693 382.864 207.571C361.723 218.149 361.097 231.559 361.079 238.452C368.282 260.254 387.358 265.729 413.675 273.284L415.233 273.732C440.555 281.009 453.074 292.795 460.554 299.836C461.422 300.654 462.243 301.427 462.966 302.076C463.919 302.933 464.981 304.019 466.21 305.276C474.001 313.245 488.503 328.079 513.603 322.843C548.658 315.531 547.41 284.955 546.088 252.584C545.616 241.001 545.127 229.023 546.547 218.56C547.379 212.426 550.739 207.365 555.314 205.354C563.633 201.696 576.267 203.646 593.94 211.315C607.923 217.383 621.697 225.56 630.811 230.972C632.083 231.727 633.25 232.42 634.298 233.035C640.562 236.715 647.576 241.269 651.543 248.778C657.574 260.197 655.276 275.041 644.712 292.899C631.86 314.623 615.876 333.859 597.205 350.073C587.845 358.201 575.284 367.308 561.128 365.567C553.7 364.654 547.241 360.871 540.994 357.212C534.987 353.694 529.314 350.371 523.135 349.692C515.855 348.89 509.857 352.17 506.107 355.061C500.957 359.03 496.829 364.708 494.481 371.047C490.31 382.313 490.296 395.976 494.44 412.817C498.328 428.614 504.742 443.607 513.505 457.38C522.268 471.153 532.958 483.046 545.281 492.728C557.603 502.41 571.418 509.772 586.342 514.61C601.266 519.449 616.585 521.533 631.869 520.799L632.69 520.759C639.778 520.409 647.813 520.014 653.775 525.52C660.074 531.337 661.514 541.353 657.939 554.482C652.434 574.701 642.187 592.913 632.276 610.526C625.075 623.324 617.629 636.558 612.159 650.339C609.58 656.835 607.192 664.384 609.031 671.125C609.159 671.592 609.322 672.064 609.517 672.528ZM437.202 -131.563C436.551 -131.13 434.677 -129.461 431.022 -123.225C428.068 -118.185 424.974 -111.946 422.244 -106.442C418.697 -99.2919 416.612 -95.1495 415.009 -93.1564C410.427 -87.4643 410.663 -82.0348 410.963 -75.161C411.245 -68.6763 411.565 -61.3264 407.214 -53.4905C402.777 -45.4992 398.983 -36.8468 395.314 -28.4794C390.814 -18.215 386.16 -7.60071 380.196 2.14441C377.911 5.87729 375.409 9.53267 372.988 13.0673C366.648 22.3279 360.659 31.0746 358.022 41.4029C355.566 51.0232 356.464 60.7169 360.608 69.5902C359.16 65.3483 358.399 60.6254 358.361 55.5152C358.289 45.7959 360.853 35.3716 365.58 26.1628C369.854 17.8357 375.351 10.3251 380.667 3.06163C386.044 -4.28378 391.603 -11.879 395.668 -20.0943C398.017 -24.841 399.973 -30.0087 401.864 -35.0059C404.614 -42.2747 407.459 -49.7909 411.668 -56.5786C416.836 -64.9129 424.713 -82.4635 430.397 -98.3102C438.545 -121.026 438.532 -129.734 437.749 -131.545L437.271 -131.537L437.202 -131.563Z" fill="white"/>
</g>
<defs>
<clipPath id="clip0_1308_2034">
<rect width="795" height="671" fill="white"/>
</clipPath>
</defs>
</svg>
