<?xml version="1.0" encoding="utf-8"?>
<!-- Generator: Adobe Illustrator 26.3.1, SVG Export Plug-In . SVG Version: 6.00 Build 0)  -->
<svg version="1.1" id="Calque_1" xmlns="http://www.w3.org/2000/svg" xmlns:xlink="http://www.w3.org/1999/xlink" x="0px" y="0px"
	 width="795px" height="671px" viewBox="0 0 795 671" style="enable-background:new 0 0 795 671;" xml:space="preserve">
<style type="text/css">
	.st0{clip-path:url(#SVGID_00000124882055496990458640000017380074701471440270_);fill:none;}
	.st1{clip-path:url(#SVGID_00000124882055496990458640000017380074701471440270_);}
	.st2{fill:#FDF5DA;}
	.st3{fill:#FFFFFF;}
</style>
<g>
	<defs>
		<rect id="SVGID_1_" x="0.9" y="217.8" width="794" height="452.8"/>
	</defs>
	<clipPath id="SVGID_00000062166192435283057850000013185989676405891260_">
		<use xlink:href="#SVGID_1_"  style="overflow:visible;"/>
	</clipPath>
	
		<rect x="21.8" y="137.3" style="clip-path:url(#SVGID_00000062166192435283057850000013185989676405891260_);fill:none;" width="704.1" height="496.3"/>
	<g style="clip-path:url(#SVGID_00000062166192435283057850000013185989676405891260_);">
		<path class="st2" d="M120.9,144.9c16.3-21.4-6.5-17.3,15.8-33.9c25.8-19.3,14.6-33.3,109.6-47.5c35.9-5.4,79.8,37,116.3,37.4
			c43.7,0.5,90.3-52.1,133.6-47.1c4,0.5,8.3,1,11.4,3.3c2.7,1.9,4.1,4.7,5.8,7.3c11.8,17.4,39.2,22,63.1,21
			c23.8-1,48.2-5.9,71.1-0.3c27.1,6.6,47.1,26.7,74.1,33.9c13.1,3.5,27.2,3.6,40.2,7.2c13,3.6,25.8,12.2,26.3,23.7
			c0.4,7.8-4.9,14.8-8.4,22c-7.5,15.5,6.5,11.2,6.5,28.1c0,34.3-12.1,16.1-28,37.4c-13.5,18.1,0,52.8,14.9,73.9
			c7.7,10.9,16.5,21.3,21.1,33.4c3.8,10,1.1,20.9-2,31.1c-5,16.2-11,32.2-17.9,47.9c-3.6,8.1-7.5,16.3-7.7,25
			c-0.3,13.8,8.7,26.4,14,39.6c14.7,36.6-0.5,76.4-15.6,113c-5.4,13.1-11.6,27.1-25.1,35.2c-12.2,7.3-28.2,8.4-43.2,8.6
			c-32,0.4-64-2-95.4-7.1c-12.6-2.1-26.4-5.3-33.1-14.4c-2.8-3.8-4.3-8.4-8.5-11.2c-3.5-2.3-8.1-2.7-12.5-3.1
			c-26.8-2.2-47.3,10.1-74.1,7.9c-8.2-0.7-22.8-15.7-30.7-13.8c-7.9,1.9-14.6,6.2-21.7,9.8c-45.9,23.4-49.5-43.2-93.4-69.2
			c-28.3-16.7-119.9,85.2-151.4,73.2c-11.7-4.5-14.8-74.6-23-82.9c-10.5-10.7-9.1-26.6-3-39.4c8.5-17.9,22.8-31.8,25.9-51.5
			c3.2-20.1-36.4-16.2-45.1-34.9c-14.1-30.3,4.8-54.3-10.3-84.3c-11.1-22,9.3-82.4,7.5-106.2c-1.6-20.9-2.3-28.8,11.3-47.4
			C139.4,169.8,120.5,145.4,120.9,144.9z"/>
		<path class="st2" d="M121.7,145.3c4.4-5.9,7.5-11.7,5.9-18.7c-0.5-2.3-0.7-4.2,0.6-6.4c2.3-3.8,6.6-6.7,10.2-9.5
			c7.4-5.7,12.9-12.7,19.8-18.8c9.1-8.1,21-12.9,33.3-16.5c11-3.2,22.4-5.6,33.8-7.6c12.6-2.3,25.4-5.3,38.2-2.8
			c22.8,4.4,42.2,17.5,62.4,26.6c9.3,4.2,19.3,8.2,29.8,9.6c9.7,1.3,19.4-0.1,28.5-3c21.7-6.7,40.1-19.2,59.5-29.3
			c9.6-5,19.7-9.8,30.7-12.5c4.8-1.2,9.7-2,14.7-2.1c6.4-0.1,14.8,0.3,19.2,4.6c2.2,2.1,3.4,4.9,5.2,7.2c1.5,1.9,3.2,3.8,5.1,5.4
			c3.8,3.3,8.4,6,13.3,8.1c10.5,4.4,22.5,6.2,34.2,6.5c15.5,0.5,30.8-1.9,46.2-2.7c16.2-0.9,32.2,0.2,47,6.2
			c12.5,5,23.5,12.2,35,18.5c11.9,6.5,24.2,11.5,38.3,13.8c14.5,2.3,30.1,3.1,42.3,10.7c5.6,3.5,10.3,8.3,11.8,14.1
			c1.7,6.7-1.6,13.1-4.8,19c-2.3,4.2-5.3,8.8-5.3,13.5c0,2.7,1.4,4.8,3.2,7c2.4,2.8,4.3,5.5,5,8.9c1.2,5.5,0.6,11.8-0.4,17.3
			c-1,5.6-3.4,9.1-9.5,11.5c-6.5,2.5-11.6,5.8-15.8,10.8c-13.8,16.3-6.3,39.7,1.5,56.7c4.9,10.5,11.5,20.1,18.5,29.7
			c8.7,11.8,17.2,24.1,15.7,38.5c-0.7,6.9-2.9,13.7-5,20.4c-2.2,7-4.6,13.9-7.3,20.8c-2.6,6.9-5.4,13.7-8.4,20.5
			c-2.7,6.1-5.7,12.2-7.4,18.6c-3.3,12.6,1.1,24.1,6.7,35.6c6.2,12.6,10.8,25,11.7,38.8c1.7,27.4-8.2,54.3-18.6,79.9
			c-4.6,11.2-8.8,23.1-17.2,32.8c-9.3,10.7-23.5,15.2-38.9,16.5c-15.9,1.3-32.3,0.8-48.3,0c-17.7-0.9-35.4-2.6-52.8-5.2
			c-12.9-1.9-28.4-3.7-37.8-12.2c-4.4-4-5.7-9.8-10.3-13.6c-4.4-3.6-11-4-16.8-4.3c-14.2-0.7-27.8,2.8-41.4,5.5
			c-7.2,1.4-14.4,2.6-21.8,2.8c-3.1,0.1-6.7,0.3-9.7-0.5c-2.3-0.6-4.4-1.8-6.3-2.9c-4.2-2.5-8.1-5.3-12.4-7.7
			c-2.9-1.6-6.5-3.5-10.2-3.1c-6.3,0.7-12.5,4.6-17.6,7.4c-4.6,2.4-9.1,4.9-14.3,6.3c-16.6,4.4-27.5-6.9-35.4-17.4
			c-10.3-13.9-18.3-29-30.7-41.8c-3.2-3.3-6.6-6.4-10.4-9.2c-2.6-2-5.5-4.2-8.8-5.4c-3.9-1.4-8.4-1-12.4-0.1
			c-13,3.1-24.6,11-35,17.9c-14.2,9.4-27.6,19.5-41.4,29.2c-12.2,8.6-24.7,17.6-38.9,23.8c-4.7,2.1-10,4.1-15.5,4.2
			c-4.8,0.1-7.6-1.2-9.5-4.8c-2.9-5.4-4.1-11.5-5.4-17.3c-1.7-7.6-2.9-15.2-4.2-22.9c-1.2-7.5-2.4-14.9-4-22.3
			c-1-4.8-1.8-10.1-4.4-14.6c-1.8-3.3-4.9-5.8-6.4-9.3c-2.3-5.3-2.8-11-2.1-16.6c1.5-12,8.6-22.7,15.4-33.2
			c6.6-10.3,13.2-21,14.9-32.8c0.9-6.2-2.2-11-8.3-14.4c-7-4-15.4-5.9-22.9-9.3c-4-1.8-7.8-4-10.7-6.9c-4.1-4.3-5.8-10.2-7.1-15.4
			c-3-12.1-1.4-24.3-0.6-36.5c0.8-11.9,0.2-23.8-5-35c-7.2-15.7-4-33.3-1.5-49.6c2.7-17.4,7.3-34.9,8-52.5c0.4-9-1.5-18-0.6-27.1
			c0.5-4.5,1.8-9,3.8-13.2c1.2-2.6,2.7-5,4.3-7.5c1-1.5,3.8-4.1,3.7-5.8c-0.1-1.3-1.9-3-2.7-4.1c-2-2.8-4.1-5.5-6.1-8.3
			c-2.1-2.8-4.1-5.5-6.1-8.3c-0.8-1-1.5-2.1-2.2-3.1c-0.3-0.4-0.9-1.8-1-1.2c0.2-1-1.7-1.4-1.8-0.4c-0.2,1.2,1.5,2.8,2.2,3.8
			c2,2.9,4.1,5.7,6.2,8.5c2.2,3,4.5,6,6.7,9c0.7,1,1.5,2,2.2,3c1,1.4,0.8,1.2-0.3,2.6c-6.1,7.9-10.2,17.2-10.8,26.6
			c-0.6,9,1.2,18,0.6,27c-1.1,18.2-5.8,36.3-8.5,54.4c-1.3,9-2.4,18-2.3,27.1c0.1,3.6,0.4,7.2,1.1,10.8c0.9,4.1,3,7.8,4.5,11.7
			c9.3,23.9-2.5,49,5.6,73c1.4,4.3,3.1,8.6,6.7,12c2.8,2.7,6.3,4.8,10,6.5c7.5,3.5,16.1,5.4,23.3,9.4c3.3,1.8,6.2,4.3,7.3,7.6
			c1.6,4.9-0.6,10.6-2.3,15.2c-4.2,11.5-12.1,21.7-18.4,32.5c-5.9,9.9-10.5,20.7-9.5,31.9c0.5,5,2.1,10,5.3,14.3
			c1.6,2.2,3.4,3.8,4.4,6.2c2.2,5.5,3.2,11.4,4.3,17.1c1.5,7.8,2.7,15.6,4,23.5c1.3,7.5,2.6,14.9,4.5,22.3
			c1.2,4.8,2.4,10.4,5.7,14.6c5.3,6.8,18.3,2.3,24.9-0.5c14.1-5.9,26.6-14.8,38.7-23.3c14-9.9,27.7-20.1,42-29.7
			c10.7-7.1,22.8-15.6,36.3-18.5c4.7-1,9.1-0.9,13.1,1.5c8.8,5.3,15.9,12.3,22,19.7c11,13.4,18.4,28.7,30.1,41.7
			c4,4.5,8.9,8.8,15.2,10.9c6.6,2.2,13.6,1.5,20-0.8c5.5-2,10.3-4.9,15.4-7.5c5.2-2.7,11.6-6.5,17.8-4.2c4.6,1.8,8.6,4.7,12.6,7.3
			c3.4,2.1,7.1,4.8,11.3,5.6c6,1.2,13.2,0.4,19.2-0.3c7.1-0.9,14-2.4,21-3.8c7.3-1.5,14.6-3,22-3.6c7.2-0.5,16.8-1,23.3,2
			c6.3,2.8,7.6,9.7,11.9,14.1c3.6,3.8,8.7,6.5,14,8.3c5.9,2.1,12.2,3.3,18.5,4.3c8.5,1.4,17.1,2.6,25.7,3.5
			c16.8,1.9,33.8,3.1,50.8,3.4c15,0.3,30.8,0.8,45.4-2.3c13.2-2.8,23.6-9.5,30.6-19.2c7.4-10.2,11.5-21.9,15.9-33.1
			c10.2-25.6,19.6-52.6,17-79.9c-1.3-13.1-6.1-24.9-12-37c-2.9-5.9-5.6-11.9-6.9-18.3c-1.4-7.3-0.1-14.3,2.5-21.3
			c5-13.4,11.4-26.4,16.3-39.9c2.5-6.9,4.8-13.8,6.9-20.8c1.9-6.4,3.5-13,3.3-19.7c-0.4-12.9-9.4-24.6-17.2-35.2
			c-7.4-10-14-20.2-18.8-31.3c-7.7-18-14.1-42.9,5.4-57.5c4.3-3.2,10.1-4.2,14.4-7.2c5.6-3.9,5.9-11.4,6.2-17.1
			c0.3-4.9,0.6-10.2-1.6-14.9c-1.3-2.7-3.6-4.8-5.3-7.2c-2.5-3.5-1.4-7.3,0.2-10.9c2.7-6,6.8-11.5,8.3-17.9
			c2.3-10.2-4.4-19.1-14.3-24.7c-12.5-7.1-28-7.7-42.4-10.1c-14.6-2.4-27.1-8.1-39.4-14.9c-11.6-6.5-22.8-13.6-35.7-18.3
			c-29.6-10.7-60.5-1.4-91.2-2.4c-12.7-0.4-25.9-2.6-36.9-8.2c-5.4-2.8-10.2-6.5-13.6-11c-3.2-4.3-5-8.9-11.1-10.8
			c-9.6-3.1-21.4-1.9-31,0.6c-10.5,2.8-20.2,7.3-29.5,12.1c-20,10.3-39,23.5-61.5,30c-10.1,3-20.5,3.8-31,1.6
			c-11.3-2.4-21.7-7.2-31.7-12.1c-10.6-5.1-21-10.7-31.8-15.4c-9.3-4-19.2-7.7-29.7-8.7c-5.2-0.5-10.1,0-15.2,0.8
			c-7.6,1.2-15.3,2.4-22.8,3.9c-11,2.1-22,4.5-32.6,7.8c-11.6,3.7-22.6,8.6-31,16.3c-7.2,6.6-13.2,13.7-21.1,19.8
			c-4.8,3.7-10.7,8.3-9.7,14.3c0.4,2.1,1.1,4.2,0.9,6.4c-0.3,4.7-3.3,9-6.2,12.8C119.4,145.4,121,146.2,121.7,145.3z"/>
		<path class="st3" d="M684.4,645.5c-10.8-18.9-23.3-40.2-34.4-59.1c-1.9-3.3-4-6.5-6.1-9.7c-2-3.1-4.1-6.4-5.3-9.8
			c-1.7-5.5,0.3-11.2-1.1-16.7c-0.2-0.8-0.5-1.6-1.1-2.1c-0.9-0.8-2.6-0.7-4-0.8l-1.6-0.1l-3.3-0.1c-3.3-0.1-9.8-0.3-13.1-0.4
			c-2.2-0.1-4.3-0.1-6.4,0.2c-4.9,0.6-6.8,2.4-9.1,6c-4.1,6.5-10.2,6.2-18.1,6.1c-3.3,0-9.8-0.1-13.1-0.1c-2.2,0-4.6-0.2-6.9-0.9
			c-5.8-1.9-8.7-6.8-12.6-10.4c-0.2-0.2-1.4-1.3-1.7-1.5c-2.3-2-6.6-6.1-8.8-8.1c-2.9-2.8-6.1-5.2-9.8-7.4c-1.8-1.1-3.6-2.2-5.3-3.3
			c-3.5-2.3-6.2-5.1-9.2-7.8c-2.9-2.7-5.8-5.5-8.6-8.3c-5.7-5.6-11.1-11.4-16.5-17.2c-10.6-11.7-21.4-23.4-30.1-36.1
			c-5.5-7.9-10.3-16.2-14.4-24.7c-5.6-11.7-9.4-24.4-17.3-35.2c-9-13.1-24-19.7-39.6-26.5c-15.5-7-30.7-14.5-43.9-24.4
			c-2.5-2-5.2-3.7-7-6.3c-2.9-4.4-2.1-9.6-1.1-14.3c1.8-7.3,6.3-13.9,10-20.5c1.6-2.8,3.6-7.1,5-10.1c5-10.1,9.4-20.4,14-30.7
			c4.7-10.3,9.8-20.4,15.2-30.4c7.1-13.4,16.3-25.9,23.9-39c3.9-7,12.5-22.7,16.4-29.9c0.4,0-1-0.1,1.4-0.6c0.7,0.2,2.1,0.8,2.9,1.1
			c7.9,2.9,18.9,7.2,26.9,10.2c5.5,2.1,11.2,4,17.2,4.7c0.5,0.1,1.1,0.1,1.6,0.1c1.5-0.1,2.7,1.1,2.5,2.3c-0.8,4.3-2.1,8.3-3.2,12.3
			c0,0,0,0,0,0c0,0,0,0,0,0c0,0,0,0.1,0.1,0.3c1.2,1.3,3.2,2,5.1,2.6c7.3,2.3,15.2,3.3,23,4.2c11.9,1.2,23.9,1.9,35.8,2.2
			c5.9,0.1,11.9,0.3,17.8-0.2c5.4-0.9,12.1-1.9,15.1-6.2c1.1-1.7,1.7-3.6,3.1-5.2c4.3-5.2,13.7-2.5,20-3c3.9-0.1,8.2-0.1,12.1-0.1
			c4,0,7.7-1.8,11.7-2c5.1-0.2,10.1-0.5,15.2,0.2c2.1,0.3,4.4,0.8,6.3,1.8c2.6,0.7,1,4.7,0.5,6.2c-1.7,4.8-4.1,9.5-6,14.2
			c-0.5,1.4-1.3,3-1.4,4.4c0.9,3.6,15.4,6.7,19.6,7.8c1.9,0.5,3.8,0.9,5.8,1.5c7.4,2.2,26.1,8,33.7,10.3c-2.1-0.1,69.9,1,69.5,1
			c0.7,0,1.3,0.5,1.3,1.1c0,0.6-0.6,1.1-1.4,1.1l-69.9-1c-0.1,0-0.3,0-0.4-0.1l-22.5-6.9l-11.2-3.4c-5.6-1.6-11.5-2.8-17.1-4.6
			c-3.3-1.1-9.4-3.1-10-6.5l0-0.2c0-0.6,0.1-1,0.2-1.5c0.3-1.3,0.8-2.5,1.3-3.7c1.3-3.2,2.7-6.3,4.1-9.4c1.1-2.6,2.4-5.3,2.7-8.1
			c0-0.1,0-0.3,0-0.4c0,0,0-0.1,0,0c0,0,0.1,0.1,0.1,0.1l0.5,0.2l0,0c-6.3,1-12.3,2.7-18.8,3.4c-1.6,0.2-3.3,0.2-4.9,0
			c-3-0.5-6-1.7-9.1-1.8c-4.4-0.1-9.1-0.3-13.5-0.3c-2.6,0-5.2-0.4-7.6-0.5c-3-0.1-6.3-0.3-8.1,1.8c-1,1.1-1.6,2.6-2.4,4
			c-0.8,1.4-1.9,2.7-3.3,3.7c-4,2.9-9.3,3.8-14.3,4.6c-10.2,0.8-20.6,0.4-30.8,0.1c-14.1-0.5-28.3-1.3-42.2-3.6
			c-5.5-1.1-16.3-2.9-15.2-9.2c0.6-3.7,1.3-7.5,1.3-11l2.3,3.1c-3.4-2.5-7.2-4.6-11.1-6.3c-3.7-1.7-8.1-3.2-11.9-4.7
			c-5.8-2.2-16.5-6.4-22.3-8.6c0,0-0.7-0.3-0.7-0.3l-0.4-0.1l-0.1,0c2.3-0.6,0.8-0.4,1.2-0.4c-4.1,7.2-12.5,22.9-16.5,29.8
			c-5.7,9.9-12.3,19.4-18.2,29.1c-11.7,19.6-20.6,40.2-29.6,60.8c-2.9,6.3-5.9,13-9,19.2c-2.9,5.4-6.3,10.6-8.6,16.2
			c-1.4,3.3-2.2,6.9-2.4,10.4c-0.2,3.3,0.4,6.8,3.4,9.2c13.9,11.5,31,19.8,48.1,27.5c15.9,6.9,31.7,13.9,41,27.5
			c7.8,10.8,11.1,23,16,34.7c2.4,5.5,5.1,11.1,8.2,16.3c9.5,16.4,22.8,31.1,38.5,43.7c9.4,7.6,19.1,15,28.3,22.8
			c3,2.6,6.2,5.2,8.7,8.3c2.5,3.1,4.5,6.5,7.1,9.5c1.3,1.5,2.7,2.9,4.1,4.3c2.1,1.9,6.5,6.3,8.6,8.3l1.1,1c2.5,2.4,4.5,5.2,7,7.5
			c1.3,1.2,2.8,2.3,4.7,2.9c3.4,1.2,8.8,0.8,12.5,1c2.1,0.1,7.8,0.1,9.8,0.2c3,0.1,6.4,0,8.9-1.3c1.7-0.9,2.9-2.2,3.9-3.7
			c2.6-4,5.3-6.1,10.8-6.7c2.3-0.3,4.5-0.2,6.7-0.1c3.2,0.1,9.9,0.4,13.1,0.5l3.3,0.1l1.6,0.1c1.2,0,2.3,0.1,3.5,0.4
			c1.3,0.3,2.3,1.3,2.7,2.3c2.5,6-0.4,12.4,1.6,18.4c1.9,5,5.3,9.4,8.2,14c3.7,6,11.3,18.9,14.7,24.5c7.8,13.1,15.6,26.1,23.6,39.1
			c0.3,0.5,0.1,1.2-0.6,1.5C685.5,646.3,684.7,646,684.4,645.5z"/>
		<path class="st3" d="M760.3,608c-0.1,0-0.2,0-0.3,0l-19.7-4.2c-0.1,0-0.3-0.1-0.4-0.1l-66.1-34.3c-0.4-0.2-0.7-0.6-0.6-1l2.1-21
			c0-0.2,0.1-0.3,0.2-0.4l43.1-67.5c0,0,0,0,0-0.1l60-79.4c0.4-0.5,1.2-0.7,1.8-0.3c0.6,0.3,0.8,1,0.4,1.5l-60,79.3l-42.9,67.2
			l-2,20.1l65.2,33.8l19.5,4.2c0.7,0.2,1.1,0.8,1,1.3C761.4,607.6,760.9,608,760.3,608z"/>
		<path class="st3" d="M781.8,503.3c-13.3-1.4-26.8-4.8-39.7-8c-21.6-10.3-44.9-22.2-66-33c-8.5-5-18.1-10.9-26.5-16l0.4,0.2
			l-6.3-2.3l-6.3-2.3l1.7-0.6l-4.3,7.7c-0.3,0.5-0.9,0.7-1.5,0.6c-16.5-1.6-39.6-6.3-56.1-9.1c-18.1-3.3-37.7-6.9-55.8-10.4
			c-4.2-1.4-16.5-5.7-20.7-7.2l-6.8-2.4c-0.7-0.2-1-0.9-0.7-1.5c0.3-0.5,1-0.8,1.7-0.6c7,2.2,21.4,6.7,27.3,8.6
			c31.7,5.4,66.3,11.1,97.8,17.2c4.6,1,9.2,2,13.8,3.2l-1.5,0.6l4.3-7.7c0.3-0.5,1-0.8,1.7-0.6c3.4,1,10,2.8,13.4,4
			c8.7,4.7,18.6,10,27.2,14.8c4.6,2.1,11.2,5.2,16.4,7.7c15.2,7.2,34.4,16.4,49.5,23.8c0,0-0.8-0.3-0.8-0.3c5.5,1.4,14.1,3.4,19.5,5
			c6.5,1.9,12.8,3.9,19,6.4c0.7,0.3,0.9,1,0.6,1.5C782.9,503.2,782.3,503.4,781.8,503.3z"/>
		<path class="st3" d="M764.6,457c-0.3,0-0.6-0.1-0.8-0.2l-29.7-18.8L628,404.1c-0.7-0.2-1-0.9-0.8-1.4c0.3-0.6,1-0.9,1.7-0.6
			l106.3,33.9c0.1,0,0.2,0.1,0.3,0.2l29.9,18.9c0.6,0.4,0.7,1.1,0.3,1.6C765.4,456.8,765,457,764.6,457z"/>
		<path class="st3" d="M469.1,617.1c-0.2-5.5-2.1-10.9-5.4-15.6c-2.3-3.2-5.3-6-7.7-9.3c-1.2-1.7-2.3-3.6-2.8-5.5
			c-0.8-2.9-0.7-5.7-1.2-8.5c-0.4-2.7-1.9-5-3.7-7.2c-3.9-4.7-9.1-8.4-12.9-13.2c-2.4-3-2.4-5.3-2.6-8.7c-0.1-0.9-0.2-1.6-0.6-2.5
			c-2.6-7.1-7.9-13.2-13.1-19.2c-2-2.3-4-4.7-5.8-7.1c-1.6-2.2-3.5-4.7-2.9-7.5c0.5-2.3,2.4-4,3.3-6c1.6-3.4,0.6-7.3-1.7-10.3
			c-0.9-1.3-2.9-3.1-4.1-4.3c-4.4-4.4-8.7-8.9-12-14c-2.2-3.4-3.8-7.1-4.9-10.8c-1.2-3.7-2.4-7.3-3.4-11c-1.1-3.5-1.6-7.4-3.5-10.6
			c-3.5-6.1-14.6-8.4-21.5-11.5c-3.8-1.5-7.5-4.4-11.5-5.3c-4.7-1.2-7.6,1.6-11.8,2.7c-6.9,1.7-15.2,0.7-21-2.9
			c-2-1.3-3.7-3.1-4.6-5c-1.9-3.7-2.6-7.6-3.5-11.3c-0.7-3.4-1.9-7.7-2.9-11l-3.2-11l-0.4-1.4c-0.3-1.2-0.8-2.2-0.3-3.5
			c0.3-0.8,0.9-1.4,1.7-1.9c0.8-0.4,1.5-0.6,2.1-0.7c1.9-0.4,4.9-0.1,4.9-2.3c0.1-1.7-1.1-3.3-1.8-4.9c-1.7-4-1.3-8.6,1.6-12.1
			c0.5-0.6,1.1-1.2,1.8-1.6c1.4-0.9,3.3-1.3,4.9-1.6c2.5-0.5,5-0.7,7.4-1.3l0.8-0.2l1.6-0.4l26.2-5.9c1.7-0.3,2.4,1.7,0.7,2.1
			c0,0-26.1,6.2-26.1,6.2l-1.6,0.4c-2.7,0.7-5.6,0.9-8.3,1.5c-1.5,0.3-2.8,0.6-4,1.4c-3,2.7-3.4,7-1.9,10.5c0.1,0.3,0.4,0.8,0.6,1.2
			c1.5,2.5,2.5,6.3-0.6,8.3c-1.2,0.8-2.6,1-4,1.2c-1,0.1-1.9,0.2-2.6,0.5c-0.6,0.3-0.3,1.1-0.2,1.7c1.4,4.7,4.1,13.9,5.4,18.6
			c1,3.7,1.6,7.5,2.6,11.1c0.8,2.6,1.5,5.2,3.4,7.3c3.2,3.4,8.8,4.7,13.8,4.8c2.1,0,4.2-0.2,6.2-0.6c2.5-0.6,5.7-2.7,8.8-3
			c2.9-0.4,5.9,0.3,8.4,1.4c2.4,1,5,2.6,7.3,3.8c6.5,3.1,14.5,4.8,20.4,9.1c3.6,2.5,5.2,6.4,6.1,10c1.7,6.4,3.5,12.8,5.8,19.1
			c1.5,4.4,4.1,8.5,7.1,12.3c2.5,3.1,5.3,6,8.2,8.9c2.2,2.2,4.8,4.6,6,7.3c1.7,3.4,1.8,7.4-0.1,10.7c-0.7,1.3-1.8,2.5-2.4,3.7
			c-1.3,2.4,0.6,4.6,2.1,6.7c4.2,5.6,9.2,10.7,13.3,16.4c2.7,3.7,5.1,7.7,6.3,12.1c0.5,2.3,0.1,4.7,1,6.8c1.1,2.5,3.3,4.5,5.4,6.6
			c5.1,5.1,11.8,10.1,12.9,17.1c0.5,2.8,0.4,5.7,1.1,8.4c0.4,1.7,1.4,3.3,2.4,4.9c2.3,3.2,5.4,6.1,7.7,9.4c2.4,3.4,4,7.1,4.9,10.9
			c0.4,1.9,0.7,3.9,0.7,5.8c0,0.6-0.6,1.1-1.3,1.1C469.7,618.2,469.1,617.7,469.1,617.1z"/>
		<path class="st3" d="M172.1,616.4c3.7-4.5,8-8.4,11.4-12.9c5.3-7.7,8.7-16.1,11.9-24.5c7.6-20.3,15-41.2,22.1-61.7
			c0.8-2.5,1.5-5.1,2-7.6c0.7-4,1.9-8.5,1.2-12.4c-0.1-0.9-0.5-1.8-1-2.5c-1-1.1-2.9-2.2-4.2-3.4c-4.9-4.3-5.9-10-6.7-15.5
			c-3.2-16.8-7.4-33.5-9.4-50.4c-0.9-7.1-1.6-14.3-2.1-21.5c-0.2-3.6-0.6-7.3-0.5-11c0-1.8,0.1-3.5-0.1-5c-0.2-1.6-0.7-2.7-1.8-3.9
			c-1.7-2-4.6-3.7-4.7-6.5c0-1.3,0.8-2.4,1.8-3.3c0.9-0.7,0.9-1.6,0.6-2.6c-0.6-1.7-2.1-2.8-3.2-4.3c-1-1.2-1.8-2.7-1.6-4.2
			c0.3-2.4,2.3-4.3,3.6-6.3c1.5-2.3,1.9-4.9,1.3-7.5c-0.8-3.5-2.7-6.7-4.8-9.8c-2.1-3.1-4.4-6.3-5.7-9.8c-2.7-6.9-2.8-14.3-4.4-21.3
			c-1.2-5.3-2.5-10.6-4.1-15.8c-0.5-1.7,0.7-3.4,2.8-3.9c2-0.4,4.1,0.6,4.6,2.3c0.1,0.3,0.1,0.5,0.1,0.8c0,3.6,0.2,7.2,0.4,10.8
			c0.1,1.4,0.2,4,0.3,5.4c0.6,8.8-0.6,18.1,4.1,26.2c1.8,3.2,4.1,6.3,5.8,9.6c2.2,4.1,3.3,9.2,0.6,13.4c-0.9,1.6-2.3,3-2.9,4.7
			c-1,2.7,1.4,4.5,3.4,6.4c2,1.8,3.6,4.9,1.6,7.1c-0.6,0.8-1.4,1.6-0.6,2.5c1.1,1.2,3,2.3,4.4,3.5c0.9,0.8,1.8,1.5,2.4,2.5
			c0.7,1,1.1,2,1.4,3c0.9,2.8,1.2,5.5,1.8,8.2c0.6,2.6,1.3,5.2,2,7.8c4.4,17.6,7.4,35.3,9.1,53.2c0.7,7,1.6,14.4,2.4,21.5
			c0.4,3.1,1,6.1,3.1,8.6c1.2,1.5,2.5,2.2,4.1,3.6c1,0.8,1.9,2.1,2.4,3.2c2.5,5.6,0.4,12.1-0.8,17.6c-2.3,9.4-7,19.4-10.6,28.6
			c-6.8,17-13.2,34.2-20.9,51c-2.5,5-5.1,10.1-8.6,14.7c-3.5,4.5-8.1,8.5-11.9,12.8c-0.4,0.5-1.3,0.6-1.9,0.2
			C171.8,617.6,171.7,616.9,172.1,616.4z"/>
		<path class="st3" d="M127.4,407.3c40.1-18.5,80-37.8,119.6-57c9.4-4.6,16-9.1,22.3-16.5c2-2.3,4-4.8,5.9-7.2
			c2.4-3.1,4.4-6.5,8.2-8.6c2.5-1.4,5.8-1.5,8.6-1.3c2.7,0.2,5.2,0.5,7.8,0.7c5.2,0.3,10.6,0.4,15.7,1.4c5.1,1.1,9.9,2.7,14.4,4.9
			c2.3,1.1,4.5,2.3,6.5,3.8c1,0.7,0.4,2.1-0.9,2.1c-5.3,0.1-10.3-0.8-15.4-1.8c-4.9-1-9.6-2.4-14.2-4.2c-4.6-1.7-9.4-3.2-14.4-3.6
			c-1.7-0.1-3.4-0.2-4.9,0.2c-3.9,1.1-6.3,5.2-8.6,8c-5,5.9-10.1,12-16.9,16.7c-8,5.5-17.4,9.2-26.3,13.5l-53.2,25.3
			c-17.7,8.4-35.4,16.9-53,25.6c-0.6,0.3-1.4,0.1-1.8-0.4C126.5,408.3,126.7,407.6,127.4,407.3z"/>
		<path class="st3" d="M791.6,370.1C791.6,370.1,791.6,370.1,791.6,370.1l-118.7-3c-0.7,0-1.3-0.5-1.3-1.1c0-0.6,0.6-1.1,1.4-1.1
			l118.6,3c0.7,0,1.3,0.5,1.3,1.1C792.9,369.6,792.3,370.1,791.6,370.1z"/>
		<path class="st3" d="M692.3,354.9c-4.2,0-8.6-0.1-13.3-0.2c-0.7,0-1.3-0.5-1.3-1.1c0-0.6,0.6-1.1,1.4-1.1
			c28.9,0.9,44.4-1.3,53.6-3c2.1-0.4,4.7-1.1,5.4-2.6c0.2-0.4,0.3-0.8,0.3-1.2c0.1-0.6,0.2-1.3,0.6-1.9c0.8-1.5,2.6-2.5,4.9-2.8
			c0,0,0,0,0,0c4.1-0.5,5.2-1.1,4.8-4.1c-0.2-1.8-0.5-3.6-0.7-5.4c-0.5-3.5-1-7.2-1.4-10.8c-0.1-0.9-0.1-1.8-0.2-2.7
			c-0.1-3.2-0.3-6.5-2.5-8.7c-0.5-0.5-1.1-0.9-1.8-1.3c-0.7-0.4-1.3-0.9-1.9-1.4c-2.3-2-2.1-6.2-2.1-9.5c0-1,0.1-1.9,0-2.6
			c0-0.6,0.5-1.1,1.2-1.2c0.7,0,1.4,0.4,1.4,1c0.1,0.8,0,1.8,0,2.8c-0.1,2.8-0.2,6.6,1.3,8c0.5,0.4,1,0.8,1.6,1.2
			c0.7,0.5,1.5,1,2.1,1.6c2.8,2.7,3,6.6,3.1,10c0,0.9,0.1,1.8,0.2,2.6c0.4,3.6,0.9,7.2,1.3,10.7c0.2,1.8,0.5,3.6,0.7,5.4
			c0.7,5.1-3,6-7.1,6.6c-1.1,0.1-2.4,0.6-2.9,1.6c-0.2,0.4-0.3,0.8-0.4,1.3c-0.1,0.5-0.2,1.1-0.5,1.7c-1.2,2.5-4.5,3.4-7.3,3.9
			C721.4,353.9,708.4,354.9,692.3,354.9z"/>
		<path class="st3" d="M614.6,327.8c-0.2,0-0.5-0.1-0.7-0.2c-0.6-0.3-0.8-1-0.4-1.5l13.8-18.7c0.2-0.3,0.5-0.4,0.9-0.5l20.8-3.3
			l-1.8-7.3c-0.1-0.5,0.2-1.1,0.8-1.3l18.8-5.9c0.3-0.1,0.6-0.1,0.9,0l15.4,4.2l19,3.4l17.7-1.7l38.6-5.9c0.7-0.1,1.4,0.3,1.5,0.9
			c0.1,0.6-0.3,1.2-1.1,1.3l-38.7,5.9c0,0-0.1,0-0.1,0l-18,1.7c-0.1,0-0.3,0-0.4,0l-19.2-3.5c0,0-0.1,0-0.1,0l-15-4.1l-17.3,5.5
			l1.9,7.5c0.1,0.3,0,0.6-0.2,0.8c-0.2,0.2-0.5,0.4-0.9,0.5l-21.6,3.4l-13.5,18.3C615.5,327.6,615.1,327.8,614.6,327.8z"/>
		<path class="st3" d="M625,448.1c-0.2,0-0.4,0-0.5-0.1c-0.7-0.2-1-0.9-0.7-1.5l6.6-12.6l-9-82c-0.1-0.6,0.5-1.2,1.2-1.2
			c0.7-0.1,1.4,0.4,1.4,1l9.1,82.3c0,0.2,0,0.4-0.1,0.5l-6.8,12.8C626,447.9,625.5,448.1,625,448.1z"/>
		<path class="st3" d="M780.9,402c-22.6-3.4-45.4-7.5-67.8-11.6c-28.9-5.4-57.9-10.9-86.4-17.8c-1.5-0.4-1.1-2.3,0.6-2.2
			c13,1.8,25.9,4,38.9,6.2c25.7,4.5,51.6,9.6,77.1,14.8c12.8,2.7,25.6,5.4,38.3,8.3C783,400.2,782.6,402.2,780.9,402z"/>
		<path class="st3" d="M374.7,438l4.7-18.8c0-0.1,0.1-0.3,0.2-0.4c0,0,13.2-17.1,13.3-17.1l-0.4,0.6l11.2-24.5
			c0.3-0.6,1-0.9,1.7-0.6c0.7,0.2,1,0.8,0.8,1.3c0,0-8.8,25.2-8.8,25.2c-0.1,0.2-0.2,0.4-0.3,0.6l-15.2,15.8l0.2-0.4l-4.7,18.8
			C376.9,439.9,374.4,439.5,374.7,438z"/>
		<path class="st3" d="M180.3,312.5c-0.5,0-1-0.3-1.2-0.7c-0.3-0.6,0.1-1.2,0.8-1.4l43.6-14.1l7.5-11.2c0.4-0.5,1.2-0.7,1.8-0.4
			c0.6,0.3,0.9,1,0.5,1.5l-7.7,11.5c-0.2,0.2-0.4,0.4-0.7,0.5l-44,14.3C180.6,312.5,180.4,312.5,180.3,312.5z"/>
		<path class="st3" d="M139.8,358c-2.5,0-4.9,0-7.3,0c-2.4,0-4.9,0-7.3,0c-0.7,0-1.3-0.5-1.3-1.1s0.6-1.1,1.3-1.1c2.4,0,4.9,0,7.3,0
			c4.8,0,9.8,0,14.6,0c11.8-0.1,20.8-0.8,31.7-4.3c5.4-1.7,10.9-3.5,16.1-5.9c10.7-4.9,19.8-12.7,28.6-20.3c1.8-1.5,3.6-3.1,5.4-4.6
			c1.6-1.3,3.2-2.7,4.8-4.1c7.1-6.1,14.4-12.4,22.9-17.3c6.8-3.9,13.8-7.1,21.6-10.7c1.5-0.7,2.9-1.4,4.4-2.1
			c4.9-2.4,10-4.9,15.7-5.8c3.6-0.5,7.2-0.4,10.7-0.2c3.3,0.2,4.5,1.9,5.5,3.7c0.4,0.7,0.9,1.5,1.6,1.9c0.7,0.3,1.6-0.1,2.9-0.7
			c0.5-0.3,1-0.5,1.5-0.7c11.5-4.1,22.9-8.2,33.5-12c11.2-4,24.1-3.9,36.4-3.4c13.1,0.5,25.8,2.7,38.1,4.9c2.8,0.5,5.7,1,8.5,1.5
			l25.3-7.9l-3.1-10.6c-0.2-0.5,0.2-1.1,0.8-1.3l23.6-8.2l8.6-29.3c0.2-0.6,0.9-1,1.6-0.8c0.7,0.1,1.1,0.7,1,1.3l-8.8,29.8
			c-0.1,0.3-0.4,0.6-0.8,0.8l-23.2,8l3.1,10.6c0.2,0.5-0.2,1.1-0.8,1.3l-26.8,8.4c-0.2,0.1-0.5,0.1-0.7,0c-3-0.5-6-1-8.9-1.5
			c-12.2-2.1-24.9-4.3-37.7-4.8c-11.9-0.5-24.5-0.6-35.2,3.2c-10.6,3.8-22,7.9-33.5,12c-0.4,0.1-0.8,0.3-1.2,0.6
			c-1.5,0.7-3.5,1.8-5.6,0.7c-1.4-0.7-2.1-1.8-2.7-2.9c-1-1.8-1.6-2.4-3.3-2.5c-3.3-0.2-6.8-0.3-10.1,0.2
			c-5.2,0.8-10.1,3.2-14.8,5.5c-1.5,0.7-3,1.5-4.5,2.2c-7.7,3.5-14.7,6.7-21.3,10.5c-8.3,4.8-15.5,11-22.5,17
			c-1.6,1.3-3.2,2.7-4.8,4.1c-1.8,1.5-3.5,3-5.4,4.6c-8.9,7.7-18.2,15.7-29.2,20.7c-5.3,2.4-10.9,4.2-16.4,6
			c-11.2,3.6-20.5,4.4-32.6,4.5C144.7,358,142.3,358,139.8,358z"/>
		<path class="st3" d="M472,201.3l-3.8,12.5l-1-1.4l56.9,8.7c0.4-0.4,126,78.4,126.3,78.3c0.2,0.1,0.3,0.3,0.4,0.4l25.3,46.8
			l-0.2-0.3c0.7,0.7,1.1,1.5,1.4,2.3c0.8,2.2,0.7,4.6,0.4,6.8c-0.7,4.1-2.9,8.4-4.7,12.3c-6.9,14.4-14.1,28.7-21.3,43
			c-10.3,20.4-21.4,42.5-31.5,62l-2.1,9.1l-0.1-0.6l25.9,60.5l-0.6-0.6l28,12.2c0.4,0.2,0.6,0.4,0.7,0.7l3.8,14v0.1
			c-0.2,1.6-0.8,3.2-1.2,4.7c-1.4,4.1-3.1,8.1-5,12c-2.6,5.3-5.2,10.5-8.5,15.5c-0.4,0.5-1.2,0.7-1.8,0.4c-0.5-0.2-0.8-0.8-0.7-1.2
			c1.6-5.5,3.9-10.9,6.2-16.2c2.4-5.3,5-10.6,8.5-15.5l-0.1,0.6l-3.8-14l0.7,0.7l-28-12.2c-0.3-0.1-0.5-0.4-0.6-0.6l-25.9-60.5
			c-0.1-0.2-0.1-0.4-0.1-0.6l2.1-9.1c15.8-31.2,31.8-62.4,47.2-93.7c1.9-3.8,3.9-7.9,5.7-11.7c1.7-3.7,3.9-7.9,4.5-11.8
			c0.4-2.4,0.5-5.2-1.1-7.3l-0.2-0.3l-25.3-46.8c2.4,1.8-125.9-78-125.4-77.7c0,0,0.6,0.2,0.6,0.2l-56.9-8.7c-0.8-0.1-1.2-0.7-1-1.4
			l3.8-12.5c0.2-0.6,0.9-1,1.6-0.8C471.7,200.1,472.2,200.7,472,201.3z"/>
		<path class="st3" d="M410.6,493.8c-0.4,0-0.7-0.1-1-0.4c-0.5-0.4-0.5-1.1,0.1-1.6c1.1-0.9,2.1-1.9,3.2-3c1.7-1.8,3.5-3.6,5.7-4.8
			c1.5-0.8,3.3-1,4.9-1.3c1.8-0.2,3.5-0.5,4.6-1.4c0.7-0.6,1-1.5,1.2-2.3c0.4-1.6,0.6-3.4,0.8-5c0.3-2.5,0.6-5.2,1.7-7.6
			c2.4-5.3,7.6-8.7,12.6-12c2.4-1.6,4.9-3.2,7-5c0.5-0.4,1.4-0.4,1.9,0c0.5,0.4,0.5,1.1,0,1.6c-2.3,1.9-4.8,3.6-7.2,5.2
			c-4.9,3.2-9.6,6.3-11.8,11c-1,2.2-1.3,4.6-1.6,7.1c-0.2,1.7-0.4,3.6-0.9,5.3c-0.3,1-0.8,2.4-1.9,3.4c-1.7,1.4-4,1.8-6.1,2
			c-1.5,0.2-2.9,0.4-4,0.9c-1.9,1-3.5,2.7-5.1,4.3c-1.1,1.1-2.2,2.3-3.4,3.3C411.3,493.7,411,493.8,410.6,493.8z"/>
		<path class="st3" d="M319.2,177.5c-0.1,0-0.3,0-0.4-0.1c-0.7-0.2-1.1-0.8-0.8-1.4c1.1-2.7-0.2-4-2.8-6.6l-0.1-0.1
			c-1.4-1.4-3.1-2.7-4.8-4c-1.4-1-2.8-2.1-4.1-3.2c-6.2-5.6-9.1-12.9-11.7-20.7c-1.1-3.2-2-6.7-2.8-10.1c-1.4-5.6-2.9-11.4-5.4-16.4
			c-3.3-6.5-6.8-7.8-14.5-10.7c-0.9-0.3-2-0.7-3-1.1c-16.8-6.4-34.6-12-50.8-5.3c-2.2,0.9-4.1,2.1-6.2,3.3c-2.1,1.2-4.2,2.5-6.5,3.5
			c-3.4,1.4-7.3,2.2-10.9,2.8c-22.2,4-43.9,5.4-66.5,4.3c-0.7,0-1.3-0.6-1.2-1.2c0-0.6,0.7-1.1,1.4-1c22.3,1.1,43.8-0.3,65.7-4.3
			c3.6-0.6,7.1-1.3,10.2-2.6c2.2-0.9,4.1-2.1,6.2-3.3c2.1-1.2,4.2-2.5,6.5-3.5c17.3-7.2,35.7-1.3,53.1,5.2c1.1,0.4,2.1,0.8,3,1.1
			c7.8,2.9,12.1,4.5,15.9,11.8c2.6,5.2,4.1,11.1,5.5,16.8c0.9,3.5,1.7,6.8,2.8,9.9c2.5,7.4,5.2,14.5,11.1,19.7
			c1.2,1.1,2.6,2.1,3.9,3.1c1.8,1.3,3.6,2.7,5.1,4.2l0.1,0.1c2.7,2.7,4.9,4.9,3.3,8.8C320.3,177.2,319.8,177.5,319.2,177.5z"/>
		<path class="st3" d="M506.2,57.7c-12.3,21.8-28.1,42.4-44.3,62.3c-11.4,14.5-22.3,29.6-33.3,44.4c-0.8,1-1.8,2.4-2.6,3.4
			c-1.3,1.6-2.5,3.2-2.8,5.2c-0.2,1.2,0.3,2.5,0.8,3.6c1.9,4.5,4.2,8.7,5.5,13.4c1.5,5.3,0.9,10.9,0.1,16.3c-0.4,2.7-1,5.4-1.9,8.1
			c-1.3,4-3.9,7.4-5.4,11.2c-0.7,1.7-1,3.4-0.7,5.2c0.8,4,3.4,7.7,6.3,10.9c4.4,4.9,5.1,11.3,5.9,17.1c0.2,1.3,0.4,2.6,0.6,3.9
			c0.3,1.2,0.5,2.8,2.3,2.7c2-0.2,3.9-1.2,5.8-2.1c2.7-1.4,5.7-2.8,8.6-3.9c2.9-1.2,5.9-2.2,8.9-3.3c0.7-0.2,1.5,0,1.7,0.6
			c0.3,0.5,0,1.2-0.6,1.4c-5.8,2.3-11.4,4.6-16.7,7.6c-3.6,2-9.6,4.8-12.6,0.4c-1.4-2.2-1.4-4.6-1.8-7c-0.8-5.3-1.3-11-5.2-15.4
			c-3.4-3.7-6.2-7.8-7.1-12.5c-0.3-2.2,0-4.6,0.9-6.7c1.6-3.8,4.6-7.1,6.4-10.9c2.4-4.9,3.7-10.2,3.8-15.4c0.1-2.7-0.1-5.3-0.8-7.8
			c-1.2-4.4-3.6-9-5.4-13.2c-0.6-1.3-1.1-2.8-0.9-4.2c0.3-2.1,1.7-4,3-5.7c0.8-1,1.8-2.4,2.5-3.4c12.1-17.3,24.7-34.7,36-52.4
			c9-14.2,18.8-28.2,29.5-41.6c3.6-4.5,7.2-8.9,11.2-13.2c0.4-0.5,1.3-0.6,1.9-0.2C506.3,56.7,506.5,57.2,506.2,57.7z"/>
		<path class="st3" d="M255.7,63.3v38.4c0,0.2-0.1,0.3-0.1,0.5c-5.6,9.4-11.3,18.7-17,28c5.3,31.8,11,68.8,16.5,100.7
			c0.5,2.5,0.7,4.8,1.8,7.1c3.2,6.3,9.3,11.2,14.1,16.7c4.5,5,6.7,11,8.7,16.8c0.1,0.2,0.2,0.6,0.3,0.9l0.2,0.3
			c1.2,2.2,4.6,1.7,7,1.3c1.7-0.3,3.4-0.7,5.3-1c1.8-0.3,3.7-0.5,5.7-0.5c3.4,0,6.7,0.5,9.9,1.4c3.8,1,7.6,2,11.4,3.2
			c7.9,2.6,13.6,5,17.5,11.7c1.6,2.7,2.8,5.4,4.3,8.1c2.1,3.7,5.1,6.8,9.4,8.9c8.1,3.9,17.5,5.6,25,10.5
			c6.8,4.5,11.4,10.9,16.1,16.8c0.7,0.8,1.3,1.6,2,2.5c1.1,1.3,2.5,2.1,4.3,2.6c8.4,2.1,16.9,1.7,25.9,2.9c7.2,1,14.2,3.4,20.3,6.6
			c4.6,2.4,8.8,5.4,12.6,8.6c3.8,3.1,7.5,6.3,11.1,9.5c4.5,4,7.8,8.6,13.7,11c13,4.7,27.6-7.3,28.6-17.8c0.4-2.8,0.2-5.7,0-8.7
			c-0.3-5.9-0.7-11.7-1.5-17.6c-0.9-6.5-2.2-13-4.7-19.3c-0.8-2.1-1.8-4.1-2.7-6.2c-1.2-2.6-2.7-5.3-5.3-7.1c-2.5-1.8-6-2.2-9-1
			c-3.1,1.1-5.7,3.2-9.1,4.5c-3.3,1.5-7.3,1.1-10.8,0.6c-3.5-0.5-7-1.2-10.4-1.9c-10.2-2.1-20.4-4.8-30.9-4.2
			c-7.3,0.3-12.9,3-18.3,7c-2.6,1.9-5.1,4-7.9,5.9c-5.4,3.9-11.2,7.3-16.6,11c-1.4,0.9-3-0.8-1.7-1.7c5.6-3.6,11.5-6.9,16.9-10.6
			c2.7-1.8,5.2-3.9,8-5.8c4.1-2.9,8.8-5.5,14.1-6.6c12.4-2.2,24.9,1.3,36.8,3.7c3.4,0.7,6.8,1.4,10.3,1.8c3.3,0.4,6.8,0.9,9.9-0.5
			c3.1-1.3,5.8-3.3,9.1-4.6c3.5-1.4,7.9-1,10.9,1.1c4.3,3,5.8,7.7,7.8,11.8c5.7,12.6,6.7,26.1,7.7,39.4c0.5,6.2,0.8,12.2-3.1,17.8
			c-5.8,8.9-18.6,15.9-30.6,10.8c-5.7-2.5-9.5-7.2-13.7-10.9c-3.6-3.2-7.4-6.3-11.2-9.3c-3.7-3-7.6-5.8-12-8
			c-14.1-7.3-24.4-5.9-40-7.7c-1.8-0.3-3.6-0.6-5.4-1c-4.8-1.2-6.3-3.3-8.9-6.5c-7.6-9.4-11.9-15.8-25.1-20.3
			c-4-1.4-8.3-2.8-12.3-4.4c-2.5-1.1-5-2.4-7.1-4c-2.9-2.1-5.1-4.9-6.7-7.8c-1.6-2.6-2.8-5.5-4.3-8.1c-2.2-3.9-5.3-6.2-10-8
			c-4.7-1.8-9.5-3.2-14.5-4.5c-1.6-0.4-3.3-0.9-4.9-1.1c-5-0.9-9.4,0-14.6,0.9c-4.3,0.9-9.7,0.7-12.3-2.9c-0.6-0.8-1-1.7-1.3-2.6
			c-1.8-5.4-3.8-11-7.8-15.5c-5.3-6-12.1-11.5-15.1-18.8c-0.9-2.2-1.1-4.6-1.5-6.8c-3.5-21-6.8-44.7-9.7-65.8
			c-1.6-11.7-3.2-23.4-4.7-35.1c5.7-9.8,11.5-19.6,17.3-29.3l-0.1,0.5V63.3c0-0.6,0.6-1.1,1.3-1.1C255.1,62.2,255.7,62.7,255.7,63.3
			z"/>
		<path class="st3" d="M410.6,341.8c-0.2,0-0.4,0-0.6-0.1c-0.6-0.3-0.9-1-0.6-1.5l25.3-40.2c0.3-0.5,1.1-0.8,1.8-0.5
			c0.6,0.3,0.9,1,0.6,1.5l-25.3,40.2C411.6,341.6,411.1,341.8,410.6,341.8z"/>
		<path class="st3" d="M463.9,364.6c-0.4,0-0.9-0.2-1.1-0.5c-0.4-0.5-0.2-1.2,0.4-1.5c5.1-2.7,8.3-5,9.7-9c1.6-4.8,1.9-10.3,1-16.4
			c-1.3-8.3-4.8-16.4-8.2-24.2c-1.3-3-2.7-6.1-3.9-9.2c-0.2-0.6,0.2-1.2,0.9-1.4c0.7-0.2,1.4,0.1,1.7,0.7c1.2,3.1,2.5,6.2,3.8,9.2
			c3.4,7.9,7,16.1,8.3,24.7c1,6.4,0.6,12.2-1.1,17.3c-1.7,5.2-6.3,8-10.9,10.3C464.4,364.5,464.2,364.6,463.9,364.6z"/>
		<path class="st3" d="M510.9,350.3c-3.9,0.9-8.3,0.6-11.5,2.8c-3.7,2.8-6.4,7.5-7.6,11.6c-1.8,6.8-0.5,13.9-0.4,20.9
			c0.3,13.6,2.4,27,4.5,40.5c0.6,3.8,2.1,7.6,4.4,10.9c2.4,3.6,6.1,6.8,10.9,7.7c1.5,0.3,2.5,1.6,2.2,2.9c-0.3,1.3-1.9,2.1-3.5,1.8
			c-3.3-0.7-6.3-2.1-8.6-4c-4.6-3.6-7.4-8.3-9.1-13.3c-0.8-2.3-1.2-4.9-1.5-7.3c-2-14.1-3.4-28.4-3.3-42.7
			c-0.2-6.5-0.8-13.5,1.8-19.9c1.8-4.2,5.1-9.5,9.8-11.9c3.4-1.6,7.9-1.5,11.2-2.2C511.9,347.8,512.6,349.9,510.9,350.3z"/>
		<path class="st3" d="M299.9,318.5c-0.4-3-0.6-6-0.8-8.9c-0.2-2.7-0.4-5.5,0.9-8c0.9-1.8,2.8-3.3,4.2-4.8c2-2.5,4.7-4.6,7.3-6.6
			c1.2-1,2.4-2,3.4-3.2c0.4-0.5,1.3-0.6,1.9-0.3c0.7,0.4,0.8,1.3,0.1,1.8c-1.4,1-2.7,2-4,2.9c-3,2.3-6.4,5-6.7,8.6
			c-0.1,1.4-0.1,2.8-0.5,4.1c-0.5,2-1.6,3.9-2.2,5.9c-0.3,1-0.5,2.1-0.7,3.1c-0.2,1.7-0.4,3.5-0.3,5.3
			C302.5,319.8,300.1,320,299.9,318.5z"/>
		<path class="st3" d="M331.6,283.1c-0.6,0-1.2-0.4-1.3-0.9c-1.9-8.7-3.9-17.8-9-25.7c-1.5-2.3-3.1-4.4-4.6-6.5
			c-4.5-6.1-8.7-12-9.8-19.9c-0.9-6.5-0.4-13.1,0-19.4c0.2-3.3,0.5-6.7,0.5-10.1c0-0.8,0-1.6-0.3-2.2c-0.5-0.9-3.3-2.9-19.4-2.4
			c-10.4,0.3-22.3,1.4-31,2.2c-4.3,0.4-7.6,0.7-9.4,0.8c-22.7,0.9-46.9,1.6-70.9-2c-1.2-0.2-2.4-0.4-3.5-0.5
			c-15.2-2.3-31-4.7-44.4,0.6c-0.7,0.3-1.5,0-1.8-0.5c-0.3-0.6,0-1.2,0.6-1.5c14.3-5.6,30.4-3.2,46.1-0.8c1.2,0.2,2.4,0.4,3.5,0.5
			c23.8,3.5,47.8,2.9,70.3,2c1.7-0.1,5-0.4,9.2-0.8c30.6-2.9,50.2-3.7,53,1.5c0.6,1.1,0.6,2.2,0.6,3.2c0,3.4-0.3,6.8-0.5,10.2
			c-0.4,6.3-0.9,12.8,0,19.1c1,7.5,5.1,13.1,9.4,19c1.5,2.1,3.1,4.3,4.6,6.6c5.3,8.2,7.3,17.4,9.3,26.4c0.1,0.6-0.3,1.2-1.1,1.3
			C331.7,283.1,331.6,283.1,331.6,283.1z"/>
		<path class="st3" d="M250.2,235.3c0,0-0.1,0-0.1,0l-40.2-3.2c-0.1,0-0.2,0-0.3-0.1l-23.1-7.2c-2.1,0.3-10.9,1.7-13.3,1.7
			c-2.7,0-6.7-3.9-8.6-6c-4.9-0.1-35.4-1.1-39.6-1.7c-0.7-0.1-1.2-0.7-1.1-1.3c0.1-0.6,0.8-1,1.5-0.9c3.5,0.5,27.6,1.4,39.9,1.7
			c0.4,0,0.8,0.2,1,0.4c2.6,2.9,5.9,5.5,6.9,5.5c2,0,10.1-1.2,13.1-1.7c0.2,0,0.5,0,0.7,0.1l23.3,7.3l39.8,3.1
			c7.3-1.3,30.2-5.3,31.5-5.3c1.1,0,15.7-1.8,25.2-3c0.7-0.1,1.4,0.3,1.5,0.9c0.1,0.6-0.4,1.2-1.1,1.3c-4,0.5-23.9,2.9-25.5,3
			c-1.4,0.1-19.4,3.2-31.1,5.2C250.4,235.3,250.3,235.3,250.2,235.3z"/>
		<path class="st3" d="M340.5,188.5c-3.8,0-7.6-1.9-11-4.1c-21.1-13.2-42.2-27-62.6-40.4c-9-5.9-18.2-11.9-27.4-17.9
			c-0.6-0.4-0.7-1.1-0.2-1.6c0.4-0.5,1.3-0.6,1.9-0.2c9.1,5.9,18.4,12,27.4,17.9c20.4,13.4,41.5,27.2,62.5,40.4
			c3.4,2.1,7,4,10.5,3.6l1.2-13.1c0.3-3.6,0.7-7.6,3.2-11c2.3-3,5.9-5,9.1-6.8c2-1.1,4.8-2.6,7.9-2.5c2.3,0.1,4.3,1,6,1.8
			c3.9,1.8,7.7,3.7,11.6,5.6c3.6,1.7,7.6,3.7,10.8,6.5c3,2.5,5.2,5.7,7.3,8.7c3.1,4.5,6.1,8.7,11.2,10.9c0.7,0.3,0.9,1,0.6,1.5
			c-0.3,0.5-1.1,0.8-1.8,0.5c-5.8-2.5-9.1-7.2-12.3-11.7c-2.1-2.9-4.2-5.9-6.9-8.3c-3-2.6-6.9-4.5-10.3-6.1
			c-3.8-1.9-7.7-3.7-11.5-5.5c-1.5-0.7-3.1-1.5-4.8-1.5c-2.1-0.1-4.1,0.9-6.3,2.2c-3,1.6-6.4,3.5-8.3,6.1c-2.2,2.9-2.5,6.7-2.8,10
			l-1.2,13.9c0,0.5-0.4,0.8-0.9,1C342.3,188.4,341.4,188.5,340.5,188.5z"/>
		<path class="st3" d="M344,187.4v16.4l-0.3-0.7l31.2,36l-0.7-0.4l35.1,8c0.6,0.1,1,0.6,1,1.1v25.9c0,0.3-0.1,0.5-0.3,0.7
			l-11.1,11.9c-0.1,0.1-0.3,0.2-0.4,0.3L370,298.9c-1.2,0.5-4.2,1.8-5.3,2.3l-0.4,0.2c-0.1,0,0,0,0,0c-0.2,0.1-0.3,0.3-0.5,0.5
			c-1.8,2.3-2.6,5-4,7.5l-0.9,1.5c-1.7,2.9-3.5,6-4.4,9.1c-1,3.2-1.4,6.5-1.6,9.7c0,0.6-0.1,1.9-0.2,2.5c-0.1,1.7-0.7,3.6,0.4,5.1
			c1.6,1.7,4.2,2.5,6,4.2c2.2,2.2,4,4.6,6.2,6.6c2.7,2.4,5.5,4.8,8.6,6.7c0.5,0.3,1,0.6,1.6,0.8c4,1.8,8.7,1.7,13.2,2
			c4.1,0.3,8.1,0.9,12,1.7c12.9,2.9,31.3,8.9,36.4,20.2c1.3,3.2,1.1,6.2,5.2,7.9c3.4,1.5,7.2,2.7,10.9,3.5c1.3,0.3,2.7,0.5,4.1,1.2
			c1.4,0.6,2.3,2.2,2.4,3.4c0.3,2.4-0.1,4.6-0.4,6.9c-0.2,2.3-1.2,5.9-4.8,6.1c-1.4,0.1-3-0.5-4.2-0.9c-1.1-0.3-2.3-0.4-3.5-0.3
			c-3.9,0.5-6.6,3-10.1,4.7c-0.5,0.2-1.1,0.1-1.4-0.3c-0.3-0.4-0.1-0.9,0.4-1.2c2.2-1.1,4.3-2.6,6.7-3.7c2.5-1.2,5.7-1.7,8.5-0.9
			c1.2,0.3,2,0.7,3.1,0.8c1.9,0.1,2.6-1.6,2.9-2.9c0.3-1.6,0.5-3.3,0.7-4.9c0.1-1.5,0.2-3.1-0.5-4.5c-0.9-1.3-2.8-1.5-4.5-1.8
			c-4-0.9-7.8-2.1-11.5-3.7c-8.2-3.7-2.3-8.7-12.9-16.6c-9.4-6.8-23.8-11-36-12.5c-5.4-0.7-10.8-0.2-16.1-1.8
			c-2.7-0.8-4.9-2.3-7-3.9c-2-1.5-3.9-3.1-5.8-4.8c-2.3-2.1-4.1-4.5-6.2-6.6c-1.8-1.6-4.6-2.5-6.2-4.4c-1.8-2.2-0.8-4.9-0.8-7.2
			c0.3-4,0.6-7.9,1.8-11.8c0.7-2.2,1.7-4.4,2.9-6.5c0.9-1.8,2.1-3.6,3-5.3c1.2-2.3,2.1-4.8,3.8-7c0.3-0.4,0.9-1,1.5-1.2l0.4-0.2
			l1.8-0.8l3.6-1.5c0,0,28.5-12.4,28.5-12.4l-0.4,0.3l11.1-11.9l-0.3,0.7v-25.9l1,1.1l-35.1-8c-0.3-0.1-0.6-0.2-0.7-0.4l-31.2-36
			c-0.2-0.2-0.3-0.4-0.3-0.7v-16.4c0-0.6,0.6-1.1,1.3-1.1S344,186.7,344,187.4z"/>
		<path class="st3" d="M431,399.3c2.1-1,4.2-1.9,6.3-2.8c1.8-0.7,3.7-1.6,5.8-1.7c0.3,0,0.7,0,0.9,0.2c0.2,0.1,0.3,0.2,0.6,0.2
			c4.4,1.3,9.1,2.3,13.7,3.4c-0.9-0.1,18.4,0.7,18.2,0.7c0.1,0,0.3,0.1,0.2,0.2c0,0.1-0.1,0.2-0.3,0.2l-18.4,0.4c-0.1,0-0.1,0-0.2,0
			c-4.8-0.8-9.6-1.5-14.3-2.6c-0.2-0.1-0.7-0.2-0.9-0.3c0,0,0.1,0.1,0.1,0.1c0.1,0,0.1,0,0.2,0.1c0,0,0.1,0,0.1,0c0,0,0,0-0.1,0
			c-1.5,0.4-2.9,1.1-4.3,1.7c-2,0.9-4,2-5.9,3C430.8,403.1,428.8,400.4,431,399.3z"/>
		<path class="st3" d="M595,557c2.9,4.9,5.5,12.7,5,18.2c0,0.3,0,0.7-0.3,1l-17.2,17.5l0.3-0.5l-8.3,37.3c-0.1,0.6-0.8,1-1.5,0.9
			c-0.7-0.1-1.2-0.7-1.1-1.3l8.3-37.3c0-0.2,0.1-0.4,0.3-0.5l17.2-17.5l-0.3,1c-1-1.4-1.7-2.9-2.3-4.3c-1.7-4.5-2.7-9.1-2.7-13.8
			C592.4,556.3,594.4,555.9,595,557z"/>
		<path class="st3" d="M510,332.8c-0.4,0-0.8-0.1-1-0.4c-10.8-11.1-19.5-22-26.6-33.4c-0.4-0.7-2.3-3.5-4.6-6.9
			c-15.3-22.9-15.2-23.2-15-23.9c0.1-0.3,0.3-0.5,0.7-0.7c6.6-2.9,13.9-5,20.7-6.9c1.5-0.4,3.2-0.7,5.1-1c5.1-0.9,10.9-1.9,12.4-5.1
			c1.5-3.1,2.1-7,2.7-10.8c0.3-1.9,0.6-3.7,1-5.4c1.5-6.5,2.7-11.7,3.8-16.5c0.1-0.6,0.8-1,1.6-0.9c0.7,0.1,1.2,0.7,1,1.3
			c-1.1,4.8-2.3,10-3.8,16.5c-0.4,1.7-0.7,3.4-1,5.3c-0.6,3.9-1.2,8-2.9,11.4c-2.1,4.3-8.9,5.5-14.4,6.4c-1.8,0.3-3.5,0.6-4.8,1
			c-6.4,1.8-13.1,3.7-19.3,6.3c1.8,3.2,9.9,15.2,14.4,22c2.4,3.6,4.2,6.3,4.6,7c7,11.2,15.6,22,26.3,33c0.5,0.5,0.4,1.2-0.2,1.6
			C510.6,332.8,510.3,332.8,510,332.8z"/>
		<path class="st3" d="M606.7,272.4c-0.1,0-0.1,0-0.2,0c-0.7-0.1-1.2-0.7-1.1-1.3l2.5-13.2c0-0.1,0-0.1,0-0.2l15.9-40.3
			c0.2-0.6,1-0.9,1.7-0.7c0.7,0.2,1.1,0.8,0.8,1.4l-15.9,40.2l-2.5,13.1C607.9,272,607.3,272.4,606.7,272.4z"/>
		<path class="st3" d="M777.3,172.9c-0.2,0-0.4,0-0.6-0.1L589.6,85.1c-0.6-0.3-0.9-1-0.5-1.5c0.4-0.5,1.2-0.7,1.8-0.4l187.1,87.7
			c0.6,0.3,0.9,1,0.5,1.5C778.2,172.7,777.8,172.9,777.3,172.9z"/>
		<path class="st3" d="M125.4,125.5c7.3,1,18.8,2.7,25.8,3.7c1.3,0.2,2.5,0.4,3.7,0.5c0,0,29.7,2.9,29.7,2.9
			c14.8,1.2,29.4,4.7,44.3,4.3c4.8-0.1,9.6-0.7,14.2-2c22.4-6.3,45.2-12,67.6-18.4c3.6-1,6.7-2.5,10.5-3.5c2.3-0.6,4.9-1,7.3-0.8
			c3.1,0.3,6,1.1,8.7,2c4.7,1.6,9.1,3.7,13.6,5.5c22.5,8.3,67,24.6,89.2,32.4c7.8,2.7,19.6,7.2,27.6,9.5c7.1,2.1,14.5,4.2,21.1,7.6
			c8.8,4.5,14.7,12.1,20.6,18.9c4.9,5.7,8.5,7.5,17.1,6.2c4.9-0.7,9.5-2.1,14.3-3.1c4.9-1.1,10.4-1.1,15.4-0.7
			c5,0.4,9.9,1.1,14.9,1.5c0.7,0.1,1.3,0.6,1.2,1.2c-0.1,0.6-0.7,1-1.4,1c-7.4-0.3-14.8-1.4-22.2-1c-7.4,0.4-14.2,3.4-21.5,4.5
			c-4.5,0.8-10,0.9-14.2-1.4c-2.9-1.5-5.2-3.7-7.2-6c-2.6-3-6.2-7.1-9-9.9c-3.1-3-6.5-5.9-10.6-7.9c-6.3-3.2-13.2-5.1-20.2-7.2
			c-4-1.1-10-3.3-14-4.7c-27.2-9.5-72.2-26.2-99.6-36.2c-3.5-1.2-6.9-2.8-10.2-4.2c-4.3-1.8-8.7-3.6-13.3-4.3
			c-0.8-0.1-1.6-0.1-2.3-0.1c-3.8,0.2-7.2,1.6-10.8,2.9c-1.2,0.4-2.4,0.8-3.6,1.2c-22.5,6.3-45.3,11.9-67.9,18.1
			c-3,0.8-6.3,1.4-9.5,1.7c-12,1.2-24.1-0.8-35.9-2.5c-11.5-1.8-34.7-3.8-46.4-5.2c-4.5-0.7-8.7-1.3-12.9-2l-14.8-2.3
			c-0.7-0.1-1.2-0.7-1.1-1.3C124,125.8,124.7,125.4,125.4,125.5z"/>
		<path class="st3" d="M402,201.1c-0.7,0-1.2-0.4-1.3-1l-0.9-5.8c-0.4-2.7-2.2-5.1-4.9-6.6l-6.6-3.7c-2.6-1.5-4.4-3.7-4.9-6.3
			c-0.6-2.6,0.1-5.2,2-7.3l13.9-16.1l12.1-19.7c0-0.1,0.1-0.1,0.1-0.2l30.5-34.3c0.4-0.5,1.3-0.6,1.9-0.2c0.6,0.4,0.7,1.1,0.3,1.6
			l-30.5,34.2l-12.1,19.7c0,0-0.1,0.1-0.1,0.1l-13.9,16.1c-1.4,1.6-2,3.6-1.5,5.6c0.4,2,1.8,3.7,3.8,4.8l6.6,3.7
			c3.3,1.8,5.5,4.8,6,8.1l0.9,5.8c0.1,0.6-0.4,1.2-1.1,1.2C402.2,201.1,402.1,201.1,402,201.1z"/>
		<path class="st3" d="M305.6,119.6c21.1,23.9,43.9,47.6,65.9,71c2.3,2.3,4.1,4.9,6.4,7.2c2.5,2.5,4.6,3.4,8.5,2.9
			c1.8-0.2,3.7-0.5,5.6-0.2c5.7,0.6,10,4.4,14.3,6.9c1.4,0.8,2.9,1.6,4.5,2.3c4.6,2.2,9.5,4.1,14.3,6c0.7,0.3,0.9,0.9,0.6,1.5
			c-0.3,0.6-1.1,0.8-1.8,0.5c-4.8-2-9.8-3.9-14.4-6.2c-1.6-0.8-3.1-1.6-4.6-2.5c-3-1.8-5.6-3.9-8.5-5.3c-2.4-1.2-5-1.7-7.7-1.4
			c-3.3,0.4-7,0.6-9.8-1.3c-2.4-1.6-4.1-3.8-5.7-5.8c-1.9-2.5-13.9-15.2-16.3-17.8c-10.9-11.7-22-23.8-33.1-35.4
			c-6.7-7-13.4-14-20.3-21c-0.5-0.5-0.4-1.2,0.2-1.6C304.3,119,305.2,119.1,305.6,119.6z"/>
		<path class="st3" d="M463.2,244.1c0,0-0.1,0-0.1,0c-0.7-0.1-1.3-0.6-1.2-1.2l3.8-29.4c0.1-0.6,0.7-1.1,1.5-1
			c0.7,0.1,1.3,0.6,1.2,1.2l-3.8,29.4C464.4,243.6,463.8,244.1,463.2,244.1z"/>
		<path class="st3" d="M330.2,182.6c2.1,6.4,3.8,12.9,4.9,19.5c0.1,0.7,0.2,1.5,0.2,2.2c0,0.3-0.1,0.6-0.3,0.9c0,0.1,0-0.1,0.1-0.1
			c0-0.1,0.1-0.2,0.1-0.2c0.1-0.2,0.1-0.7,0.1-0.8c1.8,4,5.9,11.3,8.1,15.4c1,1.8,3,5.6,4,7.4l0,0c0,0,0,0,0,0
			c-0.1-0.1-0.2-0.2-0.3-0.3c0,0,0,0,0,0l0,0c0,0,0.1,0.1,0.2,0.1c8.8,6.7,18,13.4,26.5,20.5c1.1,0.9-0.3,2.4-1.7,1.7
			c-10.3-5.6-20.2-11.6-29.6-18.2c-0.6-0.4-1-0.9-1.3-1.5c-0.6-0.9-1.2-1.9-1.7-2.8c-3.5-6-6.7-12-9.5-18.3
			c-0.5-1.3-1.1-2.4-1.2-3.8c0-0.3,0.1-0.9,0.3-1.2c-0.1,0.2-0.2,0.4-0.2,0.6c0,0,0-0.1,0-0.1c0-3.2-0.5-7.6-0.7-10.9
			c-0.2-3.3-0.4-6.6-0.5-9.9C327.5,181.6,329.7,181.3,330.2,182.6z"/>
		<path class="st3" d="M605.5,117c0.8,5.3,0.3,10.8-1,16c-1.3,5.2-3.3,10.3-5.4,15.2c-0.5,1.2-1,2.4-1.1,3.5
			c-0.3,1.7,0.5,2.2,2.3,2.8c2.1,0.7,4.3,1.1,6.5,1.7c9,2.1,18.1,3.7,27.3,5c2.2,0.3,4.7,0.6,6.9,0.9c4,0.5,8,1.5,11.8,2.7
			c8.9,3,16.4,8.2,24.1,12.8c5.1,3.1,10,6.3,15.3,9.1c0.6,0.3,0.8,1,0.4,1.5c-0.4,0.5-1.3,0.7-1.9,0.3c-6.1-4.1-12.3-8.1-18.8-11.7
			c-3.9-2.1-8-4-12.2-5.7c-5.5-2.2-11.1-4.3-17-5.2c-1.3-0.2-3.2-0.4-4.5-0.6c-12.5-1.5-24.9-3.8-37-6.9c-6-1.5-8.3-3.8-6.3-9.1
			c2.3-5.5,5-11,6.5-16.7c1.4-5,2.1-10.1,1.6-15.2C602.8,115.8,605.2,115.5,605.5,117z"/>
		<path class="st3" d="M777.5,172.9c-11.8,1.3-23.5,2.9-35.2,4.7c-7.8,1.1-15.5,2.6-23.4,3.7c-7.5,1.1-15.6,1.2-22,4.7
			c-6.1,3.4-10.6,8.4-16.1,12.4c-1.9,1.4-3.8,2.6-5.8,3.8c-3.1,1.9-6.3,3.9-8.8,6.5c-1.2,1.3-2.4,2.6-3.4,4c-2,2.8-3.6,5.9-5.6,8.7
			c-1.3,1.8-2.8,3.7-4.8,5c-1.5,1-3,2.1-4.2,3.3c-5.9,5.5-9.3,13.9-9.6,21.3c-0.1,7,2.7,14,1.2,21.1c-1.1,4.6-3.7,8.8-7,12.5
			c-2.5,2.7-5.4,5-8.6,7c-0.9,0.5-1.6,1.1-2.7,1.4c-1.1,0.3-2.2,0.2-3.2,0.1c-2-0.2-3.9-0.4-5.9-0.7c-4-0.5-8-1.3-11.5-3.1
			c-3.4-1.8-6.2-4.1-9.8-5.5c-7.5-3.2-15.8-4.8-23.5-7.6c-5.9-2.2-9.4-1.2-15,0.9l-0.7,0.2c-0.3,0.1-0.5,0.2-0.8,0.2
			c-1.6,0.4-3.4,0.3-4.9-0.1c-2.7-0.7-4.8-2-7.4-1.9c-2.1,0.1-3.6,1.5-5.1,2.5c-2.3,1.6-4.5,3.2-6.6,4.9
			c-8.7,6.7-16.9,13.9-25.5,20.8c-0.5,0.4-1.4,0.4-1.9,0c-0.5-0.4-0.5-1.2,0.1-1.6c8.7-6.7,17.1-13.8,25.9-20.5
			c2.2-1.7,4.5-3.3,6.8-4.9c2.8-2,4.9-3.5,8.8-2.6c3,0.7,5.2,2.3,8.2,2.1c0.9,0,1.8-0.3,2.6-0.6c7.1-2.6,10.5-3.1,17.7-0.4
			c8.2,2.9,17.1,4.6,24.8,8.5c2.5,1.3,4.7,3.1,7.2,4.3c3.3,1.7,7.2,2.4,11,3c1.9,0.3,3.9,0.5,5.9,0.7c1,0.1,1.9,0.2,2.6,0
			c0.8-0.2,1.6-0.8,2.3-1.2c6.2-3.9,11.4-9.2,14-15.3c2.9-6.3,1-12.9,0.2-19.4c-0.2-1.7-0.4-3.3-0.3-5c0-3.4,0.9-6.7,2-9.9
			c1.8-5,4.8-9.9,9.3-13.6c0.5-0.4,1.1-0.9,1.7-1.3c0.5-0.3,1.7-1.1,2.2-1.6c4.1-3.6,5.9-8.5,8.9-12.7c1.9-2.6,4.9-5.7,7.1-8.2
			c2.4-2.7,5-5.4,7.9-7.6c4.5-3.2,8.4-7,12.9-10.3c9.3-6.8,17.6-6.4,29-7.4c11.8-1.2,23.5-2.9,35.2-4.4c7.8-1.1,15.6-2.2,23.4-3.4
			c0.7-0.1,1.4,0.3,1.6,0.9C778.8,172.2,778.3,172.8,777.5,172.9z"/>
		<path class="st3" d="M691.3,237.9c0,0-0.1,0-0.1,0c-0.7-0.1-1.3-0.6-1.2-1.2c0.5-4.2,1.1-8.3,1.6-12.5l1.2-9.4
			c0.1-1.1,0.2-2.6,0.2-4.1c0-4.7,0-10.6,4.6-13.5c1.6-1,3.6-1.3,5.5-1.6c6.4-0.8,13-1,19.5-0.6c4.7,0.3,9.6,1.2,14.3,2
			c4.9,0.9,10,1.7,14.9,2c6.7,0.4,13.7,0.2,20.4,0c3.8-0.1,7.8-0.2,11.6-0.2c0.7,0,1.3,0.5,1.3,1.1s-0.6,1.1-1.3,1.1
			c-3.8,0-7.7,0.1-11.5,0.2c-6.8,0.2-13.8,0.4-20.7,0c-5.1-0.3-10.3-1.2-15.3-2.1c-4.8-0.8-9.4-1.6-14-1.9
			c-6.3-0.4-12.6-0.2-18.9,0.6c-1.5,0.2-3.1,0.4-4.3,1.2c-3.5,2.2-3.5,7.2-3.5,11.7c0,1.6,0,3.1-0.2,4.3l-1.2,9.4
			c-0.5,4.2-1.1,8.3-1.6,12.5C692.6,237.4,692,237.9,691.3,237.9z"/>
		<path class="st3" d="M616,159.5l1.2,6.9c0.2,0.9-0.5,1.7-1.5,2l-0.2,0.1l-38.4,9.2l0.9-1.1v16.3c0,0.6-0.6,1.1-1.3,1.1
			c-0.7,0-1.3-0.5-1.3-1.1v-16.3c0-0.5,0.4-0.9,0.9-1.1l37.7-11.1l-1.8,2l1.2-6.9C613.5,158.2,615.7,158.2,616,159.5z"/>
		<path class="st3" d="M576.6,177.6c-0.7,0-1.3-0.5-1.3-1.1v-12.2c0-0.3,0.2-0.6,0.5-0.8c0.3-0.2,0.7-0.3,1.1-0.3l31.2,3.9
			c0.7,0.1,1.2,0.7,1.1,1.3c-0.1,0.6-0.8,1-1.5,0.9l-29.6-3.7v10.9C577.9,177.1,577.3,177.6,576.6,177.6z"/>
		<path class="st3" d="M547.7,192.7c-0.2,0-0.5-0.1-0.7-0.2L512,173.4c-0.6-0.3-0.8-1-0.4-1.5c0.4-0.5,1.2-0.7,1.8-0.3l34.9,19.1
			c0.6,0.3,0.8,1,0.4,1.5C548.5,192.5,548.1,192.7,547.7,192.7z"/>
		<path class="st3" d="M570.7,656.9c-0.2-0.5-0.4-0.9-0.6-1.4c-1.9-5.7,0.3-11.7,2.9-17.2c11.6-24.4,32.1-45.2,40.4-70.6
			c2.1-6.4,2.9-14.3-2.8-18.6c-4.5-3.5-11.3-3.1-17.3-2.8c-27.9,1.1-56.1-6.5-78.6-21.3c-22.5-14.8-39.1-36.5-46.2-60.6
			c-3.1-10.7-4.4-22.3,0.1-32.6c4.6-10.3,16.2-18.6,28.5-17.5c12.1,1.1,21.6,10.5,33.7,11.7c10.9,1.1,21.2-4.7,29.7-10.9
			c16.2-11.8,30.3-25.9,41.4-41.6c6.4-9,11.8-20.6,6-29.9c-3.1-4.8-8.6-7.9-14.1-10.6c-13.8-6.8-51.1-26.3-67.3-20.3
			c-3.4,1.2-5.4,4.4-5.9,7.7c-4.6,28.3,14.1,71.4-31.6,79.4c-27.3,4.8-41.4-11.5-47.4-15.9c-6-4.5-16.6-14.5-41.1-20.4
			c-24.5-5.9-43.3-10.1-50.2-28.3c0-6.4,0.9-17.3,21-25.7c13.2-5.6,31.1-13.7,36.7-28.3c0,0,7.2-20.7,0.6-33
			c-6.6-12.3-11.6-11.5-26.7-15.1c-21.9-5.3-40.9-23.3-34.3-44.8c3.4-11.2,12.9-20.1,20-29.8c9.5-12.9,15-27.8,23.9-41.1
			c7.2-10.8-2-20.2,7.2-29.7c4-4.1,16.8-31.2,22.5-29.3c11.6-0.2-10.9,46.5-20.7,59.7c-6.1,8.2-8.9,18-14,26.8
			c-7.3,12.3-19.2,22-26.7,34.3c-7.5,12.2-9.3,29.3,2.3,38.6c9.2,7.3,23.1,7,34.5,11.4c21.2,8.1,28.8,36.4,20.1,54.1
			c-4.7,9.5-13.8,16.6-22.9,23c-7.9,5.5-16,10.6-24.4,15.5c-4.7,2.7-9.9,5.9-11.1,10.8c-1.8,7.7,7.2,13.8,15.5,16.5
			c19.1,6.3,45.2,0.7,60.9,14c12.3,10.4,20.9,27,39.2,29.9c30.1,4.6,44.3-23.9,39.1-46.2c-2.2-9.3-6.5-19.1-2.4-27.9
			c3.1-6.7,10.8-11.1,18.8-12.6c8-1.4,16.3-0.3,24.2,1.5c16,3.6,31.3,9.7,44.8,18c10.6,6.5,20.9,15.6,21.7,27
			c0.5,7.6-3.3,14.8-7.3,21.5c-9.8,16.7-21.5,33.1-38,44.8c-20.6,14.6-48.1,19.7-72.5,9.7c-6.7-2.7-14.8-6.4-20.7-2.5
			c-2.9,1.9-4.2,5.2-5,8.4c-5.5,22.2,7.7,44.8,24,62.4c14.9,16.1,34.3,30.8,57.6,33.4c17.7,2,36.9-3,53,3.9
			c13.4,5.7,21.4,19,22.3,32.2c0.8,13.2-4.7,26.2-12.9,37.2c-7.1,9.6-16.1,18-23.4,27.5c-7.3,9.5-13,20.6-12,32.1
			C579.9,665.4,573.2,661.9,570.7,656.9z"/>
		<path class="st3" d="M581.6,666.5c-1.4,0-2.9-0.2-4.3-0.7c-4.1-1.3-7.6-4.2-9.4-7.8v0c-0.3-0.6-0.5-1.2-0.7-1.7
			c-2.2-6.6,0.3-13.3,3-19c5-10.5,11.7-20.5,18.2-30.1c8.6-12.7,17.4-25.9,22.1-40.2c1.4-4.3,3-12.1-1.8-15.8
			c-3.4-2.7-9-2.4-14.4-2.2l-0.7,0c-14.2,0.6-28.5-1-42.4-4.8c-13.9-3.8-26.7-9.5-38.2-17c-11.5-7.5-21.4-16.8-29.6-27.5
			c-8.1-10.7-14.1-22.3-17.7-34.6c-4-13.6-3.9-24.8,0.3-34.3c2.5-5.6,6.9-10.7,12.4-14.2c6-3.9,12.6-5.6,19.3-5
			c6.7,0.6,12.5,3.5,18.1,6.2c5.3,2.6,10.2,5,15.6,5.5c10.3,1.1,20.1-4.9,27.4-10.3c16-11.6,29.7-25.4,40.8-41
			c8.1-11.4,10.1-20.5,5.9-27.1c-2.7-4.3-8.1-7.2-12.9-9.6c-0.9-0.5-2-1-3.1-1.5c-7.9-3.9-19.9-9.9-32-14.3
			c-17.3-6.3-25.7-5.9-29.6-4.4c-2,0.8-3.6,2.9-4.1,5.5c-1.2,7.2-0.8,15.5-0.3,24.2c1.2,24,2.5,51.2-33.7,57.5
			c-3.6,0.6-7,0.9-10.2,0.9c-19.2,0-31-10.1-37.1-15.3c-1-0.9-1.9-1.6-2.6-2.1c-0.7-0.5-1.4-1.1-2.2-1.7
			c-6.2-4.9-16.6-13.1-37.7-18.1l-1.4-0.3c-24.4-5.8-43.6-10.5-50.9-29.7l-0.2-0.4v-0.4c0-8.7,2.6-19.8,22.8-28.2
			c14.3-6.1,30-13.7,35.1-26.6c0.3-1,6.6-20,0.8-31c-5-9.3-8.4-10-18.5-12.2c-1.8-0.4-3.9-0.9-6.3-1.4
			c-13.9-3.4-26.1-11.4-32.6-21.5c-5.3-8.3-6.6-17.5-3.9-26.6c2.6-8.6,8.5-15.8,14.2-22.7c2.1-2.6,4.3-5.2,6.2-7.8
			c5-6.9,9.1-14.6,13-22c3.3-6.3,6.7-12.8,10.8-19c2.9-4.4,2.7-8.6,2.5-13c-0.3-5.3-0.6-11.2,5-17.1c1-1.1,3.4-5,5.6-8.8
			c8.4-14.1,13.9-22.6,19.7-21.4c2,0.1,3.7,1.1,4.7,2.7c1.5,2.4,1.5,6.4-0.1,12.6c-1.2,4.7-3.4,10.7-6.2,17.3
			c-5.1,11.8-12.2,25-16.9,31.3c-3.4,4.6-5.7,9.6-8.1,15c-1.7,3.8-3.5,7.8-5.7,11.5c-3.9,6.5-8.9,12.3-13.9,17.9
			c-4.6,5.2-9.3,10.6-12.8,16.4c-7,11.3-8.6,27.1,1.7,35.3c5.2,4.1,12.2,5.6,19.6,7.2c4.7,1,9.5,2,14,3.7c9.4,3.6,17,11.1,21.4,21.2
			c5.3,12,5.4,26,0.2,36.5c-4.9,10-14.4,17.5-23.9,24.1c-7.9,5.5-16.2,10.8-24.6,15.6c-4.8,2.8-8.9,5.4-9.8,9.1
			c-1.3,5.7,6.1,10.9,13.6,13.4c7,2.3,15,2.9,23.5,3.6c13.8,1.1,28,2.2,38.4,11c3.8,3.2,7.3,7,10.6,10.7c7.9,8.6,15.3,16.7,27,18.5
			c10,1.5,18.9-0.9,25.5-7c9.1-8.4,13.2-22.9,10.1-36c-0.4-1.8-0.9-3.6-1.5-5.6c-2.2-7.9-4.5-16.1-0.8-24c3.3-7,11.3-12.4,21.1-14.2
			c9.3-1.7,18.5-0.1,25.6,1.5c16.4,3.7,31.9,9.9,45.8,18.4c14.6,8.9,22.3,18.7,23,29.1c0.5,8.3-3.5,15.8-7.6,22.9
			c-8.5,14.5-20.7,32.8-38.8,45.7c-10.8,7.7-23.3,12.7-36.2,14.6c-13.6,2-27.2,0.4-39.4-4.6l-1-0.4c-5.8-2.4-12.5-5.1-16.6-2.4
			c-1.8,1.2-3,3.3-3.8,6.8c-5.6,22.7,9.6,45.2,23.3,60.1c17.9,19.4,36.6,30.3,55.6,32.4c6.3,0.7,13.1,0.5,19.6,0.3
			c11.6-0.4,23.5-0.8,34.3,3.8c13.6,5.8,23,19.4,24,34.5c1,15.8-6.7,29.9-13.4,38.9c-3.8,5.2-8.2,10.1-12.5,14.8
			c-3.7,4.1-7.6,8.4-11,12.8c-8.4,10.9-12.3,21.1-11.5,30.4l0.1,1.8l-1.8,0.8C585.1,666.1,583.4,666.5,581.6,666.5z M573.4,655.8
			c1.1,2.3,3.4,4.1,5.9,4.9c0.8,0.2,1.8,0.4,2.9,0.3c-0.2-9.9,4.1-20.6,12.7-31.7c3.5-4.6,7.4-8.9,11.2-13.1
			c4.2-4.6,8.5-9.4,12.2-14.3c6.1-8.3,13.3-21.3,12.4-35.6c-0.8-13.2-8.9-24.9-20.5-29.9c-9.5-4-20.1-3.7-31.5-3.3
			c-6.8,0.2-13.8,0.5-20.6-0.3c-20.6-2.3-40.6-13.9-59.6-34.3c-14.6-15.8-30.7-39.8-24.6-64.7c0.7-3,2.2-7.3,6.1-10
			c7.1-4.7,15.8-1.1,22.8,1.8l1,0.4c11.1,4.6,23.5,6,35.9,4.2c11.9-1.8,23.4-6.4,33.4-13.5c17.3-12.3,29-29.9,37.2-44
			c3.7-6.4,7.4-13.1,6.9-20c-0.6-8.6-7.4-17-20.3-24.9c-13.4-8.2-28.1-14.1-43.9-17.6c-6.4-1.4-14.8-2.9-22.9-1.5
			c-7.8,1.4-14.1,5.6-16.6,10.9c-2.9,6.2-0.9,13.2,1.1,20.6c0.5,1.9,1.1,3.8,1.5,5.8c3.5,14.8-1.2,31.2-11.7,40.9
			c-8.1,7.5-18.8,10.4-30.9,8.6c-14-2.1-22.4-11.4-30.7-20.4c-3.4-3.7-6.6-7.2-10.1-10.2c-8.9-7.5-21.5-8.5-34.8-9.5
			c-8.5-0.7-17.3-1.4-25.1-3.9c-10.2-3.4-19.5-10.7-17.4-19.6c1.5-6.2,7.8-9.8,12.4-12.5c8.3-4.8,16.4-9.9,24.2-15.3
			c8.9-6.2,17.7-13.1,22-22c4.5-9.2,4.4-21.6-0.3-32.3c-3.8-8.7-10.3-15.2-18.2-18.2c-4-1.6-8.4-2.5-13-3.4
			c-5.9-1.2-12-2.5-17.4-5.3c5.1,3.5,11.1,6.2,17.6,7.7c2.2,0.5,4.3,1,6.1,1.4c10.8,2.4,16.3,3.6,22.5,15.2c7,13.1-0.2,34.1-0.5,35
			l0,0.1c-5.8,15-22.8,23.2-38.3,29.8c-18.7,7.8-19.3,17.7-19.3,22.8c6.4,16.1,23.3,20.2,46.6,25.8l1.4,0.3
			c22.4,5.4,33.5,14.1,40.1,19.3c0.8,0.6,1.5,1.2,2.1,1.7c0.8,0.6,1.8,1.4,2.9,2.4c6.9,5.9,19.7,16.9,42,13c31-5.4,29.9-28,28.8-52
			c-0.4-8.6-0.9-17.4,0.4-25.2c0.7-4.5,3.7-8.3,7.8-9.8c7.4-2.7,18.6-1.3,34.2,4.4c12.4,4.5,24.6,10.5,32.7,14.5
			c1.1,0.6,2.2,1.1,3.1,1.5c5.5,2.7,11.8,6.1,15.3,11.6c5.3,8.4,3.3,19.4-6.1,32.6c-11.4,16.1-25.5,30.3-42.1,42.3
			c-8.3,6-19.4,12.7-32,11.5c-6.6-0.7-12.3-3.5-17.8-6.2c-5.3-2.6-10.3-5.1-15.8-5.6c-6.4-0.6-11.8,1.8-15.1,4
			c-4.6,2.9-8.2,7.1-10.3,11.8c-3.7,8.3-3.7,18.4,0,30.9c3.4,11.7,9.1,22.8,16.9,33c7.8,10.2,17.2,19,28.1,26.1
			c10.9,7.2,23.1,12.6,36.4,16.2c13.2,3.6,26.8,5.1,40.3,4.6l0.7,0c6.3-0.3,13.4-0.6,18.7,3.5c5.6,4.3,6.9,11.7,3.7,21.4
			c-4.9,15-14,28.4-22.7,41.5c-6.4,9.5-13,19.3-17.8,29.4c-2.3,4.8-4.4,10.4-2.8,15.4C573.1,655.1,573.2,655.4,573.4,655.8z
			 M420.8,61c-0.6,0.3-2.2,1.6-5.5,6.2c-2.6,3.7-5.4,8.3-7.8,12.4c-3.1,5.3-5,8.4-6.4,9.8c-4.1,4.2-3.8,8.2-3.6,13.3
			c0.2,4.8,0.5,10.2-3.3,16c-3.9,5.9-7.3,12.3-10.5,18.5c-4,7.6-8.1,15.4-13.4,22.7c-2,2.8-4.2,5.5-6.4,8.1
			c-5.6,6.8-10.9,13.3-13.3,21c-2.2,7.1-1.4,14.3,2.3,20.8c-1.3-3.1-2-6.6-2-10.4c-0.1-7.2,2.2-14.9,6.4-21.7
			c3.8-6.2,8.7-11.7,13.4-17.1c4.8-5.4,9.7-11.1,13.3-17.1c2.1-3.5,3.8-7.3,5.5-11c2.4-5.4,5-10.9,8.7-16
			c4.6-6.2,11.6-19.1,16.6-30.9c7.2-16.8,7.2-23.2,6.5-24.6L420.8,61L420.8,61z"/>
	</g>
</g>
</svg>
