<svg width="576" height="720" viewBox="0 0 576 720" fill="none" xmlns="http://www.w3.org/2000/svg">
<g clip-path="url(#clip0_3348_7807)">
<path d="M553.717 171.893L550.202 170.061C548.169 169.013 546.146 168.095 543.983 167.343C546.135 169.098 548.099 170.909 549.958 172.976L553.204 176.775L553.157 177.223C550.898 176.126 548.774 174.52 546.613 173.238C542.875 171.02 538.98 168.996 535.143 166.954C539.203 170.57 543.394 173.604 545.908 178.598C539.568 173.426 530.418 168.74 522.26 167.931C527.182 170.279 531.835 173.362 535.213 177.715C532.242 176.219 528.182 174.331 524.825 174.133C531.6 177.206 537.161 179.967 542.044 185.84C545.808 190.369 548.196 195.444 547.641 201.4C546.834 198.545 545.555 195.916 544.331 193.22C544.359 194.483 544.53 195.715 544.703 196.966C542.834 192.878 540.275 189.373 537.56 185.817C538.308 188.863 539.237 191.997 539.296 195.143C538.208 193.47 537.284 191.687 536.195 190.008C534.517 187.422 532.515 184.994 530.47 182.687C530.83 184.683 531.153 186.662 531.199 188.692C529.16 186.105 526.813 183.868 524.275 181.774C524.423 183.093 524.515 184.392 524.547 185.719C522.269 183.981 520.575 180.464 517.776 179.501C517.27 180.075 517.848 181.72 517.878 182.578L517.885 182.842C516.467 182.054 515.099 181.207 513.649 180.472C512.495 180.608 511.421 180.897 510.306 181.211C512.95 182.063 515.616 183.176 518.063 184.483C527.353 189.446 533.181 194.812 536.364 205.065C531.596 199.835 526.383 194.743 520.148 191.257C520.159 191.49 520.748 191.825 520.957 191.978C524.473 194.559 526.062 196.914 528.069 200.731C531.716 207.665 534.042 215.435 531.635 223.14C531.034 218.985 530.01 215.391 527.706 211.819C528.662 217.902 528.292 222.747 525.023 228.07L525.139 227.557C525.639 225.392 525.864 223.079 525.532 220.868C525.136 222.798 524.74 224.752 524.014 226.59C522.131 231.358 517.656 235.168 513.017 237.159C516.282 232.311 518.823 226.819 520.63 221.269C519.266 222.947 517.847 224.321 516.168 225.689C517.747 220.808 518.771 216.007 518.921 210.853C517.387 213.196 515.741 215.335 513.707 217.271C513.686 215.498 514.026 213.681 514.171 211.912C514.44 208.639 514.57 205.411 514.476 202.127C513.155 203.999 512.42 205.613 511.697 207.79C510.986 203.319 511.277 198.979 511.567 194.498C509.309 198.258 506.585 201.504 502.9 203.952C504.369 200.115 505.598 196.286 506.739 192.34C505.816 193.368 504.827 194.328 503.772 195.22C502.716 196.112 501.604 196.928 500.436 197.667C502.108 195.355 502.945 192.724 503.306 189.899C503.387 189.267 503.414 188.854 503.017 188.339C502.398 188.304 500.078 190.171 499.291 190.526C499.228 190.554 499.164 190.58 499.101 190.607C499.342 189.485 499.407 188.381 499.114 187.257C498.985 186.762 498.857 186.273 498.392 185.993C497.971 186.569 498.07 187.523 498.142 188.208C498.506 191.681 499.398 195.148 499.94 198.602C500.69 203.374 501.171 208.302 501.522 213.115C501.976 219.348 502.351 225.699 502.374 231.946C502.401 239.649 501.94 247.296 501.293 254.964C499.869 271.857 497.288 288.618 492.081 304.782L482.55 299.424C486.562 290.804 488.991 281.076 491.117 271.843C491.974 268.122 492.959 264.424 493.663 260.669C497.186 241.871 498.59 219.935 496.64 200.876C496.17 196.283 495.251 191.743 494.55 187.184C494.154 188.434 493.824 189.672 493.541 190.952C493.199 189.869 492.792 188.826 492.363 187.774C492.224 192.898 492.752 198.212 493.509 203.275C491.625 200.665 490.614 197.992 489.766 194.92C489.248 200.144 489.429 205.201 490.123 210.403C487.192 207.092 483.21 201.005 481.75 196.867C481.353 202.196 481.596 207.173 482.288 212.482C479.552 210.755 477.577 208.704 475.706 206.07C475.523 210.578 475.654 214.982 476.042 219.48C473.802 217.776 472.221 216.257 470.649 213.911C470.614 218.338 471.384 222.832 470.518 227.201C469.95 225.645 469.593 224.05 468.965 222.503C469.028 224.605 468.924 226.71 469.043 228.813C469.188 231.382 469.639 233.915 470.067 236.45C469.603 235.875 469.14 235.296 468.706 234.698C463.605 227.669 463.484 223.012 464.883 214.801C463.836 217.138 462.774 219.406 462.183 221.91C462.142 221.751 462.099 221.593 462.063 221.433C460.232 213.363 462.189 206.865 466.539 200.119C463.167 203.021 460.976 207.229 459.143 211.198C459.178 208.168 459.629 204.751 460.732 201.916C463.314 195.279 469.182 191.57 475.434 188.824C470.019 189.95 465.415 192.118 460.734 194.954C461.637 193.743 462.58 192.564 463.562 191.416C470.08 183.951 479.015 179.085 489.022 178.393C487.742 178.004 486.461 177.601 485.146 177.348C483.647 177.059 482.073 177.027 480.653 176.429C477.765 178.469 474.58 180.047 471.762 182.159C472.83 179.631 474.234 177.465 475.834 175.252C472.001 177.548 468.526 179.998 465.25 183.036L465.187 182.986L465.044 183.222L464.85 183.255C464.834 183.193 464.811 183.131 464.803 183.067C464.559 180.896 468.31 176.522 469.719 174.965C469.142 175.29 468.577 175.633 468.022 175.993C467.468 176.354 466.926 176.733 466.396 177.128C465.866 177.524 465.349 177.936 464.846 178.365C464.342 178.793 463.853 179.237 463.378 179.697C462.903 180.157 462.444 180.632 461.999 181.121C461.555 181.61 461.127 182.113 460.715 182.63C460.303 183.147 459.908 183.676 459.53 184.218C459.153 184.76 458.793 185.314 458.45 185.879C458.921 182.757 459.546 180.598 461.016 177.804C457.983 180.344 455.071 183.11 452.71 186.283C452.645 183.87 453.359 181.902 454.146 179.676C450.996 182.659 448.085 185.764 445.185 188.984C445.658 187.46 446.166 186.013 446.833 184.561C443.049 187.3 439.442 190.061 436.026 193.252C439.587 185.936 445.878 179.346 452.621 174.859C455.393 173.014 458.361 171.643 461.468 170.458C469.935 167.23 474.877 167.237 483.699 169.031C480.045 166.754 470.327 166.768 465.821 166.765C467.873 165.428 470.128 164.323 472.261 163.11C467.014 164.437 461.515 165.218 456.393 166.94L456.102 167.039L455.966 166.861C456.61 165.008 459.586 162.938 461.124 161.658C459.314 162.418 457.324 162.84 455.434 163.369C452.984 164.035 450.57 164.814 448.193 165.704C450.4 163.393 452.851 161.7 455.585 160.077C451.318 160.498 447.217 162.403 443.578 164.547C444.444 163.049 445.236 161.966 446.584 160.868C443.81 161.826 440.934 162.389 438.111 163.176C436.34 163.67 434.615 164.344 432.898 164.996C433.118 164.764 433.341 164.534 433.566 164.307C433.792 164.08 434.02 163.856 434.251 163.635C434.482 163.413 434.716 163.194 434.952 162.978C435.188 162.763 435.427 162.549 435.668 162.339C435.909 162.129 436.153 161.921 436.399 161.717C436.645 161.512 436.894 161.311 437.145 161.112C437.396 160.913 437.649 160.717 437.905 160.525C438.16 160.332 438.418 160.142 438.678 159.956C438.938 159.769 439.201 159.586 439.465 159.405C439.73 159.225 439.996 159.047 440.265 158.873C440.534 158.699 440.805 158.528 441.078 158.36C441.35 158.193 441.625 158.028 441.902 157.867C442.179 157.706 442.457 157.548 442.738 157.393C443.018 157.239 443.301 157.087 443.585 156.939C443.869 156.791 444.155 156.647 444.443 156.505C444.73 156.364 445.019 156.226 445.31 156.092C445.601 155.957 445.894 155.826 446.188 155.699C446.482 155.571 446.777 155.447 447.074 155.327C447.371 155.206 447.67 155.089 447.969 154.976C448.269 154.862 448.571 154.752 448.873 154.646C449.175 154.539 449.479 154.437 449.784 154.337C450.089 154.238 450.395 154.142 450.702 154.05C451.009 153.958 451.318 153.87 451.627 153.785C451.936 153.7 452.247 153.619 452.558 153.542C452.869 153.464 453.181 153.391 453.494 153.321C453.807 153.25 454.121 153.184 454.436 153.121C454.751 153.059 455.066 153 455.382 152.944C455.698 152.889 456.015 152.838 456.332 152.79C456.65 152.742 456.967 152.698 457.286 152.658C457.604 152.617 457.923 152.581 458.242 152.548C458.562 152.515 458.881 152.486 459.201 152.461C459.521 152.436 459.842 152.414 460.162 152.396C470.259 151.896 478.695 155.088 486.403 161.491C487.943 162.77 489.267 164.25 490.752 165.584C488.147 161.157 481.521 154.072 477.483 150.756C482.561 151.43 486.363 153.158 490.266 156.505C485.272 149.883 478.305 145.334 471.199 141.286C474.799 141.303 478.121 142.117 481.466 143.409C477.752 139.805 473.5 137.914 468.637 136.377C471.502 135.619 473.734 135.686 476.621 136.304C470.738 130.814 465.751 127.949 457.755 126.354C462.965 125.997 467.888 126.48 472.857 128.184C482.817 131.602 489.699 139.319 494.24 148.536C494.934 146.388 495.156 143.954 495.524 141.718C496.883 146.618 496.649 151.978 497.829 156.922C498.941 153.159 499.838 149.164 500.463 145.286C501.071 149.198 500.781 153.056 499.703 156.853C504.097 150.299 506.282 144.648 513.067 139.72C524.629 131.322 539.031 129.159 552.98 131.334C550.284 131.896 547.512 132.203 544.798 132.692C541.276 133.327 537.823 134.159 534.365 135.067C532.105 135.66 529.88 136.182 527.764 137.192C531.602 136.855 535.328 137.58 539.106 138.187C534.541 138.503 529.461 138.887 525.465 141.29C529.381 141.549 532.592 142.418 536.307 143.603C529.908 144.249 523.596 145.029 517.639 147.584C521.862 146.906 525.476 147.533 529.582 148.699C522.72 149.441 513.924 151.027 508.224 155.011C513.69 153.074 519.006 152.546 524.691 153.761C518.908 154.54 511.372 158.161 506.98 161.925C505.601 163.107 504.486 164.427 503.377 165.858C506.721 163.126 510.326 161.235 514.45 159.911C515.508 159.573 516.577 159.277 517.658 159.022C518.739 158.767 519.829 158.555 520.927 158.384C522.025 158.213 523.128 158.085 524.236 158C525.344 157.915 526.454 157.872 527.566 157.873C530.927 157.85 534.025 158.173 536.986 158.775C537.159 158.83 537.337 158.886 537.525 158.941C544.86 161.097 553.717 171.893 553.717 171.893ZM510.496 172.755C513.571 172.49 516.342 172.44 519.417 172.937C520.677 173.141 521.911 173.474 523.173 173.659L523.329 173.681C522.137 173.147 520.776 172.785 519.518 172.424C516.377 171.523 513.484 171.129 510.496 172.755Z" fill="#2D6438"/>
</g>
<path d="M523.526 344.916C519.635 336.902 514.646 329.457 508.935 322.671C503.064 315.695 496.441 309.36 489.288 303.756C482.29 298.274 474.763 293.465 466.842 289.481C459.403 285.741 451.584 282.748 443.495 280.827C443.388 280.801 443.298 280.761 443.215 280.716L443.215 367.639L530.138 367.639L530.138 363.982C528.743 357.378 526.461 350.964 523.526 344.916Z" fill="#F6CC47"/>
<g clip-path="url(#clip1_3348_7807)">
<path d="M369.195 103.029C368.642 102.751 368.089 102.473 367.537 102.195C373.625 102.349 379.714 102.504 385.802 102.658C373.723 69.9915 366.371 35.5859 364.045 0.84082C364.383 30.3339 359.829 59.5354 350.551 87.5372C348.122 94.8658 345.38 102.922 348.315 110.064C350.337 114.985 354.747 118.513 359.303 121.269C365.948 125.29 373.257 128.149 379.801 132.333C386.346 136.516 392.302 142.422 394.134 149.963C397.653 140.729 395.888 129.979 390.742 121.541C385.596 113.103 377.377 106.838 368.39 102.707C364.828 101.07 360.95 99.6094 358.529 96.5288C356.107 93.4481 356.096 88.0898 359.591 86.3125C362.097 85.0378 365.204 86.1473 367.423 87.8744C369.641 89.6015 371.375 91.9074 373.691 93.5016C376.007 95.0958 379.313 95.8267 381.557 94.1332C374.061 93.6155 366.565 93.0978 359.069 92.58C361.24 97.071 364.95 100.403 369.195 103.029Z" fill="#111EF7"/>
<path d="M406.665 156.524C401.827 151.676 394.947 149.588 388.367 147.672C374.224 143.555 360.082 139.438 345.94 135.321C344.162 134.804 342.298 134.235 341.016 132.901C338.264 130.036 339.694 124.928 342.85 122.516C346.007 120.103 350.197 119.649 354.156 119.283C347.551 118.364 340.929 122.358 337.334 127.966C333.738 133.574 332.755 140.497 332.986 147.152C333.126 151.223 333.769 155.485 336.235 158.728C339.838 163.467 346.289 164.828 352.187 165.666C363.472 167.27 374.901 168.196 385.924 171.098C396.742 173.946 404.954 179.033 413.671 185.727C416.261 183.16 414.184 173.893 413.491 170.462C412.448 165.307 410.436 160.303 406.665 156.524Z" fill="#111EF7"/>
<path d="M316.066 177.309C315.888 180.888 315.908 184.975 318.556 187.392C320.177 188.871 322.44 189.366 324.591 189.807C342.214 193.413 359.837 197.02 377.46 200.626C387.479 202.677 397.552 204.743 407.091 208.426C416.63 212.109 425.699 217.523 432.299 225.324C432.142 213.388 429.934 200.54 421.393 192.189C413.476 184.448 401.848 182.193 390.933 180.292C371.489 176.904 352.046 173.516 332.602 170.128C330.834 169.82 329.013 169.492 327.501 168.526C325.99 167.56 324.849 165.784 325.184 164.023C325.519 162.262 327.766 160.986 329.249 161.996C327.32 160.636 320.408 163.404 318.976 165.127C316.459 168.153 316.249 173.616 316.066 177.309Z" fill="#111EF7"/>
<path d="M307.948 204.546C338.233 208.994 368.519 213.442 398.804 217.889C407.312 219.139 415.893 220.407 423.954 223.398C432.015 226.39 439.622 231.278 444.375 238.435C449.128 245.592 450.597 255.234 446.752 262.916C429.99 250.16 409.161 243.839 388.382 240.335C367.602 236.831 346.46 235.9 325.646 232.606C320.022 231.715 314.339 230.624 309.252 228.068C304.166 225.511 299.678 221.286 297.996 215.853C295.109 206.525 301.643 196.167 311.417 195.098C309.001 195.755 304.506 196.091 302.842 198.119C299.734 201.908 304.764 204.078 307.948 204.546Z" fill="#111EF7"/>
<path d="M289.142 234.796C288.304 235.346 287.447 236.089 287.365 237.086C287.192 239.2 290.167 239.821 292.289 239.732C301.152 239.357 310.254 240.555 318.155 244.582C326.056 248.61 332.635 255.722 334.708 264.336C328.301 264.565 321.734 264.772 315.647 262.762C308.957 260.553 302.577 255.676 295.65 256.968C292.786 257.503 289.831 259.082 287.127 257.997C285.032 257.155 283.83 254.928 283.255 252.747C281.699 246.847 283.751 240.148 288.346 236.127C291.222 233.61 294.926 232.306 298.712 232.079C295.344 231.982 291.958 232.948 289.142 234.796Z" fill="#111EF7"/>
</g>
<path d="M167.919 692.56C164.012 684.601 159 677.207 153.264 670.466C147.367 663.537 140.716 657.244 133.531 651.678C126.502 646.234 118.941 641.456 110.985 637.5C103.514 633.785 95.6602 630.812 87.5357 628.904C87.4284 628.879 87.3376 628.839 87.2541 628.794L87.2541 715.131L174.561 715.131L174.561 711.498C173.16 704.939 170.868 698.568 167.919 692.56Z" fill="#E83323"/>
<path d="M353.426 324.178L353.426 367.639L398.32 367.639L443.215 367.639L353.426 280.716L353.426 324.178Z" fill="white"/>
<path d="M185.11 125.618C189.017 133.578 194.029 140.972 199.765 147.712C205.662 154.641 212.314 160.934 219.499 166.5C226.527 171.945 234.088 176.722 242.044 180.678C249.515 184.394 257.369 187.366 265.493 189.275C265.601 189.3 265.691 189.339 265.775 189.385L265.775 103.048L178.468 103.048L178.468 106.681C179.869 113.239 182.161 119.611 185.11 125.618Z" fill="#F6CC47"/>
<path d="M443.215 324.177L443.215 280.716L398.32 280.716L353.426 280.716L443.215 367.639L443.215 324.177Z" fill="#E83323"/>
<g clip-path="url(#clip2_3348_7807)">
<path d="M174.561 628.794L174.561 541.487L87.2541 541.487L87.2541 628.794L174.561 628.794Z" fill="#2D6438"/>
<path d="M154.674 554.399C154.674 558.251 157.797 561.374 161.649 561.374C165.502 561.374 168.625 558.251 168.625 554.399C168.625 550.546 165.502 547.423 161.649 547.423C157.797 547.423 154.674 550.546 154.674 554.399Z" fill="white"/>
<path d="M154.674 574.893C154.674 578.745 157.797 581.868 161.649 581.868C165.502 581.868 168.625 578.745 168.625 574.893C168.625 571.041 165.502 567.918 161.649 567.918C157.797 567.918 154.674 571.041 154.674 574.893Z" fill="white"/>
<path d="M154.674 595.387C154.674 599.24 157.797 602.363 161.649 602.363C165.502 602.363 168.625 599.24 168.625 595.387C168.625 591.535 165.502 588.412 161.649 588.412C157.797 588.412 154.674 591.535 154.674 595.387Z" fill="white"/>
<path d="M161.649 622.857C157.797 622.857 154.674 619.734 154.674 615.882C154.674 612.029 157.797 608.906 161.649 608.906C165.502 608.906 168.625 612.029 168.625 615.882C168.625 619.734 165.502 622.857 161.649 622.857Z" fill="white"/>
<path d="M141.155 561.374C137.303 561.374 134.18 558.251 134.18 554.399C134.18 550.546 137.303 547.423 141.155 547.423C145.007 547.423 148.13 550.546 148.13 554.399C148.13 558.251 145.007 561.374 141.155 561.374Z" fill="white"/>
<path d="M141.155 581.868C137.303 581.868 134.18 578.745 134.18 574.893C134.18 571.041 137.303 567.918 141.155 567.918C145.007 567.918 148.13 571.041 148.13 574.893C148.13 578.745 145.007 581.868 141.155 581.868Z" fill="white"/>
<path d="M141.155 602.363C137.303 602.363 134.18 599.24 134.18 595.387C134.18 591.535 137.303 588.412 141.155 588.412C145.007 588.412 148.13 591.535 148.13 595.387C148.13 599.24 145.007 602.363 141.155 602.363Z" fill="white"/>
<path d="M141.155 622.857C137.303 622.857 134.18 619.734 134.18 615.882C134.18 612.029 137.303 608.906 141.155 608.906C145.007 608.906 148.13 612.029 148.13 615.882C148.13 619.734 145.007 622.857 141.155 622.857Z" fill="white"/>
<path d="M120.66 561.374C116.808 561.374 113.685 558.251 113.685 554.399C113.685 550.546 116.808 547.423 120.66 547.423C124.513 547.423 127.636 550.546 127.636 554.399C127.636 558.251 124.513 561.374 120.66 561.374Z" fill="white"/>
<path d="M120.66 581.868C116.808 581.868 113.685 578.745 113.685 574.893C113.685 571.041 116.808 567.918 120.66 567.918C124.513 567.918 127.636 571.041 127.636 574.893C127.636 578.745 124.513 581.868 120.66 581.868Z" fill="white"/>
<path d="M120.66 602.363C116.808 602.363 113.685 599.24 113.685 595.387C113.685 591.535 116.808 588.412 120.66 588.412C124.513 588.412 127.636 591.535 127.636 595.387C127.636 599.24 124.513 602.363 120.66 602.363Z" fill="white"/>
<path d="M120.66 622.857C116.808 622.857 113.685 619.734 113.685 615.882C113.685 612.029 116.808 608.906 120.66 608.906C124.513 608.906 127.636 612.029 127.636 615.882C127.636 619.734 124.513 622.857 120.66 622.857Z" fill="white"/>
<path d="M93.1911 554.399C93.1911 558.251 96.314 561.374 100.166 561.374C104.019 561.374 107.141 558.251 107.141 554.399C107.141 550.546 104.019 547.423 100.166 547.423C96.314 547.423 93.1911 550.546 93.1911 554.399Z" fill="white"/>
<path d="M93.1911 574.893C93.1911 578.745 96.314 581.868 100.166 581.868C104.019 581.868 107.141 578.745 107.141 574.893C107.141 571.041 104.019 567.918 100.166 567.918C96.314 567.918 93.1911 571.041 93.1911 574.893Z" fill="white"/>
<path d="M93.1911 595.387C93.1911 599.24 96.314 602.363 100.166 602.363C104.019 602.363 107.141 599.24 107.141 595.387C107.141 591.535 104.019 588.412 100.166 588.412C96.314 588.412 93.1911 591.535 93.1911 595.387Z" fill="white"/>
<path d="M100.166 622.857C96.314 622.857 93.1911 619.734 93.1911 615.882C93.1911 612.029 96.314 608.906 100.166 608.906C104.019 608.906 107.141 612.029 107.141 615.882C107.141 619.734 104.019 622.857 100.166 622.857Z" fill="white"/>
</g>
<g clip-path="url(#clip3_3348_7807)">
<path d="M89.7213 279.009L133.86 279.009C158.237 279.009 177.999 298.553 177.999 322.663C177.999 346.772 158.237 366.316 133.86 366.316L89.7213 366.316L89.7213 279.009Z" fill="#F6CC47"/>
</g>
<g clip-path="url(#clip4_3348_7807)">
<path d="M89.7213 190.731L177.999 190.731L177.999 103.424L89.7213 103.424L89.7213 190.731Z" fill="white"/>
<path d="M137.832 190.731L145.777 190.731L145.777 103.424L137.832 103.424L137.832 190.731Z" fill="#111EF7"/>
<path d="M153.722 190.731L161.667 190.731L161.667 103.424L153.722 103.424L153.722 190.731Z" fill="#111EF7"/>
<path d="M169.612 190.731L177.999 190.731L177.999 103.424L169.612 103.424L169.612 190.731Z" fill="#111EF7"/>
<path d="M106.053 190.731L113.998 190.731L113.998 103.424L106.053 103.424L106.053 190.731Z" fill="#111EF7"/>
<path d="M89.7213 190.731L98.1075 190.731L98.1076 103.424L89.7213 103.424L89.7213 190.731Z" fill="#111EF7"/>
<path d="M121.942 190.731L129.887 190.731L129.887 103.424L121.942 103.424L121.942 190.731Z" fill="#111EF7"/>
</g>
<g clip-path="url(#clip5_3348_7807)">
<path d="M331.415 498.217C331.415 510.303 321.508 520.102 309.287 520.102C321.468 520.102 331.345 529.838 331.409 541.87L331.421 541.87C331.485 529.877 341.299 520.171 353.426 520.107L353.426 520.096C341.259 520.032 331.415 510.264 331.415 498.217Z" fill="#88D84A"/>
<path d="M309.287 476.331C321.508 476.331 331.415 486.13 331.415 498.217C331.415 486.169 341.259 476.401 353.426 476.337L353.426 476.326C341.299 476.262 331.485 466.556 331.421 454.563L331.409 454.563C331.345 466.595 321.468 476.331 309.287 476.331Z" fill="#88D84A"/>
<path d="M309.287 520.102C297.066 520.102 287.159 510.303 287.159 498.217C287.159 510.264 277.315 520.032 265.148 520.096L265.148 520.107C277.275 520.171 287.089 529.877 287.153 541.87L287.165 541.87C287.229 529.838 297.106 520.102 309.287 520.102Z" fill="#88D84A"/>
<path d="M265.148 476.326L265.148 476.337C277.315 476.401 287.159 486.169 287.159 498.217C287.159 486.13 297.066 476.331 309.287 476.331C297.106 476.331 287.229 466.595 287.165 454.563L287.153 454.563C287.089 466.556 277.275 476.262 265.148 476.326Z" fill="#88D84A"/>
<path d="M265.148 520.107L265.148 541.87L287.153 541.87C287.089 529.877 277.275 520.171 265.148 520.107Z" fill="white"/>
<path d="M287.159 498.217C287.159 486.169 277.315 476.401 265.148 476.337L265.148 520.096C277.315 520.032 287.159 510.264 287.159 498.217Z" fill="white"/>
<path d="M287.153 454.563L265.148 454.563L265.148 476.326C277.275 476.262 287.089 466.556 287.153 454.563Z" fill="white"/>
<path d="M309.287 520.102C297.106 520.102 287.229 529.838 287.165 541.87L331.409 541.87C331.345 529.838 321.468 520.102 309.287 520.102Z" fill="white"/>
<path d="M287.234 500.022C288.242 512.067 298.933 521.024 311.112 520.027C323.292 519.03 332.348 508.457 331.34 496.411C330.332 484.366 319.641 475.409 307.462 476.406C295.282 477.403 286.226 487.976 287.234 500.022Z" fill="white"/>
<path d="M309.287 476.331C321.468 476.331 331.345 466.595 331.409 454.563L287.165 454.563C287.229 466.595 297.106 476.331 309.287 476.331Z" fill="white"/>
<path d="M331.421 541.87L353.426 541.87L353.426 520.107C341.299 520.171 331.485 529.877 331.421 541.87Z" fill="white"/>
<path d="M331.415 498.217C331.415 510.264 341.259 520.032 353.426 520.096L353.426 476.337C341.259 476.401 331.415 486.169 331.415 498.217Z" fill="white"/>
<path d="M353.426 476.326L353.426 454.563L331.421 454.563C331.485 466.556 341.299 476.262 353.426 476.326Z" fill="white"/>
</g>
<g clip-path="url(#clip6_3348_7807)">
<path d="M177.999 279.009L177.999 190.731L89.7213 190.731L89.7213 279.009L177.999 279.009Z" fill="#88D84A"/>
<path d="M177.999 234.87L177.999 234.87C177.999 210.493 158.237 190.731 133.86 190.731L133.86 190.731C109.483 190.731 89.7213 210.493 89.7213 234.87L89.7213 234.87C89.7213 259.247 109.483 279.009 133.86 279.009L133.86 279.009C158.237 279.009 177.999 259.247 177.999 234.87Z" fill="white"/>
<path d="M153.814 234.87C153.814 223.849 144.881 214.916 133.86 214.916C122.839 214.916 113.905 223.849 113.905 234.87C113.905 245.891 122.839 254.825 133.86 254.825C144.88 254.825 153.814 245.891 153.814 234.87Z" fill="#E83323"/>
</g>
<g clip-path="url(#clip7_3348_7807)">
<path d="M177.999 526.88L209.533 521.439L229.359 541.901L232.398 541.901L236.633 512.58L265.306 498.343L265.306 498.247L265.306 498.151L236.633 483.914L232.398 454.593L229.359 454.593L209.533 475.055L177.999 469.614L177.999 469.952L192.785 498.247L177.999 526.542L177.999 526.88Z" fill="#111EF7"/>
</g>
<g clip-path="url(#clip8_3348_7807)">
<path d="M199.764 374.503C210.327 379.641 219.981 386.597 228.683 394.453C237.615 402.516 245.612 411.642 252.467 421.531C257.451 428.721 261.864 436.378 265.306 444.44L265.306 367.286L178.022 367.286C185.567 368.57 192.885 371.156 199.764 374.503Z" fill="#F6CC47"/>
<path d="M184.687 435.803C182.609 433.944 180.365 432.306 177.999 430.876L177.999 454.593L198.692 454.593C195.039 447.613 190.57 441.068 184.687 435.803Z" fill="#F6CC47"/>
<path d="M220.325 417.906C213.205 410.779 205.759 403.895 197.623 397.933C191.659 393.563 185.105 389.366 177.999 387.002L177.999 406.007C182.609 408.135 187.002 410.716 191.078 413.77C197.091 418.275 202.357 423.661 206.959 429.59C211.531 435.483 215.475 441.823 219.118 448.324C220.282 450.399 221.41 452.493 222.527 454.593L245.844 454.593C243.868 449.404 241.64 444.321 238.802 439.523C233.951 431.324 227.016 424.603 220.325 417.906Z" fill="#F6CC47"/>
</g>
<g clip-path="url(#clip9_3348_7807)">
<path d="M331.418 447.73C320.739 442.591 310.977 435.635 302.178 427.779C293.147 419.716 285.061 410.59 278.13 400.702C273.09 393.512 268.628 385.854 265.148 377.792L265.148 454.946L353.402 454.946C345.773 453.662 338.374 451.077 331.418 447.73Z" fill="#F6CC47"/>
<path d="M347.085 386.43C349.055 388.289 351.182 389.927 353.426 391.357L353.426 367.639L333.808 367.639C337.271 374.62 341.508 381.165 347.085 386.43Z" fill="#F6CC47"/>
<path d="M309.287 404.237C316.486 411.364 325.357 418.338 333.583 424.299C339.613 428.67 346.24 432.867 353.426 435.231L353.426 416.225C348.765 414.098 344.322 411.516 340.201 408.463C334.121 403.958 328.796 398.572 324.144 392.642C319.52 386.75 315.533 380.41 311.849 373.909C310.673 371.833 309.287 370.079 309.287 367.639L284.826 367.639C284.826 380.956 300.851 395.886 309.287 404.237Z" fill="#F6CC47"/>
</g>
<g clip-path="url(#clip10_3348_7807)">
<path d="M201.304 574.423C199.515 577.486 198.933 581.096 199.475 584.581C199.815 586.764 200.524 588.893 201.481 590.884C202.154 592.286 202.664 593.748 203.507 595.068C204.208 596.166 205.071 597.151 206.063 597.993C211.507 600.617 218.442 600.159 223.83 597.617C227.393 595.936 230.509 593.315 232.347 589.821C234.376 585.965 234.397 581.535 233.255 577.411C232.29 573.927 230.343 570.657 227.336 568.529C224.648 566.627 221.42 565.68 218.16 565.604C211.584 565.452 204.67 568.657 201.304 574.423Z" fill="#111EF7"/>
<path d="M260.052 628.185C250.444 627.74 240.999 625.558 232.232 621.637C223.85 617.889 216.242 612.588 209.536 606.384C202.66 600.024 196.714 592.715 191.488 584.984C186.096 577.008 181.46 568.547 177.342 559.866C176.259 557.582 175.252 555.295 174.404 552.919L174.404 628.368L262.112 628.368C262.113 628.329 262.111 628.291 262.111 628.252C261.425 628.238 260.738 628.217 260.052 628.185Z" fill="#F6CC47"/>
<path d="M189.328 542.467C199.125 545.734 208.363 550.204 216.953 555.905C226.167 562.02 234.628 569.31 241.933 577.575C248.995 585.567 255.033 594.51 259.159 604.333C260.616 607.8 261.811 611.39 262.681 615.051L262.681 541.487L186.209 541.487C187.254 541.798 188.295 542.122 189.328 542.467Z" fill="#F6CC47"/>
</g>
<g clip-path="url(#clip11_3348_7807)">
<path d="M264.932 279.494L264.932 367.286L221.465 367.286L177.999 367.286L177.999 279.494L177.999 191.702L221.465 191.702L264.932 191.702L264.932 279.494Z" fill="#FDF5DA"/>
<path d="M264.932 279.494L264.932 367.286L221.465 367.286L177.999 279.494L221.465 191.702L264.932 191.702L264.932 279.494Z" fill="#E83323"/>
<path d="M265.306 279.494L265.306 367.286L245.813 367.286L202.347 279.494L245.813 191.702L265.306 191.702L265.306 279.494Z" fill="#FDF5DA"/>
<path d="M265.306 279.494L265.306 367.286L265.022 367.286L221.036 279.494L265.022 191.702L265.306 191.702L265.306 279.494Z" fill="#E83323"/>
</g>
<g clip-path="url(#clip12_3348_7807)">
<path d="M353.426 278.761L334.024 278.76L334.024 368.76L353.426 368.76L353.426 278.761Z" fill="#F6CC47"/>
<path d="M308.802 278.761L284.55 278.76L284.55 368.76L308.802 368.76L308.802 278.761Z" fill="#F6CC47"/>
</g>
<g clip-path="url(#clip13_3348_7807)">
<path d="M209.583 688.345C249.235 690.142 285.851 691.551 325.52 692.848C327.43 692.911 329.449 692.946 331.115 691.969C332.548 691.128 333.517 689.652 334.434 688.227C337.49 683.48 340.546 678.732 343.603 673.984C344.468 672.213 342.196 670.266 309.358 670.582C297.063 670.7 284.307 670.335 272.023 669.748C261.497 669.245 235.284 667.432 225.045 669.748C217.751 671.397 206.995 684.582 209.583 688.345Z" fill="#E83323"/>
<path d="M217.396 709.978C217.416 710.653 217.465 711.41 217.816 711.842C218.084 712.172 218.457 712.219 218.805 712.248C222.512 712.565 226.23 712.614 229.941 712.396C230.692 712.351 231.5 712.264 232.079 711.553C232.842 710.614 232.93 708.955 232.958 707.486C233.1 700.151 233.241 692.817 233.383 685.483C233.395 684.901 233.387 684.246 233.107 683.837C232.837 683.444 232.415 683.427 232.037 683.435C228.606 683.504 220.788 681.316 218.294 685.833C215.782 690.382 217.22 704.438 217.396 709.978Z" fill="#E83323"/>
<path d="M236.896 668.212C236.913 669.204 236.953 670.317 237.245 670.952C237.468 671.437 237.778 671.505 238.067 671.549C241.148 672.014 244.237 672.087 247.321 671.765C247.945 671.7 248.617 671.572 249.098 670.527C249.732 669.147 249.805 666.71 249.828 664.551C249.828 653.485 250.283 642.416 250.219 631.354C250.198 627.817 248.524 628.904 246.744 628.611C245.525 628.411 244.341 627.763 243.13 627.469C240.832 626.912 238.239 627.073 237.175 630.482C235.088 637.165 236.75 660.073 236.896 668.212Z" fill="#E83323"/>
<path d="M235.284 619.431C232.603 619.451 229.597 619.501 227.881 619.854C226.57 620.124 226.385 620.501 226.267 620.851C225.01 624.587 224.815 628.334 225.683 632.073C225.859 632.83 226.205 633.645 229.029 634.227C232.758 634.997 239.344 635.085 245.179 635.114C265.605 635.218 286.032 635.314 306.459 635.414C316.732 635.465 327.005 635.517 337.278 635.571C338.134 635.576 339.043 635.564 339.768 635.063C341.87 633.609 343.034 627.688 342.033 625.386C341.111 623.266 338.908 622.24 336.981 621.602C335.082 620.975 333.111 620.611 331.148 620.336C313.088 617.805 257.279 619.254 235.284 619.431Z" fill="#E83323"/>
<path d="M235.239 643.128C232.559 643.148 229.552 643.198 227.836 643.551C226.526 643.821 226.341 644.198 226.223 644.548C224.965 648.284 224.77 652.031 225.639 655.77C225.814 656.527 226.16 657.342 228.984 657.925C232.713 658.694 239.299 658.782 245.134 658.811C274.253 658.953 303.372 659.096 332.492 659.239C334.606 659.25 337.506 660.14 339.462 658.764C341.283 657.484 342.172 654.377 342.404 652.152C342.501 651.225 342.496 650.27 342.247 649.378C341.009 644.938 334.531 644.446 331.103 644.033C313.043 641.502 257.235 642.951 235.239 643.128Z" fill="#E83323"/>
<path d="M320.672 671.263C320.688 672.268 320.725 673.396 320.992 674.04C321.196 674.531 321.481 674.601 321.746 674.645C324.568 675.117 327.399 675.19 330.224 674.864C330.795 674.798 331.411 674.669 331.852 673.609C332.433 672.21 332.499 669.74 332.521 667.551C332.629 656.628 332.737 645.704 332.845 634.781C332.853 633.913 332.848 632.938 332.634 632.329C332.429 631.744 332.108 631.719 331.82 631.73C329.207 631.833 323.255 628.574 321.356 635.302C319.444 642.076 320.539 663.012 320.672 671.263Z" fill="#E83323"/>
<path d="M301.62 716.226C301.639 716.975 301.686 717.814 302.021 718.293C302.277 718.659 302.634 718.711 302.967 718.744C306.51 719.095 310.063 719.15 313.609 718.907C314.326 718.858 315.099 718.762 315.652 717.973C316.382 716.931 316.465 715.092 316.492 713.462C316.628 705.33 316.763 697.198 316.899 689.065C316.909 688.419 316.902 687.693 316.634 687.24C316.377 686.804 315.974 686.785 315.612 686.793C312.333 686.87 304.862 684.444 302.478 689.453C300.078 694.497 301.452 710.083 301.62 716.226Z" fill="#E83323"/>
<path d="M326.942 708.076C326.959 708.825 326.999 709.666 327.285 710.146C327.504 710.512 327.809 710.564 328.093 710.597C331.12 710.948 334.156 711.003 337.185 710.76C337.799 710.711 338.459 710.614 338.931 709.825C339.555 708.782 339.626 706.941 339.649 705.31C339.765 697.169 339.881 689.028 339.996 680.887C340.005 680.241 340 679.513 339.771 679.06C339.55 678.624 339.206 678.605 338.897 678.613C336.095 678.69 329.712 676.262 327.675 681.275C325.625 686.324 326.799 701.927 326.942 708.076Z" fill="#E83323"/>
<path d="M244.012 707.078C244.03 707.655 244.074 708.302 244.387 708.671C244.625 708.953 244.958 708.993 245.268 709.019C248.57 709.289 251.882 709.331 255.187 709.144C255.856 709.106 256.577 709.032 257.092 708.424C257.772 707.622 257.85 706.205 257.875 704.949C258.002 698.683 258.128 692.417 258.254 686.15C258.264 685.653 258.258 685.093 258.008 684.744C257.768 684.408 257.392 684.393 257.055 684.4C253.998 684.459 247.034 682.59 244.812 686.449C242.575 690.335 243.856 702.345 244.012 707.078Z" fill="#E83323"/>
<path d="M231.613 651.233C241.046 650.686 250.489 650.336 259.936 650.185C260.719 650.173 260.722 648.944 259.936 648.956C250.489 649.107 241.046 649.457 231.613 650.005C230.833 650.05 230.828 651.279 231.613 651.233Z" fill="#FDF5DA"/>
<path d="M303.63 651.268C294.866 651.559 286.102 651.85 277.338 652.141C276.555 652.167 276.552 653.396 277.338 653.37C286.102 653.079 294.866 652.788 303.63 652.497C304.412 652.47 304.416 651.241 303.63 651.268Z" fill="#FDF5DA"/>
<path d="M326.087 627.573C309.636 627.932 293.182 628.126 276.728 628.155C275.943 628.156 275.942 629.385 276.728 629.384C293.182 629.354 309.636 629.161 326.087 628.802C326.87 628.785 326.873 627.556 326.087 627.573Z" fill="#FDF5DA"/>
<path d="M242.728 624.636C254.774 625.749 266.858 626.361 278.954 626.471C279.739 626.479 279.739 625.25 278.954 625.242C266.858 625.132 254.774 624.52 242.728 623.407C241.947 623.335 241.952 624.564 242.728 624.636Z" fill="#FDF5DA"/>
<path d="M328.315 675.043C309.593 676.227 290.827 676.561 272.075 676.043C271.29 676.021 271.291 677.25 272.075 677.271C290.827 677.79 309.593 677.456 328.315 676.272C329.094 676.222 329.1 674.993 328.315 675.043Z" fill="#FDF5DA"/>
<path d="M237.873 679.454C246.625 680.429 255.399 681.193 264.187 681.746C264.971 681.795 264.968 680.566 264.187 680.517C255.399 679.964 246.625 679.2 237.873 678.225C237.094 678.138 237.1 679.368 237.873 679.454Z" fill="#FDF5DA"/>
<path d="M219.878 683.237C224.666 683.435 229.455 683.634 234.243 683.833C235.027 683.866 235.026 682.637 234.243 682.604C229.455 682.405 224.666 682.207 219.878 682.008C219.093 681.975 219.095 683.204 219.878 683.237Z" fill="#FDF5DA"/>
<path d="M232.219 673.242C239.629 673.707 247.049 673.973 254.473 674.041C255.258 674.048 255.259 672.819 254.473 672.812C247.049 672.745 239.629 672.478 232.219 672.013C231.435 671.964 231.438 673.193 232.219 673.242Z" fill="#FDF5DA"/>
<path d="M322.449 683.647C310.851 683.388 299.25 683.378 287.652 683.618C286.868 683.634 286.866 684.863 287.652 684.847C299.25 684.607 310.851 684.617 322.449 684.876C323.234 684.894 323.234 683.665 322.449 683.647Z" fill="#FDF5DA"/>
</g>
<path d="M43.4617 541.487L-2.3002e-05 541.487L-2.67598e-05 584.471L-3.05176e-05 627.455L86.9236 541.487L43.4617 541.487Z" fill="#111EF7"/>
<g clip-path="url(#clip14_3348_7807)">
<path d="M100.921 520.243C98.6793 503.972 95.3513 486.891 91.0456 471.041C89.3038 464.629 87.3655 458.192 84.0177 452.453C75.2873 437.487 58.4371 429.406 46.5527 416.798C60.171 425.82 74.3382 434.014 88.9497 441.318C90.2017 441.944 91.6022 440.809 91.2753 439.448C85.6978 416.228 83.6377 392.166 85.1948 368.337C90.8253 364.44 94.7673 398.638 98.4336 416.087C113.756 395.539 113.919 372.32 132.349 354.505C135.078 354.388 133.785 361.515 130.557 367.169C123.061 380.294 111.053 414.046 111.988 429.132C121.735 426.412 134.444 410.467 144.191 407.747C134.363 415.148 124.158 423.005 118.99 434.17C113.483 446.068 114.556 459.831 115.742 472.887C117.06 487.391 118.378 501.895 119.696 516.4C119.823 517.804 119.844 519.468 118.721 520.321C117.933 520.92 116.85 520.887 115.863 520.827C111.226 520.545 106.589 520.263 101.952 519.981" fill="#1C3B87"/>
<path d="M33.8734 407.625C37.0085 411.728 40.5129 415.53 44.2752 418.912L33.8734 407.625Z" fill="#1C3B87"/>
<path d="M34.2803 407.314C40.1849 408.119 44.1436 412.669 44.6177 418.531C44.6176 418.531 43.9329 419.293 43.9329 419.293C37.8147 419.418 32.6992 414.094 33.4664 407.936C33.4666 407.936 34.2803 407.314 34.2803 407.314Z" fill="#1C3B87"/>
<path d="M33.9351 426.274C39.0441 427.022 44.208 427.297 49.2624 427.091L33.9351 426.274Z" fill="#1C3B87"/>
<path d="M34.0092 425.767C38.7981 422.221 44.8092 422.714 49.2415 426.579C49.2414 426.58 49.2832 427.603 49.2832 427.603C44.9905 431.964 37.611 431.725 33.8607 426.781C33.8608 426.78 34.0092 425.767 34.0092 425.767Z" fill="#1C3B87"/>
<path d="M40.3203 396.955C42.1083 401.799 44.3376 406.465 46.9374 410.804L40.3203 396.955Z" fill="#1C3B87"/>
<path d="M40.8007 396.777C46.2066 399.285 48.6497 404.799 47.3768 410.541C47.3766 410.541 46.4981 411.067 46.4981 411.067C40.6143 409.385 37.2933 402.791 39.8398 397.132C39.84 397.132 40.8007 396.777 40.8007 396.777Z" fill="#1C3B87"/>
<path d="M14.4753 375.461C18.1456 379.093 22.1403 382.377 26.3324 385.208L14.4753 375.461Z" fill="#1C3B87"/>
<path d="M14.8355 375.097C20.7945 375.081 25.3422 379.043 26.6191 384.783C26.6189 384.783 26.0457 385.632 26.0457 385.632C20.003 386.599 14.2031 382.03 14.115 375.825C14.1151 375.825 14.8355 375.097 14.8355 375.097Z" fill="#1C3B87"/>
<path d="M50.093 375.026C51.881 379.87 54.1103 384.536 56.7101 388.875L50.093 375.026Z" fill="#1C3B87"/>
<path d="M50.5734 374.849C55.9793 377.356 58.4224 382.871 57.1494 388.612L56.2708 389.139C50.387 387.457 47.0661 380.862 49.6124 375.203L50.5734 374.849Z" fill="#1C3B87"/>
<path d="M12.7068 397.252C16.3751 400.886 20.3681 404.172 24.5587 407.005L12.7068 397.252Z" fill="#1C3B87"/>
<path d="M13.0672 396.888C19.0264 396.875 23.5719 400.84 24.8457 406.581L24.2719 407.429C18.2287 408.393 12.4311 403.821 12.3463 397.616L13.0672 396.888Z" fill="#1C3B87"/>
<path d="M32.9515 376.858C35.9273 381.078 39.2836 385.012 42.9136 388.535L32.9515 376.858Z" fill="#1C3B87"/>
<path d="M33.37 376.563C39.2394 377.593 43.021 382.292 43.2704 388.168L42.557 388.903C36.4385 388.794 31.5305 383.277 32.5329 377.153L33.37 376.563Z" fill="#1C3B87"/>
<path d="M61.0558 391.716C62.8438 396.56 65.0731 401.226 67.6728 405.566L61.0558 391.716Z" fill="#1C3B87"/>
<path d="M61.5362 391.539C66.942 394.046 69.3852 399.561 68.1122 405.302C68.1121 405.302 67.2336 405.829 67.2336 405.829C61.3498 404.147 58.0288 397.552 60.5752 391.894C60.5754 391.893 61.5362 391.539 61.5362 391.539Z" fill="#1C3B87"/>
<path d="M146.638 345.859C143.019 349.542 139.749 353.548 136.932 357.75L146.638 345.859Z" fill="#1C3B87"/>
<path d="M147.004 346.218C147.04 352.177 143.094 356.739 137.358 358.035C137.358 358.035 136.507 357.465 136.507 357.465C135.52 351.426 140.069 345.61 146.273 345.5C146.273 345.5 147.004 346.218 147.004 346.218Z" fill="#1C3B87"/>
<path d="M160.684 341.55C157.065 345.233 153.795 349.239 150.979 353.441L160.684 341.55Z" fill="#1C3B87"/>
<path d="M161.05 341.909C161.087 347.868 157.14 352.429 151.404 353.726C151.404 353.726 150.553 353.156 150.553 353.156C149.566 347.117 154.115 341.301 160.319 341.191C160.319 341.191 161.05 341.909 161.05 341.909Z" fill="#1C3B87"/>
<path d="M144.432 329.722C141.151 333.71 138.247 337.988 135.811 342.422L144.432 329.722Z" fill="#1C3B87"/>
<path d="M144.827 330.048C145.389 335.98 141.86 340.872 136.26 342.669L135.362 342.175C133.847 336.246 137.866 330.053 144.036 329.397L144.827 330.048Z" fill="#1C3B87"/>
<path d="M52.7615 402.911C53.0265 408.068 53.7659 413.186 54.9561 418.102L52.7615 402.911Z" fill="#1C3B87"/>
<path d="M53.2728 402.885C57.6872 406.888 58.3781 412.879 55.4538 417.982L54.4583 418.223C49.3419 414.866 48.1344 407.581 52.2498 402.937L53.2728 402.885Z" fill="#1C3B87"/>
<path d="M56.1724 362.599C59.9508 366.118 64.0428 369.28 68.3185 371.983L56.1724 362.599Z" fill="#1C3B87"/>
<path d="M56.5214 362.224C62.4774 362.028 67.1426 365.851 68.5923 371.55C68.5922 371.55 68.045 372.416 68.045 372.416C62.0342 373.565 56.0988 369.173 55.8234 362.974C55.8234 362.973 56.5214 362.224 56.5214 362.224Z" fill="#1C3B87"/>
<path d="M25.1699 358.979C28.9483 362.498 33.0404 365.66 37.3161 368.363L25.1699 358.979Z" fill="#1C3B87"/>
<path d="M25.519 358.604C31.4748 358.408 36.1401 362.23 37.5899 367.93C37.5898 367.93 37.0424 368.796 37.0424 368.796C31.0317 369.944 25.0963 365.553 24.8208 359.353C24.8209 359.353 25.519 358.604 25.519 358.604Z" fill="#1C3B87"/>
<path d="M37.557 344.14C41.3353 347.659 45.4274 350.821 49.7031 353.524L37.557 344.14Z" fill="#1C3B87"/>
<path d="M37.906 343.765C43.8619 343.569 48.5271 347.392 49.9768 353.091L49.4295 353.957C43.4187 355.106 37.4834 350.714 37.2079 344.515L37.906 343.765Z" fill="#1C3B87"/>
<path d="M101.18 334.327C98.5175 338.751 96.2697 343.408 94.5084 348.15L101.18 334.327Z" fill="#1C3B87"/>
<path d="M101.619 334.591C103.042 340.378 100.265 345.732 94.9885 348.328C94.9884 348.328 94.0284 347.972 94.0284 347.972C91.6624 342.328 94.733 335.613 100.742 334.063C100.742 334.063 101.619 334.591 101.619 334.591Z" fill="#1C3B87"/>
<path d="M180.978 368.301C178.315 372.725 176.067 377.382 174.306 382.124L180.978 368.301Z" fill="#1C3B87"/>
<path d="M181.416 368.565C182.839 374.352 180.063 379.707 174.786 382.303C174.786 382.303 173.826 381.946 173.826 381.946C171.46 376.302 174.53 369.588 180.539 368.037C180.539 368.037 181.416 368.565 181.416 368.565Z" fill="#1C3B87"/>
<path d="M90.1186 318.521C87.4557 322.946 85.2079 327.603 83.4466 332.345L90.1186 318.521Z" fill="#1C3B87"/>
<path d="M90.5573 318.786C91.9799 324.573 89.2035 329.927 83.9267 332.523L82.9665 332.166C80.6006 326.523 83.6711 319.808 89.6796 318.257L90.5573 318.786Z" fill="#1C3B87"/>
<path d="M98.5004 356.496C96.3098 361.172 94.5561 366.037 93.2951 370.935L98.5004 356.496Z" fill="#1C3B87"/>
<path d="M98.964 356.713C100.978 362.322 98.7709 367.935 93.7911 371.063C93.7909 371.063 92.7991 370.808 92.7991 370.808C89.8617 365.439 92.2209 358.443 98.0365 356.279C98.0366 356.279 98.964 356.713 98.964 356.713Z" fill="#1C3B87"/>
<path d="M105.528 384.435C103.337 389.111 101.584 393.975 100.323 398.874L105.528 384.435Z" fill="#1C3B87"/>
<path d="M105.992 384.652C108.006 390.261 105.799 395.874 100.819 399.002L99.8268 398.747C96.8895 393.378 99.2485 386.382 105.064 384.218L105.992 384.652Z" fill="#1C3B87"/>
<path d="M110.874 340.678C108.684 345.354 106.93 350.219 105.669 355.118L110.874 340.678Z" fill="#1C3B87"/>
<path d="M111.338 340.895C113.352 346.504 111.145 352.117 106.165 355.245C106.165 355.245 105.173 354.99 105.173 354.99C102.236 349.622 104.595 342.625 110.411 340.461C110.411 340.461 111.338 340.895 111.338 340.895Z" fill="#1C3B87"/>
<path d="M114.622 360.085C112.431 364.761 110.678 369.626 109.417 374.525L114.622 360.085Z" fill="#1C3B87"/>
<path d="M115.086 360.303C117.1 365.911 114.892 371.524 109.913 374.653C109.913 374.652 108.921 374.397 108.921 374.397C105.983 369.029 108.343 362.032 114.158 359.868C114.158 359.868 115.086 360.303 115.086 360.303Z" fill="#1C3B87"/>
<path d="M86.2478 348.845C86.5128 354.002 87.2522 359.12 88.4424 364.036L86.2478 348.845Z" fill="#1C3B87"/>
<path d="M86.7592 348.819C91.1736 352.822 91.8646 358.813 88.9403 363.916C88.9402 363.916 87.9448 364.157 87.9448 364.157C82.8283 360.8 81.6209 353.516 85.7362 348.871C85.7364 348.871 86.7592 348.819 86.7592 348.819Z" fill="#1C3B87"/>
<path d="M58.9338 336.619C60.5525 341.522 62.6184 346.263 65.0658 350.69L58.9338 336.619Z" fill="#1C3B87"/>
<path d="M59.4201 336.458C64.7357 339.152 66.9858 344.748 65.5142 350.442C65.5141 350.442 64.6178 350.938 64.6178 350.938C58.7959 349.052 55.7061 342.346 58.4476 336.78C58.4477 336.779 59.4201 336.458 59.4201 336.458Z" fill="#1C3B87"/>
<path d="M68.5938 383.061C72.3225 386.633 76.3701 389.852 80.6075 392.614L68.5938 383.061Z" fill="#1C3B87"/>
<path d="M68.948 382.691C74.906 382.578 79.5175 386.466 80.8873 392.185C80.8872 392.185 80.3279 393.043 80.3279 393.043C74.3017 394.108 68.4282 389.633 68.2394 383.431C68.2395 383.431 68.948 382.691 68.948 382.691Z" fill="#1C3B87"/>
<path d="M72.4998 338.98C74.676 343.662 77.2775 348.132 80.2216 352.245L72.4998 338.98Z" fill="#1C3B87"/>
<path d="M72.9641 338.764C78.5561 340.824 81.4397 346.121 80.6381 351.947C80.638 351.947 79.8052 352.543 79.8052 352.543C73.804 351.345 69.9576 345.043 72.0352 339.196C72.0354 339.196 72.9641 338.764 72.9641 338.764Z" fill="#1C3B87"/>
<path d="M73.3129 357.888C75.4891 362.571 78.0906 367.04 81.0347 371.153L73.3129 357.888Z" fill="#1C3B87"/>
<path d="M73.7772 357.672C79.3692 359.732 82.2528 365.029 81.4512 370.855L80.6183 371.451C74.6171 370.254 70.7707 363.951 72.8483 358.104L73.7772 357.672Z" fill="#1C3B87"/>
<path d="M120.994 340.552C123.17 345.235 125.772 349.704 128.716 353.817L120.994 340.552Z" fill="#1C3B87"/>
<path d="M121.459 340.336C127.051 342.396 129.934 347.693 129.133 353.519L128.3 354.115C122.299 352.918 118.452 346.615 120.53 340.768L121.459 340.336Z" fill="#1C3B87"/>
<path d="M150.568 360.01C145.857 362.122 141.353 364.663 137.2 367.551L150.568 360.01Z" fill="#1C3B87"/>
<path d="M150.778 360.477C148.643 366.04 143.307 368.852 137.492 367.972C137.492 367.972 136.907 367.131 136.907 367.131C138.186 361.146 144.54 357.386 150.359 359.542C150.359 359.542 150.778 360.477 150.778 360.477Z" fill="#1C3B87"/>
<path d="M169.74 390.862C165.54 393.865 161.627 397.246 158.128 400.899L169.74 390.862Z" fill="#1C3B87"/>
<path d="M170.038 391.279C169.046 397.155 164.371 400.966 158.498 401.253C158.497 401.253 157.758 400.545 157.758 400.545C157.828 394.426 163.312 389.482 169.442 390.445C169.443 390.445 170.038 391.279 170.038 391.279Z" fill="#1C3B87"/>
<path d="M161.248 410.411C156.098 410.033 150.928 410.131 145.902 410.702L161.248 410.411Z" fill="#1C3B87"/>
<path d="M161.211 410.922C156.69 414.805 150.659 414.746 145.959 411.211C145.959 411.211 145.844 410.193 145.844 410.193C149.81 405.533 157.188 405.24 161.285 409.9C161.285 409.9 161.211 410.922 161.211 410.922Z" fill="#1C3B87"/>
<path d="M154.195 424.975C149.045 424.598 143.875 424.696 138.848 425.267L154.195 424.975Z" fill="#1C3B87"/>
<path d="M154.157 425.486C149.637 429.369 143.606 429.311 138.906 425.775L138.791 424.758C142.757 420.098 150.135 419.804 154.232 424.464L154.157 425.486Z" fill="#1C3B87"/>
<path d="M152.759 391.592C149.757 395.793 147.149 400.259 145.02 404.848L152.759 391.592Z" fill="#1C3B87"/>
<path d="M153.176 391.89C154.139 397.771 150.95 402.89 145.485 405.063L144.556 404.632C142.641 398.82 146.231 392.367 152.343 391.294L153.176 391.89Z" fill="#1C3B87"/>
<path d="M131.466 395.755C130.966 400.895 130.94 406.066 131.39 411.104L131.466 395.755Z" fill="#1C3B87"/>
<path d="M131.976 395.805C135.75 400.417 135.547 406.445 131.9 411.059L130.88 411.15C126.316 407.073 126.199 399.691 130.956 395.706L131.976 395.805Z" fill="#1C3B87"/>
<path d="M165.284 374.104C162.282 378.305 159.675 382.771 157.546 387.36L165.284 374.104Z" fill="#1C3B87"/>
<path d="M165.701 374.402C166.664 380.283 163.475 385.402 158.01 387.575C158.01 387.575 157.081 387.144 157.081 387.144C155.166 381.332 158.756 374.88 164.868 373.807C164.868 373.807 165.701 374.402 165.701 374.402Z" fill="#1C3B87"/>
<path d="M142.641 373.858C142.45 379.019 142.734 384.182 143.486 389.184L142.641 373.858Z" fill="#1C3B87"/>
<path d="M143.153 373.877C147.196 378.255 147.356 384.284 143.992 389.108C143.992 389.108 142.979 389.26 142.979 389.26C138.179 385.464 137.62 378.102 142.129 373.839C142.129 373.839 143.153 373.877 143.153 373.877Z" fill="#1C3B87"/>
<path d="M70.6066 409.786C70.8716 414.943 71.611 420.061 72.8012 424.978L70.6066 409.786Z" fill="#1C3B87"/>
<path d="M71.118 409.76C75.5324 413.763 76.2234 419.755 73.299 424.857C73.2989 424.857 72.3035 425.098 72.3035 425.098C67.1871 421.741 65.9797 414.457 70.0951 409.813C70.0952 409.813 71.118 409.76 71.118 409.76Z" fill="#1C3B87"/>
</g>
<path d="M548.982 455.962C550.312 475.35 549.206 491.981 550.536 511.369C514.592 512.464 485.392 510.874 449.447 511.969C448.849 489.793 448.849 474.21 450.418 457.076C450.418 457.076 548.865 454.269 548.982 455.962Z" fill="#88D84A"/>
<path d="M481.481 497.413C481.294 491.217 481.108 485.021 480.921 478.824C486.779 478.503 492.638 478.181 498.496 477.859C498.496 486.807 498.496 491.602 497.543 497.135C497.543 497.135 481.498 497.955 481.481 497.413Z" fill="#E83323"/>
<path fill-rule="evenodd" clip-rule="evenodd" d="M501.008 344.412L500.028 340.729L499.074 344.418C488.018 387.153 467.67 426.403 438.812 460.393L440.337 461.688C468.576 428.426 488.726 390.154 500.054 348.522C511.632 390.161 531.312 429.658 557.758 464.294L559.347 463.08C532.299 427.655 512.37 387.117 501.008 344.412ZM457.735 450.059C456.505 455.382 454.046 460.438 450.591 464.743L452.151 465.995C455.792 461.457 458.385 456.129 459.684 450.51L457.735 450.059ZM468.973 466.699L472.512 450.076L474.468 450.493L470.929 467.115L468.973 466.699ZM485.823 451.525C486.43 456.96 485.838 462.52 484.099 467.719L485.995 468.354C487.827 462.879 488.45 457.027 487.81 451.303L485.823 451.525ZM494.504 467.862L496.025 453.567L498.014 453.779L496.493 468.074L494.504 467.862ZM504.962 456.09L506.114 463.259L507.266 470.428L509.241 470.111L508.089 462.942L506.937 455.773L504.962 456.09ZM517.926 470.013C515.679 465.772 514.885 460.822 515.699 456.114L517.669 456.454C516.932 460.723 517.653 465.225 519.693 469.077L517.926 470.013ZM523.639 452.448C523.168 457.386 524.228 462.446 526.645 466.809L528.394 465.839C526.171 461.828 525.197 457.171 525.63 452.639L523.639 452.448ZM538.303 468.08C535.293 464.287 533.376 459.683 532.826 454.917L534.813 454.688C535.319 459.079 537.089 463.333 539.87 466.837L538.303 468.08ZM542.664 456.892L550.5 470.557L552.235 469.562L544.399 455.897L542.664 456.892Z" fill="#1C3B87"/>
<g clip-path="url(#clip15_3348_7807)">
<path d="M458.005 534.322C459.488 555.832 460.97 577.341 462.452 598.85C422.386 600.065 382.32 601.28 342.254 602.495C345.08 591.803 346.985 581.073 347.965 570.331C348.677 562.52 348.14 535.558 348.14 535.558C348.14 535.558 457.876 532.444 458.005 534.322Z" fill="#88D84A"/>
<path d="M436.675 557.311C436.917 564.185 437.158 571.058 437.4 577.931C430.871 578.319 424.343 578.707 417.814 579.095C418.275 575.679 418.585 572.25 418.745 568.818C418.861 566.322 418.774 557.706 418.774 557.706C418.774 557.706 436.654 556.711 436.675 557.311Z" fill="#E83323"/>
<path fill-rule="evenodd" clip-rule="evenodd" d="M404.688 400.909L405.669 404.692C410.298 422.53 416.164 440.047 423.193 457.088L423.533 456.992C423.493 456.853 423.452 456.713 423.413 456.573L425.337 456.027C426.273 459.328 427.45 462.562 428.855 465.693L427.189 466.441C439.387 494.031 454.663 520.272 472.693 544.484L471.088 545.678C453.405 521.931 438.358 496.243 426.249 469.247L426.233 469.268L425.546 467.735C425.188 466.939 424.845 466.137 424.516 465.329C416.54 447.035 409.909 428.161 404.713 408.899C400.307 425.604 394.725 441.852 388 457.565L389.197 458.631L385.934 462.294C373.108 491.071 356.406 518.001 336.035 542.603L334.495 541.327C353.354 518.55 369.05 493.768 381.418 467.364L380.433 468.471L380.265 468.321L380.315 468.736L379.807 468.798L377.179 469.117L378.939 467.14L384.234 461.197C392.298 443.06 398.815 424.187 403.731 404.698L404.688 400.909ZM350.615 545.968C354.598 540.878 357.434 534.9 358.854 528.603L360.805 529.043C359.32 535.629 356.355 541.877 352.19 547.2L350.615 545.968ZM371.973 532.203L367.91 551.775L369.868 552.182L373.931 532.61L371.973 532.203ZM383.918 552.075C385.924 545.926 386.607 539.35 385.906 532.922L387.894 532.705C388.626 539.415 387.913 546.277 385.819 552.696L383.918 552.075ZM400.489 538.284L398.742 555.116L400.731 555.322L402.478 538.49L400.489 538.284ZM412.316 549.037L410.994 540.596L412.969 540.287L414.292 548.728L415.615 557.169L413.639 557.479L412.316 549.037ZM422.825 536.199C421.899 541.697 422.803 547.481 425.364 552.438L427.141 551.52C424.779 546.947 423.943 541.602 424.798 536.531L422.825 536.199ZM437.708 553.056C434.949 547.953 433.741 542.034 434.279 536.262L436.27 536.448C435.769 541.826 436.897 547.349 439.467 552.105L437.708 553.056ZM445.748 535.118C446.375 540.692 448.562 546.08 451.999 550.521L453.581 549.297C450.368 545.146 448.322 540.104 447.736 534.895L445.748 535.118ZM462.767 553.073L453.769 536.983L455.514 536.007L464.513 552.097L462.767 553.073ZM391.393 457.766L384.358 471.657L386.142 472.561L393.177 458.67L391.393 457.766ZM422.28 470.488C420.554 466.478 419.385 462.233 418.814 457.907L420.797 457.646C421.343 461.789 422.464 465.857 424.117 469.697L422.28 470.488ZM414.775 458.182C414.222 462.726 414.558 467.375 415.759 471.793L417.689 471.269C416.556 467.1 416.238 462.711 416.76 458.423L414.775 458.182ZM409.955 464.865L410.866 458.861L412.843 459.161L411.932 465.165L411.021 471.169L409.044 470.869L409.955 464.865ZM407.01 458.838C405.61 462.407 404.457 466.072 403.562 469.798L405.507 470.265C406.381 466.628 407.506 463.051 408.872 459.568L407.01 458.838ZM399.33 469.682C400.096 466.172 401.109 462.716 402.358 459.346L404.234 460.041C403.017 463.323 402.03 466.69 401.284 470.109L399.33 469.682ZM397.007 460.015C396.834 461.461 396.576 462.888 396.2 464.276C395.749 465.937 395.127 467.551 394.345 469.085L396.127 469.994C396.971 468.337 397.644 466.593 398.13 464.8C398.536 463.301 398.811 461.776 398.993 460.252L397.007 460.015ZM388.792 468.231C390.836 465.393 392.665 462.401 394.258 459.289L396.039 460.201C394.4 463.402 392.518 466.48 390.415 469.4L388.792 468.231Z" fill="#1C3B87"/>
</g>
<defs>
<clipPath id="clip0_3348_7807">
<rect width="119.277" height="182.818" fill="white" transform="matrix(-0.90363 -0.428315 -0.428315 0.90363 575.738 142.121)"/>
</clipPath>
<clipPath id="clip1_3348_7807">
<rect width="166.206" height="263.636" fill="white" transform="translate(282.74 0.84082)"/>
</clipPath>
<clipPath id="clip2_3348_7807">
<rect width="87.3071" height="87.3071" fill="white" transform="translate(174.561 541.487) rotate(90)"/>
</clipPath>
<clipPath id="clip3_3348_7807">
<rect width="88.2772" height="87.3071" fill="white" transform="translate(177.999 366.316) rotate(-180)"/>
</clipPath>
<clipPath id="clip4_3348_7807">
<rect width="88.2772" height="87.3071" fill="white" transform="translate(177.999 190.731) rotate(-180)"/>
</clipPath>
<clipPath id="clip5_3348_7807">
<rect width="87.3071" height="88.2772" fill="white" transform="translate(353.426 454.563) rotate(90)"/>
</clipPath>
<clipPath id="clip6_3348_7807">
<rect width="88.2772" height="88.2772" fill="white" transform="translate(177.999 190.731) rotate(90)"/>
</clipPath>
<clipPath id="clip7_3348_7807">
<rect width="87.3071" height="87.3071" fill="white" transform="translate(265.306 454.593) rotate(90)"/>
</clipPath>
<clipPath id="clip8_3348_7807">
<rect width="87.3071" height="87.3071" fill="white" transform="translate(265.306 367.286) rotate(90)"/>
</clipPath>
<clipPath id="clip9_3348_7807">
<rect width="87.3071" height="88.2772" fill="white" transform="translate(353.426 367.639) rotate(90)"/>
</clipPath>
<clipPath id="clip10_3348_7807">
<rect width="87.3071" height="88.2772" fill="white" transform="translate(262.681 541.487) rotate(90)"/>
</clipPath>
<clipPath id="clip11_3348_7807">
<rect width="175.584" height="87.3071" fill="white" transform="translate(265.306 191.702) rotate(90)"/>
</clipPath>
<clipPath id="clip12_3348_7807">
<rect width="87.3071" height="88.2772" fill="white" transform="translate(353.426 279.76) rotate(90)"/>
</clipPath>
<clipPath id="clip13_3348_7807">
<rect width="134.551" height="100.198" fill="white" transform="translate(209.19 618.858)"/>
</clipPath>
<clipPath id="clip14_3348_7807">
<rect width="170.418" height="203.58" fill="white" transform="translate(9.07861 321.723) rotate(-2.46222)"/>
</clipPath>
<clipPath id="clip15_3348_7807">
<rect width="138.505" height="203.459" fill="white" transform="translate(334.322 399.161)"/>
</clipPath>
</defs>
</svg>
