<?xml version="1.0" standalone="no"?>
<!DOCTYPE svg PUBLIC "-//W3C//DTD SVG 20010904//EN"
 "http://www.w3.org/TR/2001/REC-SVG-20010904/DTD/svg10.dtd">
<svg version="1.0" xmlns="http://www.w3.org/2000/svg"
 width="999.000000pt" height="492.000000pt" viewBox="0 0 999.000000 492.000000"
 preserveAspectRatio="xMidYMid meet">

<g transform="translate(0.000000,492.000000) scale(0.100000,-0.100000)"
fill="#000000" stroke="none">
<path d="M480 2063 l0 -733 180 0 180 0 2 228 3 227 335 6 c311 5 340 7 400
27 162 55 247 173 271 375 29 251 -51 456 -211 537 -107 54 -100 53 -648 59
l-512 6 0 -732z m947 391 c15 -11 38 -40 51 -65 43 -82 19 -226 -46 -274 -25
-19 -45 -20 -309 -23 l-283 -3 0 189 c0 104 3 192 7 196 4 4 130 6 280 4 256
-3 273 -4 300 -24z"/>
<path d="M2014 2791 c-2 -2 -4 -332 -4 -733 l0 -729 493 3 c469 4 496 5 571
26 128 35 198 88 259 193 73 127 108 393 86 659 -27 339 -121 490 -344 558
-41 13 -143 17 -553 21 -277 3 -506 4 -508 2z m885 -322 c63 -14 100 -45 127
-103 55 -121 58 -482 4 -603 -21 -48 -57 -83 -103 -100 -21 -8 -119 -12 -289
-12 l-258 -1 0 415 0 415 238 0 c130 0 257 -5 281 -11z"/>
<path d="M3410 2789 c0 -4 63 -145 141 -315 78 -170 219 -480 314 -689 95
-209 181 -397 191 -417 l18 -38 198 0 198 0 13 33 c8 17 44 95 80 172 184 395
577 1247 577 1253 0 4 -89 6 -197 5 -196 -2 -198 -2 -211 -25 -7 -13 -39 -84
-71 -158 -67 -154 -220 -503 -319 -727 -37 -84 -71 -152 -75 -150 -5 1 -68
142 -141 312 -74 171 -176 408 -227 528 l-94 218 -198 2 c-108 1 -197 -1 -197
-4z"/>
<path d="M5804 2791 c-2 -2 -4 -332 -4 -733 l0 -728 185 0 185 0 2 242 3 243
250 3 c295 4 346 -1 383 -33 l27 -23 3 -216 3 -216 180 0 180 0 -3 253 c-3
216 -6 257 -21 287 -18 38 -54 80 -87 103 -21 15 -21 15 13 61 67 87 81 142
81 306 0 128 -2 152 -23 203 -32 80 -77 136 -141 175 -111 67 -101 65 -683 72
-291 3 -531 3 -533 1z m973 -337 c48 -36 65 -76 65 -158 1 -90 -22 -142 -73
-168 -30 -16 -67 -18 -316 -18 l-283 0 0 186 0 185 289 -3 c276 -3 291 -4 318
-24z"/>
<path d="M3568 954 c-5 -4 -8 -58 -8 -121 0 -105 1 -113 19 -113 16 0 20 8 23
43 2 24 8 43 16 43 6 1 21 2 32 3 54 3 81 89 40 126 -21 19 -109 33 -122 19z
m96 -56 c15 -25 -3 -52 -38 -56 -24 -3 -26 -1 -26 38 0 39 2 41 26 38 15 -2
32 -11 38 -20z"/>
<path d="M3778 954 c-5 -4 -8 -58 -8 -121 l0 -113 25 0 c23 0 25 3 25 50 0 36
4 50 14 50 19 0 37 -25 45 -63 5 -23 13 -33 29 -35 28 -4 29 20 3 72 -19 37
-19 38 0 57 24 24 24 50 1 79 -14 18 -32 24 -73 28 -30 2 -57 0 -61 -4z m97
-69 c0 -25 -4 -30 -27 -33 -26 -3 -28 -1 -28 33 0 34 2 36 28 33 23 -3 27 -8
27 -33z"/>
<path d="M4033 941 c-76 -48 -63 -198 20 -219 44 -11 72 -4 102 25 44 45 43
145 -4 187 -30 27 -81 30 -118 7z m91 -43 c23 -33 21 -103 -4 -128 -26 -26
-44 -25 -70 2 -41 45 -17 148 35 148 13 0 31 -10 39 -22z"/>
<path d="M4300 876 c0 -100 -5 -116 -35 -116 -27 0 -43 -39 -17 -41 77 -5 92
18 92 142 0 92 -1 99 -20 99 -18 0 -20 -7 -20 -84z"/>
<path d="M4417 954 c-4 -4 -7 -58 -7 -121 l0 -113 70 0 c63 0 70 2 70 20 0 17
-7 20 -45 20 -43 0 -45 1 -45 30 0 28 2 30 40 30 33 0 40 3 40 20 0 17 -7 20
-40 20 -38 0 -40 2 -40 30 0 29 2 30 46 30 38 0 45 3 42 18 -3 13 -15 18 -64
20 -33 2 -63 0 -67 -4z"/>
<path d="M4600 940 c0 -16 6 -20 30 -20 l30 0 0 -100 0 -100 25 0 25 0 0 100
0 100 31 0 c24 0 30 4 27 18 -3 14 -16 17 -86 20 -77 3 -82 2 -82 -18z"/>
<path d="M4927 953 c-4 -3 -7 -57 -7 -119 0 -111 0 -112 25 -116 37 -8 103 7
125 27 56 50 44 166 -20 197 -34 18 -110 24 -123 11z m113 -53 c25 -25 27 -90
3 -119 -10 -11 -33 -24 -50 -27 l-33 -6 0 86 0 86 30 0 c17 0 39 -9 50 -20z"/>
<path d="M5170 840 l0 -120 70 0 c63 0 70 2 70 20 0 17 -7 20 -50 20 -49 0
-50 1 -50 30 0 29 2 30 45 30 38 0 45 3 45 19 0 16 -8 20 -42 23 -38 3 -43 6
-43 28 0 22 5 25 43 28 34 3 42 7 42 23 0 17 -7 19 -65 19 l-65 0 0 -120z"/>
<path d="M5466 953 c-3 -4 -6 -57 -6 -120 0 -110 1 -113 23 -115 114 -7 167
34 167 131 0 31 -7 49 -28 72 -25 28 -36 32 -89 35 -33 2 -63 0 -67 -3z m120
-54 c30 -33 25 -96 -9 -125 -16 -13 -37 -24 -48 -24 -17 0 -19 7 -19 85 l0 85
28 0 c17 0 37 -9 48 -21z"/>
<path d="M5720 840 l0 -120 65 0 c58 0 65 2 65 20 0 17 -7 20 -45 20 -43 0
-45 1 -45 30 0 28 2 30 40 30 33 0 40 3 40 20 0 17 -7 20 -40 20 -38 0 -40 2
-40 30 0 29 2 30 46 30 38 0 45 3 42 18 -3 14 -16 18 -66 20 l-62 3 0 -121z"/>
<path d="M5910 949 c0 -5 14 -59 32 -120 30 -104 32 -109 58 -109 25 0 29 6
60 108 18 59 35 113 38 120 3 10 -2 13 -19 10 -21 -3 -27 -14 -50 -97 -27 -97
-32 -102 -43 -39 -16 88 -36 138 -56 138 -11 0 -20 -5 -20 -11z"/>
<path d="M6160 840 l0 -120 65 0 c58 0 65 2 65 20 0 17 -7 20 -45 20 -43 0
-45 1 -45 30 0 28 2 30 40 30 33 0 40 3 40 20 0 17 -7 20 -40 20 -38 0 -40 2
-40 30 0 29 2 30 46 30 38 0 45 3 42 18 -3 14 -16 18 -66 20 l-62 3 0 -121z"/>
<path d="M6360 840 l0 -120 65 0 c58 0 65 2 65 20 0 17 -7 20 -45 20 l-45 0 0
100 c0 93 -1 100 -20 100 -19 0 -20 -7 -20 -120z"/>
<path d="M6588 944 c-79 -42 -76 -185 5 -219 72 -30 137 20 137 105 0 69 -14
99 -55 115 -42 18 -53 18 -87 -1z m81 -37 c16 -20 24 -72 17 -102 -9 -35 -49
-60 -74 -46 -41 22 -49 103 -14 144 18 20 55 22 71 4z"/>
<path d="M6813 953 c-9 -3 -13 -37 -13 -119 0 -106 1 -114 19 -114 16 0 20 8
23 42 3 38 6 42 33 45 64 9 91 47 72 105 -12 37 -87 60 -134 41z m85 -42 c18
-11 12 -51 -9 -64 -28 -17 -49 -1 -49 38 0 30 3 35 23 35 12 0 28 -4 35 -9z"/>
<path d="M7028 954 c-5 -4 -8 -58 -8 -121 0 -105 1 -113 19 -113 16 0 20 8 23
43 2 24 8 43 16 43 6 1 21 2 32 3 54 3 81 89 40 126 -21 19 -109 33 -122 19z
m86 -40 c19 -7 21 -45 4 -62 -7 -7 -22 -12 -35 -12 -20 0 -23 5 -23 40 0 41
13 50 54 34z"/>
<path d="M7237 954 c-4 -4 -7 -58 -7 -121 l0 -113 70 0 c63 0 70 2 70 20 0 17
-7 20 -45 20 -43 0 -45 1 -45 30 0 28 2 30 40 30 33 0 40 3 40 20 0 17 -7 20
-40 20 -38 0 -40 2 -40 30 0 29 2 30 46 30 38 0 45 3 42 18 -3 13 -15 18 -64
20 -33 2 -63 0 -67 -4z"/>
<path d="M7446 928 c-3 -18 -7 -72 -11 -120 -5 -81 -4 -88 14 -88 16 0 19 12
27 93 l10 92 18 -81 c10 -45 22 -87 26 -94 17 -28 38 2 61 87 18 64 25 80 27
58 12 -152 13 -155 34 -155 20 0 21 4 15 83 -4 45 -7 99 -7 120 0 37 -1 38
-32 35 -31 -3 -33 -5 -51 -80 -11 -43 -23 -78 -27 -78 -4 0 -12 24 -18 53 -17
86 -28 107 -56 107 -21 0 -26 -6 -30 -32z"/>
<path d="M7740 840 l0 -120 71 0 c62 0 70 2 67 18 -2 12 -16 18 -48 22 -40 4
-45 8 -45 30 0 22 5 25 43 28 33 3 42 7 42 22 0 15 -9 19 -42 22 -38 3 -43 6
-43 28 0 22 5 25 43 28 34 3 42 7 42 23 0 17 -7 19 -65 19 l-65 0 0 -120z"/>
<path d="M7940 841 c0 -114 1 -121 20 -121 17 0 19 8 22 88 l3 87 42 -87 c37
-77 45 -88 68 -88 l25 0 0 120 c0 113 -1 120 -20 120 -18 0 -20 -7 -20 -87 l0
-88 -44 85 c-36 71 -47 86 -69 88 l-27 3 0 -120z"/>
<path d="M8180 941 c0 -14 8 -21 28 -23 l27 -3 3 -97 c2 -89 4 -98 22 -98 18
0 20 9 22 98 l3 97 30 5 c18 3 30 11 30 20 0 12 -17 16 -82 18 -77 3 -83 1
-83 -17z"/>
<path d="M1135 548 c3 -13 23 -79 43 -147 37 -124 37 -124 69 -126 l33 -3 35
117 c20 64 40 129 46 145 5 16 9 31 9 32 0 2 -13 4 -29 4 -27 0 -29 -3 -55
-98 -14 -54 -26 -106 -26 -115 0 -41 -17 -10 -33 61 -33 150 -35 152 -68 152
-26 0 -29 -3 -24 -22z"/>
<path d="M1440 422 l0 -148 25 1 c14 0 25 3 25 8 0 4 0 70 0 147 l0 140 -25 0
-25 0 0 -148z"/>
<path d="M1590 423 l0 -148 77 2 c76 1 78 2 81 27 3 25 2 26 -52 26 l-56 0 0
120 0 120 -25 0 -25 0 0 -147z"/>
<path d="M1822 424 l3 -146 80 0 c77 0 79 1 79 24 1 21 -4 23 -52 26 l-52 3 0
120 0 119 -30 0 -31 0 3 -146z"/>
<path d="M2060 423 l0 -148 80 0 80 0 0 28 c0 26 -2 27 -55 27 l-55 0 0 35 0
35 50 0 c47 0 50 2 50 25 0 23 -3 25 -50 25 l-50 0 0 35 0 35 55 0 c52 0 55 1
55 25 0 25 -1 25 -80 25 l-80 0 0 -147z"/>
<path d="M2342 560 c-13 -6 -29 -24 -36 -42 -21 -48 -4 -84 54 -113 54 -27 66
-47 44 -70 -18 -18 -47 -19 -76 -4 -23 13 -25 11 -30 -20 -2 -21 2 -26 32 -32
73 -16 140 23 140 81 0 37 -25 68 -76 92 -35 16 -44 25 -42 42 3 18 10 21 48
21 35 0 47 4 53 19 5 12 3 22 -5 28 -17 10 -77 9 -106 -2z"/>
<path d="M2662 423 l3 -147 25 0 25 0 3 147 3 147 -31 0 -31 0 3 -147z"/>
<path d="M2810 420 c0 -150 0 -150 23 -146 21 3 22 7 22 105 0 55 3 101 6 101
3 0 29 -46 56 -103 47 -96 52 -103 79 -102 l29 2 3 146 3 147 -26 0 -25 0 0
-107 -1 -108 -51 108 c-50 105 -52 107 -84 107 l-34 0 0 -150z"/>
<path d="M3181 552 c-90 -49 -96 -216 -10 -263 24 -13 124 -18 134 -7 4 4 4
16 0 27 -5 16 -12 19 -34 15 -42 -9 -87 19 -101 61 -25 76 17 135 97 135 40 0
44 2 41 23 -3 19 -10 22 -48 25 -29 2 -57 -4 -79 -16z"/>
<path d="M3390 423 l0 -148 80 0 80 0 0 28 c0 26 -2 27 -55 27 l-55 0 0 120 0
120 -25 0 -25 0 0 -147z"/>
<path d="M3612 456 c3 -98 6 -119 24 -143 28 -37 64 -49 110 -37 64 16 78 48
83 180 l3 114 -31 0 -31 0 0 -109 c0 -116 -9 -141 -50 -141 -41 0 -50 25 -50
141 l0 109 -31 0 -31 0 4 -114z"/>
<path d="M3939 541 c-50 -51 -36 -97 41 -136 53 -27 64 -51 34 -76 -12 -10
-25 -10 -54 -2 -35 9 -39 8 -44 -11 -8 -30 8 -40 63 -40 62 0 98 23 106 68 9
47 -7 72 -66 102 -40 20 -50 29 -47 47 3 19 9 22 50 21 40 0 47 3 51 22 5 27
-9 34 -65 34 -30 0 -46 -7 -69 -29z"/>
<path d="M4170 420 c0 -150 0 -150 23 -146 22 3 22 6 25 149 l3 147 -26 0 -25
0 0 -150z"/>
<path d="M4296 548 c4 -13 24 -79 44 -148 l38 -125 33 1 33 0 36 120 c56 184
55 174 22 174 -28 0 -29 -2 -58 -115 -26 -104 -44 -144 -44 -97 0 9 -11 60
-24 112 -23 94 -24 95 -55 98 -30 3 -32 2 -25 -20z"/>
<path d="M4600 423 l0 -148 82 2 c81 2 83 2 86 27 3 25 2 26 -52 26 l-56 0 0
34 c0 34 1 35 48 38 40 3 47 6 50 26 3 20 0 22 -47 22 l-51 0 0 35 0 35 50 0
c47 0 50 2 50 25 0 25 -1 25 -80 25 l-80 0 0 -147z"/>
<path d="M4885 558 c-72 -41 -57 -118 31 -159 50 -24 58 -53 20 -70 -18 -8
-33 -8 -56 -1 -25 9 -32 9 -37 -3 -15 -41 40 -63 109 -44 31 8 43 17 54 46 22
52 5 87 -58 119 -39 20 -49 29 -46 47 3 19 10 22 48 23 35 0 46 5 48 19 2 9
-2 21 -10 26 -19 12 -79 10 -103 -3z"/>
<path d="M5210 423 l0 -148 80 0 80 0 0 28 c0 26 -2 27 -55 27 l-55 0 0 35 0
35 50 0 c47 0 50 2 50 25 0 23 -3 25 -50 25 l-50 0 0 35 0 35 55 0 c52 0 55 1
55 25 0 25 -1 25 -80 25 l-80 0 0 -147z"/>
<path d="M5430 546 c0 -21 5 -25 38 -28 l37 -3 3 -121 3 -122 24 1 25 0 0 123
0 124 39 0 c34 0 39 3 39 25 l0 25 -104 0 c-104 0 -104 0 -104 -24z"/>
<path d="M5819 566 c-2 -2 -3 -70 -1 -150 3 -144 3 -146 25 -142 19 2 22 10
25 59 3 53 5 57 27 57 28 0 34 -8 49 -69 11 -39 16 -46 39 -48 16 -1 27 3 27
11 0 26 -29 109 -41 116 -8 5 -5 14 10 29 14 14 21 34 21 60 0 58 -33 81 -115
81 -34 0 -64 -2 -66 -4z m115 -52 c23 -23 20 -51 -9 -70 -36 -24 -55 -12 -55
34 0 21 3 42 7 45 11 12 41 7 57 -9z"/>
<path d="M6090 423 l0 -148 80 0 80 0 0 28 c0 26 -2 27 -55 27 l-55 0 0 35 0
35 50 0 c47 0 50 2 50 25 0 23 -3 25 -51 25 l-50 0 3 33 c3 31 4 32 56 35 48
3 52 5 52 28 0 23 -2 24 -80 24 l-80 0 0 -147z"/>
<path d="M6375 558 c-31 -17 -45 -39 -45 -74 0 -34 26 -62 89 -96 38 -21 40
-44 5 -60 -19 -9 -33 -9 -57 0 -36 14 -34 14 -39 -17 -2 -21 2 -26 32 -33 79
-17 140 21 140 87 0 34 -24 62 -77 89 -40 20 -48 33 -32 52 9 11 25 15 50 12
31 -3 39 0 43 16 3 11 0 24 -7 28 -18 11 -79 9 -102 -4z"/>
<path d="M6582 423 l3 -147 25 0 25 0 3 147 3 147 -31 0 -31 0 3 -147z"/>
<path d="M6730 423 l0 -148 80 0 80 0 0 28 c0 26 -2 27 -55 27 l-55 0 0 120 0
120 -25 0 -25 0 0 -147z"/>
<path d="M6970 423 l0 -148 25 -1 25 -2 0 149 0 149 -25 0 -25 0 0 -147z"/>
<path d="M7110 423 l0 -148 80 1 c44 1 80 4 80 8 0 3 0 15 0 26 0 18 -7 20
-56 20 l-55 0 3 33 c3 31 5 32 51 35 42 3 47 6 47 27 0 21 -5 24 -47 27 -46 3
-48 4 -48 33 0 29 2 30 53 33 48 3 52 5 52 28 0 23 -2 24 -80 24 l-80 0 0
-147z"/>
<path d="M7360 430 c0 -77 0 -143 0 -147 0 -4 10 -7 23 -7 21 0 22 2 21 102
-1 56 2 102 5 102 3 -1 29 -47 56 -102 45 -91 53 -102 78 -103 l27 -1 0 148 0
148 -26 0 -25 0 6 -107 c3 -59 3 -105 0 -102 -2 3 -27 51 -55 107 -46 96 -51
102 -80 102 l-30 0 0 -140z"/>
<path d="M7640 546 c0 -21 5 -25 38 -28 l37 -3 3 -122 c3 -120 3 -123 25 -119
21 3 22 8 25 124 l3 122 38 0 c35 0 38 2 33 25 -4 25 -6 25 -103 25 -98 0 -99
0 -99 -24z"/>
<path d="M7920 423 l0 -148 80 0 80 0 0 28 c0 26 -2 27 -55 27 l-55 0 0 35 0
35 50 0 c47 0 50 2 50 25 0 23 -3 25 -50 25 l-50 0 0 35 0 35 55 0 c52 0 55 1
55 25 0 25 -1 25 -80 25 l-80 0 0 -147z"/>
<path d="M8200 557 c-14 -7 -31 -25 -38 -41 -21 -43 0 -81 59 -112 39 -19 49
-30 49 -49 0 -30 -35 -42 -79 -27 -26 9 -30 8 -35 -11 -7 -29 -2 -33 44 -41
96 -15 163 63 114 132 -8 12 -36 32 -60 44 -35 16 -44 25 -42 42 3 18 10 21
48 21 35 0 47 4 53 19 5 12 3 22 -5 28 -20 12 -80 9 -108 -5z"/>
<path d="M480 489 c-1 -2 -2 -50 -3 -106 -2 -116 -1 -118 72 -107 73 11 108
67 89 140 -12 47 -41 67 -103 72 -30 2 -55 3 -55 1z m108 -56 c6 -9 12 -33 12
-53 0 -49 -30 -76 -77 -71 -14 1 -19 132 -6 145 11 11 56 -3 71 -21z"/>
<path d="M702 384 l3 -106 58 -1 c48 -2 57 1 57 15 0 14 -9 18 -40 18 -38 0
-40 2 -40 30 0 28 3 30 35 30 24 0 35 5 35 15 0 10 -11 15 -35 15 -31 0 -35 3
-35 25 0 23 4 25 40 25 33 0 40 3 40 20 0 18 -7 20 -60 20 l-61 0 3 -106z"/>
<path d="M902 474 c-37 -26 -27 -72 23 -105 53 -36 52 -54 -3 -54 -32 0 -42
-4 -42 -16 0 -20 33 -30 71 -22 38 7 51 25 47 65 -2 26 -10 37 -40 53 -50 27
-51 55 -2 55 28 0 35 3 32 18 -4 23 -56 27 -86 6z"/>
</g>
</svg>
