<svg width="558" height="777" viewBox="0 0 558 777" fill="none" xmlns="http://www.w3.org/2000/svg">
<path d="M251.794 753.159C247.703 744.826 242.457 737.085 236.451 730.028C230.278 722.774 223.315 716.186 215.793 710.36C208.434 704.659 200.519 699.658 192.19 695.516C184.368 691.627 176.146 688.515 167.641 686.517C167.528 686.491 167.433 686.449 167.346 686.402L167.346 776.788L258.748 776.788L258.748 772.984C257.28 766.118 254.881 759.448 251.794 753.159Z" fill="#E83323"/>
<path d="M258.748 640.701L258.748 686.402L304.956 686.402L351.165 686.402L351.165 640.701L351.165 595L304.956 595L258.748 595L258.748 640.701Z" fill="#1C3B87"/>
<path d="M351.165 274.512L351.165 320.213L396.866 320.213L442.566 320.213L351.165 228.812L351.165 274.512Z" fill="white"/>
<path d="M174.791 159.629C178.881 167.962 184.128 175.703 190.134 182.759C196.307 190.013 203.27 196.601 210.792 202.428C218.151 208.128 226.066 213.129 234.395 217.271C242.217 221.161 250.439 224.273 258.944 226.271C259.056 226.297 259.152 226.339 259.239 226.386L259.239 136L167.837 136L167.837 139.803C169.305 146.67 171.704 153.34 174.791 159.629Z" fill="#F6CC47"/>
<path d="M442.566 274.512L442.566 228.812L396.866 228.812L351.165 228.812L442.566 320.213L442.566 274.512Z" fill="#E83323"/>
<g clip-path="url(#clip0_1310_191)">
<path d="M258.748 686.402L258.748 595L167.346 595L167.346 686.402L258.748 686.402Z" fill="#2D6438"/>
<path d="M237.928 608.518C237.928 612.551 241.197 615.82 245.23 615.82C249.263 615.82 252.532 612.551 252.532 608.518C252.532 604.485 249.263 601.215 245.23 601.215C241.197 601.215 237.928 604.485 237.928 608.518Z" fill="white"/>
<path d="M237.928 629.973C237.928 634.006 241.197 637.275 245.23 637.275C249.263 637.275 252.532 634.006 252.532 629.973C252.532 625.94 249.263 622.671 245.23 622.671C241.197 622.671 237.928 625.94 237.928 629.973Z" fill="white"/>
<path d="M237.928 651.428C237.928 655.461 241.197 658.731 245.23 658.731C249.263 658.731 252.532 655.461 252.532 651.428C252.532 647.395 249.263 644.126 245.23 644.126C241.197 644.126 237.928 647.395 237.928 651.428Z" fill="white"/>
<path d="M245.23 680.186C241.197 680.186 237.928 676.917 237.928 672.884C237.928 668.851 241.197 665.582 245.23 665.582C249.263 665.582 252.532 668.851 252.532 672.884C252.532 676.917 249.263 680.186 245.23 680.186Z" fill="white"/>
<path d="M223.774 615.82C219.742 615.82 216.472 612.551 216.472 608.518C216.472 604.485 219.742 601.215 223.774 601.215C227.807 601.215 231.077 604.485 231.077 608.518C231.077 612.551 227.808 615.82 223.774 615.82Z" fill="white"/>
<path d="M223.774 637.275C219.742 637.275 216.472 634.006 216.472 629.973C216.472 625.94 219.742 622.671 223.774 622.671C227.807 622.671 231.077 625.94 231.077 629.973C231.077 634.006 227.808 637.275 223.774 637.275Z" fill="white"/>
<path d="M223.774 658.731C219.742 658.731 216.472 655.461 216.472 651.428C216.472 647.395 219.742 644.126 223.774 644.126C227.807 644.126 231.077 647.395 231.077 651.428C231.077 655.462 227.808 658.731 223.774 658.731Z" fill="white"/>
<path d="M223.774 680.186C219.742 680.186 216.472 676.917 216.472 672.884C216.472 668.851 219.742 665.582 223.774 665.582C227.807 665.582 231.077 668.851 231.077 672.884C231.077 676.917 227.808 680.186 223.774 680.186Z" fill="white"/>
<path d="M202.319 615.82C198.286 615.82 195.017 612.551 195.017 608.518C195.017 604.485 198.286 601.215 202.319 601.215C206.352 601.215 209.622 604.485 209.622 608.518C209.622 612.551 206.352 615.82 202.319 615.82Z" fill="white"/>
<path d="M202.319 637.275C198.286 637.275 195.017 634.006 195.017 629.973C195.017 625.94 198.286 622.671 202.319 622.671C206.352 622.671 209.622 625.94 209.622 629.973C209.622 634.006 206.352 637.275 202.319 637.275Z" fill="white"/>
<path d="M202.319 658.731C198.286 658.731 195.017 655.461 195.017 651.428C195.017 647.395 198.286 644.126 202.319 644.126C206.352 644.126 209.622 647.395 209.622 651.428C209.622 655.462 206.352 658.731 202.319 658.731Z" fill="white"/>
<path d="M202.319 680.186C198.286 680.186 195.017 676.917 195.017 672.884C195.017 668.851 198.286 665.582 202.319 665.582C206.352 665.582 209.622 668.851 209.622 672.884C209.622 676.917 206.352 680.186 202.319 680.186Z" fill="white"/>
<path d="M173.561 608.518C173.561 612.551 176.831 615.82 180.864 615.82C184.897 615.82 188.166 612.551 188.166 608.518C188.166 604.485 184.897 601.215 180.864 601.215C176.831 601.215 173.561 604.485 173.561 608.518Z" fill="white"/>
<path d="M173.561 629.973C173.561 634.006 176.831 637.275 180.864 637.275C184.897 637.275 188.166 634.006 188.166 629.973C188.166 625.94 184.897 622.671 180.864 622.671C176.831 622.671 173.561 625.94 173.561 629.973Z" fill="white"/>
<path d="M173.561 651.428C173.561 655.461 176.831 658.731 180.864 658.731C184.897 658.731 188.166 655.461 188.166 651.428C188.166 647.395 184.897 644.126 180.864 644.126C176.831 644.126 173.561 647.395 173.561 651.428Z" fill="white"/>
<path d="M180.864 680.186C176.831 680.186 173.561 676.917 173.561 672.884C173.561 668.851 176.831 665.582 180.864 665.582C184.897 665.582 188.166 668.851 188.166 672.884C188.166 676.917 184.897 680.186 180.864 680.186Z" fill="white"/>
</g>
<g clip-path="url(#clip1_1310_191)">
<path d="M74.9289 320.213L121.137 320.213C146.658 320.213 167.346 340.674 167.346 365.914C167.346 391.154 146.658 411.615 121.137 411.615L74.9288 411.615L74.9289 320.213Z" fill="#F6CC47"/>
</g>
<g clip-path="url(#clip2_1310_191)">
<path d="M74.9288 227.796L167.346 227.796L167.346 136.394L74.9289 136.394L74.9288 227.796Z" fill="white"/>
<path d="M125.296 227.796L133.614 227.796L133.614 136.394L125.296 136.394L125.296 227.796Z" fill="#111EF7"/>
<path d="M141.931 227.796L150.249 227.796L150.249 136.394L141.931 136.394L141.931 227.796Z" fill="#111EF7"/>
<path d="M158.566 227.796L167.346 227.796L167.346 136.394L158.566 136.394L158.566 227.796Z" fill="#111EF7"/>
<path d="M92.026 227.796L100.344 227.796L100.344 136.394L92.026 136.394L92.026 227.796Z" fill="#111EF7"/>
<path d="M74.9288 227.796L83.7083 227.796L83.7083 136.394L74.9288 136.394L74.9288 227.796Z" fill="#111EF7"/>
<path d="M108.661 227.796L116.979 227.796L116.979 136.394L108.661 136.394L108.661 227.796Z" fill="#111EF7"/>
</g>
<g clip-path="url(#clip3_1310_191)">
<path d="M328.122 458.331C328.122 470.985 317.75 481.242 304.956 481.242C317.709 481.242 328.049 491.435 328.116 504.032L328.128 504.032C328.195 491.476 338.47 481.315 351.165 481.249L351.165 481.236C338.428 481.17 328.122 470.943 328.122 458.331Z" fill="#88D84A"/>
<path d="M304.956 435.42C317.75 435.42 328.122 445.678 328.122 458.331C328.122 445.719 338.428 435.492 351.165 435.426L351.165 435.413C338.47 435.347 328.195 425.186 328.128 412.63L328.116 412.63C328.049 425.227 317.709 435.42 304.956 435.42Z" fill="#88D84A"/>
<path d="M304.956 481.242C292.162 481.242 281.79 470.985 281.79 458.331C281.79 470.943 271.485 481.17 258.748 481.236L258.748 481.249C271.443 481.315 281.717 491.476 281.784 504.032L281.797 504.032C281.864 491.435 292.204 481.242 304.956 481.242Z" fill="#88D84A"/>
<path d="M258.748 435.413L258.748 435.426C271.485 435.492 281.79 445.719 281.79 458.331C281.79 445.678 292.162 435.42 304.956 435.42C292.204 435.42 281.864 425.227 281.797 412.63L281.784 412.63C281.717 425.186 271.443 435.347 258.748 435.413Z" fill="#88D84A"/>
<path d="M258.748 481.249L258.748 504.032L281.784 504.032C281.717 491.476 271.443 481.315 258.748 481.249Z" fill="white"/>
<path d="M281.79 458.331C281.79 445.719 271.485 435.492 258.748 435.426L258.748 481.236C271.485 481.17 281.79 470.943 281.79 458.331Z" fill="white"/>
<path d="M281.784 412.63L258.748 412.63L258.748 435.413C271.443 435.347 281.717 425.186 281.784 412.63Z" fill="white"/>
<path d="M304.956 481.242C292.204 481.242 281.864 491.435 281.797 504.032L328.116 504.032C328.049 491.435 317.709 481.242 304.956 481.242Z" fill="white"/>
<path d="M281.869 460.221C282.924 472.831 294.116 482.208 306.867 481.164C319.618 480.121 329.099 469.052 328.043 456.441C326.988 443.831 315.796 434.454 303.046 435.498C290.295 436.541 280.814 447.61 281.869 460.221Z" fill="white"/>
<path d="M304.956 435.42C317.709 435.42 328.049 425.227 328.116 412.63L281.797 412.63C281.864 425.227 292.204 435.42 304.956 435.42Z" fill="white"/>
<path d="M328.128 504.032L351.165 504.032L351.165 481.249C338.47 481.315 328.195 491.476 328.128 504.032Z" fill="white"/>
<path d="M328.122 458.331C328.122 470.943 338.428 481.17 351.165 481.236L351.165 435.426C338.428 435.492 328.122 445.719 328.122 458.331Z" fill="white"/>
<path d="M351.165 435.413L351.165 412.63L328.128 412.63C328.195 425.186 338.47 435.347 351.165 435.413Z" fill="white"/>
</g>
<g clip-path="url(#clip4_1310_191)">
<path d="M167.346 320.213L167.346 227.796L74.9289 227.796L74.9289 320.213L167.346 320.213Z" fill="#88D84A"/>
<path d="M167.346 274.005L167.346 274.004C167.346 248.484 146.658 227.796 121.138 227.796L121.137 227.796C95.6171 227.796 74.9289 248.484 74.9289 274.004L74.9289 274.005C74.9289 299.525 95.6171 320.213 121.137 320.213L121.138 320.213C146.658 320.213 167.346 299.525 167.346 274.005Z" fill="white"/>
<path d="M142.028 274.004C142.028 262.467 132.675 253.114 121.137 253.114C109.6 253.114 100.247 262.467 100.247 274.004C100.247 285.542 109.6 294.895 121.137 294.895C132.675 294.895 142.028 285.542 142.028 274.004Z" fill="#E83323"/>
</g>
<g clip-path="url(#clip5_1310_191)">
<path d="M167.346 579.708L200.359 574.012L221.115 595.433L224.296 595.433L228.73 564.738L258.748 549.834L258.748 549.733L258.748 549.632L228.73 534.727L224.296 504.032L221.115 504.032L200.359 525.453L167.346 519.757L167.346 520.111L182.825 549.733L167.346 579.354L167.346 579.708Z" fill="#111EF7"/>
</g>
<g clip-path="url(#clip6_1310_191)">
<path d="M190.132 420.185C201.19 425.565 211.296 432.847 220.407 441.072C229.758 449.513 238.13 459.066 245.306 469.419C250.524 476.946 255.144 484.963 258.747 493.403L258.747 412.63L167.37 412.63C175.269 413.974 182.93 416.682 190.132 420.185Z" fill="#F6CC47"/>
<path d="M174.348 484.36C172.173 482.414 169.823 480.699 167.346 479.202L167.346 504.032L189.01 504.032C185.186 496.724 180.507 489.872 174.348 484.36Z" fill="#F6CC47"/>
<path d="M211.657 465.624C204.203 458.163 196.408 450.956 187.89 444.714C181.647 440.139 174.786 435.745 167.346 433.27L167.346 453.167C172.172 455.394 176.771 458.097 181.038 461.294C187.334 466.01 192.847 471.649 197.664 477.856C202.451 484.025 206.58 490.662 210.394 497.468C211.612 499.641 212.793 501.833 213.963 504.032L238.373 504.032C236.304 498.599 233.971 493.278 231 488.255C225.923 479.671 218.662 472.635 211.657 465.624Z" fill="#F6CC47"/>
</g>
<g clip-path="url(#clip7_1310_191)">
<path d="M328.126 404.059C316.945 398.68 306.726 391.398 297.514 383.173C288.059 374.732 279.594 365.178 272.338 354.826C267.062 347.299 262.391 339.282 258.748 330.842L258.748 411.615L351.14 411.615C343.154 410.27 335.408 407.563 328.126 404.059Z" fill="#F6CC47"/>
<path d="M344.527 339.885C346.589 341.831 348.816 343.546 351.165 345.043L351.165 320.213L330.628 320.213C334.253 327.521 338.689 334.373 344.527 339.885Z" fill="#F6CC47"/>
<path d="M304.956 358.527C312.493 365.988 321.78 373.289 330.392 379.53C336.705 384.106 343.643 388.5 351.165 390.975L351.165 371.078C346.285 368.851 341.635 366.148 337.32 362.951C330.955 358.235 325.38 352.596 320.51 346.389C315.67 340.22 311.495 333.582 307.639 326.777C306.407 324.604 304.956 322.767 304.956 320.213L279.348 320.213C279.348 334.155 296.125 349.785 304.956 358.527Z" fill="#F6CC47"/>
</g>
<g clip-path="url(#clip8_1310_191)">
<path d="M286.908 538.513C285.036 541.719 284.427 545.499 284.994 549.148C285.35 551.432 286.093 553.661 287.094 555.746C287.799 557.214 288.333 558.744 289.215 560.126C289.949 561.276 290.852 562.307 291.891 563.188C297.59 565.936 304.85 565.456 310.491 562.795C314.221 561.035 317.484 558.291 319.408 554.633C321.531 550.596 321.554 545.959 320.358 541.642C319.348 537.994 317.309 534.571 314.161 532.343C311.347 530.351 307.969 529.36 304.555 529.281C297.67 529.121 290.433 532.477 286.908 538.513Z" fill="#111EF7"/>
<path d="M348.411 594.796C338.353 594.331 328.465 592.046 319.287 587.941C310.512 584.017 302.547 578.468 295.527 571.973C288.329 565.314 282.104 557.662 276.633 549.569C270.987 541.22 266.135 532.361 261.823 523.273C260.689 520.883 259.635 518.488 258.748 516L258.748 594.987L350.569 594.987C350.569 594.947 350.568 594.907 350.568 594.867C349.849 594.852 349.13 594.829 348.411 594.796Z" fill="#F6CC47"/>
<path d="M274.372 505.058C284.628 508.479 294.299 513.159 303.291 519.126C312.938 525.529 321.796 533.16 329.443 541.813C336.837 550.179 343.158 559.542 347.478 569.825C349.003 573.455 350.254 577.214 351.165 581.046L351.165 504.032L271.106 504.032C272.2 504.358 273.29 504.697 274.372 505.058Z" fill="#F6CC47"/>
</g>
<g clip-path="url(#clip9_1310_191)">
<path d="M258.356 320.721L258.356 412.63L212.851 412.63L167.346 412.63L167.346 320.721L167.346 228.812L212.851 228.812L258.356 228.812L258.356 320.721Z" fill="#FDF5DA"/>
<path d="M258.356 320.721L258.356 412.63L212.851 412.63L167.346 320.721L212.851 228.812L258.356 228.812L258.356 320.721Z" fill="#E83323"/>
<path d="M258.748 320.721L258.748 412.63L238.341 412.63L192.836 320.721L238.341 228.812L258.748 228.812L258.748 320.721Z" fill="#FDF5DA"/>
<path d="M258.748 320.721L258.748 412.63L258.451 412.63L212.401 320.721L258.451 228.812L258.748 228.812L258.748 320.721Z" fill="#E83323"/>
</g>
<g clip-path="url(#clip10_1310_191)">
<path d="M351.165 229.812L330.853 229.812L330.853 319.812L351.165 319.812L351.165 229.812Z" fill="#F6CC47"/>
<path d="M304.448 229.812L279.059 229.812L279.059 319.812L304.448 319.812L304.448 229.812Z" fill="#F6CC47"/>
</g>
<g clip-path="url(#clip11_1310_191)">
<path d="M372.237 674.289C371.213 686.987 370.19 699.685 369.166 712.382C368.882 715.902 368.599 719.423 368.315 722.943C368.146 725.032 370.274 727.031 372.312 726.94C374.622 726.837 376.13 725.181 376.31 722.943C377.334 710.245 378.357 697.547 379.381 684.849C379.665 681.329 379.949 677.809 380.232 674.289C380.401 672.2 378.273 670.2 376.235 670.292C373.925 670.395 372.417 672.051 372.237 674.289Z" fill="#E83323"/>
<path d="M363.379 637.29C362.128 643.526 361.514 649.908 361.67 656.268C361.801 661.593 362.444 667.454 366.028 671.668C368.08 674.08 371.15 675.189 374.267 675.161C375.408 675.151 376.552 675.008 377.683 674.871C379.195 674.688 380.737 674.506 382.185 674.008C385.397 672.902 387.832 670.807 389.531 667.868C391.06 665.22 392.176 662.274 393.285 659.433C395.702 653.238 397.503 646.817 398.736 640.285C399.122 638.236 398.167 635.873 395.943 635.367C393.976 634.919 391.44 635.962 391.026 638.159C390.033 643.422 388.672 648.612 386.915 653.673C386.491 654.893 386.044 656.105 385.575 657.308C385.341 657.906 385.102 658.503 384.857 659.097C384.781 659.28 384.474 660.001 384.787 659.27C384.604 659.698 384.419 660.124 384.231 660.549C383.737 661.662 383.237 662.777 382.627 663.832C382.365 664.285 382.098 664.769 381.758 665.168C382.619 664.157 380.463 666.363 381.464 665.487C381.086 665.818 380.417 666.263 379.923 666.38C380.779 666.177 380.267 666.242 380.059 666.298C379.777 666.375 379.502 666.476 379.218 666.551C378.697 666.688 378.169 666.791 377.637 666.876C377.344 666.923 376.769 667.147 377.683 666.876C377.331 666.98 376.891 666.967 376.526 667.004C375.989 667.06 375.452 667.115 374.914 667.144C374.591 667.161 374.267 667.171 373.944 667.165C373.915 667.165 372.857 667.132 373.515 667.169C374.145 667.204 373.165 667.087 373.103 667.071C372.84 667.002 372.136 666.567 372.843 667.011C372.648 666.889 372.444 666.772 372.246 666.654C371.628 666.283 372.856 667.27 372.33 666.7C372.173 666.53 372.001 666.359 371.837 666.195C371.243 665.604 372.316 666.969 371.869 666.245C371.65 665.89 371.42 665.546 371.226 665.175C371.197 665.119 370.858 664.509 370.891 664.477C370.907 664.461 371.194 665.293 370.993 664.697C370.788 664.09 370.579 663.49 370.419 662.868C370.301 662.413 370.199 661.953 370.109 661.491C370.055 661.21 370.006 660.928 369.96 660.646C369.948 660.571 369.852 659.639 369.909 660.325C369.967 661.016 369.886 660.072 369.879 660.001C369.849 659.717 369.823 659.433 369.801 659.148C369.754 658.557 369.723 657.966 369.7 657.374C369.581 654.303 369.641 651.225 369.873 648.161C369.938 647.305 370.017 646.449 370.109 645.595C370.136 645.352 370.163 645.108 370.192 644.865C370.21 644.709 370.414 643.199 370.284 644.106C370.51 642.535 370.777 640.972 371.089 639.416C371.499 637.372 370.504 635.001 368.297 634.498C366.309 634.045 363.819 635.098 363.379 637.29Z" fill="#E83323"/>
<path d="M370.832 640.542C370.606 646.029 370.38 651.516 370.153 657.002C370.042 659.682 369.932 662.362 369.821 665.041C369.722 667.447 369.155 670.283 370.205 672.528C371.093 674.427 373.974 675.058 375.674 673.962C377.63 672.701 378.059 670.524 377.108 668.492C378.093 670.596 377.513 670.595 377.586 669.826C377.602 669.655 377.608 669.482 377.622 669.311C377.654 668.908 377.674 668.507 377.69 668.104C377.745 666.764 377.801 665.424 377.856 664.084C377.964 661.468 378.072 658.853 378.18 656.237C378.396 651.005 378.612 645.774 378.828 640.542C378.914 638.45 376.927 636.451 374.83 636.545C372.59 636.645 370.925 638.301 370.832 640.542Z" fill="#E83323"/>
<path d="M379.526 640.481C377.751 650.268 376.675 660.183 376.349 670.125C376.28 672.217 378.237 674.217 380.346 674.123C382.571 674.023 384.27 672.367 384.344 670.125C384.499 665.385 384.819 660.651 385.315 655.934C385.432 654.82 385.559 653.706 385.695 652.593C385.771 651.976 385.85 651.359 385.932 650.742C385.877 651.155 385.891 651.039 385.939 650.696C385.982 650.388 386.025 650.08 386.069 649.772C386.413 647.377 386.804 644.988 387.236 642.607C387.607 640.556 386.677 638.198 384.443 637.689C382.488 637.244 379.925 638.281 379.526 640.481Z" fill="#E83323"/>
<path d="M409.381 638.624C409.327 639.355 409.263 640.084 409.183 640.812C409.143 641.176 409.098 641.539 409.052 641.902C409.154 641.1 409.049 641.909 409.02 642.109C408.806 643.558 408.548 645.001 408.264 646.439C407.714 649.217 407.077 651.978 406.429 654.735C405.104 660.371 403.661 665.98 402.102 671.556C400.559 677.072 398.902 682.556 397.133 688.004C395.414 693.293 393.536 698.531 391.924 703.855C390.052 710.04 388.627 716.352 388.156 722.81C388.003 724.9 390.103 726.899 392.153 726.807C394.45 726.704 395.988 725.049 396.151 722.81C396.203 722.094 396.265 721.379 396.341 720.665C396.38 720.308 396.423 719.953 396.466 719.597C396.602 718.454 396.375 720.111 396.492 719.418C396.729 718.005 396.951 716.593 397.242 715.189C397.801 712.494 398.499 709.829 399.274 707.188C400.854 701.806 402.748 696.524 404.495 691.195C408.063 680.309 411.181 669.276 413.837 658.133C415.369 651.706 416.889 645.23 417.376 638.624C417.53 636.534 415.427 634.535 413.379 634.627C411.081 634.73 409.546 636.385 409.381 638.624Z" fill="#E83323"/>
<path d="M420.824 640.315C428.104 653.413 423.043 670.148 415.429 681.795C413.472 684.789 411.048 687.427 408.427 689.816C406.35 691.709 402.748 695.668 400.057 696.213C398.029 689.04 401.137 680.003 403.717 673.4C406.579 666.077 410.214 659.031 412.159 651.396C413.358 646.691 413.323 642.151 413.763 637.375C414.224 632.375 418.961 637.263 420.181 639.223C420.406 639.584 420.62 639.948 420.824 640.315Z" fill="#E83323"/>
</g>
<g clip-path="url(#clip12_1310_191)">
<path d="M494.088 407.313C494.393 397.959 494.166 388.046 493.272 378.73C492.91 374.962 492.441 371.161 491.114 367.616C487.653 358.373 478.975 352.217 473.518 343.995C480.292 350.369 487.454 356.331 494.95 361.836C495.592 362.307 496.487 361.804 496.434 361.008C495.535 347.432 496.689 333.72 499.851 320.485C503.384 318.837 502.312 338.422 502.694 348.575C513.263 338.504 515.584 325.479 527.635 317.242C529.177 317.438 527.767 321.317 525.413 324.182C519.948 330.835 509.97 348.639 509.046 357.202C514.775 356.61 523.437 348.874 529.166 348.281C522.941 351.495 516.462 354.929 512.49 360.704C508.258 366.858 507.539 374.69 506.951 382.138C506.297 390.41 505.644 398.683 504.991 406.956C504.927 407.757 504.779 408.694 504.067 409.065C503.567 409.325 502.963 409.203 502.415 409.074C499.841 408.471 497.266 407.868 494.692 407.265" fill="#1C3B87"/>
<path d="M467.285 337.626C468.65 340.232 470.251 342.704 472.037 344.964L467.285 337.626Z" fill="#1C3B87"/>
<path d="M467.543 337.491C470.779 338.509 472.563 341.445 472.266 344.783C472.266 344.783 471.809 345.145 471.809 345.145C468.364 344.628 466.005 341.147 467.027 337.762C467.027 337.762 467.543 337.491 467.543 337.491Z" fill="#1C3B87"/>
<path d="M465.529 348.106C468.324 349.017 471.195 349.667 474.05 350.036L465.529 348.106Z" fill="#1C3B87"/>
<path d="M465.62 347.829C468.647 346.297 471.972 347.151 474.088 349.747C474.087 349.747 474.013 350.326 474.013 350.326C471.186 352.363 467.068 351.521 465.439 348.384C465.439 348.384 465.62 347.829 465.62 347.829Z" fill="#1C3B87"/>
<path d="M471.927 332.252C472.465 335.144 473.267 337.979 474.309 340.666L471.927 332.252Z" fill="#1C3B87"/>
<path d="M472.213 332.198C475.006 334.126 475.847 337.457 474.581 340.56C474.581 340.56 474.038 340.771 474.038 340.771C470.898 339.262 469.668 335.239 471.64 332.305C471.64 332.305 472.213 332.198 472.213 332.198Z" fill="#1C3B87"/>
<path d="M459.49 317.7C461.201 320.092 463.127 322.32 465.207 324.312L459.49 317.7Z" fill="#1C3B87"/>
<path d="M459.728 317.53C463.073 318.093 465.244 320.754 465.409 324.101C465.409 324.101 465.006 324.523 465.006 324.523C461.523 324.486 458.707 321.363 459.254 317.87C459.254 317.87 459.728 317.53 459.728 317.53Z" fill="#1C3B87"/>
<path d="M479.515 320.874C480.053 323.766 480.856 326.6 481.898 329.287L479.515 320.874Z" fill="#1C3B87"/>
<path d="M479.802 320.82C482.594 322.747 483.435 326.079 482.17 329.181L481.626 329.393C478.487 327.883 477.257 323.861 479.229 320.927L479.802 320.82Z" fill="#1C3B87"/>
<path d="M456.406 329.769C458.115 332.162 460.04 334.391 462.119 336.384L456.406 329.769Z" fill="#1C3B87"/>
<path d="M456.643 329.599C459.988 330.164 462.157 332.827 462.321 336.173L461.917 336.595C458.434 336.556 455.621 333.432 456.169 329.939L456.643 329.599Z" fill="#1C3B87"/>
<path d="M469.722 320.258C470.986 322.913 472.492 325.445 474.19 327.772L469.722 320.258Z" fill="#1C3B87"/>
<path d="M469.985 320.132C473.179 321.274 474.85 324.276 474.426 327.6L473.955 327.944C470.533 327.296 468.309 323.727 469.459 320.383L469.985 320.132Z" fill="#1C3B87"/>
<path d="M484.063 331.3C484.601 334.192 485.404 337.027 486.446 339.713L484.063 331.3Z" fill="#1C3B87"/>
<path d="M484.35 331.246C487.142 333.173 487.983 336.505 486.718 339.608C486.718 339.608 486.174 339.819 486.174 339.819C483.035 338.31 481.805 334.287 483.777 331.353C483.777 331.353 484.35 331.246 484.35 331.246Z" fill="#1C3B87"/>
<path d="M536.482 313.757C534.097 315.478 531.878 317.415 529.894 319.504L536.482 313.757Z" fill="#1C3B87"/>
<path d="M536.652 313.994C536.101 317.344 533.449 319.527 530.106 319.705C530.106 319.705 529.683 319.303 529.683 319.303C529.709 315.816 532.82 312.987 536.311 313.52C536.311 313.521 536.652 313.994 536.652 313.994Z" fill="#1C3B87"/>
<path d="M544.776 312.685C542.391 314.406 540.172 316.342 538.189 318.432L544.776 312.685Z" fill="#1C3B87"/>
<path d="M544.946 312.922C544.395 316.272 541.743 318.455 538.4 318.633C538.4 318.633 537.977 318.231 537.977 318.231C538.003 314.744 541.114 311.914 544.605 312.448C544.605 312.448 544.946 312.922 544.946 312.922Z" fill="#1C3B87"/>
<path d="M536.793 304.482C534.57 306.407 532.529 308.531 530.737 310.788L536.793 304.482Z" fill="#1C3B87"/>
<path d="M536.984 304.703C536.729 308.089 534.28 310.497 530.965 310.969L530.509 310.606C530.228 307.131 533.078 304.037 536.603 304.261L536.984 304.703Z" fill="#1C3B87"/>
<path d="M478.335 336.791C477.988 339.713 477.912 342.659 478.108 345.534L478.335 336.791Z" fill="#1C3B87"/>
<path d="M478.624 336.826C480.717 339.498 480.529 342.929 478.399 345.514L477.817 345.554C475.269 343.177 475.291 338.97 478.045 336.757L478.624 336.826Z" fill="#1C3B87"/>
<path d="M484.119 314.477C485.901 316.817 487.894 318.985 490.033 320.914L484.119 314.477Z" fill="#1C3B87"/>
<path d="M484.351 314.3C487.712 314.762 489.962 317.356 490.228 320.697C490.228 320.697 489.838 321.13 489.838 321.13C486.355 321.199 483.447 318.162 483.888 314.654C483.888 314.654 484.351 314.3 484.351 314.3Z" fill="#1C3B87"/>
<path d="M467.073 309.469C468.855 311.808 470.847 313.977 472.987 315.905L467.073 309.469Z" fill="#1C3B87"/>
<path d="M467.305 309.292C470.665 309.753 472.916 312.348 473.182 315.688C473.182 315.688 472.792 316.122 472.792 316.122C469.309 316.19 466.401 313.154 466.841 309.646C466.841 309.646 467.305 309.292 467.305 309.292Z" fill="#1C3B87"/>
<path d="M475.448 302.323C477.23 304.663 479.222 306.831 481.361 308.76L475.448 302.323Z" fill="#1C3B87"/>
<path d="M475.679 302.146C479.04 302.608 481.29 305.203 481.556 308.543L481.166 308.977C477.683 309.045 474.775 306.009 475.216 302.5L475.679 302.146Z" fill="#1C3B87"/>
<path d="M512.085 302.917C510.167 305.147 508.458 307.547 507.015 310.041L512.085 302.917Z" fill="#1C3B87"/>
<path d="M512.306 303.108C512.548 306.495 510.477 309.236 507.267 310.187C507.267 310.187 506.762 309.895 506.762 309.895C505.977 306.498 508.344 303.021 511.864 302.727C511.864 302.727 512.306 303.108 512.306 303.108Z" fill="#1C3B87"/>
<path d="M553.593 329.657C551.674 331.886 549.966 334.286 548.522 336.781L553.593 329.657Z" fill="#1C3B87"/>
<path d="M553.813 329.848C554.056 333.234 551.984 335.975 548.774 336.927C548.774 336.927 548.27 336.634 548.27 336.634C547.484 333.238 549.852 329.761 553.372 329.467C553.372 329.467 553.813 329.848 553.813 329.848Z" fill="#1C3B87"/>
<path d="M507.397 292.979C505.478 295.208 503.769 297.608 502.326 300.102L507.397 292.979Z" fill="#1C3B87"/>
<path d="M507.617 293.169C507.86 296.556 505.788 299.297 502.578 300.249L502.074 299.956C501.288 296.559 503.656 293.083 507.176 292.788L507.617 293.169Z" fill="#1C3B87"/>
<path d="M508.453 315.112C506.775 317.528 505.324 320.092 504.146 322.722L508.453 315.112Z" fill="#1C3B87"/>
<path d="M508.692 315.278C509.284 318.621 507.506 321.562 504.412 322.841C504.412 322.841 503.88 322.603 503.88 322.603C502.748 319.306 504.743 315.603 508.214 314.945C508.214 314.945 508.692 315.278 508.692 315.278Z" fill="#1C3B87"/>
<path d="M509.713 331.478C508.035 333.894 506.584 336.458 505.406 339.088L509.713 331.478Z" fill="#1C3B87"/>
<path d="M509.953 331.644C510.544 334.988 508.767 337.929 505.672 339.208L505.14 338.969C504.008 335.672 506.003 331.969 509.474 331.311L509.953 331.644Z" fill="#1C3B87"/>
<path d="M516.914 307.415C515.236 309.831 513.785 312.395 512.607 315.026L516.914 307.415Z" fill="#1C3B87"/>
<path d="M517.153 307.582C517.745 310.925 515.968 313.866 512.873 315.145C512.873 315.145 512.341 314.906 512.341 314.906C511.209 311.609 513.204 307.906 516.675 307.248C516.675 307.249 517.153 307.582 517.153 307.582Z" fill="#1C3B87"/>
<path d="M517.153 318.675C515.475 321.091 514.024 323.655 512.846 326.285L517.153 318.675Z" fill="#1C3B87"/>
<path d="M517.393 318.841C517.984 322.185 516.207 325.125 513.112 326.405C513.112 326.404 512.58 326.166 512.58 326.166C511.448 322.869 513.443 319.166 516.914 318.508C516.914 318.508 517.393 318.841 517.393 318.841Z" fill="#1C3B87"/>
<path d="M502.313 309.639C501.967 312.56 501.89 315.506 502.086 318.381L502.313 309.639Z" fill="#1C3B87"/>
<path d="M502.603 309.673C504.695 312.345 504.507 315.777 502.377 318.362C502.377 318.362 501.795 318.401 501.795 318.401C499.247 316.025 499.269 311.818 502.024 309.604C502.024 309.604 502.603 309.673 502.603 309.673Z" fill="#1C3B87"/>
<path d="M488.163 300.151C488.6 303.06 489.304 305.921 490.252 308.642L488.163 300.151Z" fill="#1C3B87"/>
<path d="M488.451 300.107C491.175 302.13 491.9 305.489 490.528 308.546C490.528 308.546 489.977 308.738 489.977 308.738C486.892 307.121 485.802 303.058 487.875 300.194C487.875 300.194 488.451 300.107 488.451 300.107Z" fill="#1C3B87"/>
<path d="M489.124 327.162C490.873 329.526 492.834 331.722 494.946 333.68L489.124 327.162Z" fill="#1C3B87"/>
<path d="M489.358 326.988C492.711 327.497 494.925 330.123 495.144 333.466C495.144 333.466 494.748 333.895 494.748 333.895C491.265 333.914 488.399 330.837 488.889 327.336C488.889 327.336 489.358 326.988 489.358 326.988Z" fill="#1C3B87"/>
<path d="M495.547 302.778C496.319 305.617 497.349 308.377 498.606 310.97L495.547 302.778Z" fill="#1C3B87"/>
<path d="M495.829 302.702C498.768 304.395 499.877 307.647 498.868 310.843C498.868 310.843 498.344 311.097 498.344 311.097C495.092 309.849 493.539 305.94 495.266 302.855C495.266 302.855 495.829 302.702 495.829 302.702Z" fill="#1C3B87"/>
<path d="M494.188 313.476C494.959 316.315 495.99 319.075 497.247 321.668L494.188 313.476Z" fill="#1C3B87"/>
<path d="M494.469 313.4C497.409 315.093 498.518 318.345 497.509 321.541L496.984 321.795C493.732 320.547 492.18 316.638 493.907 313.553L494.469 313.4Z" fill="#1C3B87"/>
<path d="M522.604 308.315C523.375 311.154 524.406 313.914 525.662 316.507L522.604 308.315Z" fill="#1C3B87"/>
<path d="M522.885 308.239C525.825 309.932 526.934 313.184 525.925 316.379L525.4 316.634C522.148 315.386 520.595 311.477 522.322 308.392L522.885 308.239Z" fill="#1C3B87"/>
<path d="M537.328 322.082C534.482 322.816 531.711 323.811 529.103 325.035L537.328 322.082Z" fill="#1C3B87"/>
<path d="M537.4 322.364C535.668 325.284 532.405 326.351 529.227 325.299C529.227 325.299 528.98 324.77 528.98 324.77C530.272 321.532 534.198 320.03 537.255 321.799C537.255 321.799 537.4 322.364 537.4 322.364Z" fill="#1C3B87"/>
<path d="M545.122 341.25C542.477 342.533 539.957 344.057 537.643 345.773L545.122 341.25Z" fill="#1C3B87"/>
<path d="M545.249 341.513C544.128 344.718 541.139 346.41 537.816 346.008C537.816 346.007 537.469 345.539 537.469 345.539C538.096 342.108 541.648 339.858 544.995 340.988C544.995 340.988 545.249 341.513 545.249 341.513Z" fill="#1C3B87"/>
<path d="M538.48 351.415C535.627 350.708 532.717 350.267 529.842 350.106L538.48 351.415Z" fill="#1C3B87"/>
<path d="M538.41 351.698C535.501 353.445 532.123 352.834 529.826 350.397C529.826 350.397 529.859 349.814 529.859 349.814C532.531 347.578 536.699 348.121 538.55 351.131C538.55 351.132 538.41 351.698 538.41 351.698Z" fill="#1C3B87"/>
<path d="M533.125 358.918C530.271 358.212 527.361 357.771 524.487 357.609L533.125 358.918Z" fill="#1C3B87"/>
<path d="M533.055 359.201C530.146 360.948 526.768 360.337 524.47 357.9L524.503 357.318C527.176 355.081 531.343 355.624 533.195 358.635L533.055 359.201Z" fill="#1C3B87"/>
<path d="M535.525 340.031C533.437 342.102 531.545 344.36 529.91 346.733L535.525 340.031Z" fill="#1C3B87"/>
<path d="M535.73 340.238C535.705 343.633 533.425 346.203 530.15 346.899L529.67 346.567C529.154 343.119 531.787 339.84 535.319 339.823L535.73 340.238Z" fill="#1C3B87"/>
<path d="M523.178 340.325C522.404 343.164 521.893 346.066 521.662 348.939L523.178 340.325Z" fill="#1C3B87"/>
<path d="M523.46 340.402C525.134 343.355 524.442 346.721 521.953 348.962L521.372 348.916C519.203 346.188 519.846 342.03 522.897 340.249L523.46 340.402Z" fill="#1C3B87"/>
<path d="M544.231 331.411C542.143 333.482 540.251 335.74 538.616 338.113L544.231 331.411Z" fill="#1C3B87"/>
<path d="M544.436 331.618C544.412 335.013 542.131 337.582 538.856 338.278C538.856 338.278 538.376 337.947 538.376 337.947C537.86 334.499 540.494 331.219 544.026 331.203C544.026 331.203 544.436 331.618 544.436 331.618Z" fill="#1C3B87"/>
<path d="M531.55 329.099C530.948 331.979 530.611 334.906 530.553 337.788L531.55 329.099Z" fill="#1C3B87"/>
<path d="M531.836 329.159C533.684 332.006 533.195 335.407 530.844 337.794C530.844 337.794 530.261 337.782 530.261 337.782C527.933 335.19 528.326 331.001 531.265 329.04C531.265 329.04 531.836 329.159 531.836 329.159Z" fill="#1C3B87"/>
<path d="M487.687 342.365C487.34 345.287 487.263 348.233 487.459 351.108L487.687 342.365Z" fill="#1C3B87"/>
<path d="M487.976 342.4C490.068 345.072 489.881 348.503 487.75 351.088C487.75 351.088 487.168 351.128 487.168 351.128C484.62 348.752 484.642 344.545 487.397 342.331C487.397 342.331 487.976 342.4 487.976 342.4Z" fill="#1C3B87"/>
</g>
<g clip-path="url(#clip13_1310_191)">
<path d="M331.088 448.395C372.599 450.276 410.933 451.752 452.462 453.11C454.462 453.175 456.575 453.213 458.319 452.189C459.82 451.309 460.834 449.764 461.795 448.272C464.994 443.302 468.193 438.331 471.393 433.361C472.299 431.507 469.92 429.468 435.542 429.8C422.671 429.923 409.316 429.541 396.456 428.926C385.437 428.4 357.994 426.502 347.275 428.926C339.639 430.653 328.379 444.455 331.088 448.395Z" fill="#E83323"/>
<path d="M339.267 471.043C339.289 471.749 339.34 472.542 339.707 472.995C339.988 473.34 340.379 473.389 340.743 473.42C344.624 473.752 348.516 473.803 352.401 473.574C353.187 473.528 354.033 473.437 354.639 472.692C355.438 471.709 355.53 469.972 355.559 468.434C355.708 460.756 355.856 453.078 356.005 445.4C356.016 444.79 356.009 444.104 355.715 443.676C355.433 443.265 354.991 443.247 354.595 443.255C351.003 443.327 342.819 441.037 340.208 445.766C337.578 450.528 339.083 465.243 339.267 471.043Z" fill="#E83323"/>
<path d="M359.682 427.319C359.699 428.357 359.742 429.522 360.047 430.187C360.28 430.694 360.606 430.766 360.908 430.812C364.133 431.299 367.368 431.375 370.596 431.038C371.249 430.97 371.953 430.836 372.456 429.742C373.12 428.297 373.196 425.746 373.221 423.486C373.221 411.901 373.697 400.313 373.629 388.731C373.608 385.029 371.855 386.167 369.992 385.861C368.716 385.651 367.476 384.972 366.208 384.665C363.803 384.081 361.088 384.25 359.974 387.818C357.789 394.815 359.529 418.798 359.682 427.319Z" fill="#E83323"/>
<path d="M357.994 376.25C355.188 376.271 352.041 376.323 350.244 376.693C348.872 376.976 348.679 377.37 348.555 377.737C347.239 381.648 347.035 385.57 347.943 389.484C348.128 390.277 348.489 391.13 351.446 391.74C355.35 392.546 362.244 392.638 368.353 392.668C389.738 392.777 411.122 392.878 432.507 392.982C443.262 393.035 454.016 393.09 464.771 393.147C465.668 393.151 466.619 393.14 467.379 392.615C469.579 391.093 470.797 384.894 469.749 382.484C468.785 380.265 466.479 379.19 464.46 378.523C462.473 377.866 460.41 377.485 458.354 377.197C439.447 374.547 381.021 376.064 357.994 376.25Z" fill="#E83323"/>
<path d="M357.947 401.058C355.141 401.079 351.994 401.131 350.198 401.501C348.825 401.784 348.632 402.178 348.508 402.545C347.192 406.456 346.988 410.378 347.897 414.293C348.081 415.085 348.443 415.938 351.399 416.549C355.303 417.354 362.198 417.446 368.306 417.476C398.791 417.626 429.275 417.775 459.761 417.925C461.975 417.936 465.01 418.867 467.058 417.427C468.965 416.087 469.895 412.835 470.138 410.505C470.24 409.534 470.234 408.535 469.973 407.601C468.678 402.953 461.896 402.438 458.307 402.005C439.4 399.356 380.974 400.872 357.947 401.058Z" fill="#E83323"/>
<path d="M447.387 430.512C447.403 431.565 447.443 432.746 447.722 433.419C447.936 433.934 448.234 434.007 448.511 434.053C451.466 434.547 454.429 434.623 457.387 434.282C457.985 434.214 458.63 434.078 459.091 432.968C459.699 431.504 459.769 428.918 459.792 426.626C459.905 415.191 460.018 403.755 460.131 392.32C460.14 391.411 460.134 390.39 459.91 389.753C459.695 389.14 459.359 389.114 459.058 389.125C456.323 389.233 450.091 385.822 448.103 392.865C446.101 399.957 447.247 421.874 447.387 430.512Z" fill="#E83323"/>
<path d="M427.441 477.584C427.461 478.368 427.511 479.247 427.862 479.748C428.13 480.132 428.503 480.186 428.851 480.22C432.56 480.588 436.28 480.645 439.992 480.391C440.744 480.34 441.553 480.238 442.131 479.413C442.895 478.323 442.983 476.397 443.011 474.691C443.153 466.177 443.295 457.663 443.437 449.149C443.448 448.473 443.44 447.713 443.16 447.238C442.89 446.782 442.468 446.762 442.09 446.771C438.657 446.851 430.835 444.312 428.34 449.555C425.827 454.836 427.265 471.153 427.441 477.584Z" fill="#E83323"/>
<path d="M453.951 469.052C453.969 469.836 454.01 470.716 454.31 471.218C454.539 471.602 454.859 471.656 455.156 471.691C458.325 472.059 461.503 472.116 464.675 471.862C465.317 471.81 466.008 471.709 466.502 470.882C467.155 469.791 467.23 467.864 467.254 466.156C467.375 457.633 467.496 449.111 467.618 440.588C467.627 439.911 467.621 439.15 467.381 438.675C467.151 438.218 466.79 438.199 466.467 438.208C463.534 438.288 456.851 435.745 454.719 440.994C452.572 446.28 453.801 462.614 453.951 469.052Z" fill="#E83323"/>
<path d="M367.132 468.007C367.151 468.611 367.197 469.289 367.524 469.675C367.774 469.97 368.122 470.012 368.447 470.039C371.904 470.322 375.371 470.366 378.831 470.17C379.532 470.131 380.286 470.053 380.825 469.416C381.537 468.576 381.619 467.093 381.645 465.778C381.777 459.218 381.91 452.658 382.042 446.098C382.052 445.577 382.045 444.991 381.784 444.625C381.532 444.274 381.139 444.259 380.786 444.266C377.586 444.327 370.296 442.37 367.97 446.411C365.627 450.479 366.968 463.052 367.132 468.007Z" fill="#E83323"/>
<path d="M354.152 409.543C364.027 408.97 373.912 408.604 383.802 408.446C384.623 408.433 384.625 407.146 383.802 407.16C373.912 407.318 364.027 407.683 354.152 408.257C353.335 408.304 353.33 409.591 354.152 409.543Z" fill="#FDF5DA"/>
<path d="M429.545 409.579C420.37 409.884 411.196 410.189 402.021 410.494C401.201 410.521 401.198 411.808 402.021 411.781C411.196 411.476 420.37 411.171 429.545 410.866C430.365 410.839 430.368 409.552 429.545 409.579Z" fill="#FDF5DA"/>
<path d="M453.056 384.774C435.833 385.149 418.608 385.352 401.382 385.383C400.56 385.384 400.559 386.671 401.382 386.669C418.608 386.639 435.833 386.436 453.056 386.06C453.876 386.042 453.879 384.756 453.056 384.774Z" fill="#FDF5DA"/>
<path d="M365.787 381.699C378.398 382.864 391.049 383.505 403.712 383.62C404.534 383.628 404.534 382.341 403.712 382.334C391.049 382.218 378.398 381.577 365.787 380.412C364.97 380.337 364.975 381.624 365.787 381.699Z" fill="#FDF5DA"/>
<path d="M455.388 434.469C435.788 435.709 416.143 436.059 396.511 435.516C395.69 435.494 395.69 436.78 396.511 436.803C416.143 437.345 435.788 436.996 455.388 435.756C456.204 435.704 456.21 434.418 455.388 434.469Z" fill="#FDF5DA"/>
<path d="M360.705 439.087C369.867 440.108 379.053 440.908 388.253 441.487C389.074 441.538 389.071 440.252 388.253 440.2C379.053 439.622 369.867 438.822 360.705 437.801C359.889 437.71 359.896 438.997 360.705 439.087Z" fill="#FDF5DA"/>
<path d="M341.866 443.048C346.879 443.256 351.892 443.464 356.904 443.672C357.726 443.706 357.724 442.419 356.904 442.385C351.892 442.177 346.879 441.969 341.866 441.761C341.045 441.727 341.046 443.014 341.866 443.048Z" fill="#FDF5DA"/>
<path d="M354.786 432.585C362.543 433.071 370.311 433.35 378.084 433.421C378.906 433.428 378.906 432.142 378.084 432.134C370.311 432.064 362.543 431.785 354.786 431.298C353.965 431.247 353.968 432.533 354.786 432.585Z" fill="#FDF5DA"/>
<path d="M449.247 443.478C437.106 443.206 424.96 443.196 412.818 443.447C411.998 443.464 411.995 444.751 412.818 444.733C424.96 444.482 437.106 444.492 449.247 444.764C450.069 444.783 450.069 443.496 449.247 443.478Z" fill="#FDF5DA"/>
</g>
<g clip-path="url(#clip14_1310_191)">
<path d="M307.834 244C307.571 244 307.345 243.808 307.306 243.546C307.128 242.372 306.964 241.193 306.809 240.01C304.351 221.038 304.93 201.029 305.49 181.68C305.656 175.942 305.827 170.008 305.91 164.281C306.332 135.291 308.098 105.989 311.16 77.1882C311.289 75.985 311.495 74.7458 312.457 73.9715C313.272 73.3133 314.361 73.2591 315.156 73.2195C337.527 72.0981 360.217 72.0419 382.592 73.0502C384.999 73.1586 387.301 73.3795 388.996 74.8735C390.445 76.1507 391.043 78.0427 391.531 79.8713C394.78 92.0492 395.886 104.777 396.956 117.087C400.208 154.489 403.572 193.165 403.887 231.352C403.904 233.598 403.815 235.753 402.548 237.432C400.976 239.516 398.168 240.037 395.661 240.362C377.525 242.707 359.301 242.905 341.677 243.097C330.606 243.218 319.159 243.342 307.865 243.999C307.854 243.999 307.844 244 307.834 244ZM307.869 239.873C308 240.887 308.141 241.898 308.289 242.906C319.451 242.272 330.74 242.149 341.664 242.03C359.258 241.838 377.451 241.64 395.523 239.303C397.921 238.993 400.372 238.544 401.695 236.789C402.761 235.377 402.834 233.416 402.819 231.36C402.504 193.216 399.142 154.561 395.893 117.179C394.827 104.915 393.723 92.2342 390.498 80.1464C390.053 78.4758 389.515 76.7541 388.289 75.6739C386.854 74.4097 384.753 74.2159 382.544 74.1163C360.203 73.1096 337.548 73.1664 315.209 74.2857C314.368 74.3274 313.632 74.3952 313.126 74.8021C312.483 75.3206 312.327 76.3211 312.222 77.3012C309.163 106.07 307.399 135.339 306.978 164.296C306.895 170.031 306.723 175.969 306.557 181.711C305.999 201.019 305.421 220.984 307.869 239.873Z" fill="#1C3B87"/>
<path d="M317.129 104.517C317.339 105.252 318.564 104.985 319.328 104.947C321.299 104.848 323.271 104.75 325.242 104.651L326.619 104.582C326.619 104.583 326.62 104.582 326.619 104.582C334.025 86.0203 313.346 91.3004 317.129 104.517Z" fill="#1C3B87"/>
<path d="M333.912 99.4207C334.122 100.156 335.347 99.8885 336.111 99.8503C338.083 99.7516 340.054 99.6531 342.025 99.5545L343.403 99.4857C343.403 99.4859 343.403 99.4855 343.403 99.4857C350.808 80.9237 330.13 86.2037 333.912 99.4207Z" fill="#1C3B87"/>
<path d="M354.731 104.517C354.941 105.252 356.166 104.985 356.93 104.947C358.902 104.848 360.873 104.75 362.844 104.651L364.221 104.582C371.627 86.0203 350.949 91.3004 354.731 104.517Z" fill="#1C3B87"/>
<path d="M372.488 104.517C372.698 105.252 373.923 104.985 374.687 104.947C376.659 104.848 378.63 104.75 380.601 104.651L381.979 104.582C381.979 104.583 381.979 104.582 381.979 104.582C389.384 86.0203 368.706 91.3004 372.488 104.517Z" fill="#1C3B87"/>
<path d="M317.129 122.533C317.339 123.268 318.564 123.001 319.328 122.963C321.299 122.864 323.271 122.766 325.242 122.667C325.701 122.644 326.16 122.621 326.619 122.598C326.619 122.598 326.62 122.598 326.619 122.598C334.025 104.036 313.346 109.316 317.129 122.533Z" fill="#1C3B87"/>
<path d="M332.937 123.595C333.147 124.331 334.372 124.063 335.136 124.025C337.108 123.927 339.079 123.828 341.05 123.729C341.509 123.706 341.968 123.683 342.428 123.66C349.833 105.098 329.155 110.379 332.937 123.595Z" fill="#1C3B87"/>
<path d="M353.551 123.595C353.761 124.331 354.986 124.063 355.75 124.025C357.722 123.927 359.693 123.828 361.664 123.729C362.123 123.706 362.582 123.683 363.042 123.66C370.447 105.098 349.769 110.379 353.551 123.595Z" fill="#1C3B87"/>
<path d="M372.488 122.533C372.698 123.268 373.923 123.001 374.687 122.963C376.659 122.864 378.63 122.766 380.601 122.667C381.06 122.644 381.519 122.621 381.979 122.598C381.979 122.598 381.979 122.598 381.979 122.598C389.384 104.036 368.706 109.316 372.488 122.533Z" fill="#1C3B87"/>
<path d="M317.129 140.549C317.339 141.284 318.564 141.017 319.328 140.978C321.299 140.88 323.271 140.781 325.242 140.683L326.619 140.614C326.619 140.614 326.62 140.614 326.619 140.614C334.025 122.052 313.346 127.332 317.129 140.549Z" fill="#1C3B87"/>
<path d="M330.279 143.382C330.489 144.117 331.714 143.849 332.479 143.811C334.45 143.713 336.421 143.614 338.393 143.515C338.852 143.493 339.311 143.47 339.77 143.447C339.77 143.447 339.77 143.446 339.77 143.447C347.175 124.885 326.497 130.165 330.279 143.382Z" fill="#1C3B87"/>
<path d="M353.551 143.382C353.761 144.117 354.986 143.849 355.75 143.811C357.722 143.713 359.693 143.614 361.664 143.515C362.123 143.493 362.582 143.47 363.042 143.447C363.041 143.447 363.042 143.446 363.042 143.447C370.447 124.885 349.769 130.165 353.551 143.382Z" fill="#1C3B87"/>
<path d="M374.436 138.956C374.647 139.691 375.872 139.423 376.636 139.385C378.607 139.287 380.579 139.188 382.55 139.089L383.927 139.021C383.927 139.021 383.927 139.02 383.927 139.021C391.333 120.459 370.654 125.739 374.436 138.956Z" fill="#1C3B87"/>
<path d="M317.683 188.486C317.893 189.221 319.118 188.953 319.882 188.915C321.853 188.817 323.825 188.718 325.796 188.619L327.173 188.551C327.173 188.551 327.173 188.55 327.173 188.551C334.579 169.989 313.9 175.269 317.683 188.486Z" fill="#1C3B87"/>
<path d="M336.065 187.246C336.276 187.981 337.501 187.714 338.265 187.676C340.236 187.577 342.208 187.478 344.179 187.38L345.556 187.311C345.556 187.311 345.556 187.311 345.556 187.311C352.962 168.749 332.283 174.029 336.065 187.246Z" fill="#1C3B87"/>
<path d="M316.42 163.522C316.63 164.257 317.855 163.99 318.62 163.952C320.591 163.853 322.562 163.754 324.534 163.656L325.911 163.587C333.316 145.025 312.638 150.305 316.42 163.522Z" fill="#1C3B87"/>
<path d="M331.342 164.801C331.553 165.536 332.778 165.269 333.542 165.23C335.513 165.132 337.484 165.033 339.456 164.935C339.915 164.912 340.374 164.889 340.833 164.866C348.239 146.304 327.56 151.584 331.342 164.801Z" fill="#1C3B87"/>
<path d="M356.815 184.059C357.026 184.794 358.251 184.527 359.015 184.489C360.986 184.39 362.958 184.292 364.929 184.193L366.306 184.124C373.712 165.562 353.033 170.842 356.815 184.059Z" fill="#1C3B87"/>
<path d="M371.738 185.338C371.948 186.073 373.173 185.806 373.937 185.768C375.908 185.669 377.88 185.571 379.851 185.472C380.31 185.449 380.769 185.426 381.228 185.403C388.634 166.841 367.955 172.121 371.738 185.338Z" fill="#1C3B87"/>
<path d="M318.025 211.501C318.236 212.237 319.461 211.969 320.225 211.931C322.196 211.833 324.168 211.734 326.139 211.635C326.598 211.612 327.057 211.589 327.516 211.566C327.516 211.567 327.516 211.566 327.516 211.566C334.922 193.004 314.243 198.285 318.025 211.501Z" fill="#1C3B87"/>
<path d="M336.408 210.262C336.618 210.997 337.844 210.73 338.608 210.692C340.579 210.593 342.55 210.495 344.522 210.396L345.899 210.327C345.899 210.328 345.899 210.327 345.899 210.327C353.305 191.765 332.626 197.045 336.408 210.262Z" fill="#1C3B87"/>
<path d="M361.189 207.075C361.399 207.81 362.625 207.543 363.389 207.505C365.36 207.406 367.331 207.308 369.303 207.209L370.68 207.14C370.68 207.141 370.68 207.14 370.68 207.14C378.086 188.578 357.407 193.858 361.189 207.075Z" fill="#1C3B87"/>
<path d="M376.111 208.354C376.322 209.089 377.547 208.822 378.311 208.784C380.282 208.685 382.253 208.587 384.225 208.488L385.602 208.419C385.602 208.419 385.602 208.419 385.602 208.419C393.008 189.857 372.329 195.137 376.111 208.354Z" fill="#1C3B87"/>
<path d="M354.731 164.801C354.941 165.536 356.166 165.269 356.93 165.23C358.902 165.132 360.873 165.033 362.844 164.935C363.303 164.912 363.762 164.889 364.221 164.866C371.627 146.304 350.949 151.584 354.731 164.801Z" fill="#1C3B87"/>
<path d="M372.488 164.801C372.698 165.536 373.923 165.269 374.687 165.23C376.659 165.132 378.63 165.033 380.601 164.935C381.06 164.912 381.519 164.889 381.979 164.866C381.979 164.866 381.979 164.866 381.979 164.866C389.384 146.304 368.706 151.584 372.488 164.801Z" fill="#1C3B87"/>
<path d="M396.279 211.809C392.23 180.564 394.689 147.231 395.144 115.901C395.679 79.0429 397.898 42.2089 401.796 5.55296C401.937 4.23038 402.154 2.76502 403.19 1.92983C404.018 1.2624 405.158 1.17884 406.221 1.12559C434.672 -0.299863 463.191 -0.371471 491.649 0.911084C494.365 1.0336 497.309 1.25653 499.349 3.05391C501.055 4.55662 501.771 6.86144 502.357 9.05677C506.449 24.3957 507.84 40.3052 509.215 56.1202C513.405 104.308 517.598 152.556 517.997 200.924C518.018 203.459 517.965 206.196 516.438 208.219C514.587 210.673 511.21 211.275 508.16 211.67C470.767 216.506 434.02 214.119 396.906 216.277C396.681 214.793 396.473 213.303 396.279 211.809Z" fill="#88D84A"/>
<path d="M408.689 40.1273C408.956 41.0592 410.509 40.7203 411.478 40.6718C413.977 40.5468 416.476 40.4219 418.975 40.297C419.557 40.2679 420.139 40.2387 420.721 40.2097C420.721 40.2099 420.721 40.2094 420.721 40.2097C430.109 16.6781 403.894 23.3717 408.689 40.1273Z" fill="#1C3B87"/>
<path d="M429.966 33.6661C430.232 34.598 431.785 34.2591 432.754 34.2106C435.253 34.0857 437.752 33.9607 440.251 33.8358C440.833 33.8067 441.415 33.7776 441.997 33.7485C441.997 33.7487 441.997 33.7482 441.997 33.7485C451.386 10.2169 425.171 16.9105 429.966 33.6661Z" fill="#1C3B87"/>
<path d="M456.358 40.1273C456.625 41.0592 458.178 40.7203 459.147 40.6718C461.646 40.5468 464.145 40.4219 466.644 40.297C467.226 40.2679 467.808 40.2387 468.39 40.2097C468.39 40.2099 468.39 40.2094 468.39 40.2097C477.778 16.6781 451.563 23.3717 456.358 40.1273Z" fill="#1C3B87"/>
<path d="M478.869 40.1273C479.136 41.0592 480.689 40.7203 481.658 40.6718C484.157 40.5468 486.656 40.4219 489.155 40.297C489.737 40.2679 490.319 40.2387 490.901 40.2097C490.901 40.2099 490.901 40.2094 490.901 40.2097C500.289 16.6781 474.074 23.3717 478.869 40.1273Z" fill="#1C3B87"/>
<path d="M408.689 62.9664C408.956 63.8983 410.509 63.5594 411.478 63.5109C413.977 63.386 416.476 63.261 418.975 63.1361C419.557 63.107 420.139 63.0779 420.721 63.0488C420.721 63.049 420.721 63.0485 420.721 63.0488C430.109 39.5172 403.894 46.2108 408.689 62.9664Z" fill="#1C3B87"/>
<path d="M428.729 64.3131C428.996 65.245 430.549 64.9061 431.518 64.8576C434.017 64.7326 436.516 64.6077 439.015 64.4828C439.597 64.4537 440.179 64.4246 440.761 64.3955C450.15 40.864 423.935 47.5575 428.729 64.3131Z" fill="#1C3B87"/>
<path d="M454.863 64.3131C455.129 65.245 456.682 64.9061 457.651 64.8576C460.15 64.7326 462.649 64.6077 465.148 64.4828C465.73 64.4537 466.312 64.4246 466.894 64.3955C476.283 40.864 450.068 47.5575 454.863 64.3131Z" fill="#1C3B87"/>
<path d="M478.869 62.9664C479.136 63.8983 480.689 63.5594 481.658 63.5109C484.157 63.386 486.656 63.261 489.155 63.1361C489.737 63.107 490.319 63.0779 490.901 63.0488C490.901 63.049 490.901 63.0485 490.901 63.0488C500.289 39.5172 474.074 46.2108 478.869 62.9664Z" fill="#1C3B87"/>
<path d="M408.689 85.8056C408.956 86.7374 410.509 86.3985 411.478 86.35C413.977 86.2251 416.476 86.1001 418.975 85.9752C419.557 85.9461 420.139 85.917 420.721 85.8879C420.721 85.8882 420.721 85.8876 420.721 85.8879C430.109 62.3563 403.894 69.05 408.689 85.8056Z" fill="#1C3B87"/>
<path d="M425.36 89.3968C425.627 90.3287 427.18 89.9898 428.149 89.9413C430.648 89.8163 433.147 89.6915 435.646 89.5665C436.228 89.5374 436.81 89.5083 437.392 89.4792C437.392 89.4795 437.392 89.4789 437.392 89.4792C446.78 65.9476 420.565 72.6413 425.36 89.3968Z" fill="#1C3B87"/>
<path d="M454.863 89.3968C455.129 90.3287 456.682 89.9898 457.651 89.9413C460.15 89.8163 462.649 89.6915 465.148 89.5665C465.73 89.5374 466.312 89.5083 466.894 89.4792C466.894 89.4795 466.895 89.4789 466.894 89.4792C476.283 65.9476 450.068 72.6413 454.863 89.3968Z" fill="#1C3B87"/>
<path d="M481.34 83.7855C481.607 84.7174 483.16 84.3785 484.128 84.33C486.628 84.2051 489.127 84.0801 491.626 83.9551C492.208 83.9261 492.79 83.897 493.372 83.8679C502.76 60.3364 476.545 67.03 481.34 83.7855Z" fill="#1C3B87"/>
<path d="M409.391 146.576C409.658 147.508 411.211 147.169 412.18 147.121C414.679 146.996 417.178 146.871 419.677 146.746C420.259 146.717 420.841 146.688 421.423 146.658C430.812 123.127 404.597 129.82 409.391 146.576Z" fill="#1C3B87"/>
<path d="M432.696 145.005C432.963 145.937 434.516 145.598 435.484 145.55C437.984 145.425 440.483 145.3 442.982 145.175C443.564 145.146 444.146 145.116 444.728 145.087C454.116 121.556 427.901 128.249 432.696 145.005Z" fill="#1C3B87"/>
<path d="M407.791 114.929C408.057 115.861 409.61 115.522 410.579 115.474C413.078 115.349 415.577 115.224 418.076 115.099C418.658 115.07 419.24 115.041 419.822 115.012C419.822 115.012 419.823 115.011 419.822 115.012C429.211 91.4801 402.996 98.1737 407.791 114.929Z" fill="#1C3B87"/>
<path d="M426.708 116.55C426.975 117.482 428.528 117.143 429.496 117.095C431.995 116.97 434.495 116.845 436.994 116.72C437.576 116.691 438.158 116.662 438.74 116.633C438.74 116.633 438.74 116.633 438.74 116.633C448.128 93.1012 421.913 99.7948 426.708 116.55Z" fill="#1C3B87"/>
<path d="M459.001 140.965C459.268 141.897 460.821 141.558 461.79 141.509C464.289 141.384 466.788 141.26 469.287 141.135C469.869 141.105 470.451 141.076 471.033 141.047C471.033 141.048 471.033 141.047 471.033 141.047C480.421 117.516 454.207 124.209 459.001 140.965Z" fill="#1C3B87"/>
<path d="M477.919 142.586C478.185 143.518 479.738 143.179 480.707 143.131C483.206 143.006 485.705 142.881 488.204 142.756C488.786 142.727 489.368 142.698 489.95 142.669C489.95 142.669 489.95 142.668 489.95 142.669C499.339 119.137 473.124 125.831 477.919 142.586Z" fill="#1C3B87"/>
<path d="M409.826 175.754C410.092 176.686 411.646 176.347 412.614 176.299C415.113 176.174 417.612 176.049 420.112 175.924C420.693 175.895 421.276 175.866 421.858 175.837C421.857 175.837 421.858 175.836 421.858 175.837C431.246 152.305 405.031 158.999 409.826 175.754Z" fill="#1C3B87"/>
<path d="M433.13 174.183C433.397 175.115 434.95 174.776 435.919 174.727C438.418 174.603 440.917 174.478 443.416 174.353C443.998 174.324 444.58 174.294 445.162 174.265C445.162 174.266 445.162 174.265 445.162 174.265C454.55 150.734 428.336 157.427 433.13 174.183Z" fill="#1C3B87"/>
<path d="M464.546 170.143C464.812 171.075 466.365 170.736 467.334 170.687C469.833 170.562 472.332 170.438 474.831 170.313C475.413 170.284 475.996 170.254 476.578 170.225C476.577 170.226 476.578 170.225 476.578 170.225C485.966 146.694 459.751 153.387 464.546 170.143Z" fill="#1C3B87"/>
<path d="M483.463 171.764C483.73 172.696 485.283 172.357 486.251 172.309C488.751 172.184 491.25 172.059 493.749 171.934C494.331 171.905 494.913 171.876 495.495 171.847C495.494 171.847 495.495 171.846 495.495 171.847C504.883 148.315 478.668 155.009 483.463 171.764Z" fill="#1C3B87"/>
<path d="M456.358 116.55C456.625 117.482 458.178 117.143 459.147 117.095C461.646 116.97 464.145 116.845 466.644 116.72C467.226 116.691 467.808 116.662 468.39 116.633C468.39 116.633 468.39 116.633 468.39 116.633C477.778 93.1012 451.563 99.7948 456.358 116.55Z" fill="#1C3B87"/>
<path d="M478.869 116.55C479.136 117.482 480.689 117.143 481.658 117.095C484.157 116.97 486.656 116.845 489.155 116.72C489.737 116.691 490.319 116.662 490.901 116.633C490.901 116.633 490.901 116.633 490.901 116.633C500.289 93.1012 474.074 99.7948 478.869 116.55Z" fill="#1C3B87"/>
</g>
<path d="M397.5 505L352 505L352 550L352 595L443 505L397.5 505Z" fill="#111EF7"/>
<path d="M448 595.417L448 549.209C448 523.688 468.688 503 494.208 503C519.729 503 540.417 523.688 540.417 549.209L540.417 595.417L448 595.417Z" fill="#2D6438"/>
<g clip-path="url(#clip15_1310_191)">
<path d="M87.1321 604.768C85.5194 587.649 82.8066 569.634 79.0161 552.862C77.4827 546.078 75.7449 539.257 72.5014 533.104C64.0431 517.059 46.7825 507.848 34.9192 494.127C48.7572 504.176 63.2066 513.383 78.1607 521.68C79.4421 522.391 80.958 521.266 80.6772 519.828C75.8879 495.292 74.8153 470.032 77.5157 445.178C83.5801 441.356 86.1651 477.301 89.215 495.717C106.166 474.913 107.38 450.636 127.458 432.832C130.317 432.832 128.645 440.228 125.014 445.996C116.584 459.387 102.506 494.149 102.805 509.97C113.122 507.563 127.132 491.458 137.449 489.051C126.837 496.35 115.809 504.109 109.902 515.555C103.607 527.751 104.11 542.194 104.764 555.904C105.49 571.134 106.216 586.363 106.942 601.593C107.013 603.067 106.959 604.809 105.746 605.651C104.895 606.241 103.764 606.158 102.734 606.051C97.8968 605.547 93.0597 605.044 88.2227 604.541" fill="#1C3B87"/>
<path d="M22.0703 483.962C25.1649 488.394 28.6592 492.529 32.4422 496.235L22.0703 483.962Z" fill="#1C3B87"/>
<path d="M22.5096 483.655C28.6493 484.762 32.5851 489.7 32.8174 495.852C32.8173 495.852 32.0669 496.618 32.0669 496.618C25.662 496.474 20.5511 490.675 21.6304 484.269C21.6306 484.269 22.5096 483.655 22.5096 483.655Z" fill="#1C3B87"/>
<path d="M21.2959 503.47C26.606 504.483 31.9946 505.003 37.2904 505.015L21.2959 503.47Z" fill="#1C3B87"/>
<path d="M21.3962 502.944C26.5645 499.45 32.8295 500.236 37.2915 504.479C37.2914 504.479 37.2891 505.551 37.2891 505.551C32.6031 509.92 24.8955 509.337 21.1953 503.997C21.1954 503.997 21.3962 502.944 21.3962 502.944Z" fill="#1C3B87"/>
<path d="M29.2932 473.092C30.9455 478.239 33.0673 483.219 35.5913 487.875L29.2932 473.092Z" fill="#1C3B87"/>
<path d="M29.8035 472.928C35.345 475.794 37.6523 481.672 36.0627 487.62C36.0625 487.62 35.1199 488.131 35.1199 488.131C29.0415 486.107 25.8646 479.06 28.7825 473.256C28.7827 473.256 29.8035 472.928 29.8035 472.928Z" fill="#1C3B87"/>
<path d="M3.22778 449.448C6.90326 453.412 10.9338 457.027 15.1911 460.176L3.22778 449.448Z" fill="#1C3B87"/>
<path d="M3.62087 449.084C9.85432 449.335 14.4327 453.684 15.51 459.745C15.5098 459.745 14.8722 460.607 14.8722 460.607C8.50845 461.346 2.64763 456.307 2.83455 449.813C2.83464 449.813 3.62087 449.084 3.62087 449.084Z" fill="#1C3B87"/>
<path d="M40.501 450.595C42.1532 455.742 44.2751 460.723 46.7991 465.379L40.501 450.595Z" fill="#1C3B87"/>
<path d="M41.0113 450.432C46.5527 453.297 48.86 459.175 47.2704 465.123L46.3277 465.634C40.2493 463.61 37.0724 456.563 39.9902 450.759L41.0113 450.432Z" fill="#1C3B87"/>
<path d="M0.397949 472.161C4.07132 476.127 8.09994 479.743 12.3555 482.895L0.397949 472.161Z" fill="#1C3B87"/>
<path d="M0.791241 471.797C7.02469 472.051 11.6007 476.402 12.6747 482.464L12.0365 483.326C5.67233 484.062 -0.185895 479.019 0.00451751 472.525L0.791241 471.797Z" fill="#1C3B87"/>
<path d="M22.4897 451.741C25.4124 456.289 28.7459 460.554 32.3842 464.402L22.4897 451.741Z" fill="#1C3B87"/>
<path d="M22.9407 451.451C29.0333 452.793 32.7773 457.877 32.7739 464.034L31.9946 464.771C25.6 464.381 20.7148 458.391 22.0385 452.031L22.9407 451.451Z" fill="#1C3B87"/>
<path d="M51.2166 468.545C52.8688 473.692 54.9906 478.673 57.5146 483.329L51.2166 468.545Z" fill="#1C3B87"/>
<path d="M51.7269 468.381C57.2682 471.247 59.5756 477.125 57.9859 483.073C57.9858 483.073 57.0433 483.584 57.0433 483.584C50.9649 481.56 47.788 474.513 50.7058 468.709C50.706 468.709 51.7269 468.381 51.7269 468.381Z" fill="#1C3B87"/>
<path d="M142.792 424.431C138.841 428.121 135.241 432.164 132.106 436.432L142.792 424.431Z" fill="#1C3B87"/>
<path d="M143.158 424.823C142.929 431.057 138.596 435.651 132.538 436.749C132.538 436.749 131.674 436.114 131.674 436.114C130.913 429.753 135.932 423.875 142.426 424.039C142.427 424.039 143.158 424.823 143.158 424.823Z" fill="#1C3B87"/>
<path d="M157.677 420.556C153.726 424.245 150.126 428.288 146.991 432.556L157.677 420.556Z" fill="#1C3B87"/>
<path d="M158.043 420.948C157.814 427.182 153.481 431.776 147.423 432.874C147.423 432.874 146.559 432.239 146.559 432.239C145.797 425.878 150.817 420 157.311 420.164C157.311 420.164 158.043 420.948 158.043 420.948Z" fill="#1C3B87"/>
<path d="M141.21 407.454C137.599 411.477 134.369 415.821 131.623 420.349L141.21 407.454Z" fill="#1C3B87"/>
<path d="M141.609 407.812C141.93 414.042 138.019 419 132.081 420.627L131.164 420.071C129.846 413.802 134.328 407.504 140.811 407.096L141.609 407.812Z" fill="#1C3B87"/>
<path d="M42.0378 479.881C42.0831 485.287 42.6263 490.673 43.6501 495.869L42.0378 479.881Z" fill="#1C3B87"/>
<path d="M42.5737 479.877C47.0109 484.262 47.464 490.56 44.1759 495.765L43.1239 495.973C37.9234 492.231 36.9881 484.558 41.5014 479.886L42.5737 479.877Z" fill="#1C3B87"/>
<path d="M47.4185 437.871C51.2121 441.722 55.3499 445.213 59.7004 448.233L47.4185 437.871Z" fill="#1C3B87"/>
<path d="M47.8005 437.495C54.0388 437.557 58.7464 441.766 60.0063 447.792C60.0062 447.792 59.3949 448.673 59.3949 448.673C53.0564 449.604 47.0459 444.743 47.0366 438.247C47.0367 438.247 47.8005 437.495 47.8005 437.495Z" fill="#1C3B87"/>
<path d="M15.1549 432.69C18.9486 436.541 23.0864 440.032 27.4369 443.052L15.1549 432.69Z" fill="#1C3B87"/>
<path d="M15.5368 432.314C21.775 432.377 26.4827 436.585 27.7426 442.611C27.7425 442.611 27.1311 443.492 27.1311 443.492C20.7927 444.423 14.7822 439.563 14.7728 433.066C14.7729 433.066 15.5368 432.314 15.5368 432.314Z" fill="#1C3B87"/>
<path d="M28.7783 417.727C32.5719 421.578 36.7097 425.069 41.0602 428.089L28.7783 417.727Z" fill="#1C3B87"/>
<path d="M29.1601 417.351C35.3984 417.413 40.106 421.622 41.3659 427.648L40.7545 428.529C34.416 429.46 28.4056 424.6 28.3962 418.103L29.1601 417.351Z" fill="#1C3B87"/>
<path d="M95.7652 410.325C92.7811 414.832 90.2205 419.602 88.165 424.483L95.7652 410.325Z" fill="#1C3B87"/>
<path d="M96.2121 410.621C97.4399 416.737 94.2951 422.213 88.6592 424.691C88.6591 424.691 87.6709 424.275 87.6709 424.275C85.4501 418.265 88.9638 411.38 95.318 410.029C95.3181 410.029 96.2121 410.621 96.2121 410.621Z" fill="#1C3B87"/>
<path d="M177.699 449.448C174.715 453.956 172.155 458.726 170.099 463.606L177.699 449.448Z" fill="#1C3B87"/>
<path d="M178.146 449.744C179.374 455.861 176.23 461.337 170.593 463.814C170.593 463.814 169.605 463.398 169.605 463.398C167.385 457.389 170.898 450.504 177.252 449.152C177.252 449.152 178.146 449.744 178.146 449.744Z" fill="#1C3B87"/>
<path d="M84.906 393.296C81.9219 397.804 79.3614 402.573 77.3059 407.454L84.906 393.296Z" fill="#1C3B87"/>
<path d="M85.3531 393.592C86.5807 399.709 83.436 405.184 77.8001 407.662L76.8118 407.246C74.5911 401.237 78.1046 394.352 84.4588 393L85.3531 393.592Z" fill="#1C3B87"/>
<path d="M91.9649 433.392C89.4633 438.184 87.4104 443.193 85.8711 448.26L91.9649 433.392Z" fill="#1C3B87"/>
<path d="M92.4403 433.64C94.2945 439.596 91.7336 445.368 86.3843 448.416C86.3841 448.416 85.3582 448.104 85.3582 448.104C82.5274 442.357 85.3096 435.145 91.4897 433.143C91.4898 433.144 92.4403 433.64 92.4403 433.64Z" fill="#1C3B87"/>
<path d="M98.059 462.93C95.5574 467.722 93.5044 472.731 91.9651 477.798L98.059 462.93Z" fill="#1C3B87"/>
<path d="M98.534 463.178C100.388 469.134 97.8272 474.906 92.478 477.954L91.452 477.642C88.6212 471.895 91.4033 464.684 97.5835 462.682L98.534 463.178Z" fill="#1C3B87"/>
<path d="M105.619 417.404C103.117 422.196 101.064 427.205 99.5249 432.272L105.619 417.404Z" fill="#1C3B87"/>
<path d="M106.094 417.652C107.948 423.608 105.387 429.38 100.038 432.428C100.038 432.428 99.0121 432.116 99.0121 432.116C96.1812 426.369 98.9634 419.158 105.144 417.156C105.144 417.156 106.094 417.652 106.094 417.652Z" fill="#1C3B87"/>
<path d="M108.666 437.871C106.164 442.663 104.111 447.672 102.572 452.74L108.666 437.871Z" fill="#1C3B87"/>
<path d="M109.141 438.119C110.995 444.076 108.434 449.847 103.085 452.895C103.085 452.895 102.059 452.584 102.059 452.584C99.2281 446.837 102.01 439.625 108.19 437.623C108.19 437.623 109.141 438.119 109.141 438.119Z" fill="#1C3B87"/>
<path d="M79.4937 424.838C79.5389 430.244 80.0821 435.63 81.1059 440.826L79.4937 424.838Z" fill="#1C3B87"/>
<path d="M80.0298 424.834C84.4669 429.219 84.9202 435.517 81.632 440.722C81.6319 440.722 80.5799 440.93 80.5799 440.93C75.3795 437.188 74.4442 429.515 78.9574 424.843C78.9576 424.843 80.0298 424.834 80.0298 424.834Z" fill="#1C3B87"/>
<path d="M51.4751 410.822C52.9475 416.024 54.8951 421.075 57.2559 425.815L51.4751 410.822Z" fill="#1C3B87"/>
<path d="M51.9908 410.676C57.4294 413.733 59.5312 419.687 57.7359 425.576C57.7358 425.576 56.776 426.054 56.776 426.054C50.7715 423.82 47.8414 416.668 50.9592 410.968C50.9593 410.968 51.9908 410.676 51.9908 410.676Z" fill="#1C3B87"/>
<path d="M59.49 459.832C63.2294 463.736 67.3181 467.284 71.6259 470.364L59.49 459.832Z" fill="#1C3B87"/>
<path d="M59.8771 459.461C66.1138 459.611 70.7622 463.884 71.9378 469.928C71.9377 469.928 71.3141 470.8 71.3141 470.8C64.9633 471.643 59.0212 466.698 59.1026 460.203C59.1028 460.203 59.8771 459.461 59.8771 459.461Z" fill="#1C3B87"/>
<path d="M65.5579 413.901C67.6234 418.897 70.1434 423.689 73.0378 428.123L65.5579 413.901Z" fill="#1C3B87"/>
<path d="M66.0533 413.697C71.8095 416.102 74.5874 421.773 73.4869 427.83C73.4868 427.83 72.589 428.416 72.589 428.416C66.366 426.894 62.6264 420.129 65.0624 414.106C65.0626 414.106 66.0533 413.697 66.0533 413.697Z" fill="#1C3B87"/>
<path d="M65.5579 433.715C67.6234 438.711 70.1434 443.502 73.0378 447.937L65.5579 433.715Z" fill="#1C3B87"/>
<path d="M66.0533 433.51C71.8095 435.916 74.5874 441.586 73.4869 447.644L72.589 448.23C66.366 446.707 62.6264 439.942 65.0624 433.92L66.0533 433.51Z" fill="#1C3B87"/>
<path d="M116.209 417.727C118.275 422.723 120.795 427.514 123.689 431.949L116.209 417.727Z" fill="#1C3B87"/>
<path d="M116.704 417.522C122.461 419.928 125.239 425.598 124.138 431.656L123.24 432.242C117.017 430.719 113.278 423.954 115.714 417.932L116.704 417.522Z" fill="#1C3B87"/>
<path d="M146.266 439.408C141.243 441.406 136.418 443.861 131.944 446.695L146.266 439.408Z" fill="#1C3B87"/>
<path d="M146.464 439.906C143.981 445.63 138.274 448.33 132.231 447.148C132.231 447.148 131.657 446.242 131.657 446.242C133.264 440.04 140.079 436.393 146.068 438.91C146.068 438.91 146.464 439.906 146.464 439.906Z" fill="#1C3B87"/>
<path d="M164.932 472.54C160.403 475.492 156.159 478.853 152.334 482.516L164.932 472.54Z" fill="#1C3B87"/>
<path d="M165.224 472.989C163.922 479.09 158.861 482.867 152.705 482.903C152.705 482.903 151.963 482.129 151.963 482.129C152.311 475.732 158.27 470.808 164.639 472.091C164.639 472.091 165.224 472.989 165.224 472.989Z" fill="#1C3B87"/>
<path d="M155.17 492.605C149.8 491.978 144.388 491.849 139.105 492.219L155.17 492.605Z" fill="#1C3B87"/>
<path d="M155.108 493.137C150.205 496.995 143.9 496.663 139.143 492.754C139.143 492.754 139.068 491.684 139.068 491.684C143.426 486.989 151.156 487.014 155.232 492.072C155.232 492.072 155.108 493.137 155.108 493.137Z" fill="#1C3B87"/>
<path d="M147.138 507.521C141.768 506.894 136.356 506.765 131.073 507.135L147.138 507.521Z" fill="#1C3B87"/>
<path d="M147.075 508.053C142.173 511.912 135.867 511.579 131.111 507.67L131.036 506.601C135.394 501.905 143.124 501.93 147.2 506.988L147.075 508.053Z" fill="#1C3B87"/>
<path d="M147.137 472.54C143.808 476.799 140.88 481.353 138.447 486.056L147.137 472.54Z" fill="#1C3B87"/>
<path d="M147.56 472.87C148.303 479.064 144.737 484.276 138.924 486.303L137.971 485.81C136.23 479.645 140.274 473.057 146.715 472.21L147.56 472.87Z" fill="#1C3B87"/>
<path d="M124.679 475.937C123.925 481.29 123.665 486.697 123.91 491.987L124.679 475.937Z" fill="#1C3B87"/>
<path d="M125.21 476.012C128.95 481.005 128.467 487.301 124.445 491.963L123.374 492.012C118.784 487.543 118.993 479.816 124.148 475.862L125.21 476.012Z" fill="#1C3B87"/>
<path d="M161.024 454.812C157.695 459.071 154.767 463.625 152.334 468.329L161.024 454.812Z" fill="#1C3B87"/>
<path d="M161.447 455.143C162.189 461.337 158.624 466.548 152.81 468.575C152.81 468.575 151.858 468.082 151.858 468.082C150.117 461.917 154.161 455.33 160.602 454.482C160.602 454.482 161.447 455.143 161.447 455.143Z" fill="#1C3B87"/>
<path d="M137.352 453.537C136.92 458.925 136.985 464.338 137.546 469.604L137.352 453.537Z" fill="#1C3B87"/>
<path d="M137.887 453.579C141.919 458.34 141.814 464.653 138.079 469.548C138.079 469.548 137.013 469.661 137.013 469.661C132.163 465.475 131.909 457.749 136.818 453.494C136.818 453.494 137.887 453.579 137.887 453.579Z" fill="#1C3B87"/>
<path d="M60.3933 487.875C60.4386 493.281 60.9817 498.667 62.0055 503.863L60.3933 487.875Z" fill="#1C3B87"/>
<path d="M60.9294 487.87C65.3665 492.256 65.8198 498.554 62.5316 503.759C62.5315 503.759 61.4796 503.966 61.4796 503.966C56.2791 500.225 55.3438 492.552 59.8572 487.879C59.8573 487.879 60.9294 487.87 60.9294 487.87Z" fill="#1C3B87"/>
</g>
<defs>
<clipPath id="clip0_1310_191">
<rect width="91.4015" height="91.4015" fill="white" transform="translate(258.748 595) rotate(90)"/>
</clipPath>
<clipPath id="clip1_1310_191">
<rect width="92.4171" height="91.4015" fill="white" transform="translate(167.346 411.615) rotate(-180)"/>
</clipPath>
<clipPath id="clip2_1310_191">
<rect width="92.4171" height="91.4015" fill="white" transform="translate(167.346 227.796) rotate(-180)"/>
</clipPath>
<clipPath id="clip3_1310_191">
<rect width="91.4015" height="92.4171" fill="white" transform="translate(351.165 412.63) rotate(90)"/>
</clipPath>
<clipPath id="clip4_1310_191">
<rect width="92.4171" height="92.4171" fill="white" transform="translate(167.346 227.796) rotate(90)"/>
</clipPath>
<clipPath id="clip5_1310_191">
<rect width="91.4015" height="91.4015" fill="white" transform="translate(258.748 504.032) rotate(90)"/>
</clipPath>
<clipPath id="clip6_1310_191">
<rect width="91.4015" height="91.4015" fill="white" transform="translate(258.748 412.63) rotate(90)"/>
</clipPath>
<clipPath id="clip7_1310_191">
<rect width="91.4015" height="92.4171" fill="white" transform="translate(351.165 320.213) rotate(90)"/>
</clipPath>
<clipPath id="clip8_1310_191">
<rect width="91.4015" height="92.4171" fill="white" transform="translate(351.165 504.032) rotate(90)"/>
</clipPath>
<clipPath id="clip9_1310_191">
<rect width="183.819" height="91.4015" fill="white" transform="translate(258.748 228.812) rotate(90)"/>
</clipPath>
<clipPath id="clip10_1310_191">
<rect width="91.4015" height="92.4171" fill="white" transform="translate(351.165 228.812) rotate(90)"/>
</clipPath>
<clipPath id="clip11_1310_191">
<rect width="62.7083" height="92.5484" fill="white" transform="translate(361.646 634.395)"/>
</clipPath>
<clipPath id="clip12_1310_191">
<rect width="97" height="116" fill="white" transform="translate(461.623 287) rotate(7.24172)"/>
</clipPath>
<clipPath id="clip13_1310_191">
<rect width="140.861" height="104.896" fill="white" transform="translate(330.677 375.65)"/>
</clipPath>
<clipPath id="clip14_1310_191">
<rect width="213" height="244" fill="white" transform="translate(305)"/>
</clipPath>
<clipPath id="clip15_1310_191">
<rect width="178.41" height="213.127" fill="white" transform="translate(0 393)"/>
</clipPath>
</defs>
</svg>
