<svg width="1067" height="485" viewBox="0 0 1067 485" fill="none" xmlns="http://www.w3.org/2000/svg">
<g clip-path="url(#clip0_1640_3829)">
<path d="M325.548 -204.087C343.913 -232.997 318.208 -227.413 343.349 -249.985C372.481 -276.139 359.882 -294.969 467.11 -314.141C507.686 -321.396 557.222 -264.13 598.438 -263.612C647.743 -262.991 700.442 -334.085 749.289 -327.343C753.853 -326.713 758.68 -325.94 762.185 -322.948C765.193 -320.38 766.762 -316.567 768.709 -313.124C781.979 -289.666 813.018 -283.356 839.924 -284.765C866.83 -286.175 894.392 -292.702 920.256 -285.151C950.901 -276.204 973.489 -248.998 1003.93 -239.381C1018.7 -234.713 1034.61 -234.451 1049.32 -229.592C1064.03 -224.733 1078.4 -213.071 1078.99 -197.584C1079.39 -187.099 1073.48 -177.588 1069.56 -167.857C1061.11 -146.875 1076.85 -152.754 1076.85 -129.86C1076.85 -83.5185 1063.14 -108.125 1045.19 -79.289C1029.94 -54.7882 1045.19 -7.9231 1061.99 20.6323C1070.67 35.3698 1080.66 49.4426 1085.82 65.7456C1090.12 79.3292 1087.06 94.0464 1083.52 107.847C1077.89 129.758 1071.13 151.375 1063.26 172.582C1059.19 183.541 1054.77 194.675 1054.52 206.362C1054.13 225.073 1064.36 242.1 1070.3 259.847C1086.87 309.376 1069.73 363.183 1052.68 412.55C1046.56 430.273 1039.62 449.136 1024.4 460.078C1010.59 470.003 992.578 471.459 975.579 471.73C939.455 472.304 903.273 469.079 867.82 462.125C853.607 459.337 838.051 454.949 830.41 442.64C827.241 437.537 825.57 431.232 820.823 427.552C816.894 424.505 811.654 423.91 806.706 423.426C776.473 420.472 753.273 437.026 723.04 434.072C713.817 433.171 697.297 412.783 688.393 415.352C679.449 417.932 671.875 423.761 663.927 428.607C612.088 460.211 608.055 370.14 558.476 335.094C526.559 312.532 423.083 450.214 387.493 434.062C374.229 428.043 370.786 333.187 361.53 321.937C349.666 307.517 351.292 286.036 358.168 268.672C367.765 244.437 383.901 225.717 387.397 199.039C390.958 171.876 346.32 177.151 336.471 151.823C320.531 110.833 341.848 78.3997 324.818 37.8512C312.321 8.0976 335.277 -73.552 333.272 -105.756C331.515 -133.98 330.688 -144.69 346.015 -169.796C346.444 -170.499 325.104 -203.387 325.548 -204.087Z" fill="#FDF5DA"/>
<path d="M326.473 -203.546C331.484 -211.567 334.905 -219.396 333.108 -228.86C332.523 -231.942 332.334 -234.56 333.783 -237.464C336.356 -242.62 341.203 -246.515 345.342 -250.354C353.678 -258.09 359.89 -267.567 367.647 -275.808C377.896 -286.698 391.327 -293.239 405.283 -298.111C417.719 -302.453 430.552 -305.63 443.416 -308.41C457.649 -311.485 472.068 -315.596 486.577 -312.211C512.277 -306.215 534.214 -288.618 557.054 -276.256C567.583 -270.557 578.8 -265.178 590.719 -263.249C601.648 -261.48 612.58 -263.447 622.873 -267.269C647.328 -276.351 668.138 -293.246 690.101 -306.888C700.995 -313.653 712.382 -320.102 724.713 -323.842C730.116 -325.48 735.704 -326.568 741.359 -326.707C748.53 -326.882 758.114 -326.312 763.074 -320.513C765.539 -317.633 766.89 -313.905 768.899 -310.719C770.554 -308.096 772.479 -305.64 774.614 -303.392C778.914 -298.865 784.109 -295.221 789.677 -292.425C801.577 -286.451 815.068 -284.053 828.284 -283.588C845.749 -282.974 863.094 -286.139 880.481 -287.247C898.805 -288.415 916.787 -286.918 933.516 -278.848C947.604 -272.052 960.024 -262.397 973.055 -253.858C986.542 -245.019 1000.4 -238.303 1016.33 -235.255C1032.72 -232.118 1050.28 -231.091 1064.13 -220.748C1070.41 -216.056 1075.75 -209.534 1077.4 -201.72C1079.31 -192.705 1075.59 -184.041 1071.96 -175.99C1069.41 -170.33 1066.02 -164.147 1066 -157.767C1065.98 -154.115 1067.52 -151.234 1069.61 -148.35C1072.31 -144.614 1074.44 -140.945 1075.27 -136.325C1076.6 -128.869 1075.95 -120.339 1074.81 -112.874C1073.65 -105.338 1071.02 -100.616 1064.12 -97.3911C1056.75 -93.9437 1051.01 -89.5701 1046.25 -82.8307C1030.69 -60.7626 1039.11 -29.1405 1047.99 -6.11945C1053.47 8.09277 1060.92 21.0082 1068.84 33.9707C1078.61 49.9645 1088.24 66.5797 1086.61 85.9804C1085.82 95.336 1083.33 104.49 1080.92 113.531C1078.4 122.969 1075.67 132.35 1072.73 141.665C1069.79 150.98 1066.64 160.229 1063.29 169.403C1060.26 177.69 1056.87 185.919 1054.96 194.561C1051.2 211.548 1056.16 227.09 1062.54 242.749C1069.49 259.82 1074.79 276.595 1075.76 295.153C1077.69 332.177 1066.52 368.572 1054.75 403.221C1049.6 418.401 1044.84 434.497 1035.28 447.601C1024.73 462.06 1008.73 468.146 991.406 469.86C973.399 471.642 954.918 470.888 936.888 469.823C916.89 468.642 896.962 466.299 877.237 462.798C862.686 460.215 845.138 457.815 834.573 446.345C829.577 440.921 828.129 433.159 822.908 427.981C817.996 423.109 810.481 422.53 803.935 422.136C787.903 421.172 772.578 425.861 757.179 429.568C749.101 431.513 740.909 433.098 732.58 433.326C729.072 433.421 724.982 433.682 721.589 432.676C719.001 431.908 716.634 430.265 714.444 428.739C709.675 425.415 705.284 421.572 700.443 418.349C697.161 416.164 693.072 413.581 688.936 414.154C681.85 415.136 674.867 420.354 669.024 424.11C663.885 427.413 658.746 430.778 652.885 432.66C634.169 438.667 621.796 423.377 612.957 409.07C601.325 390.245 592.266 369.875 578.258 352.572C574.658 348.125 570.756 343.912 566.479 340.107C563.497 337.454 560.234 334.389 556.524 332.786C552.074 330.863 547.022 331.393 542.476 332.681C527.748 336.855 514.704 347.499 502.923 356.831C486.926 369.504 471.758 383.184 456.179 396.358C442.426 407.989 428.312 420.094 412.306 428.554C406.96 431.38 400.972 434.078 394.827 434.297C389.453 434.489 386.255 432.732 384.058 427.855C380.783 420.582 379.386 412.322 377.956 404.533C376.074 394.284 374.633 383.956 373.192 373.638C371.783 363.557 370.448 353.458 368.72 343.426C367.595 336.897 366.642 329.75 363.801 323.689C361.716 319.239 358.294 315.797 356.543 311.054C353.908 303.911 353.424 296.127 354.228 288.601C355.966 272.351 363.968 257.863 371.562 243.704C379.051 229.74 386.49 215.28 388.43 199.324C389.444 190.983 385.934 184.457 379.086 179.812C371.143 174.424 361.647 171.786 353.239 167.247C348.75 164.823 344.412 161.884 341.192 157.869C336.566 152.101 334.688 144.135 333.23 137.042C329.875 120.72 331.644 104.192 332.557 87.7285C333.449 71.6407 332.772 55.5663 326.965 40.3502C318.861 19.1143 322.43 -4.70032 325.323 -26.7086C328.422 -50.273 333.56 -73.9171 334.398 -97.7183C334.828 -109.925 332.662 -122.084 333.741 -134.3C334.283 -140.445 335.755 -146.427 338.046 -152.151C339.431 -155.612 341.091 -158.962 342.871 -162.234C343.99 -164.291 347.196 -167.799 347.053 -170.127C346.947 -171.854 344.861 -174.235 344.016 -175.636C341.755 -179.381 339.435 -183.089 337.124 -186.803C334.805 -190.53 332.478 -194.252 330.195 -198.002C329.345 -199.396 328.493 -200.79 327.683 -202.208C327.371 -202.753 326.692 -204.624 326.581 -203.802C326.763 -205.15 324.7 -205.734 324.516 -204.371C324.292 -202.712 326.17 -200.536 326.95 -199.228C329.249 -195.375 331.635 -191.572 334.005 -187.762C336.521 -183.717 339.051 -179.678 341.528 -175.607C342.358 -174.243 343.194 -172.88 343.982 -171.491C345.094 -169.531 344.924 -169.915 343.634 -167.913C336.708 -157.165 332.157 -144.709 331.426 -131.922C330.731 -119.752 332.793 -107.64 332.157 -95.4782C330.867 -70.8347 325.608 -46.4506 322.579 -21.9913C321.079 -9.87625 319.825 2.35889 320.02 14.5823C320.098 19.4717 320.418 24.3823 321.279 29.2016C322.273 34.7685 324.616 39.7022 326.356 45.0499C336.848 77.2988 323.561 111.272 332.647 143.744C334.272 149.553 336.194 155.336 340.171 159.976C343.287 163.612 347.294 166.401 351.455 168.713C359.955 173.435 369.586 176.078 377.715 181.471C381.463 183.958 384.749 187.254 385.967 191.702C387.764 198.267 385.312 206.043 383.403 212.316C378.658 227.915 369.771 241.705 362.593 256.218C355.95 269.651 350.716 284.148 351.901 299.376C352.427 306.138 354.274 312.856 357.864 318.65C359.684 321.586 361.717 323.788 362.839 327.083C365.371 334.523 366.47 342.528 367.68 350.265C369.331 360.813 370.708 371.402 372.221 381.97C373.665 392.05 375.152 402.146 377.27 412.111C378.656 418.628 380.024 426.138 383.743 431.82C389.731 440.971 404.443 434.925 411.851 431.197C427.824 423.161 441.889 411.164 455.496 399.727C471.355 386.396 486.74 372.491 502.926 359.55C514.967 349.923 528.656 338.423 543.93 334.507C549.182 333.161 554.198 333.341 558.691 336.56C568.614 343.669 576.664 353.236 583.54 363.234C595.978 381.319 604.298 402.09 617.506 419.632C622.049 425.665 627.513 431.501 634.634 434.417C642.062 437.458 650.032 436.384 657.257 433.288C663.454 430.632 668.904 426.612 674.618 423.093C680.451 419.501 687.756 414.258 694.676 417.463C699.875 419.871 704.366 423.828 708.884 427.279C712.685 430.182 716.859 433.735 721.614 434.907C728.373 436.572 736.509 435.492 743.305 434.513C751.324 433.358 759.164 431.299 767.008 429.312C775.201 427.237 783.454 425.239 791.893 424.485C800 423.761 810.822 423.178 818.217 427.147C825.349 430.976 826.833 440.195 831.606 446.168C835.722 451.32 841.41 454.893 847.418 457.448C854.094 460.287 861.198 461.922 868.295 463.306C877.92 465.183 887.6 466.776 897.317 468.1C916.334 470.69 935.49 472.237 954.678 472.709C971.581 473.125 989.409 473.799 1005.93 469.553C1020.83 465.722 1032.52 456.764 1040.47 443.645C1048.79 429.919 1053.41 414.004 1058.47 398.885C1070.04 364.306 1080.61 327.724 1077.61 290.864C1076.17 273.189 1070.69 257.209 1064.08 240.897C1060.84 232.899 1057.72 224.745 1056.32 216.191C1054.72 206.38 1056.18 196.796 1059.13 187.383C1064.81 169.238 1072.05 151.631 1077.52 133.391C1080.31 124.078 1082.94 114.705 1085.27 105.264C1087.41 96.5827 1089.23 87.6474 1088.98 78.6587C1088.48 61.2439 1078.4 45.4652 1069.57 31.0653C1061.25 17.4856 1053.72 3.78986 1048.36 -11.2654C1039.68 -35.6318 1032.46 -69.3246 1054.44 -88.9916C1059.3 -93.3447 1065.84 -94.6526 1070.73 -98.767C1077.07 -104.106 1077.41 -114.24 1077.75 -121.821C1078.06 -128.492 1078.43 -135.583 1075.92 -141.916C1074.47 -145.591 1071.9 -148.385 1069.89 -151.711C1067.04 -156.405 1068.32 -161.554 1070.14 -166.413C1073.18 -174.491 1077.83 -182.02 1079.47 -190.587C1082.13 -204.428 1074.5 -216.387 1063.32 -223.938C1049.16 -233.506 1031.73 -234.344 1015.47 -237.599C999.003 -240.893 984.834 -248.509 971.005 -257.786C957.923 -266.561 945.215 -276.206 930.671 -282.492C897.28 -296.924 862.352 -284.379 827.723 -285.751C813.376 -286.319 798.476 -289.225 786.115 -296.863C779.981 -300.653 774.601 -305.677 770.749 -311.8C767.108 -317.587 765.057 -323.782 758.198 -326.465C747.32 -330.72 734.084 -329.05 723.246 -325.63C711.421 -321.898 700.443 -315.785 689.932 -309.302C667.307 -295.347 645.866 -277.529 620.5 -268.686C609.053 -264.695 597.315 -263.481 585.498 -266.541C572.754 -269.841 560.977 -276.316 549.657 -282.87C537.671 -289.811 525.99 -297.304 513.699 -303.709C503.21 -309.176 492.01 -314.126 480.154 -315.506C474.299 -316.187 468.773 -315.541 463.012 -314.483C454.388 -312.899 445.788 -311.18 437.238 -309.231C424.799 -306.397 412.388 -303.141 400.441 -298.626C387.304 -293.661 374.978 -286.978 365.402 -276.537C357.277 -267.679 350.482 -258.018 341.587 -249.831C336.156 -244.83 329.486 -238.648 330.625 -230.562C331.032 -227.666 331.829 -224.927 331.645 -221.964C331.254 -215.675 327.88 -209.841 324.624 -204.627C323.891 -203.455 325.743 -202.378 326.473 -203.546Z" fill="#FDF5DA"/>
<path d="M961.788 472.61C949.586 447.085 935.488 418.311 922.908 392.717C920.771 388.246 918.402 383.996 916.005 379.663C913.713 375.417 911.401 371.063 909.97 366.422C908.025 358.991 910.335 351.218 908.725 343.825C908.469 342.682 908.109 341.617 907.489 340.96C906.528 339.82 904.529 339.963 903.016 339.86C903.016 339.861 901.167 339.791 901.167 339.791L897.469 339.651C893.75 339.562 886.387 339.214 882.678 339.117C880.236 339.035 877.818 339.013 875.505 339.362C869.953 340.171 867.818 342.645 865.213 347.411C860.609 356.168 853.712 355.754 844.802 355.638C841.09 355.634 833.688 355.525 829.982 355.508C827.478 355.455 824.792 355.305 822.163 354.317C815.656 351.757 812.329 345.179 807.989 340.243C807.724 339.965 806.443 338.535 806.121 338.19C803.579 335.475 798.689 329.959 796.164 327.241C792.896 323.471 789.247 320.159 785.135 317.296C783.123 315.806 781.042 314.378 779.127 312.806C775.22 309.725 772.099 305.918 768.76 302.29C765.465 298.626 762.207 294.911 759.009 291.134C752.615 283.575 746.443 275.775 740.412 267.869C728.395 252.081 716.246 236.29 706.393 219.03C700.209 208.328 694.721 197.083 690.148 185.596C683.81 169.753 679.574 152.632 670.655 138.037C660.471 120.307 643.548 111.379 625.957 102.204C608.501 92.7325 591.286 82.5437 576.385 69.258C573.559 66.6011 570.527 64.1927 568.453 60.8017C565.204 54.9116 566.037 47.8141 567.245 41.5029C569.234 31.664 574.364 22.758 578.541 13.8086C580.374 10.0687 582.583 4.14487 584.199 0.21788C589.794 -13.4988 594.863 -27.3832 600.042 -41.2623C605.34 -55.1196 611.079 -68.8052 617.218 -82.3092C625.27 -100.368 635.605 -117.296 644.186 -135.067C648.555 -144.514 658.328 -165.758 662.689 -175.43C663.19 -175.42 661.579 -175.562 664.314 -176.182C665.116 -175.854 666.735 -175.122 667.569 -174.748C676.481 -170.773 688.965 -164.996 697.907 -160.985C704.084 -158.115 710.515 -155.558 717.313 -154.615C717.932 -154.541 718.59 -154.471 719.14 -154.494C720.825 -154.576 722.196 -153.029 721.918 -151.367C721.036 -145.534 719.538 -140.154 718.343 -134.692C718.343 -134.692 718.34 -134.685 718.34 -134.685C718.317 -134.658 718.3 -134.671 718.284 -134.641C718.272 -134.606 718.28 -134.471 718.419 -134.26C719.737 -132.526 722.085 -131.618 724.129 -130.724C732.393 -127.578 741.29 -126.234 750.054 -125.043C763.445 -123.382 777 -122.484 790.507 -122.094C797.194 -121.979 803.961 -121.739 810.601 -122.366C816.721 -123.53 824.264 -124.894 827.599 -130.737C828.83 -133.031 829.495 -135.563 831.063 -137.758C835.949 -144.729 846.571 -141.105 853.593 -141.764C858.009 -141.862 862.82 -141.944 867.235 -141.961C871.767 -141.985 875.955 -144.401 880.437 -144.674C886.139 -144.971 891.849 -145.384 897.62 -144.432C900.04 -144.012 902.542 -143.366 904.789 -142.052C907.764 -141.083 905.909 -135.715 905.393 -133.639C903.467 -127.134 900.815 -120.822 898.666 -114.459C898.094 -112.578 897.228 -110.394 897.137 -108.452C898.143 -103.602 914.527 -99.4011 919.279 -97.9013C921.442 -97.2556 923.604 -96.6594 925.817 -95.861C934.161 -92.8927 955.337 -85.0243 963.874 -81.9637C961.528 -82.1313 1042.8 -80.6286 1042.36 -80.6366C1043.19 -80.6217 1043.85 -79.9383 1043.84 -79.1101C1043.82 -78.2818 1043.14 -77.6224 1042.31 -77.6373L963.332 -79.0552C963.163 -79.0582 962.995 -79.0919 962.844 -79.1461L937.473 -88.4111L924.788 -93.0435C918.438 -95.1913 911.763 -96.7647 905.473 -99.2322C901.743 -100.773 894.852 -103.398 894.166 -108.013C894.166 -108.013 894.14 -108.35 894.14 -108.35C894.129 -109.16 894.246 -109.766 894.366 -110.375C894.736 -112.111 895.272 -113.763 895.824 -115.416C897.29 -119.732 898.924 -123.925 900.424 -128.146C901.62 -131.727 903.1 -135.301 903.434 -139.033C903.434 -139.235 903.425 -139.442 903.399 -139.539C903.388 -139.583 903.377 -139.614 903.388 -139.587C903.399 -139.571 903.445 -139.476 903.554 -139.403L904.166 -139.117L904.155 -139.115C896.992 -137.787 890.233 -135.425 882.942 -134.544C881.125 -134.301 879.216 -134.231 877.411 -134.585C873.993 -135.296 870.691 -136.866 867.174 -136.958C862.194 -137.106 856.927 -137.302 851.952 -137.309C849.048 -137.28 846.038 -137.833 843.337 -137.985C839.986 -138.141 836.2 -138.333 834.16 -135.53C833.02 -133.982 832.318 -131.985 831.463 -130.175C830.556 -128.277 829.297 -126.584 827.742 -125.183C823.214 -121.218 817.228 -120.047 811.558 -118.914C800.012 -117.805 788.339 -118.439 776.793 -118.726C760.84 -119.437 744.804 -120.503 729.089 -123.644C722.886 -125.121 710.7 -127.558 711.949 -136.086C712.585 -141.078 713.383 -146.274 713.449 -151.014L716.044 -146.768C712.231 -150.104 707.921 -152.98 703.46 -155.327C699.274 -157.575 694.29 -159.632 690.078 -161.669C683.569 -164.658 671.462 -170.359 664.897 -173.324C664.897 -173.324 664.061 -173.7 664.061 -173.7L663.652 -173.879L663.491 -173.946C666.041 -174.701 664.435 -174.542 664.852 -174.437C660.194 -164.664 650.717 -143.447 646.193 -134.096C639.733 -120.762 632.257 -107.91 625.634 -94.6965C612.375 -68.2204 602.398 -40.3075 592.224 -12.5466C588.905 -4.06747 585.612 4.97537 582.05 13.3717C578.802 20.7076 574.936 27.6917 572.325 35.2204C570.765 39.7291 569.799 44.4986 569.563 49.237C569.355 53.7233 570.063 58.4451 573.446 61.6725C589.112 77.166 608.475 88.3913 627.754 98.8228C645.758 108.128 663.554 117.651 673.998 136.03C682.764 150.638 686.491 167.067 692.02 182.908C694.726 190.346 697.794 197.868 701.272 204.976C712.038 227.115 726.962 247.028 744.767 264.011C755.357 274.331 766.382 284.225 776.689 294.854C780.105 298.423 783.707 301.844 786.495 306.018C789.316 310.166 791.601 314.785 794.486 318.846C795.911 320.887 797.527 322.744 799.165 324.606C801.522 327.227 806.526 333.105 808.903 335.771C808.903 335.771 810.12 337.167 810.12 337.167C812.982 340.346 815.246 344.248 818.048 347.34C819.567 349.023 821.264 350.428 823.337 351.287C827.181 352.855 833.323 352.302 837.451 352.581C839.83 352.695 846.213 352.767 848.542 352.859C851.929 352.945 855.75 352.818 858.613 351.132C860.574 349.945 861.834 348.104 863.015 346.102C865.982 340.74 868.946 337.857 875.164 337.007C877.741 336.647 880.284 336.707 882.766 336.813C886.388 336.939 893.918 337.355 897.557 337.491C897.557 337.491 901.254 337.656 901.254 337.656L903.103 337.738C904.412 337.783 905.753 337.812 907.071 338.267C908.491 338.693 909.693 340.091 910.17 341.439C912.94 349.52 909.701 358.25 911.993 366.33C914.184 373.024 917.964 379.032 921.273 385.228C925.474 393.307 934.035 410.822 937.838 418.374C946.649 436.043 955.498 453.694 964.476 471.28C964.853 472.018 964.56 472.922 963.823 473.299C963.073 473.683 962.15 473.37 961.788 472.61Z" fill="white"/>
<path d="M1047.48 421.925C1047.36 421.925 1047.23 421.91 1047.11 421.878L1024.88 416.206C1024.73 416.169 1024.59 416.108 1024.46 416.028L949.814 369.711C949.335 369.413 949.063 368.873 949.11 368.311L951.472 339.954C951.489 339.751 951.547 339.553 951.643 339.373L1000.3 248.157C1000.32 248.125 1000.34 248.093 1000.36 248.062L1068.08 140.777C1068.52 140.076 1069.45 139.867 1070.15 140.31C1070.85 140.752 1071.06 141.678 1070.61 142.379L1002.92 249.617L954.434 340.512L952.174 367.645L1025.84 413.356L1047.85 418.971C1048.65 419.176 1049.14 419.992 1048.93 420.795C1048.76 421.473 1048.15 421.925 1047.48 421.925Z" fill="white"/>
<path d="M1071.76 280.476C1056.71 278.593 1041.49 273.997 1026.97 269.607C1002.61 255.629 976.318 239.541 952.395 224.984C942.803 218.157 932.004 210.279 922.505 203.304L922.922 203.525L915.776 200.446L908.646 197.326L910.55 196.567L905.663 206.965C905.36 207.616 904.658 207.921 903.993 207.793C885.341 205.621 859.277 199.313 840.688 195.427C820.296 190.982 798.091 186.063 777.675 181.422C772.923 179.502 759.042 173.691 754.319 171.736C754.319 171.736 746.644 168.493 746.644 168.493C745.881 168.171 745.523 167.291 745.846 166.528C746.159 165.786 747.002 165.428 747.749 165.705C755.639 168.631 771.909 174.742 778.606 177.339C814.38 184.654 853.423 192.315 889.049 200.57C894.268 201.862 899.469 203.242 904.619 204.86L902.949 205.688L907.836 195.291C908.174 194.569 909.015 194.249 909.739 194.532C913.611 195.931 921.048 198.339 924.846 199.897C934.697 206.223 945.849 213.479 955.609 219.924C960.843 222.792 968.232 227.021 974.154 230.363C991.319 240.054 1012.95 252.563 1030.05 262.519C1030.05 262.519 1029.19 262.147 1029.19 262.147C1035.4 263.985 1045.08 266.811 1051.18 268.949C1058.47 271.474 1065.67 274.183 1072.62 277.601C1073.37 277.977 1073.68 278.891 1073.3 279.643C1073.01 280.232 1072.38 280.547 1071.76 280.476Z" fill="white"/>
<path d="M1052.37 217.795C1052.06 217.795 1051.74 217.696 1051.47 217.491L1017.9 192.055L898.102 146.287C897.328 145.992 896.941 145.125 897.236 144.351C897.531 143.577 898.398 143.189 899.172 143.485L1019.17 189.329C1019.3 189.379 1019.42 189.449 1019.54 189.534L1053.28 215.099C1053.94 215.599 1054.07 216.54 1053.57 217.2C1053.28 217.59 1052.83 217.795 1052.37 217.795Z" fill="white"/>
<path d="M718.686 434.26C718.48 426.862 716.368 419.524 712.603 413.154C710.022 408.779 706.576 405.004 703.897 400.576C702.509 398.274 701.299 395.749 700.72 393.093C699.815 389.157 699.928 385.408 699.328 381.585C698.85 377.973 697.237 374.768 695.135 371.823C690.695 365.498 684.894 360.508 680.532 354.001C677.842 349.919 677.781 346.787 677.561 342.236C677.459 340.999 677.307 340.039 676.928 338.843C674.029 329.224 667.953 321.005 662.144 312.836C659.913 309.703 657.683 306.514 655.644 303.229C653.837 300.293 651.699 296.873 652.348 293.143C652.859 290.026 655.022 287.761 656.095 285.02C657.931 280.412 656.818 275.18 654.216 271.088C653.202 269.35 650.956 266.879 649.638 265.285C644.646 259.34 639.782 253.192 636.109 246.301C633.599 241.719 631.863 236.692 630.525 231.65C629.143 226.709 627.861 221.739 626.683 216.744C625.453 211.999 624.827 206.757 622.786 202.386C618.885 194.137 606.349 191.039 598.507 186.786C594.238 184.698 590.039 180.815 585.528 179.558C580.271 177.951 576.938 181.786 572.19 183.262C564.413 185.502 555.066 184.249 548.499 179.387C546.215 177.693 544.363 175.242 543.298 172.605C541.178 167.562 540.317 162.383 539.398 157.361C538.658 152.794 537.267 146.986 536.158 142.52C536.158 142.52 532.563 127.629 532.563 127.629L532.114 125.768C531.766 124.166 531.258 122.782 531.799 120.969C532.121 119.938 532.819 119.036 533.711 118.437C534.578 117.867 535.404 117.656 536.133 117.484C538.288 116.926 541.638 117.343 541.646 114.369C541.751 112.061 540.4 109.915 539.616 107.811C537.739 102.461 538.187 96.182 541.456 91.4344C542.018 90.6187 542.673 89.8097 543.49 89.2411C545.113 88.0864 547.188 87.4958 548.996 87.0442C551.802 86.3404 554.654 86.0309 557.403 85.3311L558.327 85.0804L560.174 84.579L589.751 76.6583C591.681 76.2363 592.414 78.9464 590.55 79.5493C590.536 79.5503 561.091 87.949 561.076 87.9513L559.233 88.4698C556.161 89.4024 552.915 89.7449 549.86 90.5352C548.21 90.9913 546.664 91.3661 545.395 92.3756C541.996 96.0903 541.53 101.886 543.197 106.519C543.33 106.938 543.667 107.666 543.862 108.082C545.536 111.409 546.679 116.577 543.211 119.31C541.858 120.366 540.27 120.714 538.742 120.945C537.661 121.085 536.615 121.243 535.847 121.659C535.168 122.084 535.5 123.145 535.661 123.931C537.22 130.333 540.267 142.723 541.798 149.046C542.954 154.071 543.583 159.131 544.727 164.085C545.588 167.534 546.474 171.131 548.525 173.96C552.157 178.528 558.417 180.265 564.096 180.446C566.471 180.495 568.861 180.237 571.047 179.57C573.924 178.714 577.467 175.933 581.002 175.489C584.268 174.956 587.645 175.929 590.458 177.435C593.172 178.807 596.048 181.016 598.665 182.524C606.051 186.763 615.022 189.033 621.701 194.874C625.802 198.31 627.578 203.474 628.636 208.429C630.528 217.147 632.641 225.758 635.137 234.312C636.882 240.263 639.746 245.822 643.207 250.966C646.027 255.136 649.188 259.074 652.429 262.947C654.941 265.876 657.813 269.179 659.168 272.87C661.055 277.44 661.184 282.817 659.009 287.317C658.267 289.039 656.964 290.741 656.319 292.31C654.829 295.555 657.036 298.561 658.679 301.352C663.394 308.975 669.015 315.837 673.697 323.563C676.706 328.606 679.471 334.024 680.785 339.889C681.362 342.956 680.887 346.208 681.909 349.068C683.183 352.475 685.594 355.139 688 358.007C693.746 364.927 701.299 371.664 702.573 381.08C703.16 384.824 703.054 388.821 703.866 392.374C704.368 394.72 705.404 396.863 706.63 398.932C709.228 403.255 712.698 407.121 715.286 411.575C717.95 416.137 719.822 421.145 720.838 426.327C721.335 428.918 721.618 431.55 721.684 434.189C721.705 435.017 721.05 435.705 720.222 435.726C719.393 435.747 718.705 435.089 718.686 434.26Z" fill="white"/>
<path d="M383.419 433.34C387.625 427.323 392.492 422.051 396.312 415.898C402.314 405.541 406.122 394.176 409.788 382.736C418.345 355.249 426.758 327.035 434.767 299.343C435.653 295.908 436.42 292.486 437.005 289.008C437.792 283.565 439.112 277.551 438.369 272.233C438.203 271.065 437.837 269.828 437.214 268.874C436.058 267.383 433.922 265.889 432.459 264.244C426.955 258.377 425.84 250.717 424.903 243.228C421.343 220.534 416.542 197.957 414.334 175.076C413.304 165.43 412.511 155.753 411.935 146.067C411.677 141.171 411.232 136.131 411.368 131.24C411.407 128.837 411.434 126.531 411.199 124.423C410.989 122.269 410.432 120.743 409.111 119.084C407.242 116.36 403.881 114.034 403.796 110.318C403.811 108.544 404.717 107.083 405.795 105.91C406.811 104.995 406.842 103.79 406.429 102.334C405.779 100.082 404.065 98.5171 402.764 96.5361C401.655 94.9586 400.753 92.8455 401 90.8046C401.361 87.5902 403.568 85.0578 405.014 82.3544C406.693 79.2591 407.119 75.6687 406.514 72.1959C405.657 67.503 403.417 63.1647 401.096 59.0102C398.715 54.7602 396.142 50.4963 394.689 45.7856C391.627 36.4786 391.536 26.5194 389.729 16.9824C388.352 9.83147 386.879 2.68226 385.111 -4.40382C384.528 -6.7162 385.929 -9.06375 388.24 -9.64717C390.552 -10.2306 392.898 -8.82898 393.482 -6.51656C393.568 -6.17291 393.61 -5.80626 393.613 -5.46694C393.62 -0.584639 393.801 4.27594 394.015 9.13245C394.101 10.9954 394.283 14.5725 394.391 16.421C395.051 28.3262 393.746 40.8341 399.073 51.8758C401.142 56.2454 403.672 60.4248 405.577 64.9075C408.069 70.5149 409.327 77.3341 406.268 83.0065C405.202 85.131 403.723 87.1206 403.049 89.3499C401.866 92.9721 404.605 95.4702 406.855 97.9766C409.092 100.465 410.898 104.54 408.69 107.635C407.957 108.675 407.101 109.862 408.01 111.006C409.226 112.642 411.406 114.052 412.981 115.697C414.022 116.758 414.966 117.681 415.738 119.067C416.509 120.439 416.988 121.802 417.372 123.127C418.438 126.965 418.73 130.541 419.399 134.229C420.114 137.717 420.916 141.291 421.614 144.787C426.562 168.534 430.008 192.554 431.94 216.737C432.743 226.242 433.733 236.249 434.596 245.749C435.022 250.004 435.693 253.957 438.061 257.34C439.47 259.304 440.831 260.256 442.702 262.226C443.794 263.375 444.881 265.062 445.437 266.578C448.265 274.143 445.842 282.884 444.521 290.4C441.953 303.13 436.567 316.659 432.601 329.008C424.878 351.981 417.718 375.218 409.02 397.904C406.216 404.716 403.286 411.572 399.318 417.817C395.31 423.942 390.125 429.303 385.856 435.088C385.365 435.757 384.423 435.901 383.756 435.407C383.101 434.922 382.955 434.004 383.419 433.34Z" fill="white"/>
<path d="M332.877 150.67C378.191 125.697 423.229 99.5895 467.959 73.5835C478.517 67.396 486.039 61.2824 493.12 51.2599C495.405 48.1317 497.662 44.8302 499.823 41.5865C502.488 37.4422 504.735 32.8181 509.071 30.0094C511.941 28.1399 515.565 27.9804 518.763 28.2761C521.77 28.5829 524.588 29.0026 527.581 29.1807C533.47 29.636 539.529 29.6762 545.274 31.1146C550.987 32.5449 556.421 34.7938 561.552 37.6733C564.106 39.1506 566.604 40.7344 568.933 42.7788C570.01 43.7083 569.361 45.5904 567.919 45.6019C561.93 45.7082 556.259 44.5483 550.579 43.1568C545.05 41.794 539.75 39.9183 534.559 37.5423C529.409 35.2282 523.964 33.2458 518.329 32.6891C516.416 32.4878 514.531 32.4013 512.784 32.9381C508.347 34.4308 505.665 40.0162 503.065 43.7285C497.378 51.7513 491.607 59.9792 483.963 66.3004C474.945 73.7913 464.358 78.7465 454.32 84.511L394.227 118.702C374.206 130.117 354.223 141.597 334.354 153.28C333.64 153.7 332.722 153.461 332.302 152.747C331.872 152.019 332.134 151.073 332.877 150.67Z" fill="white"/>
<path d="M1082.85 100.32C1082.83 100.32 1082.82 100.32 1082.8 100.32L948.877 96.2869C948.049 96.2622 947.398 95.5708 947.424 94.7426C947.448 93.9144 948.152 93.2687 948.967 93.2888L1082.89 97.3214C1083.72 97.3461 1084.37 98.0374 1084.35 98.8657C1084.32 99.678 1083.65 100.32 1082.85 100.32Z" fill="white"/>
<path d="M970.787 79.8265C966.029 79.8265 961.03 79.7294 955.748 79.5381C954.921 79.508 954.274 78.8125 954.304 77.9846C954.334 77.1569 955.023 76.5038 955.857 76.5402C988.519 77.7235 1006.04 74.7976 1016.38 72.4939C1018.8 71.9541 1021.69 71.0673 1022.52 68.987C1022.72 68.5038 1022.81 67.921 1022.91 67.304C1023.04 66.5011 1023.19 65.5912 1023.6 64.7147C1024.51 62.735 1026.58 61.315 1029.13 60.9164C1029.14 60.915 1029.16 60.9112 1029.17 60.9099C1033.83 60.182 1035.04 59.4031 1034.6 55.32C1034.34 52.8999 1034.06 50.4797 1033.79 48.0591C1033.25 43.3001 1032.69 38.3792 1032.26 33.5232C1032.15 32.3413 1032.11 31.1118 1032.06 29.81C1031.91 25.4566 1031.75 20.9552 1029.29 18.0937C1028.74 17.4593 1028.05 16.911 1027.31 16.3304C1026.58 15.7524 1025.82 15.1546 1025.13 14.4153C1022.59 11.6656 1022.71 6.03865 1022.81 1.51739C1022.84 0.177553 1022.87 -1.08799 1022.81 -2.00995C1022.76 -2.83687 1023.39 -3.54768 1024.22 -3.59748C1025.06 -3.65002 1025.76 -3.01722 1025.81 -2.19069C1025.87 -1.1453 1025.84 0.18008 1025.81 1.58352C1025.73 5.35439 1025.61 10.5187 1027.33 12.3781C1027.86 12.9433 1028.49 13.4434 1029.16 13.9726C1029.98 14.616 1030.83 15.2812 1031.56 16.1364C1034.71 19.7968 1034.9 25.0609 1035.06 29.7054C1035.1 30.9659 1035.15 32.1565 1035.24 33.2582C1035.67 38.0772 1036.23 42.9793 1036.77 47.7199C1037.04 50.1468 1037.32 52.5732 1037.58 54.9997C1038.32 61.9323 1034.23 63.1552 1029.6 63.8779C1028.39 64.0681 1026.9 64.7168 1026.32 65.9738C1026.08 66.4787 1025.98 67.1144 1025.87 67.7873C1025.75 68.5026 1025.62 69.313 1025.31 70.1029C1023.95 73.4846 1020.17 74.7219 1017.03 75.4222C1003.62 78.4095 988.97 79.8265 970.787 79.8265Z" fill="white"/>
<path d="M883.046 43.118C882.777 43.118 882.505 43.0458 882.26 42.8946C881.555 42.4596 881.336 41.5355 881.771 40.8305L897.361 15.5452C897.582 15.1862 897.945 14.937 898.359 14.8587L921.896 10.4159L919.845 0.569468C919.695 -0.153484 920.093 -0.878533 920.783 -1.13947L942.042 -9.174C942.361 -9.29455 942.71 -9.30292 943.035 -9.19767L960.444 -3.54958L981.859 1.10787L1001.88 -1.22069L1045.49 -9.24622C1046.31 -9.39436 1047.09 -8.85702 1047.24 -8.0424C1047.39 -7.22761 1046.85 -6.44559 1046.04 -6.29577L1002.37 1.73875C1002.34 1.74462 1002.3 1.74963 1002.27 1.7534L981.957 4.11643C981.792 4.1355 981.626 4.12754 981.465 4.09218L959.734 -0.634135C959.685 -0.644592 959.637 -0.657559 959.589 -0.67303L942.61 -6.18197L923.043 1.21333L925.143 11.3004C925.225 11.6946 925.145 12.1054 924.922 12.4402C924.698 12.775 924.349 13.0056 923.954 13.0803L899.566 17.6838L884.323 42.4053C884.04 42.8649 883.548 43.118 883.046 43.118Z" fill="white"/>
<path d="M894.766 205.79C894.564 205.79 894.359 205.749 894.162 205.662C893.404 205.327 893.061 204.442 893.395 203.684L900.887 186.699L890.704 75.8691C890.628 75.0443 891.235 74.314 892.059 74.2383C892.88 74.1661 893.614 74.7697 893.69 75.5946L903.909 186.812C903.932 187.066 903.891 187.322 903.788 187.555L896.139 204.895C895.891 205.456 895.342 205.79 894.766 205.79Z" fill="white"/>
<path d="M1070.73 143.468C1045.23 138.855 1019.47 133.374 994.14 127.852C961.47 120.59 928.729 113.095 896.57 103.812C894.889 103.302 895.276 100.647 897.236 100.887C911.942 103.307 926.536 106.259 941.126 109.261C970.089 115.35 999.395 122.25 1028.15 129.32C1042.6 132.91 1057.03 136.572 1071.39 140.544C1073.11 141.037 1072.72 143.733 1070.73 143.468Z" fill="white"/>
<path d="M612.15 192.144L617.494 166.79C617.532 166.61 617.601 166.444 617.695 166.298C617.704 166.27 632.637 143.223 632.66 143.175C632.66 143.175 632.258 143.958 632.258 143.958L644.868 110.792C645.162 110.018 646.029 109.628 646.803 109.923C647.538 110.203 647.925 111.004 647.711 111.746C647.711 111.754 637.783 145.829 637.782 145.839C637.7 146.12 637.559 146.381 637.387 146.596L620.176 167.978L620.428 167.409L615.084 192.763C614.637 194.662 611.8 194.124 612.15 192.144Z" fill="white"/>
<path d="M392.597 22.4501C391.996 22.4501 391.429 22.0862 391.198 21.4919C390.899 20.7196 391.282 19.8508 392.054 19.5513L441.229 0.477825L449.706 -14.6486C450.111 -15.3714 451.024 -15.6283 451.747 -15.2236C452.469 -14.8185 452.726 -13.9043 452.321 -13.1818L443.582 2.41482C443.411 2.71887 443.14 2.95385 442.816 3.07984L393.138 22.3482C392.96 22.4172 392.777 22.4501 392.597 22.4501Z" fill="white"/>
<path d="M346.916 84.0337C344.143 84.0337 341.384 84.0249 338.669 84.0165C335.918 84.0081 333.168 83.9998 330.417 83.9998C329.589 83.9998 328.918 83.3281 328.918 82.4999C328.918 81.6717 329.589 81 330.417 81C333.171 81 335.924 81.0084 338.679 81.0172C344.102 81.0339 349.711 81.0506 355.22 80.9996C368.598 80.8753 378.742 79.8738 391.005 75.1226C397.073 72.7713 403.347 70.34 409.128 67.1791C421.169 60.5952 431.447 49.989 441.386 39.7322C443.394 37.6603 445.47 35.5177 447.491 33.4853C449.292 31.6738 451.12 29.7979 452.889 27.9839C460.907 19.7577 469.199 11.2517 478.796 4.66079C486.443 -0.59053 494.342 -4.97873 503.132 -9.76341C504.784 -10.6624 506.407 -11.6189 508.126 -12.6314C513.667 -15.8953 519.396 -19.2705 525.807 -20.4247C529.856 -21.1537 533.936 -20.916 537.88 -20.6869C541.595 -20.467 542.964 -18.1644 544.146 -15.6195C544.603 -14.6347 545.161 -13.5431 545.984 -13.0533C546.752 -12.5952 547.783 -13.1424 549.269 -14.0286C549.837 -14.3669 550.424 -14.717 551.013 -14.9687C564.018 -20.5331 576.842 -26.0456 588.862 -31.2149C601.518 -36.6576 616.08 -36.4802 629.91 -35.8313C644.645 -35.1406 659.049 -32.15 672.979 -29.2577C676.132 -28.6032 679.387 -27.9274 682.612 -27.285L711.204 -38.0115L707.737 -52.3168C707.563 -53.0354 707.938 -53.7736 708.621 -54.0561L735.321 -65.1089L745.077 -104.689C745.275 -105.494 746.089 -105.984 746.892 -105.787C747.696 -105.588 748.187 -104.775 747.989 -103.971L738.051 -63.654C737.937 -63.1907 737.609 -62.8094 737.168 -62.6272L710.954 -51.7753L714.431 -37.4271C714.609 -36.6899 714.21 -35.9355 713.5 -35.6694L683.265 -24.3261C683.004 -24.2282 682.721 -24.2046 682.447 -24.2594C679.073 -24.9288 675.665 -25.6365 672.37 -26.3207C658.554 -29.1891 644.268 -32.1552 629.769 -32.8348C616.288 -33.4666 602.116 -33.6499 590.046 -28.459C578.025 -23.2891 565.2 -17.776 552.192 -12.2104C551.787 -12.0376 551.309 -11.7528 550.804 -11.4515C549.118 -10.4469 546.81 -9.0708 544.451 -10.4751C542.893 -11.4019 542.073 -12.9639 541.427 -14.3552C540.31 -16.7599 539.615 -17.5791 537.705 -17.6923C533.936 -17.9114 530.037 -18.1387 526.338 -17.4722C520.455 -16.4132 514.961 -13.1765 509.648 -10.0465C507.983 -9.06579 506.261 -8.05177 504.565 -7.12856C495.849 -2.38425 488.022 1.96374 480.493 7.13406C471.139 13.5574 462.953 21.9561 455.035 30.0783C453.262 31.8975 451.428 33.7786 449.617 35.6008C447.61 37.6194 445.632 39.66 443.539 41.8201C433.444 52.2376 423.006 63.0093 410.566 69.8114C404.613 73.0665 398.246 75.5338 392.088 77.9198C379.399 82.8363 368.971 83.8717 355.248 83.9994C352.482 84.0249 349.692 84.0337 346.916 84.0337Z" fill="white"/>
<path d="M721.987 -127.876L717.735 -110.911L716.552 -112.75L780.801 -100.935C781.252 -101.475 923.012 5.0873 923.443 4.9874C923.653 5.14468 923.813 5.3519 923.914 5.57466L952.442 68.7839L952.176 68.3818C952.942 69.2862 953.408 70.3986 953.752 71.5109C954.647 74.4556 954.578 77.6806 954.165 80.6569C953.423 86.2562 950.889 92.0321 948.851 97.2768C941.038 116.713 932.891 136.047 924.797 155.358C913.158 182.948 900.592 212.834 889.243 239.221C889.243 239.221 886.881 251.509 886.881 251.509L886.82 250.72L916.111 332.483L915.393 331.66L947.046 348.202C947.45 348.413 947.72 348.79 947.814 349.202L952.066 368.107V368.275C951.853 370.437 951.188 372.536 950.658 374.616C949.122 380.163 947.134 385.561 944.982 390.89C942.1 398.003 939.058 405.037 935.394 411.804C934.994 412.538 934.076 412.808 933.343 412.407C932.728 412.072 932.439 411.369 932.599 410.719C934.456 403.252 936.95 396.004 939.618 388.808C942.317 381.623 945.228 374.487 949.206 367.894C949.206 367.894 949.141 368.765 949.141 368.765L944.889 349.86L945.657 350.861L914.005 334.319C913.658 334.138 913.411 333.837 913.288 333.495L883.997 251.732C883.904 251.471 883.889 251.196 883.937 250.942L886.299 238.654C904.129 196.478 922.155 154.36 939.615 112.025C941.733 106.922 943.993 101.314 946.065 96.1675C947.993 91.1992 950.483 85.5394 951.196 80.2364C951.617 76.9273 951.747 73.2444 949.976 70.4204C949.976 70.4204 949.71 70.0183 949.71 70.0183L921.181 6.80913C923.887 9.20828 779.076 -98.6913 779.636 -98.2563C779.636 -98.2561 780.259 -97.9846 780.259 -97.9846L716.009 -109.8C715.162 -109.952 714.614 -110.806 714.826 -111.64L719.078 -128.605C719.279 -129.409 720.094 -129.897 720.897 -129.696C721.7 -129.494 722.188 -128.679 721.987 -127.876Z" fill="white"/>
<path d="M652.723 267.601C652.323 267.601 651.924 267.442 651.628 267.127C651.062 266.522 651.093 265.573 651.697 265.006C652.935 263.846 654.083 262.418 655.298 260.906C657.224 258.51 659.216 256.032 661.773 254.423C663.496 253.339 665.457 253.025 667.355 252.72C669.388 252.393 671.308 252.085 672.527 250.835C673.301 250.041 673.662 248.81 673.914 247.711C674.417 245.511 674.643 243.163 674.862 240.893C675.193 237.461 675.536 233.912 676.822 230.556C679.551 223.435 685.389 218.835 691.034 214.386C693.728 212.262 696.514 210.066 698.935 207.619C699.518 207.031 700.468 207.025 701.055 207.608C701.644 208.191 701.649 209.141 701.066 209.729C698.515 212.308 695.655 214.562 692.889 216.742C687.318 221.133 682.055 225.28 679.622 231.629C678.481 234.605 678.173 237.799 677.847 241.181C677.619 243.546 677.383 245.992 676.837 248.38C676.513 249.798 675.974 251.596 674.673 252.93C672.762 254.89 670.142 255.31 667.83 255.682C666.156 255.95 664.575 256.205 663.369 256.963C661.238 258.304 659.406 260.582 657.634 262.786C656.408 264.313 655.139 265.891 653.747 267.195C653.458 267.466 653.09 267.601 652.723 267.601Z" fill="white"/>
<path d="M477.788 -314.388V-262.514C477.788 -262.276 477.728 -262.044 477.629 -261.843C471.302 -249.17 464.899 -236.587 458.407 -223.942C464.372 -180.904 470.807 -130.891 477.023 -87.8243C477.533 -84.4925 477.81 -81.3115 479.03 -78.2605C482.652 -69.7504 489.475 -63.1413 494.959 -55.7252C500.03 -48.986 502.504 -40.9075 504.758 -32.9804C504.834 -32.6492 505.027 -32.1558 505.129 -31.8286L505.343 -31.3707C506.744 -28.3558 510.561 -29.0909 513.292 -29.6546C515.196 -30.0913 517.186 -30.5647 519.236 -30.942C521.29 -31.3198 523.448 -31.6036 525.659 -31.6349C529.474 -31.6906 533.22 -30.8929 536.802 -29.7375C541.128 -28.402 545.434 -27.0452 549.73 -25.3705C558.674 -21.8649 565.073 -18.5742 569.433 -9.5224C571.252 -5.8909 572.543 -2.15506 574.298 1.40909C576.638 6.45108 580.099 10.5933 584.924 13.379C594.023 18.6547 604.653 20.9112 613.138 27.6291C620.836 33.6532 626.043 42.3447 631.36 50.3125C632.11 51.4285 632.882 52.5336 633.656 53.6256C634.843 55.3991 636.475 56.4868 638.554 57.0845C648.004 59.8703 657.596 59.3303 667.748 61.0502C675.903 62.4267 683.73 65.5815 690.725 69.9676C695.943 73.171 700.634 77.2883 704.915 81.6122C709.201 85.8357 713.385 90.1034 717.488 94.5224C722.53 99.8755 726.286 106.217 732.989 109.357C747.702 115.712 764.113 99.4883 765.311 85.2396C765.723 81.4388 765.507 77.5092 765.322 73.5285C764.947 65.5735 764.525 57.6432 763.671 49.7701C762.698 40.9339 761.139 32.1385 758.368 23.7112C757.427 20.9092 756.365 18.117 755.309 15.3531C753.919 11.8446 752.262 8.17459 749.365 5.74265C746.533 3.37567 742.583 2.79443 739.199 4.42487C735.748 5.95944 732.723 8.68661 728.965 10.4974C725.192 12.5129 720.744 11.9624 716.722 11.2679C712.769 10.6178 708.844 9.71033 704.981 8.73532C693.482 5.91284 681.941 2.28775 670.05 3.01498C661.771 3.46399 655.447 7.09769 649.349 12.5235C646.366 15.0974 643.534 17.8977 640.473 20.5312C634.379 25.7793 627.873 30.429 621.786 35.4648C620.202 36.6974 618.352 34.4005 619.916 33.1198C626.281 28.2238 632.871 23.7653 638.951 18.7289C641.988 16.2367 644.872 13.4773 647.955 10.8888C652.545 6.99127 657.851 3.38654 663.862 2.0257C677.833 -1.00223 691.97 3.82315 705.409 7.01877C709.269 7.98083 713.112 8.85837 717.02 9.48999C720.778 10.0953 724.68 10.6988 728.159 8.81796C731.705 7.07825 734.708 4.32358 738.404 2.63699C742.325 0.681854 747.31 1.33582 750.661 4.15454C755.497 8.25848 757.206 14.5082 759.445 20.1627C765.834 37.1352 767.035 55.4714 768.116 73.3763C768.726 81.7197 768.993 89.8637 764.587 97.4648C757.994 109.46 743.539 118.958 730.022 112.063C723.63 108.668 719.295 102.284 714.533 97.2859C710.448 93.0059 706.209 88.7962 701.929 84.6921C697.747 80.5913 693.368 76.8217 688.344 73.8268C672.373 63.9214 660.744 65.8691 643.165 63.4736C641.088 63.1106 639.082 62.711 637.02 62.1028C631.635 60.5266 629.938 57.6685 626.941 53.3261C618.323 40.6416 613.512 31.9391 598.617 25.8392C594.153 23.8953 589.274 22.1111 584.77 19.8309C581.899 18.3704 579.139 16.6478 576.706 14.4621C573.446 11.5934 570.951 7.81104 569.09 3.97711C567.293 0.40683 565.965 -3.41406 564.222 -6.91113C561.72 -12.1505 558.218 -15.3109 552.915 -17.6736C547.632 -20.1731 542.144 -21.9846 536.507 -23.7407C534.754 -24.2793 532.814 -24.9211 531.03 -25.2791C525.402 -26.5461 520.393 -25.3445 514.56 -23.9947C509.67 -22.791 503.558 -23.0084 500.692 -27.9384C500.014 -28.9854 499.593 -30.2289 499.25 -31.4173C497.213 -38.7189 494.983 -46.3041 490.45 -52.3904C484.438 -60.5427 476.797 -67.9658 473.44 -77.8408C472.472 -80.8672 472.211 -84.0027 471.756 -87.0853C467.826 -115.535 464.094 -147.454 460.767 -176.069C458.946 -191.899 457.184 -207.734 455.432 -223.57C461.845 -236.764 468.363 -250.019 474.947 -263.185L474.789 -262.514V-314.388C474.789 -315.217 475.46 -315.888 476.288 -315.888C477.116 -315.888 477.788 -315.217 477.788 -314.388Z" fill="white"/>
<path d="M652.721 62.0805C652.486 62.0805 652.247 62.025 652.024 61.9079C651.291 61.5222 651.01 60.6151 651.395 59.8821L679.994 5.49358C680.38 4.7606 681.287 4.47913 682.019 4.86439C682.752 5.25003 683.033 6.15713 682.648 6.89011L654.049 61.2786C653.781 61.789 653.26 62.0805 652.721 62.0805Z" fill="white"/>
<path d="M712.887 92.8586C712.385 92.8586 711.895 92.6066 711.611 92.1483C711.175 91.4444 711.392 90.52 712.096 90.0835C717.878 86.5003 721.523 83.3574 723.047 77.8943C724.845 71.4465 725.223 63.993 724.17 55.7413C722.731 44.4738 718.783 33.5474 714.965 22.9808C713.49 18.8983 711.965 14.6771 710.603 10.4885C710.347 9.7007 710.778 8.85429 711.565 8.59815C712.35 8.34184 713.198 8.77228 713.454 9.56033C714.802 13.7028 716.319 17.901 717.785 21.9611C721.659 32.6807 725.664 43.7653 727.144 55.3612C728.249 64.0124 727.842 71.865 725.935 78.7003C723.964 85.7683 718.797 89.459 713.675 92.6338C713.429 92.7861 713.156 92.8586 712.887 92.8586Z" fill="white"/>
<path d="M765.95 73.5531C761.524 74.8075 756.59 74.3322 752.948 77.3305C748.765 81.1007 745.73 87.5151 744.365 92.9836C742.289 102.168 743.758 111.729 743.956 121.228C744.282 139.575 746.657 157.722 749.078 175.947C749.742 181.101 751.43 186.236 753.993 190.727C756.738 195.546 760.9 199.935 766.31 201.131C768.059 201.517 769.164 203.248 768.779 204.997C768.391 206.766 766.622 207.876 764.862 207.455C761.132 206.555 757.776 204.555 755.114 202.087C749.911 197.22 746.799 190.83 744.891 184.154C743.963 180.989 743.512 177.529 743.19 174.24C740.977 155.152 739.375 135.823 739.46 116.537C739.235 107.814 738.531 98.2443 741.447 89.6423C743.499 83.9427 747.204 76.8056 752.552 73.589C756.378 71.4339 761.423 71.5734 765.19 70.6511C767.108 70.2238 767.847 72.9819 765.95 73.5531Z" fill="white"/>
<path d="M527.646 30.6344C527.176 26.6375 526.943 22.5757 526.787 18.5469C526.529 14.9223 526.391 11.1122 527.848 7.70097C528.866 5.19948 531.043 3.233 532.576 1.15907C534.822 -2.2169 537.913 -5.01051 540.795 -7.76733C542.198 -9.12915 543.531 -10.5302 544.618 -12.0801C545.097 -12.763 546.038 -12.9283 546.721 -12.4492C547.517 -11.9061 547.581 -10.7054 546.852 -10.0788C545.318 -8.71916 543.816 -7.41678 542.366 -6.09961C538.987 -2.92462 535.19 0.669292 534.811 5.51135C534.695 7.34492 534.699 9.26742 534.201 11.039C533.589 13.7797 532.44 16.2748 531.688 19.0233C531.312 20.3576 531.108 21.8614 530.922 23.2368C530.656 25.5978 530.524 28.03 530.636 30.4045C530.673 32.3165 527.912 32.5454 527.646 30.6344Z" fill="white"/>
<path d="M577.469 -146.722V-124.509L577.184 -125.389L612.458 -76.709L611.641 -77.275L651.225 -66.4047C651.891 -66.222 652.327 -65.6168 652.328 -64.9582V-29.9843C652.328 -29.6374 652.209 -29.3173 652.012 -29.0631L639.514 -12.994C639.376 -12.8172 639.201 -12.678 639.015 -12.5807L606.839 4.07249C605.507 4.75644 602.094 6.53203 600.805 7.19499C600.805 7.19499 600.303 7.45518 600.303 7.45518C600.243 7.48424 600.259 7.48193 600.254 7.48518C600.029 7.6243 599.874 7.88747 599.648 8.18265C597.666 11.2807 596.742 14.9749 595.111 18.2976C595.111 18.2976 594.119 20.3446 594.119 20.3446C592.172 24.3226 590.19 28.3894 589.096 32.6418C588.017 36.9274 587.542 41.4013 587.236 45.8193C587.191 46.5949 587.072 48.4531 587.039 49.1987C586.946 51.5464 586.239 54.1175 587.441 56.0702C589.236 58.3559 592.181 59.483 594.203 61.7461C596.684 64.6728 598.696 67.9346 601.224 70.6292C604.279 73.8472 607.388 77.0791 610.96 79.6848C611.517 80.1002 612.123 80.4743 612.725 80.7983C617.218 83.2019 622.589 83.1013 627.656 83.5324C632.244 83.9133 636.796 84.7211 641.249 85.8664C655.852 89.8318 676.645 97.9275 682.306 113.189C683.827 117.534 683.513 121.529 688.215 123.865C692.091 125.921 696.32 127.518 700.576 128.632C701.992 129.015 703.608 129.31 705.175 130.274C706.76 131.133 707.739 133.217 707.883 134.926C708.267 138.117 707.774 141.169 707.417 144.255C707.159 147.406 706.039 152.214 702.047 152.435C700.41 152.607 698.693 151.721 697.261 151.264C695.969 150.843 694.631 150.732 693.314 150.924C688.919 151.666 685.84 154.935 681.919 157.225C681.369 157.556 680.655 157.379 680.324 156.829C679.993 156.278 680.172 155.562 680.723 155.232C683.208 153.742 685.534 151.763 688.338 150.234C691.143 148.611 694.819 147.914 697.967 149.005C699.272 149.388 700.214 149.979 701.474 150.06C703.597 150.262 704.383 147.881 704.723 146.119C705.083 143.977 705.329 141.66 705.516 139.522C705.641 137.504 705.791 135.272 704.989 133.489C704.017 131.75 701.78 131.525 699.964 130.995C695.463 129.819 691.149 128.208 687.021 126.029C677.818 121.05 684.443 114.211 672.471 103.611C661.909 94.4778 645.589 88.8045 631.861 86.6671C625.768 85.6838 619.661 86.3329 613.685 84.1695C610.67 83.1035 608.116 81.0153 605.759 78.938C603.452 76.8753 601.332 74.7069 599.226 72.4815C596.576 69.6638 594.578 66.4557 592.19 63.6219C590.146 61.4373 587.015 60.2131 585.163 57.6497C583.185 54.6618 584.264 51.0764 584.311 47.9142C584.612 42.534 585.041 37.2114 586.357 31.9309C587.138 28.8896 588.305 25.9886 589.584 23.2091C590.653 20.8422 591.91 18.4087 592.997 16.0579C594.354 12.8899 595.344 9.50314 597.26 6.54829C597.639 5.96548 598.275 5.23186 598.969 4.8826L599.471 4.62125L601.479 3.5757L605.496 1.48468C605.502 1.48129 637.635 -15.2435 637.64 -15.2465L637.147 -14.8362L649.645 -30.9053L649.329 -29.9843V-64.9582L650.431 -63.5119L610.848 -74.3822C610.506 -74.476 610.224 -74.682 610.031 -74.9483L574.756 -123.628C574.563 -123.895 574.47 -124.203 574.471 -124.509V-146.722C574.471 -147.55 575.142 -148.222 575.97 -148.222C576.798 -148.222 577.469 -147.55 577.469 -146.722Z" fill="white"/>
<path d="M675.705 139.782C678.062 138.466 680.404 137.225 682.84 136.049C684.908 135.135 686.994 133.944 689.343 133.735C689.707 133.73 690.079 133.785 690.41 133.942C690.689 134.071 690.766 134.148 691.099 134.275C696.12 136.099 701.42 137.389 706.582 138.811C705.535 138.724 727.362 139.74 727.149 139.718C727.311 139.726 727.435 139.862 727.428 140.024C727.421 140.178 727.295 140.299 727.143 140.303L706.349 140.806C706.285 140.811 706.2 140.795 706.137 140.782C700.72 139.681 695.319 138.771 689.992 137.221C689.717 137.147 689.251 136.938 688.939 136.768C688.987 136.806 689.037 136.839 689.093 136.866C689.156 136.899 689.233 136.921 689.302 136.935C689.345 136.952 689.392 136.968 689.441 136.962C689.441 136.97 689.407 136.974 689.377 136.981C687.695 137.48 686.12 138.426 684.534 139.294C682.295 140.571 680.059 141.961 677.896 143.373C675.447 144.886 673.228 141.287 675.705 139.782Z" fill="white"/>
<path d="M860.886 352.975C864.123 359.638 867.051 370.139 866.556 377.551C866.517 377.95 866.543 378.535 866.254 378.84L846.885 402.471L847.199 401.795L837.782 452.171C837.63 452.985 836.847 453.522 836.033 453.37C835.219 453.217 834.683 452.434 834.835 451.62L844.251 401.244C844.299 400.989 844.413 400.756 844.566 400.568L863.935 376.937L863.634 378.226C862.511 376.328 861.746 374.347 861.058 372.349C859.167 366.29 857.987 360.025 857.964 353.649C857.988 352.063 860.169 351.549 860.886 352.975Z" fill="white"/>
<path d="M764.941 49.9708C764.506 49.9708 764.075 49.7825 763.779 49.419C751.538 34.4087 741.722 19.6495 733.769 4.29792C733.274 3.34162 731.196 -0.378387 728.565 -5.0882C711.25 -36.0841 711.348 -36.416 711.638 -37.4015C711.752 -37.7886 712.031 -38.1318 712.387 -38.3208C719.891 -42.3047 728.073 -45.117 735.809 -47.656C737.463 -48.1986 739.454 -48.6123 741.562 -49.05C747.327 -50.2476 753.862 -51.605 755.613 -55.936C757.324 -60.1668 758.015 -65.4508 758.684 -70.5609C759.023 -73.152 759.343 -75.5994 759.789 -77.9235C761.464 -86.6507 762.833 -93.7355 764.099 -100.22C764.257 -101.033 765.047 -101.563 765.858 -101.404C766.671 -101.246 767.201 -100.458 767.042 -99.6448C765.777 -93.1638 764.408 -86.0819 762.734 -77.3581C762.305 -75.1216 761.99 -72.717 761.657 -70.1715C760.964 -64.8745 760.247 -59.3974 758.393 -54.8113C756.041 -48.9937 748.351 -47.3963 742.171 -46.1128C740.148 -45.6926 738.237 -45.2957 736.744 -44.8056C729.53 -42.4381 721.931 -39.8332 714.947 -36.272C717.02 -31.9044 726.088 -15.6708 731.182 -6.55167C733.93 -1.63367 735.914 1.91959 736.431 2.91771C744.288 18.0839 753.994 32.6743 766.102 47.5228C766.625 48.1646 766.53 49.1095 765.888 49.633C765.61 49.8603 765.275 49.9708 764.941 49.9708Z" fill="white"/>
<path d="M1066.95 -166.225C1053.64 -164.435 1040.4 -162.254 1027.19 -159.905C1018.36 -158.372 1009.64 -156.389 1000.78 -154.867C992.296 -153.385 983.179 -153.254 975.981 -148.452C969.115 -143.896 964.031 -137.119 957.833 -131.689C955.744 -129.859 953.556 -128.152 951.338 -126.499C947.791 -123.872 944.21 -121.166 941.405 -117.728C940.008 -116.027 938.724 -114.212 937.561 -112.371C935.271 -108.581 933.53 -104.405 931.254 -100.55C929.824 -98.1065 928.106 -95.6006 925.79 -93.8034C924.078 -92.4913 922.411 -90.9956 920.992 -89.3807C914.353 -81.8895 910.505 -70.5572 910.207 -60.604C910.107 -51.1076 913.22 -41.6177 911.572 -32.0776C910.37 -25.9199 907.446 -20.1515 903.617 -15.2263C900.835 -11.6358 897.523 -8.47844 893.897 -5.75534C892.934 -5.04984 892.053 -4.29953 890.878 -3.87189C889.685 -3.43517 888.401 -3.58221 887.22 -3.74545C885.01 -4.04805 882.785 -4.32642 880.559 -4.68626C876.098 -5.42383 871.504 -6.46797 867.592 -8.85985C863.745 -11.2635 860.619 -14.3796 856.543 -16.3488C848.122 -20.7135 838.745 -22.8404 830.03 -26.6365C823.388 -29.5799 819.39 -28.2357 813.054 -25.3791C813.054 -25.3792 812.285 -25.0428 812.285 -25.0428C811.993 -24.9338 811.709 -24.8049 811.408 -24.7165C809.643 -24.1265 807.606 -24.2508 805.891 -24.7946C802.803 -25.688 800.518 -27.4952 797.493 -27.4214C795.165 -27.3265 793.423 -25.4115 791.691 -24.0099C789.147 -21.8457 786.655 -19.6237 784.197 -17.3598C774.323 -8.26404 765.126 1.45828 755.435 10.7941C754.838 11.3677 753.888 11.3481 753.315 10.7504C752.734 10.146 752.763 9.17744 753.38 8.60945C763.231 -0.45607 772.653 -10.1009 782.634 -19.0784C785.142 -21.3277 787.69 -23.5386 790.286 -25.6879C793.456 -28.3573 795.778 -30.3809 800.194 -29.1465C803.561 -28.1927 806.062 -26.0977 809.411 -26.2628C810.388 -26.3005 811.422 -26.7048 812.314 -27.1019C820.282 -30.6404 824.162 -31.3305 832.25 -27.5787C841.503 -23.6608 851.572 -21.3747 860.231 -16.0244C863.05 -14.2182 865.583 -11.8716 868.381 -10.1505C872.138 -7.84906 876.483 -6.87178 880.796 -6.13832C882.985 -5.77745 885.199 -5.49329 887.419 -5.18246C888.514 -5.02434 889.541 -4.91725 890.398 -5.22978C891.27 -5.53534 892.152 -6.24367 893.04 -6.89993C900.083 -12.1474 905.904 -19.2769 908.837 -27.6026C912.075 -36.0732 909.981 -45.0812 909.075 -53.8373C908.862 -56.0811 908.678 -58.3396 908.708 -60.6191C908.737 -65.1859 909.674 -69.6674 910.941 -74.0321C912.99 -80.8356 916.406 -87.3526 921.496 -92.3752C922.082 -92.8962 922.79 -93.6136 923.416 -94.1024C923.976 -94.5683 925.391 -95.6449 925.921 -96.2197C930.501 -101.047 932.543 -107.683 935.984 -113.337C938.141 -116.844 941.563 -121.06 944.006 -124.373C946.723 -128.017 949.602 -131.633 952.958 -134.694C958.038 -139.061 962.405 -144.211 967.545 -148.582C978.04 -157.823 987.412 -157.222 1000.26 -158.549C1013.54 -160.184 1026.79 -162.521 1040.03 -164.525C1048.86 -165.948 1057.68 -167.476 1066.46 -169.185C1067.28 -169.344 1068.06 -168.812 1068.22 -167.999C1068.39 -167.155 1067.8 -166.337 1066.95 -166.225Z" fill="white"/>
<path d="M833.392 488.029C833.134 487.416 832.915 486.788 832.741 486.148C830.647 478.474 833.082 470.271 836.003 462.912C849.089 429.945 872.288 401.842 881.648 367.461C883.991 358.856 884.881 348.15 878.533 342.286C873.399 337.544 865.804 338.129 859.022 338.453C827.525 339.962 795.641 329.625 770.249 309.674C744.858 289.723 726.137 260.297 718.126 227.746C714.571 213.302 713.151 197.591 718.294 183.702C723.437 169.814 736.57 158.522 750.487 160.053C764.123 161.553 774.901 174.259 788.52 175.933C800.858 177.45 812.408 169.602 822.043 161.235C840.349 145.338 856.213 126.245 868.814 104.946C876.008 92.7843 882.175 77.1038 875.557 64.5749C872.103 58.034 865.809 53.8602 859.646 50.2401C844.034 41.0698 801.909 14.6948 783.619 22.736C779.821 24.4056 777.527 28.7461 776.938 33.0852C771.749 71.3145 792.876 129.667 741.26 140.433C710.435 146.863 694.49 124.926 687.758 118.875C681.026 112.823 668.979 99.2071 641.342 91.2644C613.705 83.3218 592.446 77.6485 584.651 53.0643C584.651 44.3653 585.714 29.6147 608.391 18.2682C623.272 10.7038 643.468 -0.264618 649.846 -19.932C649.846 -19.932 657.995 -47.9202 650.555 -64.5619C643.115 -81.2015 637.446 -80.0691 620.444 -84.9839C595.762 -92.1183 574.303 -116.52 581.715 -145.559C585.593 -160.748 596.261 -172.676 604.327 -185.856C615.01 -203.312 621.306 -223.42 631.266 -241.356C639.373 -255.956 629.048 -268.667 639.409 -281.54C643.873 -287.087 658.403 -323.692 664.846 -321.205C677.888 -321.423 652.558 -258.352 641.525 -240.559C634.634 -229.447 631.53 -216.169 625.698 -204.386C617.465 -187.75 604.054 -174.579 595.585 -158.079C587.116 -141.58 585.056 -118.456 598.2 -105.922C608.617 -95.9879 624.329 -96.445 637.155 -90.5419C661.074 -79.5345 669.667 -41.3936 659.795 -17.4051C654.509 -4.56168 644.244 5.09088 633.885 13.723C625.006 21.1221 615.821 28.1034 606.366 34.6397C601.037 38.3239 595.144 42.5669 593.832 49.1981C591.779 59.5728 602.015 67.8228 611.334 71.4987C632.936 80.0205 662.316 72.4771 680.092 90.4479C694.032 104.541 703.709 127.012 724.332 130.817C758.289 137.081 774.337 98.5188 768.458 68.3581C766.006 55.7761 761.071 42.4701 765.693 30.6035C769.234 21.5146 777.931 15.5579 786.973 13.6241C796.014 11.6904 805.396 13.2426 814.34 15.64C832.392 20.4788 849.625 28.7772 864.97 40.0207C876.951 48.7988 888.59 61.0552 889.424 76.5412C889.973 86.7527 885.675 96.4856 881.22 105.541C870.112 128.123 856.989 150.231 838.302 166.125C815.066 185.887 783.989 192.741 756.472 179.215C748.949 175.517 739.78 170.559 733.135 175.837C729.854 178.443 728.383 182.886 727.505 187.15C721.32 217.206 736.228 247.713 754.559 271.462C771.406 293.289 793.3 313.042 819.584 316.597C839.611 319.306 861.233 312.517 879.435 321.838C894.529 329.568 903.642 347.477 904.57 365.319C905.497 383.162 899.211 400.748 890.01 415.677C881.997 428.679 871.811 440.011 863.558 452.842C855.306 465.672 848.895 480.756 849.972 496.277C843.85 499.591 836.232 494.767 833.392 488.029Z" fill="white"/>
<path d="M845.72 501C844.125 501 842.494 500.699 840.886 500.093C836.296 498.363 832.326 494.414 830.267 489.53V489.529C829.941 488.756 829.667 487.962 829.45 487.17C827.01 478.226 829.798 469.167 832.848 461.485C838.506 447.231 846.078 433.773 853.401 420.759C863.086 403.546 873.101 385.747 878.357 366.441C879.94 360.628 881.776 350.119 876.29 345.052C872.398 341.458 866.096 341.767 860.006 342.068L859.176 342.108C843.111 342.875 827.021 340.691 811.351 335.611C795.68 330.531 781.168 322.796 768.218 312.62C755.267 302.444 744.036 289.952 734.835 275.49C725.634 261.028 718.897 245.278 714.812 228.676C710.283 210.275 710.38 195.124 715.108 182.358C717.93 174.736 722.897 167.907 729.094 163.129C735.858 157.916 743.375 155.594 750.838 156.414C758.395 157.245 764.951 161.085 771.291 164.798C777.219 168.271 782.82 171.55 788.912 172.299C800.532 173.728 811.564 165.62 819.88 158.397C837.974 142.685 853.462 124.045 865.916 102.992C875.031 87.5857 877.27 75.2647 872.572 66.3716C869.49 60.5353 863.431 56.639 857.993 53.4451C856.938 52.8251 855.762 52.1264 854.479 51.3655C845.51 46.0403 831.956 37.9927 818.359 32.0927C798.799 23.6051 789.381 24.159 784.925 26.1182C782.613 27.1346 780.809 30.075 780.33 33.6099C779.002 43.3909 779.456 54.5023 779.936 66.2657C781.261 98.7198 782.763 135.504 741.918 144.023C737.829 144.876 733.979 145.256 730.364 145.256C708.7 145.257 695.383 131.632 688.468 124.558C687.324 123.389 686.336 122.378 685.551 121.673C684.769 120.969 683.919 120.17 683.02 119.323C675.99 112.705 664.225 101.629 640.452 94.7964L638.894 94.3495C611.376 86.4495 589.641 80.2093 581.405 54.2372L581.224 53.6668V53.0644C581.224 41.3116 584.147 26.3589 606.936 14.956C623.111 6.73404 640.863 -3.51697 646.588 -21.0677C646.959 -22.3801 654.09 -48.1627 647.462 -62.9861C641.846 -75.5467 638.006 -76.5517 626.605 -79.535C624.52 -80.0805 622.157 -80.6987 619.548 -81.4529C603.866 -85.986 590.116 -96.8709 582.765 -110.57C576.766 -121.751 575.26 -134.182 578.409 -146.52C581.379 -158.152 588.026 -167.861 594.455 -177.25C596.823 -180.708 599.272 -184.285 601.458 -187.857C607.157 -197.17 611.707 -207.546 616.107 -217.581C619.845 -226.107 623.71 -234.923 628.318 -243.221C631.624 -249.174 631.377 -254.831 631.116 -260.821C630.806 -267.949 630.454 -276.028 636.81 -283.924C637.992 -285.393 640.633 -290.717 643.186 -295.865C652.615 -314.874 658.911 -326.482 665.375 -324.847C667.65 -324.691 669.56 -323.392 670.676 -321.216C672.371 -317.912 672.328 -312.514 670.542 -304.23C669.177 -297.898 666.738 -289.81 663.49 -280.841C657.695 -264.84 649.66 -247.05 644.383 -238.54C640.555 -232.367 637.963 -225.518 635.219 -218.266C633.264 -213.098 631.241 -207.754 628.729 -202.677C624.378 -193.887 618.629 -186.031 613.068 -178.434C607.92 -171.401 602.597 -164.128 598.591 -156.322C590.736 -141.019 588.864 -119.73 600.483 -108.65C606.327 -103.077 614.258 -101.078 622.655 -98.9612C627.94 -97.6294 633.404 -96.252 638.512 -93.901C649.092 -89.0323 657.675 -78.8712 662.683 -65.2894C668.676 -49.0331 668.771 -30.1209 662.933 -15.9338C657.377 -2.43414 646.702 7.68387 635.994 16.6066C627.071 24.0418 617.73 31.142 608.229 37.71C602.765 41.4875 598.162 45.0161 597.185 49.9542C595.664 57.6421 604.069 64.7328 612.522 68.0675C620.451 71.1956 629.502 72.0429 639.085 72.9402C654.62 74.3948 670.685 75.8992 682.449 87.792C686.753 92.1436 690.666 97.264 694.45 102.216C703.314 113.815 711.686 124.771 724.916 127.212C736.249 129.303 746.2 126.035 753.693 117.759C763.977 106.402 768.563 86.8484 765.103 69.1033C764.624 66.6464 764.056 64.1929 763.454 61.5952C760.969 50.8792 758.4 39.7983 762.529 29.1991C766.219 19.7262 775.327 12.3839 786.3 10.0373C796.754 7.80151 807.223 9.96103 815.174 12.0923C833.731 17.0659 851.137 25.4477 866.91 37.0047C883.364 49.0605 892.09 62.292 892.845 76.3315C893.447 87.518 888.931 97.7356 884.255 107.242C874.616 126.836 860.925 151.562 840.438 168.986C828.25 179.352 814.112 186.19 799.552 188.762C784.225 191.469 768.832 189.317 755.039 182.538L753.951 182.001C747.353 178.74 739.875 175.044 735.181 178.771C733.189 180.354 731.814 183.265 730.853 187.934C724.533 218.644 741.694 249.042 757.204 269.136C777.412 295.317 798.544 310.064 820.014 312.968C827.172 313.936 834.796 313.633 842.168 313.341C855.217 312.825 868.71 312.289 880.917 318.54C896.303 326.419 906.93 344.702 907.992 365.117C909.102 386.488 900.383 405.501 892.873 417.688C888.547 424.706 883.572 431.288 878.76 437.654C874.552 443.221 870.201 448.978 866.383 454.912C856.893 469.668 852.521 483.494 853.39 496.007L853.558 498.437L851.522 499.539C849.727 500.511 847.752 501 845.72 501ZM836.517 486.528C837.803 489.578 840.351 492.133 843.168 493.194C844.037 493.522 845.191 493.796 846.433 493.646C846.239 480.246 851.041 465.84 860.733 450.771C864.7 444.604 869.136 438.735 873.426 433.06C878.135 426.83 883.004 420.389 887.147 413.667C894.09 402.4 902.156 384.902 901.148 365.522C900.223 347.731 891.118 331.879 877.953 325.136C867.272 319.667 855.202 320.145 842.422 320.653C834.775 320.956 826.867 321.269 819.153 320.226C795.892 317.08 773.27 301.456 751.915 273.788C735.438 252.442 717.247 219.947 724.159 186.365C724.999 182.282 726.631 176.443 731.089 172.902C739.054 166.575 748.911 171.447 756.831 175.363L757.906 175.893C770.448 182.057 784.462 184.012 798.433 181.544C811.842 179.176 824.891 172.854 836.166 163.264C855.655 146.69 868.859 122.801 878.186 103.841C882.416 95.243 886.504 86.0688 886.002 76.751C885.375 65.0882 877.646 53.7451 863.031 43.0366C847.932 31.9733 831.269 23.9494 813.505 19.1881C806.252 17.2441 796.759 15.2625 787.646 17.211C778.882 19.0852 771.683 24.7552 768.857 32.0081C765.596 40.3812 767.787 49.8321 770.107 59.8378C770.697 62.3864 771.308 65.0219 771.813 67.6127C775.714 87.6254 770.413 109.821 758.621 122.844C749.479 132.941 737.422 136.945 723.749 134.421C707.994 131.515 698.409 118.971 689.139 106.84C685.324 101.848 681.72 97.1323 677.736 93.1041C667.706 82.9644 653.513 81.6355 638.486 80.2285C628.875 79.3284 618.937 78.3979 610.146 74.93C598.645 70.3932 588.104 60.4433 590.479 48.4418C592.125 40.1267 599.28 35.1806 604.504 31.5692C613.836 25.1175 623.012 18.143 631.777 10.8395C641.777 2.50641 651.713 -6.86115 656.658 -18.8765C661.789 -31.344 661.653 -48.1018 656.305 -62.6102C651.971 -74.3647 644.689 -83.0915 635.799 -87.1827C631.243 -89.2793 626.307 -90.5236 621.08 -91.8408C614.386 -93.5283 607.52 -95.2587 601.483 -98.9415C607.244 -94.2453 614.052 -90.6216 621.339 -88.5148C623.869 -87.7836 626.19 -87.1765 628.237 -86.6407C640.485 -83.4356 646.633 -81.8269 653.647 -66.1374C661.575 -48.4066 653.468 -20.0449 653.119 -18.8462L653.085 -18.7354C646.515 1.52405 627.33 12.6927 609.864 21.5711C588.723 32.1493 588.097 45.5593 588.079 52.4519C595.282 74.2539 614.358 79.7292 640.675 87.2842L642.233 87.7319C667.555 95.0094 680.074 106.795 687.554 113.836C688.422 114.654 689.243 115.427 689.966 116.076C690.919 116.933 691.981 118.019 693.21 119.276C701.001 127.245 715.503 142.079 740.603 136.843C775.658 129.531 774.41 98.9551 773.088 66.5844C772.616 55.0006 772.127 43.0226 773.547 32.5605C774.379 26.4257 777.739 21.365 782.314 19.3536C790.633 15.6962 803.267 17.6462 820.94 25.3151C834.923 31.3825 848.697 39.5603 857.811 44.9717C859.083 45.727 860.25 46.42 861.298 47.0354C867.562 50.7147 874.576 55.269 878.543 62.7783C884.574 74.1968 882.276 89.041 871.712 106.899C858.86 128.623 842.876 147.859 824.205 164.073C814.845 172.201 802.284 181.308 788.128 179.567C780.7 178.654 774.241 174.871 767.994 171.212C761.987 167.694 756.314 164.371 750.135 163.692C742.855 162.89 736.857 166.17 733.107 169.061C727.957 173.03 723.829 178.708 721.481 185.047C717.31 196.313 717.296 209.976 721.44 226.817C725.328 242.614 731.742 257.607 740.505 271.38C749.268 285.153 759.958 297.046 772.281 306.728C784.603 316.41 798.418 323.772 813.342 328.61C828.266 333.449 843.585 335.533 858.869 334.799L859.69 334.759C866.778 334.409 874.813 334.014 880.775 339.52C887.074 345.337 888.514 355.353 884.939 368.482C879.434 388.701 869.187 406.913 859.276 424.526C852.075 437.324 844.629 450.558 839.159 464.339C836.58 470.835 834.192 478.384 836.031 485.125C836.159 485.592 836.322 486.064 836.517 486.528ZM664.202 -317.563C663.551 -317.13 661.677 -315.461 658.022 -309.225C655.068 -304.185 651.974 -297.946 649.244 -292.442C645.697 -285.292 643.612 -281.15 642.009 -279.156C637.427 -273.464 637.663 -268.035 637.963 -261.161C638.245 -254.676 638.565 -247.326 634.214 -239.491C629.777 -231.499 625.983 -222.847 622.314 -214.479C617.814 -204.215 613.16 -193.601 607.196 -183.856C604.911 -180.123 602.409 -176.467 599.988 -172.933C593.648 -163.672 587.659 -154.925 585.022 -144.597C582.566 -134.977 583.464 -125.283 587.608 -116.41C586.16 -120.652 585.399 -125.375 585.361 -130.485C585.289 -140.204 587.853 -150.628 592.58 -159.837C596.854 -168.164 602.351 -175.675 607.667 -182.938C613.044 -190.284 618.603 -197.879 622.668 -206.094C625.017 -210.841 626.973 -216.009 628.864 -221.006C631.614 -228.275 634.459 -235.791 638.668 -242.579C643.836 -250.913 651.713 -268.464 657.397 -284.31C665.545 -307.026 665.532 -315.734 664.749 -317.545L664.271 -317.537L664.202 -317.563Z" fill="white"/>
</g>
<defs>
<clipPath id="clip0_1640_3829">
<rect width="1142" height="485" fill="white"/>
</clipPath>
</defs>
</svg>
